<svg xmlns="http://www.w3.org/2000/svg" width="1848" height="880" version="1.1">
<style type="text/css">
.l0{
 fill: #000000;
  stroke: #000000;
  stroke-linecap:round;
  stroke-linejoin:round;
  stroke-width: 1.70935;
}
.l1{
 fill: #00ccee;
  stroke: #00ccee;
  stroke-linecap:round;
  stroke-linejoin:round;
  stroke-width: 1.70935;
}
.l2{
  fill: none;
  stroke: #3f3f3f;
  stroke-linecap:round;
  stroke-linejoin:round;
  stroke-width: 1.70935;
}
.l3{
 fill: #cccccc; fill-opacity: 0.5;
  stroke: #cccccc;
  stroke-linecap:round;
  stroke-linejoin:round;
  stroke-width: 1.70935;
}
.l4{
 fill: #88dd00;
  stroke: #88dd00;
  stroke-linecap:round;
  stroke-linejoin:round;
  stroke-width: 1.70935;
}
.l5{
 fill: #bb2200;
  stroke: #bb2200;
  stroke-linecap:round;
  stroke-linejoin:round;
  stroke-width: 1.70935;
}
.l6{
 fill: #00ccee; fill-opacity: 0.5;
  stroke: #00ccee;
  stroke-linecap:round;
  stroke-linejoin:round;
  stroke-width: 1.70935;
}
.l7{
 fill: #ff0000; fill-opacity: 0.5;
  stroke: #ff0000;
  stroke-linecap:round;
  stroke-linejoin:round;
  stroke-width: 1.70935;
}
.l8{
 fill: #ffff00; fill-opacity: 0.5;
  stroke: #ffff00;
  stroke-linecap:round;
  stroke-linejoin:round;
  stroke-width: 1.70935;
}
.l9{
 fill: #ffffff; fill-opacity: 0.5;
  stroke: #ffffff;
  stroke-linecap:round;
  stroke-linejoin:round;
  stroke-width: 1.70935;
}
.l10{
 fill: #ff00ff;
  stroke: #ff00ff;
  stroke-linecap:round;
  stroke-linejoin:round;
  stroke-width: 1.70935;
}
.l11{
 fill: #00ff00; fill-opacity: 0.5;
  stroke: #00ff00;
  stroke-linecap:round;
  stroke-linejoin:round;
  stroke-width: 1.70935;
}
.l12{
 fill: #0044dd; fill-opacity: 0.5;
  stroke: #0044dd;
  stroke-linecap:round;
  stroke-linejoin:round;
  stroke-width: 1.70935;
}
.l13{
 fill: #aaaa00; fill-opacity: 0.5;
  stroke: #aaaa00;
  stroke-linecap:round;
  stroke-linejoin:round;
  stroke-width: 1.70935;
}
.l14{
  fill: none;
  stroke: #aaccaa;
  stroke-linecap:round;
  stroke-linejoin:round;
  stroke-width: 1.70935;
}
.l15{
 fill: #ff7777; fill-opacity: 0.5;
  stroke: #ff7777;
  stroke-linecap:round;
  stroke-linejoin:round;
  stroke-width: 1.70935;
}
.l16{
 fill: #bfff81; fill-opacity: 0.5;
  stroke: #bfff81;
  stroke-linecap:round;
  stroke-linejoin:round;
  stroke-width: 1.70935;
}
.l17{
  fill: none;
  stroke: #00ffcc;
  stroke-linecap:round;
  stroke-linejoin:round;
  stroke-width: 1.70935;
}
.l18{
 fill: #ce0097; fill-opacity: 0.5;
  stroke: #ce0097;
  stroke-linecap:round;
  stroke-linejoin:round;
  stroke-width: 1.70935;
}
.l19{
  fill: none;
  stroke: #d2d46b;
  stroke-linecap:round;
  stroke-linejoin:round;
  stroke-width: 1.70935;
}
.l20{
  fill: none;
  stroke: #ef6158;
  stroke-linecap:round;
  stroke-linejoin:round;
  stroke-width: 1.70935;
}
.l21{
  fill: none;
  stroke: #fdb200;
  stroke-linecap:round;
  stroke-linejoin:round;
  stroke-width: 1.70935;
}
text {font-family: Sans-Serif;}
</style>
<rect class="l0" x="0" y="0" width="1848" height="880"/>
<text fill="#00ccee"  xml:space="preserve" font-size="16.4604" transform="translate(247.498, 498.039)" >GND</text>
<text fill="#00ccee"  xml:space="preserve" font-size="16.4604" transform="translate(706.489, 513.867)" >GND</text>
<text fill="#00ccee"  xml:space="preserve" font-size="16.4604" transform="translate(247.998, 129.066)" >VDD</text>
<text fill="#00ccee"  xml:space="preserve" font-size="16.4604" transform="translate(706.989, 113.238)" >VDD</text>
<text fill="#00ccee"  xml:space="preserve" font-size="27.1596" transform="translate(1053.91, 310.416)" >Vout</text>
<text fill="#00ccee"  xml:space="preserve" font-size="27.1596" transform="translate(551, 268.367)" >V1</text>
<text fill="#00ccee"  xml:space="preserve" font-size="27.1596" transform="translate(551, 363.33)" >V2</text>
<text fill="#00ccee"  xml:space="preserve" font-size="27.1596" transform="translate(27.5271, 315.848)" >Vbp</text>
<text fill="#00ccee"  xml:space="preserve" font-size="16.4604" transform="translate(880.589, 830.412)" >GND</text>
<text fill="#00ccee"  xml:space="preserve" font-size="16.4604" transform="translate(881.089, 651.366)" >VDD</text>
<text fill="#00ccee"  xml:space="preserve" font-size="16.4604" transform="translate(1038.86, 830.412)" >GND</text>
<text fill="#00ccee"  xml:space="preserve" font-size="27.1596" transform="translate(1064.23, 672.032) rotate(270)" >V1</text>
<text fill="#00ccee"  xml:space="preserve" font-size="16.4604" transform="translate(1165.48, 830.412)" >GND</text>
<text fill="#00ccee"  xml:space="preserve" font-size="27.1596" transform="translate(1190.85, 672.032) rotate(270)" >V2</text>
<text fill="#00ccee"  xml:space="preserve" font-size="27.1596" transform="translate(1333.29, 672.032) rotate(270)" >Vbp</text>
<text fill="#00ccee"  xml:space="preserve" font-size="16.4604" transform="translate(1307.93, 830.412)" >GND</text>
<text fill="#00ccee"  xml:space="preserve" font-size="16.4604" transform="translate(959.726, 466.385)" >GND</text>
<text fill="#cccccc"  xml:space="preserve" font-size="16.4604" transform="translate(796.712, 342.734)" >X1</text>
<text fill="#cccccc"  xml:space="preserve" font-size="16.4604" transform="translate(195.275, 421.871)" >X2</text>
<text fill="#cccccc"  xml:space="preserve" font-size="16.4604" transform="translate(290.239, 374.389)" >Vbn</text>
<text fill="#cccccc"  xml:space="preserve" font-size="16.4604" transform="translate(290.239, 311.08)" >Vcn</text>
<text fill="#cccccc"  xml:space="preserve" font-size="16.4604" transform="translate(290.239, 247.77)" >Vcp</text>
<text fill="#cccccc"  xml:space="preserve" font-size="16.4604" transform="translate(211.102, 311.08)" >Vbp</text>
<text fill="#cccccc"  xml:space="preserve" font-size="16.4604" transform="translate(931.244, 724.96)" >VDD</text>
<text fill="#cccccc"  xml:space="preserve" font-size="16.4604" transform="translate(931.244, 748.7)" >1.8</text>
<text fill="#cccccc"  xml:space="preserve" font-size="16.4604" transform="translate(1089.52, 724.96)" >V1</text>
<text fill="#cccccc"  xml:space="preserve" font-size="16.4604" transform="translate(1089.52, 748.7)" >0.7</text>
<text fill="#cccccc"  xml:space="preserve" font-size="16.4604" transform="translate(1216.14, 724.96)" >V2</text>
<text fill="#cccccc"  xml:space="preserve" font-size="16.4604" transform="translate(1216.14, 748.7)" >0.5</text>
<text fill="#cccccc"  xml:space="preserve" font-size="16.4604" transform="translate(1358.58, 724.96)" >Ib</text>
<text fill="#cccccc"  xml:space="preserve" font-size="16.4604" transform="translate(1358.58, 748.7)" >1u</text>
<text fill="#cccccc"  xml:space="preserve" font-size="24.6906" transform="translate(1477.29, 650.926)" >TT_MODELS</text>
<text fill="#cccccc"  xml:space="preserve" font-size="24.6906" transform="translate(1366.49, 405.603)" >SPICE</text>
<text fill="#cccccc"  xml:space="preserve" font-size="24.6906" transform="translate(1382.32, 445.171)" >.dc V1 0.3 0.7 0.00001</text>
<text fill="#cccccc"  xml:space="preserve" font-size="24.6906" transform="translate(1382.32, 473.171)" >.save all</text>
<text fill="#cccccc"  xml:space="preserve" font-size="16.4604" transform="translate(1010.38, 360.932)" >Vout</text>
<text fill="#cccccc"  xml:space="preserve" font-size="16.4604" transform="translate(1010.38, 384.673)" >0.9</text>
<text fill="#cccccc"  xml:space="preserve" font-size="16.4604" transform="translate(944.604, 282.779) rotate(270)" >VIout</text>
<path class="l4" d="M646.353 209.083L646.353 399.011"/>
<path class="l4" d="M646.353 209.083L836.28 304.047"/>
<path class="l4" d="M646.353 399.011L836.28 304.047"/>
<path class="l4" d="M670.094 248.652L670.094 264.479"/>
<path class="l4" d="M662.18 256.565L678.007 256.565"/>
<path class="l4" d="M662.18 351.529L678.007 351.529"/>
<path class="l4" d="M598.871 256.565L646.353 256.565"/>
<path class="l4" d="M598.871 351.529L646.353 351.529"/>
<path class="l4" d="M836.28 304.047L883.762 304.047"/>
<path class="l4" d="M678.007 383.184L678.007 430.665"/>
<path class="l4" d="M678.007 177.429L678.007 224.911"/>
<path class="l4" d="M772.971 177.429L772.971 272.393"/>
<path class="l4" d="M772.971 335.702L772.971 430.665"/>
<path class="l4" d="M725.489 145.774L725.489 248.652"/>
<path class="l4" d="M725.489 359.443L725.489 462.32"/>
<path class="l4" d="M203.189 209.083L203.189 399.011"/>
<path class="l4" d="M203.189 209.083L329.807 209.083"/>
<path class="l4" d="M329.807 209.083L329.807 399.011"/>
<path class="l4" d="M203.189 399.011L329.807 399.011"/>
<path class="l4" d="M329.807 240.738L377.289 240.738"/>
<path class="l4" d="M329.807 304.047L377.289 304.047"/>
<path class="l4" d="M329.807 367.356L377.289 367.356"/>
<path class="l4" d="M155.707 304.047L203.189 304.047"/>
<path class="l4" d="M266.498 161.602L266.498 209.083"/>
<path class="l4" d="M266.498 399.011L266.498 446.493"/>
<path class="l4" d="M266.498 446.493L266.498 454.406"/>
<path class="l4" d="M251.66 454.406L281.336 454.406"/>
<path class="l4" d="M266.498 475.18L281.336 454.406"/>
<path class="l4" d="M251.66 454.406L266.498 475.18"/>
<path class="l4" d="M725.489 462.32L725.489 470.234"/>
<path class="l4" d="M710.651 470.234L740.327 470.234"/>
<path class="l4" d="M725.489 491.007L740.327 470.234"/>
<path class="l4" d="M710.651 470.234L725.489 491.007"/>
<path class="l4" d="M266.498 145.774L266.498 161.602"/>
<path class="l4" d="M251.66 145.774L281.336 145.774"/>
<circle class="l4" cx="266.498" cy="145.774" r="5.53955" />
<path class="l4" d="M725.489 129.947L725.489 145.774"/>
<path class="l4" d="M710.651 129.947L740.327 129.947"/>
<circle class="l4" cx="725.489" cy="129.947" r="5.53955" />
<path class="l4" d="M899.589 778.866L899.589 786.779"/>
<path class="l4" d="M884.751 786.779L914.427 786.779"/>
<path class="l4" d="M899.589 807.553L914.427 786.779"/>
<path class="l4" d="M884.751 786.779L899.589 807.553"/>
<path class="l4" d="M899.589 683.902L899.589 707.643"/>
<path class="l4" d="M899.589 755.125L899.589 778.866"/>
<path class="l4" d="M893.654 719.514L905.525 719.514"/>
<path class="l4" d="M899.589 713.578L899.589 725.449"/>
<path class="l4" d="M893.654 743.254L905.525 743.254"/>
<circle class="l4" cx="899.589" cy="731.384" r="23.7409" style="fill:none;"/>
<path class="l4" d="M899.589 668.075L899.589 683.902"/>
<path class="l4" d="M884.751 668.075L914.427 668.075"/>
<circle class="l4" cx="899.589" cy="668.075" r="5.53955" />
<path class="l4" d="M1057.86 778.866L1057.86 786.779"/>
<path class="l4" d="M1043.02 786.779L1072.7 786.779"/>
<path class="l4" d="M1057.86 807.553L1072.7 786.779"/>
<path class="l4" d="M1043.02 786.779L1057.86 807.553"/>
<path class="l4" d="M1057.86 683.902L1057.86 707.643"/>
<path class="l4" d="M1057.86 755.125L1057.86 778.866"/>
<path class="l4" d="M1051.93 719.514L1063.8 719.514"/>
<path class="l4" d="M1057.86 713.578L1057.86 725.449"/>
<path class="l4" d="M1051.93 743.254L1063.8 743.254"/>
<circle class="l4" cx="1057.86" cy="731.384" r="23.7409" style="fill:none;"/>
<path class="l4" d="M1184.48 778.866L1184.48 786.779"/>
<path class="l4" d="M1169.64 786.779L1199.32 786.779"/>
<path class="l4" d="M1184.48 807.553L1199.32 786.779"/>
<path class="l4" d="M1169.64 786.779L1184.48 807.553"/>
<path class="l4" d="M1184.48 683.902L1184.48 707.643"/>
<path class="l4" d="M1184.48 755.125L1184.48 778.866"/>
<path class="l4" d="M1178.55 719.514L1190.42 719.514"/>
<path class="l4" d="M1184.48 713.578L1184.48 725.449"/>
<path class="l4" d="M1178.55 743.254L1190.42 743.254"/>
<circle class="l4" cx="1184.48" cy="731.384" r="23.7409" style="fill:none;"/>
<path class="l4" d="M1326.93 683.902L1326.93 707.643"/>
<path class="l4" d="M1326.93 755.125L1326.93 778.866"/>
<path class="l4" d="M1326.93 713.578L1326.93 749.19"/>
<path class="l4" d="M1322.47 734.352L1323.96 737.319"/>
<path class="l4" d="M1323.96 737.319L1325.44 741.029"/>
<path class="l4" d="M1325.44 741.029L1326.18 743.254"/>
<path class="l4" d="M1326.18 743.254L1326.93 747.706"/>
<path class="l4" d="M1326.93 747.706L1327.67 743.254"/>
<path class="l4" d="M1327.67 743.254L1328.41 741.029"/>
<path class="l4" d="M1328.41 741.029L1329.89 737.319"/>
<path class="l4" d="M1329.89 737.319L1331.38 734.352"/>
<circle class="l4" cx="1326.93" cy="731.384" r="23.7409" style="fill:none;"/>
<path class="l4" d="M1326.93 778.866L1326.93 786.779"/>
<path class="l4" d="M1312.09 786.779L1341.76 786.779"/>
<path class="l4" d="M1326.93 807.553L1341.76 786.779"/>
<path class="l4" d="M1312.09 786.779L1326.93 807.553"/>
<path class="l4" d="M1485.2 715.557L1548.51 715.557"/>
<path class="l4" d="M1485.2 731.384L1516.85 731.384"/>
<path class="l4" d="M1485.2 747.211L1548.51 747.211"/>
<path class="l4" d="M1485.2 763.039L1532.68 763.039"/>
<path class="l4" d="M1485.2 778.866L1532.68 778.866"/>
<path class="l4" d="M1485.2 794.693L1595.99 794.693"/>
<path class="l4" d="M1485.2 810.52L1516.85 810.52"/>
<path class="l4" d="M1485.2 699.729L1564.34 699.729"/>
<path class="l4" d="M1485.2 683.902L1516.85 683.902"/>
<path class="l4" d="M1611.82 683.902L1627.64 683.902"/>
<path class="l4" d="M1627.64 683.902L1627.64 842.175"/>
<path class="l4" d="M1485.2 842.175L1627.64 842.175"/>
<path class="l4" d="M1485.2 826.348L1485.2 842.175"/>
<path class="l4" d="M1611.82 668.075L1611.82 826.348"/>
<path class="l4" d="M1469.37 826.348L1611.82 826.348"/>
<path class="l4" d="M1469.37 668.075L1469.37 826.348"/>
<path class="l4" d="M1469.37 668.075L1611.82 668.075"/>
<path class="l4" d="M1358.58 414.838L1469.37 414.838"/>
<path class="l4" d="M1358.58 414.838L1358.58 446.493"/>
<path class="l4" d="M978.726 319.874L978.726 343.615"/>
<path class="l4" d="M978.726 391.097L978.726 414.838"/>
<path class="l4" d="M972.791 355.486L984.661 355.486"/>
<path class="l4" d="M978.726 349.551L978.726 361.421"/>
<path class="l4" d="M972.791 379.227L984.661 379.227"/>
<circle class="l4" cx="978.726" cy="367.356" r="23.7409" style="fill:none;"/>
<path class="l4" d="M978.726 414.838L978.726 422.752"/>
<path class="l4" d="M963.888 422.752L993.564 422.752"/>
<path class="l4" d="M978.726 443.525L993.564 422.752"/>
<path class="l4" d="M963.888 422.752L978.726 443.525"/>
<path class="l4" d="M931.244 304.047L947.071 304.047"/>
<path class="l4" d="M921.352 295.144L956.963 295.144"/>
<path class="l4" d="M942.125 299.596L945.093 298.112"/>
<path class="l4" d="M945.093 298.112L948.802 296.628"/>
<path class="l4" d="M948.802 296.628L951.028 295.886"/>
<path class="l4" d="M951.028 295.886L955.479 295.144"/>
<path class="l4" d="M951.028 294.402L955.479 295.144"/>
<path class="l4" d="M948.802 293.66L951.028 294.402"/>
<path class="l4" d="M945.093 292.177L948.802 293.66"/>
<path class="l4" d="M942.125 290.693L945.093 292.177"/>
<path class="l5" d="M721.532 141.817L729.446 141.817L729.446 149.731L721.532 149.731L721.532 141.817z"/>
<path class="l5" d="M769.014 173.472L776.928 173.472L776.928 181.386L769.014 181.386L769.014 173.472z"/>
<path class="l5" d="M674.05 173.472L681.964 173.472L681.964 181.386L674.05 181.386L674.05 173.472z"/>
<path class="l5" d="M879.805 300.09L887.719 300.09L887.719 308.004L879.805 308.004L879.805 300.09z"/>
<path class="l5" d="M769.014 426.709L776.928 426.709L776.928 434.622L769.014 434.622L769.014 426.709z"/>
<path class="l5" d="M674.05 426.709L681.964 426.709L681.964 434.622L674.05 434.622L674.05 426.709z"/>
<path class="l5" d="M594.914 252.608L602.828 252.608L602.828 260.522L594.914 260.522L594.914 252.608z"/>
<path class="l5" d="M594.914 347.572L602.828 347.572L602.828 355.486L594.914 355.486L594.914 347.572z"/>
<path class="l5" d="M721.532 458.363L729.446 458.363L729.446 466.277L721.532 466.277L721.532 458.363z"/>
<path class="l5" d="M262.541 157.645L270.455 157.645L270.455 165.558L262.541 165.558L262.541 157.645z"/>
<path class="l5" d="M373.332 236.781L381.246 236.781L381.246 244.695L373.332 244.695L373.332 236.781z"/>
<path class="l5" d="M151.75 300.09L159.664 300.09L159.664 308.004L151.75 308.004L151.75 300.09z"/>
<path class="l5" d="M373.332 300.09L381.246 300.09L381.246 308.004L373.332 308.004L373.332 300.09z"/>
<path class="l5" d="M373.332 363.399L381.246 363.399L381.246 371.313L373.332 371.313L373.332 363.399z"/>
<path class="l5" d="M262.541 442.536L270.455 442.536L270.455 450.45L262.541 450.45L262.541 442.536z"/>
<path class="l5" d="M265.706 445.701L267.289 445.701L267.289 447.284L265.706 447.284L265.706 445.701z"/>
<path class="l5" d="M724.698 461.529L726.281 461.529L726.281 463.111L724.698 463.111L724.698 461.529z"/>
<path class="l5" d="M265.706 160.81L267.289 160.81L267.289 162.393L265.706 162.393L265.706 160.81z"/>
<path class="l5" d="M724.698 144.983L726.281 144.983L726.281 146.566L724.698 146.566L724.698 144.983z"/>
<path class="l5" d="M1040.06 302.069L1044.01 302.069L1044.01 306.026L1040.06 306.026L1040.06 302.069z"/>
<path class="l5" d="M596.892 254.587L600.849 254.587L600.849 258.544L596.892 258.544L596.892 254.587z"/>
<path class="l5" d="M596.892 349.551L600.849 349.551L600.849 353.507L596.892 353.507L596.892 349.551z"/>
<path class="l5" d="M90.4191 302.069L94.376 302.069L94.376 306.026L90.4191 306.026L90.4191 302.069z"/>
<path class="l5" d="M898.798 778.074L900.381 778.074L900.381 779.657L898.798 779.657L898.798 778.074z"/>
<path class="l5" d="M898.798 683.111L900.381 683.111L900.381 684.693L898.798 684.693L898.798 683.111z"/>
<path class="l5" d="M898.798 778.074L900.381 778.074L900.381 779.657L898.798 779.657L898.798 778.074z"/>
<path class="l5" d="M898.798 683.111L900.381 683.111L900.381 684.693L898.798 684.693L898.798 683.111z"/>
<path class="l5" d="M1057.07 778.074L1058.65 778.074L1058.65 779.657L1057.07 779.657L1057.07 778.074z"/>
<path class="l5" d="M1057.07 683.111L1058.65 683.111L1058.65 684.693L1057.07 684.693L1057.07 683.111z"/>
<path class="l5" d="M1057.07 778.074L1058.65 778.074L1058.65 779.657L1057.07 779.657L1057.07 778.074z"/>
<path class="l5" d="M1055.88 681.924L1059.84 681.924L1059.84 685.881L1055.88 685.881L1055.88 681.924z"/>
<path class="l5" d="M1183.69 778.074L1185.27 778.074L1185.27 779.657L1183.69 779.657L1183.69 778.074z"/>
<path class="l5" d="M1183.69 683.111L1185.27 683.111L1185.27 684.693L1183.69 684.693L1183.69 683.111z"/>
<path class="l5" d="M1183.69 778.074L1185.27 778.074L1185.27 779.657L1183.69 779.657L1183.69 778.074z"/>
<path class="l5" d="M1182.5 681.924L1186.46 681.924L1186.46 685.881L1182.5 685.881L1182.5 681.924z"/>
<path class="l5" d="M1326.13 683.111L1327.72 683.111L1327.72 684.693L1326.13 684.693L1326.13 683.111z"/>
<path class="l5" d="M1326.13 778.074L1327.72 778.074L1327.72 779.657L1326.13 779.657L1326.13 778.074z"/>
<path class="l5" d="M1324.95 681.924L1328.9 681.924L1328.9 685.881L1324.95 685.881L1324.95 681.924z"/>
<path class="l5" d="M1326.13 778.074L1327.72 778.074L1327.72 779.657L1326.13 779.657L1326.13 778.074z"/>
<path class="l5" d="M977.934 319.083L979.517 319.083L979.517 320.666L977.934 320.666L977.934 319.083z"/>
<path class="l5" d="M977.934 414.047L979.517 414.047L979.517 415.63L977.934 415.63L977.934 414.047z"/>
<path class="l5" d="M977.934 414.047L979.517 414.047L979.517 415.63L977.934 415.63L977.934 414.047z"/>
<path class="l5" d="M930.453 303.256L932.035 303.256L932.035 304.839L930.453 304.839L930.453 303.256z"/>
<path class="l5" d="M946.28 303.256L947.863 303.256L947.863 304.839L946.28 304.839L946.28 303.256z"/>
<path class="l1" d="M678.007 145.774L678.007 177.429"/>
<path class="l1" d="M377.289 304.047L456.425 304.047"/>
<path class="l1" d="M456.425 304.047L456.425 462.32"/>
<path class="l1" d="M456.425 462.32L678.007 462.32"/>
<path class="l1" d="M678.007 430.665L678.007 462.32"/>
<path class="l1" d="M377.289 240.738L456.425 240.738"/>
<path class="l1" d="M456.425 145.774L456.425 240.738"/>
<path class="l1" d="M456.425 145.774L678.007 145.774"/>
<path class="l1" d="M377.289 367.356L377.289 557.284"/>
<path class="l1" d="M377.289 557.284L772.971 557.284"/>
<path class="l1" d="M772.971 430.665L772.971 557.284"/>
<path class="l1" d="M124.052 304.047L155.707 304.047"/>
<path class="l1" d="M124.052 19.1559L124.052 304.047"/>
<path class="l1" d="M124.052 19.1559L772.971 19.1559"/>
<path class="l1" d="M772.971 19.1559L772.971 177.429"/>
<path class="l1" d="M92.3975 304.047L124.052 304.047"/>
<path class="l1" d="M883.762 304.047L931.244 304.047"/>
<path class="l1" d="M947.071 304.047L1042.03 304.047"/>
<path class="l1" d="M978.726 304.047L978.726 319.874"/>
<circle class="l1" cx="124.052" cy="304.047" r="6.33092"/>
<circle class="l1" cx="124.052" cy="304.047" r="6.33092"/>
<circle class="l1" cx="124.052" cy="304.047" r="6.33092"/>
<circle class="l1" cx="978.726" cy="304.047" r="6.33092"/>
</svg>
