<svg xmlns="http://www.w3.org/2000/svg" width="1848" height="880" version="1.1">
<style type="text/css">
.l0{
 fill: #000000;
  stroke: #000000;
  stroke-linecap:round;
  stroke-linejoin:round;
  stroke-width: 0.788027;
}
.l1{
 fill: #00ccee;
  stroke: #00ccee;
  stroke-linecap:round;
  stroke-linejoin:round;
  stroke-width: 0.788027;
}
.l2{
  fill: none;
  stroke: #3f3f3f;
  stroke-linecap:round;
  stroke-linejoin:round;
  stroke-width: 0.788027;
}
.l3{
 fill: #cccccc; fill-opacity: 0.5;
  stroke: #cccccc;
  stroke-linecap:round;
  stroke-linejoin:round;
  stroke-width: 0.788027;
}
.l4{
 fill: #88dd00;
  stroke: #88dd00;
  stroke-linecap:round;
  stroke-linejoin:round;
  stroke-width: 0.788027;
}
.l5{
 fill: #bb2200;
  stroke: #bb2200;
  stroke-linecap:round;
  stroke-linejoin:round;
  stroke-width: 0.788027;
}
.l6{
 fill: #00ccee; fill-opacity: 0.5;
  stroke: #00ccee;
  stroke-linecap:round;
  stroke-linejoin:round;
  stroke-width: 0.788027;
}
.l7{
 fill: #ff0000; fill-opacity: 0.5;
  stroke: #ff0000;
  stroke-linecap:round;
  stroke-linejoin:round;
  stroke-width: 0.788027;
}
.l8{
 fill: #ffff00; fill-opacity: 0.5;
  stroke: #ffff00;
  stroke-linecap:round;
  stroke-linejoin:round;
  stroke-width: 0.788027;
}
.l9{
 fill: #ffffff; fill-opacity: 0.5;
  stroke: #ffffff;
  stroke-linecap:round;
  stroke-linejoin:round;
  stroke-width: 0.788027;
}
.l10{
 fill: #ff00ff;
  stroke: #ff00ff;
  stroke-linecap:round;
  stroke-linejoin:round;
  stroke-width: 0.788027;
}
.l11{
 fill: #00ff00; fill-opacity: 0.5;
  stroke: #00ff00;
  stroke-linecap:round;
  stroke-linejoin:round;
  stroke-width: 0.788027;
}
.l12{
 fill: #0044dd; fill-opacity: 0.5;
  stroke: #0044dd;
  stroke-linecap:round;
  stroke-linejoin:round;
  stroke-width: 0.788027;
}
.l13{
 fill: #aaaa00; fill-opacity: 0.5;
  stroke: #aaaa00;
  stroke-linecap:round;
  stroke-linejoin:round;
  stroke-width: 0.788027;
}
.l14{
  fill: none;
  stroke: #aaccaa;
  stroke-linecap:round;
  stroke-linejoin:round;
  stroke-width: 0.788027;
}
.l15{
 fill: #ff7777; fill-opacity: 0.5;
  stroke: #ff7777;
  stroke-linecap:round;
  stroke-linejoin:round;
  stroke-width: 0.788027;
}
.l16{
 fill: #bfff81; fill-opacity: 0.5;
  stroke: #bfff81;
  stroke-linecap:round;
  stroke-linejoin:round;
  stroke-width: 0.788027;
}
.l17{
  fill: none;
  stroke: #00ffcc;
  stroke-linecap:round;
  stroke-linejoin:round;
  stroke-width: 0.788027;
}
.l18{
 fill: #ce0097; fill-opacity: 0.5;
  stroke: #ce0097;
  stroke-linecap:round;
  stroke-linejoin:round;
  stroke-width: 0.788027;
}
.l19{
  fill: none;
  stroke: #d2d46b;
  stroke-linecap:round;
  stroke-linejoin:round;
  stroke-width: 0.788027;
}
.l20{
  fill: none;
  stroke: #ef6158;
  stroke-linecap:round;
  stroke-linejoin:round;
  stroke-width: 0.788027;
}
.l21{
  fill: none;
  stroke: #fdb200;
  stroke-linecap:round;
  stroke-linejoin:round;
  stroke-width: 0.788027;
}
text {font-family: Sans-Serif;}
</style>
<rect class="l0" x="0" y="0" width="1848" height="880"/>
<text fill="#00ccee"  xml:space="preserve" font-size="12.5209" transform="translate(43.0929, 24.7049)" >VP</text>
<text fill="#00ccee"  xml:space="preserve" font-size="12.5209" transform="translate(27.4998, 863.808)" >VN</text>
<text fill="#00ccee"  xml:space="preserve" font-size="12.5209" transform="translate(964.75, 354.642)" >Vcp</text>
<text fill="#00ccee"  xml:space="preserve" font-size="12.5209" transform="translate(964.75, 464.09)" >Vbn</text>
<text fill="#00ccee"  xml:space="preserve" font-size="12.5209" transform="translate(964.75, 726.766)" >Vcn</text>
<text fill="#00ccee"  xml:space="preserve" font-size="12.5209" transform="translate(35.0929, 134.153)" >Vbp</text>
<text fill="#cccccc"  xml:space="preserve" font-size="7.58841" transform="translate(257.552, 90.6301) rotate(270)" >M1a</text>
<text fill="#cccccc"  xml:space="preserve" font-size="7.58841" transform="translate(268.497, 90.6301) rotate(270)" >pfet_01v8</text>
<text fill="#aaaa00"  xml:space="preserve" font-size="7.58841" transform="translate(279.441, 90.6301) rotate(270)" >1 x 6 / 0.5</text>
<text fill="#cccccc"  xml:space="preserve" font-size="7.58841" transform="translate(330.517, 90.6301) rotate(270)" >M2a</text>
<text fill="#cccccc"  xml:space="preserve" font-size="7.58841" transform="translate(341.462, 90.6301) rotate(270)" >pfet_01v8</text>
<text fill="#aaaa00"  xml:space="preserve" font-size="7.58841" transform="translate(352.407, 90.6301) rotate(270)" >1 x 6 / 0.5</text>
<text fill="#cccccc"  xml:space="preserve" font-size="7.58841" transform="translate(403.483, 90.6301) rotate(270)" >M3a</text>
<text fill="#cccccc"  xml:space="preserve" font-size="7.58841" transform="translate(414.427, 90.6301) rotate(270)" >pfet_01v8</text>
<text fill="#aaaa00"  xml:space="preserve" font-size="7.58841" transform="translate(425.372, 90.6301) rotate(270)" >1 x 6 / 0.5</text>
<text fill="#cccccc"  xml:space="preserve" font-size="7.58841" transform="translate(476.448, 90.6301) rotate(270)" >M4a</text>
<text fill="#cccccc"  xml:space="preserve" font-size="7.58841" transform="translate(487.393, 90.6301) rotate(270)" >pfet_01v8</text>
<text fill="#aaaa00"  xml:space="preserve" font-size="7.58841" transform="translate(498.338, 90.6301) rotate(270)" >1 x 6 / 0.5</text>
<text fill="#cccccc"  xml:space="preserve" font-size="7.58841" transform="translate(549.414, 90.6301) rotate(270)" >M4b</text>
<text fill="#cccccc"  xml:space="preserve" font-size="7.58841" transform="translate(560.358, 90.6301) rotate(270)" >pfet_01v8</text>
<text fill="#aaaa00"  xml:space="preserve" font-size="7.58841" transform="translate(571.303, 90.6301) rotate(270)" >1 x 6 / 0.5</text>
<text fill="#cccccc"  xml:space="preserve" font-size="7.58841" transform="translate(622.379, 90.6301) rotate(270)" >M3b</text>
<text fill="#cccccc"  xml:space="preserve" font-size="7.58841" transform="translate(633.324, 90.6301) rotate(270)" >pfet_01v8</text>
<text fill="#aaaa00"  xml:space="preserve" font-size="7.58841" transform="translate(644.269, 90.6301) rotate(270)" >1 x 6 / 0.5</text>
<text fill="#cccccc"  xml:space="preserve" font-size="7.58841" transform="translate(695.344, 90.6301) rotate(270)" >M2b</text>
<text fill="#cccccc"  xml:space="preserve" font-size="7.58841" transform="translate(706.289, 90.6301) rotate(270)" >pfet_01v8</text>
<text fill="#aaaa00"  xml:space="preserve" font-size="7.58841" transform="translate(717.234, 90.6301) rotate(270)" >1 x 6 / 0.5</text>
<text fill="#cccccc"  xml:space="preserve" font-size="7.58841" transform="translate(768.31, 90.6301) rotate(270)" >M1b</text>
<text fill="#cccccc"  xml:space="preserve" font-size="7.58841" transform="translate(779.255, 90.6301) rotate(270)" >pfet_01v8</text>
<text fill="#aaaa00"  xml:space="preserve" font-size="7.58841" transform="translate(790.2, 90.6301) rotate(270)" >1 x 6 / 0.5</text>
<text fill="#cccccc"  xml:space="preserve" font-size="7.58841" transform="translate(330.517, 294.933) rotate(270)" >M7a</text>
<text fill="#cccccc"  xml:space="preserve" font-size="7.58841" transform="translate(341.462, 294.933) rotate(270)" >pfet_01v8</text>
<text fill="#aaaa00"  xml:space="preserve" font-size="7.58841" transform="translate(352.407, 294.933) rotate(270)" >1 x 6 / 0.5</text>
<text fill="#cccccc"  xml:space="preserve" font-size="7.58841" transform="translate(403.483, 294.933) rotate(270)" >M6a</text>
<text fill="#cccccc"  xml:space="preserve" font-size="7.58841" transform="translate(414.427, 294.933) rotate(270)" >pfet_01v8</text>
<text fill="#aaaa00"  xml:space="preserve" font-size="7.58841" transform="translate(425.372, 294.933) rotate(270)" >1 x 6 / 0.5</text>
<text fill="#cccccc"  xml:space="preserve" font-size="7.58841" transform="translate(476.448, 294.933) rotate(270)" >M5a</text>
<text fill="#cccccc"  xml:space="preserve" font-size="7.58841" transform="translate(487.393, 294.933) rotate(270)" >pfet_01v8</text>
<text fill="#aaaa00"  xml:space="preserve" font-size="7.58841" transform="translate(498.338, 294.933) rotate(270)" >1 x 6 / 0.5</text>
<text fill="#cccccc"  xml:space="preserve" font-size="7.58841" transform="translate(549.414, 294.933) rotate(270)" >M5b</text>
<text fill="#cccccc"  xml:space="preserve" font-size="7.58841" transform="translate(560.358, 294.933) rotate(270)" >pfet_01v8</text>
<text fill="#aaaa00"  xml:space="preserve" font-size="7.58841" transform="translate(571.303, 294.933) rotate(270)" >1 x 6 / 0.5</text>
<text fill="#cccccc"  xml:space="preserve" font-size="7.58841" transform="translate(622.379, 294.933) rotate(270)" >M6b</text>
<text fill="#cccccc"  xml:space="preserve" font-size="7.58841" transform="translate(633.324, 294.933) rotate(270)" >pfet_01v8</text>
<text fill="#aaaa00"  xml:space="preserve" font-size="7.58841" transform="translate(644.269, 294.933) rotate(270)" >1 x 6 / 0.5</text>
<text fill="#cccccc"  xml:space="preserve" font-size="7.58841" transform="translate(695.344, 294.933) rotate(270)" >M7b</text>
<text fill="#cccccc"  xml:space="preserve" font-size="7.58841" transform="translate(706.289, 294.933) rotate(270)" >pfet_01v8</text>
<text fill="#aaaa00"  xml:space="preserve" font-size="7.58841" transform="translate(717.234, 294.933) rotate(270)" >1 x 6 / 0.5</text>
<text fill="#cccccc"  xml:space="preserve" font-size="7.58841" transform="translate(498.634, 538.126) rotate(270)" >M8a</text>
<text fill="#cccccc"  xml:space="preserve" font-size="7.58841" transform="translate(487.689, 560.126) rotate(270)" >nfet_01v8</text>
<text fill="#aaaa00"  xml:space="preserve" font-size="7.58841" transform="translate(476.744, 558.126) rotate(270)" >1 x 6 / 0.5</text>
<text fill="#cccccc"  xml:space="preserve" font-size="7.58841" transform="translate(571.599, 538.126) rotate(270)" >M8b</text>
<text fill="#cccccc"  xml:space="preserve" font-size="7.58841" transform="translate(560.654, 560.126) rotate(270)" >nfet_01v8</text>
<text fill="#aaaa00"  xml:space="preserve" font-size="7.58841" transform="translate(549.71, 558.126) rotate(270)" >1 x 6 / 0.5</text>
<text fill="#cccccc"  xml:space="preserve" font-size="7.58841" transform="translate(352.703, 543.126) rotate(270)" >M10a</text>
<text fill="#cccccc"  xml:space="preserve" font-size="7.58841" transform="translate(341.758, 560.126) rotate(270)" >nfet_01v8</text>
<text fill="#aaaa00"  xml:space="preserve" font-size="7.58841" transform="translate(330.813, 558.126) rotate(270)" >1 x 6 / 0.5</text>
<text fill="#cccccc"  xml:space="preserve" font-size="7.58841" transform="translate(425.668, 538.126) rotate(270)" >M9a</text>
<text fill="#cccccc"  xml:space="preserve" font-size="7.58841" transform="translate(414.724, 560.126) rotate(270)" >nfet_01v8</text>
<text fill="#aaaa00"  xml:space="preserve" font-size="7.58841" transform="translate(403.779, 558.126) rotate(270)" >1 x 6 / 0.5</text>
<text fill="#cccccc"  xml:space="preserve" font-size="7.58841" transform="translate(644.565, 538.126) rotate(270)" >M9b</text>
<text fill="#cccccc"  xml:space="preserve" font-size="7.58841" transform="translate(633.62, 560.126) rotate(270)" >nfet_01v8</text>
<text fill="#aaaa00"  xml:space="preserve" font-size="7.58841" transform="translate(622.675, 558.126) rotate(270)" >1 x 6 / 0.5</text>
<text fill="#cccccc"  xml:space="preserve" font-size="7.58841" transform="translate(717.53, 543.126) rotate(270)" >M10b</text>
<text fill="#cccccc"  xml:space="preserve" font-size="7.58841" transform="translate(706.585, 560.126) rotate(270)" >nfet_01v8</text>
<text fill="#aaaa00"  xml:space="preserve" font-size="7.58841" transform="translate(695.641, 558.126) rotate(270)" >1 x 6 / 0.5</text>
<text fill="#cccccc"  xml:space="preserve" font-size="7.58841" transform="translate(498.634, 798.505) rotate(270)" >M11a</text>
<text fill="#cccccc"  xml:space="preserve" font-size="7.58841" transform="translate(487.689, 815.505) rotate(270)" >nfet_01v8</text>
<text fill="#aaaa00"  xml:space="preserve" font-size="7.58841" transform="translate(476.744, 813.505) rotate(270)" >1 x 6 / 0.5</text>
<text fill="#cccccc"  xml:space="preserve" font-size="7.58841" transform="translate(571.599, 798.505) rotate(270)" >M11b</text>
<text fill="#cccccc"  xml:space="preserve" font-size="7.58841" transform="translate(560.654, 815.505) rotate(270)" >nfet_01v8</text>
<text fill="#aaaa00"  xml:space="preserve" font-size="7.58841" transform="translate(549.71, 813.505) rotate(270)" >1 x 6 / 0.5</text>
<text fill="#cccccc"  xml:space="preserve" font-size="7.58841" transform="translate(352.703, 798.505) rotate(270)" >M13a</text>
<text fill="#cccccc"  xml:space="preserve" font-size="7.58841" transform="translate(341.758, 815.505) rotate(270)" >nfet_01v8</text>
<text fill="#aaaa00"  xml:space="preserve" font-size="7.58841" transform="translate(330.813, 813.505) rotate(270)" >1 x 6 / 0.5</text>
<text fill="#cccccc"  xml:space="preserve" font-size="7.58841" transform="translate(425.668, 798.505) rotate(270)" >M12a</text>
<text fill="#cccccc"  xml:space="preserve" font-size="7.58841" transform="translate(414.724, 815.505) rotate(270)" >nfet_01v8</text>
<text fill="#aaaa00"  xml:space="preserve" font-size="7.58841" transform="translate(403.779, 813.505) rotate(270)" >1 x 6 / 0.5</text>
<text fill="#cccccc"  xml:space="preserve" font-size="7.58841" transform="translate(644.565, 798.505) rotate(270)" >M12b</text>
<text fill="#cccccc"  xml:space="preserve" font-size="7.58841" transform="translate(633.62, 815.505) rotate(270)" >nfet_01v8</text>
<text fill="#aaaa00"  xml:space="preserve" font-size="7.58841" transform="translate(622.675, 813.505) rotate(270)" >1 x 6 / 0.5</text>
<text fill="#cccccc"  xml:space="preserve" font-size="7.58841" transform="translate(717.53, 798.505) rotate(270)" >M13b</text>
<text fill="#cccccc"  xml:space="preserve" font-size="7.58841" transform="translate(706.585, 815.505) rotate(270)" >nfet_01v8</text>
<text fill="#aaaa00"  xml:space="preserve" font-size="7.58841" transform="translate(695.641, 813.505) rotate(270)" >1 x 6 / 0.5</text>
<text fill="#cccccc"  xml:space="preserve" font-size="7.58841" transform="translate(874.406, 114.927) rotate(270)" >M15</text>
<text fill="#cccccc"  xml:space="preserve" font-size="7.58841" transform="translate(863.461, 136.927) rotate(270)" >pfet_01v8</text>
<text fill="#aaaa00"  xml:space="preserve" font-size="7.58841" transform="translate(852.516, 134.927) rotate(270)" >1 x 6 / 0.5</text>
<text fill="#cccccc"  xml:space="preserve" font-size="7.58841" transform="translate(279.737, 793.505) rotate(270)" >M25</text>
<text fill="#cccccc"  xml:space="preserve" font-size="7.58841" transform="translate(268.793, 815.505) rotate(270)" >nfet_01v8</text>
<text fill="#aaaa00"  xml:space="preserve" font-size="7.58841" transform="translate(257.848, 813.505) rotate(270)" >1 x 6 / 0.5</text>
<text fill="#cccccc"  xml:space="preserve" font-size="7.58841" transform="translate(206.772, 793.505) rotate(270)" >M24</text>
<text fill="#cccccc"  xml:space="preserve" font-size="7.58841" transform="translate(195.827, 815.505) rotate(270)" >nfet_01v8</text>
<text fill="#aaaa00"  xml:space="preserve" font-size="7.58841" transform="translate(184.882, 813.505) rotate(270)" >1 x 6 / 0.5</text>
<text fill="#cccccc"  xml:space="preserve" font-size="7.58841" transform="translate(790.496, 793.505) rotate(270)" >M26</text>
<text fill="#cccccc"  xml:space="preserve" font-size="7.58841" transform="translate(779.551, 815.505) rotate(270)" >nfet_01v8</text>
<text fill="#aaaa00"  xml:space="preserve" font-size="7.58841" transform="translate(768.606, 813.505) rotate(270)" >1 x 6 / 0.5</text>
<text fill="#cccccc"  xml:space="preserve" font-size="7.58841" transform="translate(863.461, 793.505) rotate(270)" >M27</text>
<text fill="#cccccc"  xml:space="preserve" font-size="7.58841" transform="translate(852.516, 815.505) rotate(270)" >nfet_01v8</text>
<text fill="#aaaa00"  xml:space="preserve" font-size="7.58841" transform="translate(841.571, 813.505) rotate(270)" >1 x 6 / 0.5</text>
<text fill="#cccccc"  xml:space="preserve" font-size="7.58841" transform="translate(279.737, 538.126) rotate(270)" >M21</text>
<text fill="#cccccc"  xml:space="preserve" font-size="7.58841" transform="translate(268.793, 560.126) rotate(270)" >nfet_01v8</text>
<text fill="#aaaa00"  xml:space="preserve" font-size="7.58841" transform="translate(257.848, 558.126) rotate(270)" >1 x 6 / 0.5</text>
<text fill="#cccccc"  xml:space="preserve" font-size="7.58841" transform="translate(206.772, 538.126) rotate(270)" >M20</text>
<text fill="#cccccc"  xml:space="preserve" font-size="7.58841" transform="translate(195.827, 560.126) rotate(270)" >nfet_01v8</text>
<text fill="#aaaa00"  xml:space="preserve" font-size="7.58841" transform="translate(184.882, 558.126) rotate(270)" >1 x 6 / 0.5</text>
<text fill="#cccccc"  xml:space="preserve" font-size="7.58841" transform="translate(863.461, 538.126) rotate(270)" >M23</text>
<text fill="#cccccc"  xml:space="preserve" font-size="7.58841" transform="translate(852.516, 560.126) rotate(270)" >nfet_01v8</text>
<text fill="#aaaa00"  xml:space="preserve" font-size="7.58841" transform="translate(841.571, 558.126) rotate(270)" >1 x 6 / 0.5</text>
<text fill="#cccccc"  xml:space="preserve" font-size="7.58841" transform="translate(790.496, 538.126) rotate(270)" >M22</text>
<text fill="#cccccc"  xml:space="preserve" font-size="7.58841" transform="translate(779.551, 560.126) rotate(270)" >nfet_01v8</text>
<text fill="#aaaa00"  xml:space="preserve" font-size="7.58841" transform="translate(768.606, 558.126) rotate(270)" >1 x 6 / 0.5</text>
<text fill="#cccccc"  xml:space="preserve" font-size="7.58841" transform="translate(217.717, 114.927) rotate(270)" >M14</text>
<text fill="#cccccc"  xml:space="preserve" font-size="7.58841" transform="translate(206.772, 136.927) rotate(270)" >pfet_01v8</text>
<text fill="#aaaa00"  xml:space="preserve" font-size="7.58841" transform="translate(195.827, 134.927) rotate(270)" >1 x 6 / 0.5</text>
<text fill="#cccccc"  xml:space="preserve" font-size="7.58841" transform="translate(257.552, 294.933) rotate(270)" >M17</text>
<text fill="#cccccc"  xml:space="preserve" font-size="7.58841" transform="translate(268.497, 294.933) rotate(270)" >pfet_01v8</text>
<text fill="#aaaa00"  xml:space="preserve" font-size="7.58841" transform="translate(279.441, 294.933) rotate(270)" >1 x 6 / 0.5</text>
<text fill="#cccccc"  xml:space="preserve" font-size="7.58841" transform="translate(184.586, 294.933) rotate(270)" >M16</text>
<text fill="#cccccc"  xml:space="preserve" font-size="7.58841" transform="translate(195.531, 294.933) rotate(270)" >pfet_01v8</text>
<text fill="#aaaa00"  xml:space="preserve" font-size="7.58841" transform="translate(206.476, 294.933) rotate(270)" >1 x 6 / 0.5</text>
<text fill="#cccccc"  xml:space="preserve" font-size="7.58841" transform="translate(768.31, 294.933) rotate(270)" >M18</text>
<text fill="#cccccc"  xml:space="preserve" font-size="7.58841" transform="translate(779.255, 294.933) rotate(270)" >pfet_01v8</text>
<text fill="#aaaa00"  xml:space="preserve" font-size="7.58841" transform="translate(790.2, 294.933) rotate(270)" >1 x 6 / 0.5</text>
<text fill="#cccccc"  xml:space="preserve" font-size="7.58841" transform="translate(841.275, 294.933) rotate(270)" >M19</text>
<text fill="#cccccc"  xml:space="preserve" font-size="7.58841" transform="translate(852.22, 294.933) rotate(270)" >pfet_01v8</text>
<text fill="#aaaa00"  xml:space="preserve" font-size="7.58841" transform="translate(863.165, 294.933) rotate(270)" >1 x 6 / 0.5</text>
<path class="l4" d="M249.689 94.2783L260.634 94.2783"/>
<path class="l4" d="M260.634 94.2783L260.634 105.223"/>
<path class="l4" d="M256.53 105.223L286.628 105.223"/>
<path class="l4" d="M282.524 94.2783L282.524 105.223"/>
<path class="l4" d="M282.524 94.2783L293.468 94.2783"/>
<path class="l4" d="M260.634 107.959L282.524 107.959"/>
<path class="l4" d="M271.579 112.064L271.579 116.168"/>
<circle class="l4" cx="271.579" cy="110.011" r="2.05215" style="fill:none;"/>
<path class="l4" d="M322.655 94.2783L333.599 94.2783"/>
<path class="l4" d="M333.599 94.2783L333.599 105.223"/>
<path class="l4" d="M329.495 105.223L359.593 105.223"/>
<path class="l4" d="M355.489 94.2783L355.489 105.223"/>
<path class="l4" d="M355.489 94.2783L366.434 94.2783"/>
<path class="l4" d="M333.599 107.959L355.489 107.959"/>
<path class="l4" d="M344.544 112.064L344.544 116.168"/>
<circle class="l4" cx="344.544" cy="110.011" r="2.05215" style="fill:none;"/>
<path class="l4" d="M395.62 94.2783L406.565 94.2783"/>
<path class="l4" d="M406.565 94.2783L406.565 105.223"/>
<path class="l4" d="M402.46 105.223L432.559 105.223"/>
<path class="l4" d="M428.454 94.2783L428.454 105.223"/>
<path class="l4" d="M428.454 94.2783L439.399 94.2783"/>
<path class="l4" d="M406.565 107.959L428.454 107.959"/>
<path class="l4" d="M417.51 112.064L417.51 116.168"/>
<circle class="l4" cx="417.51" cy="110.011" r="2.05215" style="fill:none;"/>
<path class="l4" d="M468.585 94.2783L479.53 94.2783"/>
<path class="l4" d="M479.53 94.2783L479.53 105.223"/>
<path class="l4" d="M475.426 105.223L505.524 105.223"/>
<path class="l4" d="M501.42 94.2783L501.42 105.223"/>
<path class="l4" d="M501.42 94.2783L512.365 94.2783"/>
<path class="l4" d="M479.53 107.959L501.42 107.959"/>
<path class="l4" d="M490.475 112.064L490.475 116.168"/>
<circle class="l4" cx="490.475" cy="110.011" r="2.05215" style="fill:none;"/>
<path class="l4" d="M541.551 94.2783L552.496 94.2783"/>
<path class="l4" d="M552.496 94.2783L552.496 105.223"/>
<path class="l4" d="M548.391 105.223L578.49 105.223"/>
<path class="l4" d="M574.385 94.2783L574.385 105.223"/>
<path class="l4" d="M574.385 94.2783L585.33 94.2783"/>
<path class="l4" d="M552.496 107.959L574.385 107.959"/>
<path class="l4" d="M563.44 112.064L563.44 116.168"/>
<circle class="l4" cx="563.44" cy="110.011" r="2.05215" style="fill:none;"/>
<path class="l4" d="M614.516 94.2783L625.461 94.2783"/>
<path class="l4" d="M625.461 94.2783L625.461 105.223"/>
<path class="l4" d="M621.357 105.223L651.455 105.223"/>
<path class="l4" d="M647.351 94.2783L647.351 105.223"/>
<path class="l4" d="M647.351 94.2783L658.296 94.2783"/>
<path class="l4" d="M625.461 107.959L647.351 107.959"/>
<path class="l4" d="M636.406 112.064L636.406 116.168"/>
<circle class="l4" cx="636.406" cy="110.011" r="2.05215" style="fill:none;"/>
<path class="l4" d="M687.482 94.2783L698.427 94.2783"/>
<path class="l4" d="M698.427 94.2783L698.427 105.223"/>
<path class="l4" d="M694.322 105.223L724.42 105.223"/>
<path class="l4" d="M720.316 94.2783L720.316 105.223"/>
<path class="l4" d="M720.316 94.2783L731.261 94.2783"/>
<path class="l4" d="M698.427 107.959L720.316 107.959"/>
<path class="l4" d="M709.371 112.064L709.371 116.168"/>
<circle class="l4" cx="709.371" cy="110.011" r="2.05215" style="fill:none;"/>
<path class="l4" d="M760.447 94.2783L771.392 94.2783"/>
<path class="l4" d="M771.392 94.2783L771.392 105.223"/>
<path class="l4" d="M767.288 105.223L797.386 105.223"/>
<path class="l4" d="M793.282 94.2783L793.282 105.223"/>
<path class="l4" d="M793.282 94.2783L804.226 94.2783"/>
<path class="l4" d="M771.392 107.959L793.282 107.959"/>
<path class="l4" d="M782.337 112.064L782.337 116.168"/>
<circle class="l4" cx="782.337" cy="110.011" r="2.05215" style="fill:none;"/>
<path class="l4" d="M322.655 298.582L333.599 298.582"/>
<path class="l4" d="M333.599 298.582L333.599 309.526"/>
<path class="l4" d="M329.495 309.526L359.593 309.526"/>
<path class="l4" d="M355.489 298.582L355.489 309.526"/>
<path class="l4" d="M355.489 298.582L366.434 298.582"/>
<path class="l4" d="M333.599 312.263L355.489 312.263"/>
<path class="l4" d="M344.544 316.367L344.544 320.471"/>
<circle class="l4" cx="344.544" cy="314.315" r="2.05215" style="fill:none;"/>
<path class="l4" d="M395.62 298.582L406.565 298.582"/>
<path class="l4" d="M406.565 298.582L406.565 309.526"/>
<path class="l4" d="M402.46 309.526L432.559 309.526"/>
<path class="l4" d="M428.454 298.582L428.454 309.526"/>
<path class="l4" d="M428.454 298.582L439.399 298.582"/>
<path class="l4" d="M406.565 312.263L428.454 312.263"/>
<path class="l4" d="M417.51 316.367L417.51 320.471"/>
<circle class="l4" cx="417.51" cy="314.315" r="2.05215" style="fill:none;"/>
<path class="l4" d="M468.585 298.582L479.53 298.582"/>
<path class="l4" d="M479.53 298.582L479.53 309.526"/>
<path class="l4" d="M475.426 309.526L505.524 309.526"/>
<path class="l4" d="M501.42 298.582L501.42 309.526"/>
<path class="l4" d="M501.42 298.582L512.365 298.582"/>
<path class="l4" d="M479.53 312.263L501.42 312.263"/>
<path class="l4" d="M490.475 316.367L490.475 320.471"/>
<circle class="l4" cx="490.475" cy="314.315" r="2.05215" style="fill:none;"/>
<path class="l4" d="M541.551 298.582L552.496 298.582"/>
<path class="l4" d="M552.496 298.582L552.496 309.526"/>
<path class="l4" d="M548.391 309.526L578.49 309.526"/>
<path class="l4" d="M574.385 298.582L574.385 309.526"/>
<path class="l4" d="M574.385 298.582L585.33 298.582"/>
<path class="l4" d="M552.496 312.263L574.385 312.263"/>
<path class="l4" d="M563.44 316.367L563.44 320.471"/>
<circle class="l4" cx="563.44" cy="314.315" r="2.05215" style="fill:none;"/>
<path class="l4" d="M614.516 298.582L625.461 298.582"/>
<path class="l4" d="M625.461 298.582L625.461 309.526"/>
<path class="l4" d="M621.357 309.526L651.455 309.526"/>
<path class="l4" d="M647.351 298.582L647.351 309.526"/>
<path class="l4" d="M647.351 298.582L658.296 298.582"/>
<path class="l4" d="M625.461 312.263L647.351 312.263"/>
<path class="l4" d="M636.406 316.367L636.406 320.471"/>
<circle class="l4" cx="636.406" cy="314.315" r="2.05215" style="fill:none;"/>
<path class="l4" d="M687.482 298.582L698.427 298.582"/>
<path class="l4" d="M698.427 298.582L698.427 309.526"/>
<path class="l4" d="M694.322 309.526L724.42 309.526"/>
<path class="l4" d="M720.316 298.582L720.316 309.526"/>
<path class="l4" d="M720.316 298.582L731.261 298.582"/>
<path class="l4" d="M698.427 312.263L720.316 312.263"/>
<path class="l4" d="M709.371 316.367L709.371 320.471"/>
<circle class="l4" cx="709.371" cy="314.315" r="2.05215" style="fill:none;"/>
<path class="l4" d="M501.42 517.478L512.365 517.478"/>
<path class="l4" d="M501.42 506.533L501.42 517.478"/>
<path class="l4" d="M475.426 506.533L505.524 506.533"/>
<path class="l4" d="M479.53 506.533L479.53 517.478"/>
<path class="l4" d="M468.585 517.478L479.53 517.478"/>
<path class="l4" d="M479.53 503.797L501.42 503.797"/>
<path class="l4" d="M490.475 495.588L490.475 503.797"/>
<path class="l4" d="M574.385 517.478L585.33 517.478"/>
<path class="l4" d="M574.385 506.533L574.385 517.478"/>
<path class="l4" d="M548.391 506.533L578.49 506.533"/>
<path class="l4" d="M552.496 506.533L552.496 517.478"/>
<path class="l4" d="M541.551 517.478L552.496 517.478"/>
<path class="l4" d="M552.496 503.797L574.385 503.797"/>
<path class="l4" d="M563.44 495.588L563.44 503.797"/>
<path class="l4" d="M355.489 517.478L366.434 517.478"/>
<path class="l4" d="M355.489 506.533L355.489 517.478"/>
<path class="l4" d="M329.495 506.533L359.593 506.533"/>
<path class="l4" d="M333.599 506.533L333.599 517.478"/>
<path class="l4" d="M322.655 517.478L333.599 517.478"/>
<path class="l4" d="M333.599 503.797L355.489 503.797"/>
<path class="l4" d="M344.544 495.588L344.544 503.797"/>
<path class="l4" d="M428.454 517.478L439.399 517.478"/>
<path class="l4" d="M428.454 506.533L428.454 517.478"/>
<path class="l4" d="M402.46 506.533L432.559 506.533"/>
<path class="l4" d="M406.565 506.533L406.565 517.478"/>
<path class="l4" d="M395.62 517.478L406.565 517.478"/>
<path class="l4" d="M406.565 503.797L428.454 503.797"/>
<path class="l4" d="M417.51 495.588L417.51 503.797"/>
<path class="l4" d="M647.351 517.478L658.296 517.478"/>
<path class="l4" d="M647.351 506.533L647.351 517.478"/>
<path class="l4" d="M621.357 506.533L651.455 506.533"/>
<path class="l4" d="M625.461 506.533L625.461 517.478"/>
<path class="l4" d="M614.516 517.478L625.461 517.478"/>
<path class="l4" d="M625.461 503.797L647.351 503.797"/>
<path class="l4" d="M636.406 495.588L636.406 503.797"/>
<path class="l4" d="M720.316 517.478L731.261 517.478"/>
<path class="l4" d="M720.316 506.533L720.316 517.478"/>
<path class="l4" d="M694.322 506.533L724.42 506.533"/>
<path class="l4" d="M698.427 506.533L698.427 517.478"/>
<path class="l4" d="M687.482 517.478L698.427 517.478"/>
<path class="l4" d="M698.427 503.797L720.316 503.797"/>
<path class="l4" d="M709.371 495.588L709.371 503.797"/>
<path class="l4" d="M501.42 772.857L512.365 772.857"/>
<path class="l4" d="M501.42 761.912L501.42 772.857"/>
<path class="l4" d="M475.426 761.912L505.524 761.912"/>
<path class="l4" d="M479.53 761.912L479.53 772.857"/>
<path class="l4" d="M468.585 772.857L479.53 772.857"/>
<path class="l4" d="M479.53 759.176L501.42 759.176"/>
<path class="l4" d="M490.475 750.967L490.475 759.176"/>
<path class="l4" d="M574.385 772.857L585.33 772.857"/>
<path class="l4" d="M574.385 761.912L574.385 772.857"/>
<path class="l4" d="M548.391 761.912L578.49 761.912"/>
<path class="l4" d="M552.496 761.912L552.496 772.857"/>
<path class="l4" d="M541.551 772.857L552.496 772.857"/>
<path class="l4" d="M552.496 759.176L574.385 759.176"/>
<path class="l4" d="M563.44 750.967L563.44 759.176"/>
<path class="l4" d="M355.489 772.857L366.434 772.857"/>
<path class="l4" d="M355.489 761.912L355.489 772.857"/>
<path class="l4" d="M329.495 761.912L359.593 761.912"/>
<path class="l4" d="M333.599 761.912L333.599 772.857"/>
<path class="l4" d="M322.655 772.857L333.599 772.857"/>
<path class="l4" d="M333.599 759.176L355.489 759.176"/>
<path class="l4" d="M344.544 750.967L344.544 759.176"/>
<path class="l4" d="M428.454 772.857L439.399 772.857"/>
<path class="l4" d="M428.454 761.912L428.454 772.857"/>
<path class="l4" d="M402.46 761.912L432.559 761.912"/>
<path class="l4" d="M406.565 761.912L406.565 772.857"/>
<path class="l4" d="M395.62 772.857L406.565 772.857"/>
<path class="l4" d="M406.565 759.176L428.454 759.176"/>
<path class="l4" d="M417.51 750.967L417.51 759.176"/>
<path class="l4" d="M647.351 772.857L658.296 772.857"/>
<path class="l4" d="M647.351 761.912L647.351 772.857"/>
<path class="l4" d="M621.357 761.912L651.455 761.912"/>
<path class="l4" d="M625.461 761.912L625.461 772.857"/>
<path class="l4" d="M614.516 772.857L625.461 772.857"/>
<path class="l4" d="M625.461 759.176L647.351 759.176"/>
<path class="l4" d="M636.406 750.967L636.406 759.176"/>
<path class="l4" d="M720.316 772.857L731.261 772.857"/>
<path class="l4" d="M720.316 761.912L720.316 772.857"/>
<path class="l4" d="M694.322 761.912L724.42 761.912"/>
<path class="l4" d="M698.427 761.912L698.427 772.857"/>
<path class="l4" d="M687.482 772.857L698.427 772.857"/>
<path class="l4" d="M698.427 759.176L720.316 759.176"/>
<path class="l4" d="M709.371 750.967L709.371 759.176"/>
<path class="l4" d="M866.247 94.2783L877.192 94.2783"/>
<path class="l4" d="M866.247 83.3335L866.247 94.2783"/>
<path class="l4" d="M840.253 83.3335L870.351 83.3335"/>
<path class="l4" d="M844.357 83.3335L844.357 94.2783"/>
<path class="l4" d="M833.413 94.2783L844.357 94.2783"/>
<path class="l4" d="M844.357 80.5973L866.247 80.5973"/>
<path class="l4" d="M855.302 72.3887L855.302 76.493"/>
<circle class="l4" cx="855.302" cy="78.5451" r="2.05215" style="fill:none;"/>
<path class="l4" d="M282.524 772.857L293.468 772.857"/>
<path class="l4" d="M282.524 761.912L282.524 772.857"/>
<path class="l4" d="M256.53 761.912L286.628 761.912"/>
<path class="l4" d="M260.634 761.912L260.634 772.857"/>
<path class="l4" d="M249.689 772.857L260.634 772.857"/>
<path class="l4" d="M260.634 759.176L282.524 759.176"/>
<path class="l4" d="M271.579 750.967L271.579 759.176"/>
<path class="l4" d="M209.558 772.857L220.503 772.857"/>
<path class="l4" d="M209.558 761.912L209.558 772.857"/>
<path class="l4" d="M183.564 761.912L213.662 761.912"/>
<path class="l4" d="M187.668 761.912L187.668 772.857"/>
<path class="l4" d="M176.724 772.857L187.668 772.857"/>
<path class="l4" d="M187.668 759.176L209.558 759.176"/>
<path class="l4" d="M198.613 750.967L198.613 759.176"/>
<path class="l4" d="M793.282 772.857L804.226 772.857"/>
<path class="l4" d="M793.282 761.912L793.282 772.857"/>
<path class="l4" d="M767.288 761.912L797.386 761.912"/>
<path class="l4" d="M771.392 761.912L771.392 772.857"/>
<path class="l4" d="M760.447 772.857L771.392 772.857"/>
<path class="l4" d="M771.392 759.176L793.282 759.176"/>
<path class="l4" d="M782.337 750.967L782.337 759.176"/>
<path class="l4" d="M866.247 772.857L877.192 772.857"/>
<path class="l4" d="M866.247 761.912L866.247 772.857"/>
<path class="l4" d="M840.253 761.912L870.351 761.912"/>
<path class="l4" d="M844.357 761.912L844.357 772.857"/>
<path class="l4" d="M833.413 772.857L844.357 772.857"/>
<path class="l4" d="M844.357 759.176L866.247 759.176"/>
<path class="l4" d="M855.302 750.967L855.302 759.176"/>
<path class="l4" d="M282.524 517.478L293.468 517.478"/>
<path class="l4" d="M282.524 506.533L282.524 517.478"/>
<path class="l4" d="M256.53 506.533L286.628 506.533"/>
<path class="l4" d="M260.634 506.533L260.634 517.478"/>
<path class="l4" d="M249.689 517.478L260.634 517.478"/>
<path class="l4" d="M260.634 503.797L282.524 503.797"/>
<path class="l4" d="M271.579 495.588L271.579 503.797"/>
<path class="l4" d="M209.558 517.478L220.503 517.478"/>
<path class="l4" d="M209.558 506.533L209.558 517.478"/>
<path class="l4" d="M183.564 506.533L213.662 506.533"/>
<path class="l4" d="M187.668 506.533L187.668 517.478"/>
<path class="l4" d="M176.724 517.478L187.668 517.478"/>
<path class="l4" d="M187.668 503.797L209.558 503.797"/>
<path class="l4" d="M198.613 495.588L198.613 503.797"/>
<path class="l4" d="M866.247 517.478L877.192 517.478"/>
<path class="l4" d="M866.247 506.533L866.247 517.478"/>
<path class="l4" d="M840.253 506.533L870.351 506.533"/>
<path class="l4" d="M844.357 506.533L844.357 517.478"/>
<path class="l4" d="M833.413 517.478L844.357 517.478"/>
<path class="l4" d="M844.357 503.797L866.247 503.797"/>
<path class="l4" d="M855.302 495.588L855.302 503.797"/>
<path class="l4" d="M793.282 517.478L804.226 517.478"/>
<path class="l4" d="M793.282 506.533L793.282 517.478"/>
<path class="l4" d="M767.288 506.533L797.386 506.533"/>
<path class="l4" d="M771.392 506.533L771.392 517.478"/>
<path class="l4" d="M760.447 517.478L771.392 517.478"/>
<path class="l4" d="M771.392 503.797L793.282 503.797"/>
<path class="l4" d="M782.337 495.588L782.337 503.797"/>
<path class="l4" d="M209.558 94.2783L220.503 94.2783"/>
<path class="l4" d="M209.558 83.3335L209.558 94.2783"/>
<path class="l4" d="M183.564 83.3335L213.662 83.3335"/>
<path class="l4" d="M187.668 83.3335L187.668 94.2783"/>
<path class="l4" d="M176.724 94.2783L187.668 94.2783"/>
<path class="l4" d="M187.668 80.5973L209.558 80.5973"/>
<path class="l4" d="M198.613 72.3887L198.613 76.493"/>
<circle class="l4" cx="198.613" cy="78.5451" r="2.05215" style="fill:none;"/>
<path class="l4" d="M249.689 298.582L260.634 298.582"/>
<path class="l4" d="M260.634 298.582L260.634 309.526"/>
<path class="l4" d="M256.53 309.526L286.628 309.526"/>
<path class="l4" d="M282.524 298.582L282.524 309.526"/>
<path class="l4" d="M282.524 298.582L293.468 298.582"/>
<path class="l4" d="M260.634 312.263L282.524 312.263"/>
<path class="l4" d="M271.579 316.367L271.579 320.471"/>
<circle class="l4" cx="271.579" cy="314.315" r="2.05215" style="fill:none;"/>
<path class="l4" d="M176.724 298.582L187.668 298.582"/>
<path class="l4" d="M187.668 298.582L187.668 309.526"/>
<path class="l4" d="M183.564 309.526L213.662 309.526"/>
<path class="l4" d="M209.558 298.582L209.558 309.526"/>
<path class="l4" d="M209.558 298.582L220.503 298.582"/>
<path class="l4" d="M187.668 312.263L209.558 312.263"/>
<path class="l4" d="M198.613 316.367L198.613 320.471"/>
<circle class="l4" cx="198.613" cy="314.315" r="2.05215" style="fill:none;"/>
<path class="l4" d="M760.447 298.582L771.392 298.582"/>
<path class="l4" d="M771.392 298.582L771.392 309.526"/>
<path class="l4" d="M767.288 309.526L797.386 309.526"/>
<path class="l4" d="M793.282 298.582L793.282 309.526"/>
<path class="l4" d="M793.282 298.582L804.226 298.582"/>
<path class="l4" d="M771.392 312.263L793.282 312.263"/>
<path class="l4" d="M782.337 316.367L782.337 320.471"/>
<circle class="l4" cx="782.337" cy="314.315" r="2.05215" style="fill:none;"/>
<path class="l4" d="M833.413 298.582L844.357 298.582"/>
<path class="l4" d="M844.357 298.582L844.357 309.526"/>
<path class="l4" d="M840.253 309.526L870.351 309.526"/>
<path class="l4" d="M866.247 298.582L866.247 309.526"/>
<path class="l4" d="M866.247 298.582L877.192 298.582"/>
<path class="l4" d="M844.357 312.263L866.247 312.263"/>
<path class="l4" d="M855.302 316.367L855.302 320.471"/>
<circle class="l4" cx="855.302" cy="314.315" r="2.05215" style="fill:none;"/>
<path class="l5" d="M293.103 93.9135L293.833 93.9135L293.833 94.6432L293.103 94.6432L293.103 93.9135z"/>
<path class="l5" d="M271.214 115.803L271.944 115.803L271.944 116.533L271.214 116.533L271.214 115.803z"/>
<path class="l5" d="M249.324 93.9135L250.054 93.9135L250.054 94.6432L249.324 94.6432L249.324 93.9135z"/>
<path class="l5" d="M366.069 93.9135L366.799 93.9135L366.799 94.6432L366.069 94.6432L366.069 93.9135z"/>
<path class="l5" d="M344.179 115.803L344.909 115.803L344.909 116.533L344.179 116.533L344.179 115.803z"/>
<path class="l5" d="M322.29 93.9135L323.019 93.9135L323.019 94.6432L322.29 94.6432L322.29 93.9135z"/>
<path class="l5" d="M439.034 93.9135L439.764 93.9135L439.764 94.6432L439.034 94.6432L439.034 93.9135z"/>
<path class="l5" d="M417.145 115.803L417.874 115.803L417.874 116.533L417.145 116.533L417.145 115.803z"/>
<path class="l5" d="M395.255 93.9135L395.985 93.9135L395.985 94.6432L395.255 94.6432L395.255 93.9135z"/>
<path class="l5" d="M512 93.9135L512.729 93.9135L512.729 94.6432L512 94.6432L512 93.9135z"/>
<path class="l5" d="M490.11 115.803L490.84 115.803L490.84 116.533L490.11 116.533L490.11 115.803z"/>
<path class="l5" d="M468.221 93.9135L468.95 93.9135L468.95 94.6432L468.221 94.6432L468.221 93.9135z"/>
<path class="l5" d="M584.965 93.9135L585.695 93.9135L585.695 94.6432L584.965 94.6432L584.965 93.9135z"/>
<path class="l5" d="M563.076 115.803L563.805 115.803L563.805 116.533L563.076 116.533L563.076 115.803z"/>
<path class="l5" d="M541.186 93.9135L541.916 93.9135L541.916 94.6432L541.186 94.6432L541.186 93.9135z"/>
<path class="l5" d="M657.931 93.9135L658.66 93.9135L658.66 94.6432L657.931 94.6432L657.931 93.9135z"/>
<path class="l5" d="M636.041 115.803L636.771 115.803L636.771 116.533L636.041 116.533L636.041 115.803z"/>
<path class="l5" d="M614.151 93.9135L614.881 93.9135L614.881 94.6432L614.151 94.6432L614.151 93.9135z"/>
<path class="l5" d="M730.896 93.9135L731.626 93.9135L731.626 94.6432L730.896 94.6432L730.896 93.9135z"/>
<path class="l5" d="M709.007 115.803L709.736 115.803L709.736 116.533L709.007 116.533L709.007 115.803z"/>
<path class="l5" d="M687.117 93.9135L687.847 93.9135L687.847 94.6432L687.117 94.6432L687.117 93.9135z"/>
<path class="l5" d="M803.862 93.9135L804.591 93.9135L804.591 94.6432L803.862 94.6432L803.862 93.9135z"/>
<path class="l5" d="M781.972 115.803L782.702 115.803L782.702 116.533L781.972 116.533L781.972 115.803z"/>
<path class="l5" d="M760.082 93.9135L760.812 93.9135L760.812 94.6432L760.082 94.6432L760.082 93.9135z"/>
<path class="l5" d="M366.069 298.217L366.799 298.217L366.799 298.946L366.069 298.946L366.069 298.217z"/>
<path class="l5" d="M344.179 320.106L344.909 320.106L344.909 320.836L344.179 320.836L344.179 320.106z"/>
<path class="l5" d="M322.29 298.217L323.019 298.217L323.019 298.946L322.29 298.946L322.29 298.217z"/>
<path class="l5" d="M439.034 298.217L439.764 298.217L439.764 298.946L439.034 298.946L439.034 298.217z"/>
<path class="l5" d="M417.145 320.106L417.874 320.106L417.874 320.836L417.145 320.836L417.145 320.106z"/>
<path class="l5" d="M395.255 298.217L395.985 298.217L395.985 298.946L395.255 298.946L395.255 298.217z"/>
<path class="l5" d="M512 298.217L512.729 298.217L512.729 298.946L512 298.946L512 298.217z"/>
<path class="l5" d="M490.11 320.106L490.84 320.106L490.84 320.836L490.11 320.836L490.11 320.106z"/>
<path class="l5" d="M468.221 298.217L468.95 298.217L468.95 298.946L468.221 298.946L468.221 298.217z"/>
<path class="l5" d="M584.965 298.217L585.695 298.217L585.695 298.946L584.965 298.946L584.965 298.217z"/>
<path class="l5" d="M563.076 320.106L563.805 320.106L563.805 320.836L563.076 320.836L563.076 320.106z"/>
<path class="l5" d="M541.186 298.217L541.916 298.217L541.916 298.946L541.186 298.946L541.186 298.217z"/>
<path class="l5" d="M657.931 298.217L658.66 298.217L658.66 298.946L657.931 298.946L657.931 298.217z"/>
<path class="l5" d="M636.041 320.106L636.771 320.106L636.771 320.836L636.041 320.836L636.041 320.106z"/>
<path class="l5" d="M614.151 298.217L614.881 298.217L614.881 298.946L614.151 298.946L614.151 298.217z"/>
<path class="l5" d="M730.896 298.217L731.626 298.217L731.626 298.946L730.896 298.946L730.896 298.217z"/>
<path class="l5" d="M709.007 320.106L709.736 320.106L709.736 320.836L709.007 320.836L709.007 320.106z"/>
<path class="l5" d="M687.117 298.217L687.847 298.217L687.847 298.946L687.117 298.946L687.117 298.217z"/>
<path class="l5" d="M512 517.113L512.729 517.113L512.729 517.843L512 517.843L512 517.113z"/>
<path class="l5" d="M490.11 495.223L490.84 495.223L490.84 495.953L490.11 495.953L490.11 495.223z"/>
<path class="l5" d="M468.221 517.113L468.95 517.113L468.95 517.843L468.221 517.843L468.221 517.113z"/>
<path class="l5" d="M584.965 517.113L585.695 517.113L585.695 517.843L584.965 517.843L584.965 517.113z"/>
<path class="l5" d="M563.076 495.223L563.805 495.223L563.805 495.953L563.076 495.953L563.076 495.223z"/>
<path class="l5" d="M541.186 517.113L541.916 517.113L541.916 517.843L541.186 517.843L541.186 517.113z"/>
<path class="l5" d="M366.069 517.113L366.799 517.113L366.799 517.843L366.069 517.843L366.069 517.113z"/>
<path class="l5" d="M344.179 495.223L344.909 495.223L344.909 495.953L344.179 495.953L344.179 495.223z"/>
<path class="l5" d="M322.29 517.113L323.019 517.113L323.019 517.843L322.29 517.843L322.29 517.113z"/>
<path class="l5" d="M439.034 517.113L439.764 517.113L439.764 517.843L439.034 517.843L439.034 517.113z"/>
<path class="l5" d="M417.145 495.223L417.874 495.223L417.874 495.953L417.145 495.953L417.145 495.223z"/>
<path class="l5" d="M395.255 517.113L395.985 517.113L395.985 517.843L395.255 517.843L395.255 517.113z"/>
<path class="l5" d="M657.931 517.113L658.66 517.113L658.66 517.843L657.931 517.843L657.931 517.113z"/>
<path class="l5" d="M636.041 495.223L636.771 495.223L636.771 495.953L636.041 495.953L636.041 495.223z"/>
<path class="l5" d="M614.151 517.113L614.881 517.113L614.881 517.843L614.151 517.843L614.151 517.113z"/>
<path class="l5" d="M730.896 517.113L731.626 517.113L731.626 517.843L730.896 517.843L730.896 517.113z"/>
<path class="l5" d="M709.007 495.223L709.736 495.223L709.736 495.953L709.007 495.953L709.007 495.223z"/>
<path class="l5" d="M687.117 517.113L687.847 517.113L687.847 517.843L687.117 517.843L687.117 517.113z"/>
<path class="l5" d="M512 772.492L512.729 772.492L512.729 773.222L512 773.222L512 772.492z"/>
<path class="l5" d="M490.11 750.603L490.84 750.603L490.84 751.332L490.11 751.332L490.11 750.603z"/>
<path class="l5" d="M468.221 772.492L468.95 772.492L468.95 773.222L468.221 773.222L468.221 772.492z"/>
<path class="l5" d="M584.965 772.492L585.695 772.492L585.695 773.222L584.965 773.222L584.965 772.492z"/>
<path class="l5" d="M563.076 750.603L563.805 750.603L563.805 751.332L563.076 751.332L563.076 750.603z"/>
<path class="l5" d="M541.186 772.492L541.916 772.492L541.916 773.222L541.186 773.222L541.186 772.492z"/>
<path class="l5" d="M366.069 772.492L366.799 772.492L366.799 773.222L366.069 773.222L366.069 772.492z"/>
<path class="l5" d="M344.179 750.603L344.909 750.603L344.909 751.332L344.179 751.332L344.179 750.603z"/>
<path class="l5" d="M322.29 772.492L323.019 772.492L323.019 773.222L322.29 773.222L322.29 772.492z"/>
<path class="l5" d="M439.034 772.492L439.764 772.492L439.764 773.222L439.034 773.222L439.034 772.492z"/>
<path class="l5" d="M417.145 750.603L417.874 750.603L417.874 751.332L417.145 751.332L417.145 750.603z"/>
<path class="l5" d="M395.255 772.492L395.985 772.492L395.985 773.222L395.255 773.222L395.255 772.492z"/>
<path class="l5" d="M657.931 772.492L658.66 772.492L658.66 773.222L657.931 773.222L657.931 772.492z"/>
<path class="l5" d="M636.041 750.603L636.771 750.603L636.771 751.332L636.041 751.332L636.041 750.603z"/>
<path class="l5" d="M614.151 772.492L614.881 772.492L614.881 773.222L614.151 773.222L614.151 772.492z"/>
<path class="l5" d="M730.896 772.492L731.626 772.492L731.626 773.222L730.896 773.222L730.896 772.492z"/>
<path class="l5" d="M709.007 750.603L709.736 750.603L709.736 751.332L709.007 751.332L709.007 750.603z"/>
<path class="l5" d="M687.117 772.492L687.847 772.492L687.847 773.222L687.117 773.222L687.117 772.492z"/>
<path class="l5" d="M74.572 21.3129L70.4677 24.8471L66.7054 24.8471L62.6011 21.3129L66.7054 17.7786L70.4677 17.7786L74.572 21.3129"/>
<path class="l5" d="M74.5648 21.3058L74.5791 21.3058L74.5791 21.32L74.5648 21.32L74.5648 21.3058z"/>
<path class="l5" d="M59.9789 860.416L55.8746 863.95L52.1123 863.95L48.008 860.416L52.1123 856.881L55.8746 856.881L59.9789 860.416"/>
<path class="l5" d="M59.9717 860.408L59.986 860.408L59.986 860.423L59.9717 860.423L59.9717 860.408z"/>
<path class="l5" d="M950.157 346.009L950.157 353.306L956.086 353.306L960.646 349.657L956.086 346.009L950.157 346.009"/>
<path class="l5" d="M950.15 349.65L950.164 349.65L950.164 349.665L950.15 349.665L950.15 349.65z"/>
<path class="l5" d="M950.157 455.457L950.157 462.754L956.086 462.754L960.646 459.106L956.086 455.457L950.157 455.457"/>
<path class="l5" d="M950.15 459.098L950.164 459.098L950.164 459.113L950.15 459.113L950.15 459.098z"/>
<path class="l5" d="M950.157 718.133L950.157 725.429L956.086 725.429L960.646 721.781L956.086 718.133L950.157 718.133"/>
<path class="l5" d="M950.15 721.774L950.164 721.774L950.164 721.788L950.15 721.788L950.15 721.774z"/>
<path class="l5" d="M833.048 93.9135L833.777 93.9135L833.777 94.6432L833.048 94.6432L833.048 93.9135z"/>
<path class="l5" d="M854.937 72.0239L855.667 72.0239L855.667 72.7535L854.937 72.7535L854.937 72.0239z"/>
<path class="l5" d="M876.827 93.9135L877.557 93.9135L877.557 94.6432L876.827 94.6432L876.827 93.9135z"/>
<path class="l5" d="M293.103 772.492L293.833 772.492L293.833 773.222L293.103 773.222L293.103 772.492z"/>
<path class="l5" d="M271.214 750.603L271.944 750.603L271.944 751.332L271.214 751.332L271.214 750.603z"/>
<path class="l5" d="M249.324 772.492L250.054 772.492L250.054 773.222L249.324 773.222L249.324 772.492z"/>
<path class="l5" d="M220.138 772.492L220.868 772.492L220.868 773.222L220.138 773.222L220.138 772.492z"/>
<path class="l5" d="M198.248 750.603L198.978 750.603L198.978 751.332L198.248 751.332L198.248 750.603z"/>
<path class="l5" d="M176.359 772.492L177.088 772.492L177.088 773.222L176.359 773.222L176.359 772.492z"/>
<path class="l5" d="M803.862 772.492L804.591 772.492L804.591 773.222L803.862 773.222L803.862 772.492z"/>
<path class="l5" d="M781.972 750.603L782.702 750.603L782.702 751.332L781.972 751.332L781.972 750.603z"/>
<path class="l5" d="M760.082 772.492L760.812 772.492L760.812 773.222L760.082 773.222L760.082 772.492z"/>
<path class="l5" d="M876.827 772.492L877.557 772.492L877.557 773.222L876.827 773.222L876.827 772.492z"/>
<path class="l5" d="M854.937 750.603L855.667 750.603L855.667 751.332L854.937 751.332L854.937 750.603z"/>
<path class="l5" d="M833.048 772.492L833.777 772.492L833.777 773.222L833.048 773.222L833.048 772.492z"/>
<path class="l5" d="M293.103 517.113L293.833 517.113L293.833 517.843L293.103 517.843L293.103 517.113z"/>
<path class="l5" d="M271.214 495.223L271.944 495.223L271.944 495.953L271.214 495.953L271.214 495.223z"/>
<path class="l5" d="M249.324 517.113L250.054 517.113L250.054 517.843L249.324 517.843L249.324 517.113z"/>
<path class="l5" d="M220.138 517.113L220.868 517.113L220.868 517.843L220.138 517.843L220.138 517.113z"/>
<path class="l5" d="M198.248 495.223L198.978 495.223L198.978 495.953L198.248 495.953L198.248 495.223z"/>
<path class="l5" d="M176.359 517.113L177.088 517.113L177.088 517.843L176.359 517.843L176.359 517.113z"/>
<path class="l5" d="M876.827 517.113L877.557 517.113L877.557 517.843L876.827 517.843L876.827 517.113z"/>
<path class="l5" d="M854.937 495.223L855.667 495.223L855.667 495.953L854.937 495.953L854.937 495.223z"/>
<path class="l5" d="M833.048 517.113L833.777 517.113L833.777 517.843L833.048 517.843L833.048 517.113z"/>
<path class="l5" d="M803.862 517.113L804.591 517.113L804.591 517.843L803.862 517.843L803.862 517.113z"/>
<path class="l5" d="M781.972 495.223L782.702 495.223L782.702 495.953L781.972 495.953L781.972 495.223z"/>
<path class="l5" d="M760.082 517.113L760.812 517.113L760.812 517.843L760.082 517.843L760.082 517.113z"/>
<path class="l5" d="M176.359 93.9135L177.088 93.9135L177.088 94.6432L176.359 94.6432L176.359 93.9135z"/>
<path class="l5" d="M198.248 72.0239L198.978 72.0239L198.978 72.7535L198.248 72.7535L198.248 72.0239z"/>
<path class="l5" d="M220.138 93.9135L220.868 93.9135L220.868 94.6432L220.138 94.6432L220.138 93.9135z"/>
<path class="l5" d="M293.103 298.217L293.833 298.217L293.833 298.946L293.103 298.946L293.103 298.217z"/>
<path class="l5" d="M271.214 320.106L271.944 320.106L271.944 320.836L271.214 320.836L271.214 320.106z"/>
<path class="l5" d="M249.324 298.217L250.054 298.217L250.054 298.946L249.324 298.946L249.324 298.217z"/>
<path class="l5" d="M220.138 298.217L220.868 298.217L220.868 298.946L220.138 298.946L220.138 298.217z"/>
<path class="l5" d="M198.248 320.106L198.978 320.106L198.978 320.836L198.248 320.836L198.248 320.106z"/>
<path class="l5" d="M176.359 298.217L177.088 298.217L177.088 298.946L176.359 298.946L176.359 298.217z"/>
<path class="l5" d="M803.862 298.217L804.591 298.217L804.591 298.946L803.862 298.946L803.862 298.217z"/>
<path class="l5" d="M781.972 320.106L782.702 320.106L782.702 320.836L781.972 320.836L781.972 320.106z"/>
<path class="l5" d="M760.082 298.217L760.812 298.217L760.812 298.946L760.082 298.946L760.082 298.217z"/>
<path class="l5" d="M876.827 298.217L877.557 298.217L877.557 298.946L876.827 298.946L876.827 298.217z"/>
<path class="l5" d="M854.937 320.106L855.667 320.106L855.667 320.836L854.937 320.836L854.937 320.106z"/>
<path class="l5" d="M833.048 298.217L833.777 298.217L833.777 298.946L833.048 298.946L833.048 298.217z"/>
<path class="l5" d="M74.572 130.761L70.4677 134.295L66.7054 134.295L62.6011 130.761L66.7054 127.227L70.4677 127.227L74.572 130.761"/>
<path class="l5" d="M74.5648 130.754L74.5791 130.754L74.5791 130.768L74.5648 130.768L74.5648 130.754z"/>
<path class="l1" d="M271.579 130.761L490.475 130.761"/>
<path class="l1" d="M490.475 116.168L490.475 130.761"/>
<path class="l1" d="M417.51 116.168L417.51 130.761"/>
<path class="l1" d="M344.544 116.168L344.544 130.761"/>
<path class="l1" d="M271.579 116.168L271.579 130.761"/>
<path class="l1" d="M235.096 94.2783L235.096 130.761"/>
<path class="l1" d="M235.096 130.761L271.579 130.761"/>
<path class="l1" d="M293.468 94.2783L322.655 94.2783"/>
<path class="l1" d="M439.399 94.2783L468.585 94.2783"/>
<path class="l1" d="M453.992 21.3129L453.992 94.2783"/>
<path class="l1" d="M308.061 21.3129L308.061 94.2783"/>
<path class="l1" d="M176.724 21.3129L453.992 21.3129"/>
<path class="l1" d="M490.475 130.761L782.337 130.761"/>
<path class="l1" d="M782.337 116.168L782.337 130.761"/>
<path class="l1" d="M709.371 116.168L709.371 130.761"/>
<path class="l1" d="M636.406 116.168L636.406 130.761"/>
<path class="l1" d="M563.44 116.168L563.44 130.761"/>
<path class="l1" d="M585.33 94.2783L614.516 94.2783"/>
<path class="l1" d="M731.261 94.2783L760.447 94.2783"/>
<path class="l1" d="M599.923 21.3129L599.923 94.2783"/>
<path class="l1" d="M453.992 21.3129L599.923 21.3129"/>
<path class="l1" d="M745.854 21.3129L745.854 94.2783"/>
<path class="l1" d="M599.923 21.3129L745.854 21.3129"/>
<path class="l1" d="M512.365 94.2783L541.551 94.2783"/>
<path class="l1" d="M782.337 130.761L818.82 130.761"/>
<path class="l1" d="M818.82 94.2783L818.82 130.761"/>
<path class="l1" d="M366.434 94.2783L366.434 196.43"/>
<path class="l1" d="M366.434 196.43L687.482 196.43"/>
<path class="l1" d="M687.482 94.2783L687.482 196.43"/>
<path class="l1" d="M395.62 94.2783L395.62 167.244"/>
<path class="l1" d="M395.62 167.244L658.296 167.244"/>
<path class="l1" d="M658.296 94.2783L658.296 167.244"/>
<path class="l1" d="M804.226 94.2783L818.82 94.2783"/>
<path class="l1" d="M308.061 298.582L322.655 298.582"/>
<path class="l1" d="M731.261 298.582L745.854 298.582"/>
<path class="l1" d="M249.689 860.416L658.296 860.416"/>
<path class="l1" d="M162.131 860.416L249.689 860.416"/>
<path class="l1" d="M658.296 167.244L804.226 167.244"/>
<path class="l1" d="M526.958 94.2783L526.958 152.651"/>
<path class="l1" d="M74.572 590.443L74.572 860.416"/>
<path class="l1" d="M89.1651 21.3129L89.1651 247.506"/>
<path class="l1" d="M235.096 94.2783L249.689 94.2783"/>
<path class="l1" d="M59.9789 860.416L162.131 860.416"/>
<path class="l1" d="M74.572 21.3129L176.724 21.3129"/>
<path class="l1" d="M920.971 167.244L920.971 721.781"/>
<path class="l1" d="M804.226 772.857L833.413 772.857"/>
<path class="l1" d="M782.337 750.967L818.82 750.967"/>
<path class="l1" d="M818.82 750.967L818.82 772.857"/>
<path class="l1" d="M818.82 750.967L855.302 750.967"/>
<path class="l1" d="M855.302 750.967L877.192 750.967"/>
<path class="l1" d="M877.192 750.967L877.192 772.857"/>
<path class="l1" d="M176.724 750.967L176.724 772.857"/>
<path class="l1" d="M176.724 750.967L271.579 750.967"/>
<path class="l1" d="M220.503 772.857L249.689 772.857"/>
<path class="l1" d="M235.096 750.967L235.096 772.857"/>
<path class="l1" d="M176.724 495.588L176.724 517.478"/>
<path class="l1" d="M176.724 495.588L271.579 495.588"/>
<path class="l1" d="M220.503 517.478L249.689 517.478"/>
<path class="l1" d="M235.096 495.588L235.096 517.478"/>
<path class="l1" d="M804.226 167.244L920.971 167.244"/>
<path class="l1" d="M220.503 94.2783L235.096 94.2783"/>
<path class="l1" d="M176.724 72.3887L176.724 94.2783"/>
<path class="l1" d="M176.724 72.3887L198.613 72.3887"/>
<path class="l1" d="M198.613 21.3129L198.613 72.3887"/>
<path class="l1" d="M818.82 94.2783L833.413 94.2783"/>
<path class="l1" d="M855.302 21.3129L855.302 72.3887"/>
<path class="l1" d="M745.854 21.3129L855.302 21.3129"/>
<path class="l1" d="M877.192 72.3887L877.192 94.2783"/>
<path class="l1" d="M855.302 72.3887L877.192 72.3887"/>
<path class="l1" d="M804.226 517.478L833.413 517.478"/>
<path class="l1" d="M855.302 495.588L877.192 495.588"/>
<path class="l1" d="M877.192 495.588L877.192 517.478"/>
<path class="l1" d="M782.337 495.588L855.302 495.588"/>
<path class="l1" d="M818.82 495.588L818.82 517.478"/>
<path class="l1" d="M745.854 298.582L760.447 298.582"/>
<path class="l1" d="M782.337 320.471L855.302 320.471"/>
<path class="l1" d="M855.302 320.471L877.192 320.471"/>
<path class="l1" d="M877.192 298.582L877.192 320.471"/>
<path class="l1" d="M804.226 298.582L833.413 298.582"/>
<path class="l1" d="M818.82 298.582L818.82 320.471"/>
<path class="l1" d="M293.468 298.582L308.061 298.582"/>
<path class="l1" d="M220.503 298.582L249.689 298.582"/>
<path class="l1" d="M176.724 298.582L176.724 320.471"/>
<path class="l1" d="M176.724 320.471L271.579 320.471"/>
<path class="l1" d="M235.096 298.582L235.096 320.471"/>
<path class="l1" d="M74.572 130.761L235.096 130.761"/>
<path class="l1" d="M899.082 459.106L950.157 459.106"/>
<path class="l1" d="M308.061 247.506L308.061 298.582"/>
<path class="l1" d="M745.854 247.506L745.854 298.582"/>
<path class="l1" d="M89.1651 247.506L745.854 247.506"/>
<path class="l1" d="M235.096 247.506L235.096 298.582"/>
<path class="l1" d="M745.854 247.506L818.82 247.506"/>
<path class="l1" d="M818.82 247.506L818.82 298.582"/>
<path class="l1" d="M366.434 298.582L395.62 298.582"/>
<path class="l1" d="M658.296 298.582L687.482 298.582"/>
<path class="l1" d="M381.027 225.616L381.027 298.582"/>
<path class="l1" d="M672.889 225.616L672.889 298.582"/>
<path class="l1" d="M381.027 225.616L672.889 225.616"/>
<path class="l1" d="M468.585 225.616L468.585 298.582"/>
<path class="l1" d="M585.33 225.616L585.33 298.582"/>
<path class="l1" d="M344.544 320.471L344.544 378.844"/>
<path class="l1" d="M344.544 378.844L709.371 378.844"/>
<path class="l1" d="M709.371 320.471L709.371 378.844"/>
<path class="l1" d="M417.51 320.471L417.51 378.844"/>
<path class="l1" d="M636.406 320.471L636.406 378.844"/>
<path class="l1" d="M490.475 349.657L950.157 349.657"/>
<path class="l1" d="M490.475 320.471L490.475 349.657"/>
<path class="l1" d="M563.44 320.471L563.44 349.657"/>
<path class="l1" d="M512.365 298.582L541.551 298.582"/>
<path class="l1" d="M526.958 298.582L526.958 349.657"/>
<path class="l1" d="M439.399 298.582L439.399 320.471"/>
<path class="l1" d="M417.51 320.471L439.399 320.471"/>
<path class="l1" d="M614.516 298.582L614.516 320.471"/>
<path class="l1" d="M614.516 320.471L636.406 320.471"/>
<path class="l1" d="M74.572 590.443L818.82 590.443"/>
<path class="l1" d="M344.544 459.106L899.082 459.106"/>
<path class="l1" d="M147.537 196.43L366.434 196.43"/>
<path class="l1" d="M147.537 196.43L147.537 459.106"/>
<path class="l1" d="M147.537 459.106L344.544 459.106"/>
<path class="l1" d="M111.055 152.651L526.958 152.651"/>
<path class="l1" d="M111.055 152.651L111.055 707.188"/>
<path class="l1" d="M658.296 860.416L818.82 860.416"/>
<path class="l1" d="M877.192 772.857L877.192 860.416"/>
<path class="l1" d="M293.468 772.857L322.655 772.857"/>
<path class="l1" d="M731.261 772.857L760.447 772.857"/>
<path class="l1" d="M745.854 772.857L745.854 860.416"/>
<path class="l1" d="M308.061 772.857L308.061 860.416"/>
<path class="l1" d="M344.544 743.671L344.544 750.967"/>
<path class="l1" d="M512.365 772.857L541.551 772.857"/>
<path class="l1" d="M490.475 721.781L950.157 721.781"/>
<path class="l1" d="M490.475 721.781L490.475 750.967"/>
<path class="l1" d="M563.44 721.781L563.44 750.967"/>
<path class="l1" d="M526.958 721.781L526.958 772.857"/>
<path class="l1" d="M658.296 772.857L687.482 772.857"/>
<path class="l1" d="M366.434 772.857L395.62 772.857"/>
<path class="l1" d="M381.027 772.857L381.027 845.822"/>
<path class="l1" d="M381.027 845.822L672.889 845.822"/>
<path class="l1" d="M672.889 772.857L672.889 845.822"/>
<path class="l1" d="M468.585 772.857L468.585 845.822"/>
<path class="l1" d="M585.33 772.857L585.33 845.822"/>
<path class="l1" d="M344.544 707.188L344.544 743.671"/>
<path class="l1" d="M111.055 707.188L344.544 707.188"/>
<path class="l1" d="M344.544 707.188L709.371 707.188"/>
<path class="l1" d="M709.371 707.188L709.371 750.967"/>
<path class="l1" d="M636.406 707.188L636.406 750.967"/>
<path class="l1" d="M417.51 707.188L417.51 750.967"/>
<path class="l1" d="M439.399 707.188L439.399 772.857"/>
<path class="l1" d="M614.516 707.188L614.516 772.857"/>
<path class="l1" d="M176.724 772.857L176.724 860.416"/>
<path class="l1" d="M818.82 860.416L877.192 860.416"/>
<path class="l1" d="M855.302 495.588L855.302 590.443"/>
<path class="l1" d="M818.82 590.443L855.302 590.443"/>
<path class="l1" d="M198.613 495.588L198.613 590.443"/>
<path class="l1" d="M293.468 517.478L322.655 517.478"/>
<path class="l1" d="M731.261 517.478L760.447 517.478"/>
<path class="l1" d="M344.544 459.106L344.544 495.588"/>
<path class="l1" d="M417.51 459.106L417.51 495.588"/>
<path class="l1" d="M490.475 459.106L490.475 495.588"/>
<path class="l1" d="M563.44 459.106L563.44 495.588"/>
<path class="l1" d="M636.406 459.106L636.406 495.588"/>
<path class="l1" d="M709.371 459.106L709.371 495.588"/>
<path class="l1" d="M308.061 378.844L308.061 517.478"/>
<path class="l1" d="M308.061 378.844L344.544 378.844"/>
<path class="l1" d="M512.365 517.478L541.551 517.478"/>
<path class="l1" d="M468.585 517.478L468.585 590.443"/>
<path class="l1" d="M585.33 517.478L585.33 590.443"/>
<path class="l1" d="M366.434 517.478L395.62 517.478"/>
<path class="l1" d="M381.027 517.478L381.027 590.443"/>
<path class="l1" d="M526.958 349.657L526.958 517.478"/>
<path class="l1" d="M709.371 378.844L745.854 378.844"/>
<path class="l1" d="M745.854 378.844L745.854 517.478"/>
<path class="l1" d="M658.296 517.478L687.482 517.478"/>
<path class="l1" d="M672.889 517.478L672.889 590.443"/>
<path class="l1" d="M439.399 459.106L439.399 517.478"/>
<path class="l1" d="M614.516 459.106L614.516 517.478"/>
<circle class="l1" cx="366.434" cy="196.43" r="2.91862"/>
<circle class="l1" cx="235.096" cy="247.506" r="2.91862"/>
<circle class="l1" cx="235.096" cy="298.582" r="2.91862"/>
<circle class="l1" cx="745.854" cy="247.506" r="2.91862"/>
<circle class="l1" cx="308.061" cy="247.506" r="2.91862"/>
<circle class="l1" cx="308.061" cy="298.582" r="2.91862"/>
<circle class="l1" cx="235.096" cy="130.761" r="2.91862"/>
<circle class="l1" cx="235.096" cy="298.582" r="2.91862"/>
<circle class="l1" cx="235.096" cy="320.471" r="2.91862"/>
<circle class="l1" cx="308.061" cy="298.582" r="2.91862"/>
<circle class="l1" cx="198.613" cy="21.3129" r="2.91862"/>
<circle class="l1" cx="235.096" cy="94.2783" r="2.91862"/>
<circle class="l1" cx="235.096" cy="94.2783" r="2.91862"/>
<circle class="l1" cx="89.1651" cy="21.3129" r="2.91862"/>
<circle class="l1" cx="308.061" cy="298.582" r="2.91862"/>
<circle class="l1" cx="453.992" cy="21.3129" r="2.91862"/>
<circle class="l1" cx="308.061" cy="21.3129" r="2.91862"/>
<circle class="l1" cx="308.061" cy="94.2783" r="2.91862"/>
<circle class="l1" cx="235.096" cy="130.761" r="2.91862"/>
<circle class="l1" cx="271.579" cy="130.761" r="2.91862"/>
<circle class="l1" cx="235.096" cy="94.2783" r="2.91862"/>
<circle class="l1" cx="235.096" cy="130.761" r="2.91862"/>
<circle class="l1" cx="271.579" cy="130.761" r="2.91862"/>
<circle class="l1" cx="271.579" cy="130.761" r="2.91862"/>
<circle class="l1" cx="490.475" cy="130.761" r="2.91862"/>
<circle class="l1" cx="344.544" cy="378.844" r="2.91862"/>
<circle class="l1" cx="308.061" cy="517.478" r="2.91862"/>
<circle class="l1" cx="198.613" cy="495.588" r="2.91862"/>
<circle class="l1" cx="198.613" cy="590.443" r="2.91862"/>
<circle class="l1" cx="344.544" cy="459.106" r="2.91862"/>
<circle class="l1" cx="235.096" cy="495.588" r="2.91862"/>
<circle class="l1" cx="235.096" cy="517.478" r="2.91862"/>
<circle class="l1" cx="74.572" cy="860.416" r="2.91862"/>
<circle class="l1" cx="176.724" cy="860.416" r="2.91862"/>
<circle class="l1" cx="344.544" cy="707.188" r="2.91862"/>
<circle class="l1" cx="308.061" cy="772.857" r="2.91862"/>
<circle class="l1" cx="308.061" cy="860.416" r="2.91862"/>
<circle class="l1" cx="235.096" cy="750.967" r="2.91862"/>
<circle class="l1" cx="235.096" cy="772.857" r="2.91862"/>
<circle class="l1" cx="526.958" cy="298.582" r="2.91862"/>
<circle class="l1" cx="526.958" cy="349.657" r="2.91862"/>
<circle class="l1" cx="585.33" cy="225.616" r="2.91862"/>
<circle class="l1" cx="468.585" cy="225.616" r="2.91862"/>
<circle class="l1" cx="381.027" cy="298.582" r="2.91862"/>
<circle class="l1" cx="526.958" cy="94.2783" r="2.91862"/>
<circle class="l1" cx="658.296" cy="167.244" r="2.91862"/>
<circle class="l1" cx="366.434" cy="196.43" r="2.91862"/>
<circle class="l1" cx="366.434" cy="196.43" r="2.91862"/>
<circle class="l1" cx="599.923" cy="21.3129" r="2.91862"/>
<circle class="l1" cx="745.854" cy="21.3129" r="2.91862"/>
<circle class="l1" cx="453.992" cy="21.3129" r="2.91862"/>
<circle class="l1" cx="599.923" cy="21.3129" r="2.91862"/>
<circle class="l1" cx="599.923" cy="21.3129" r="2.91862"/>
<circle class="l1" cx="599.923" cy="94.2783" r="2.91862"/>
<circle class="l1" cx="563.44" cy="130.761" r="2.91862"/>
<circle class="l1" cx="490.475" cy="130.761" r="2.91862"/>
<circle class="l1" cx="782.337" cy="130.761" r="2.91862"/>
<circle class="l1" cx="453.992" cy="21.3129" r="2.91862"/>
<circle class="l1" cx="453.992" cy="94.2783" r="2.91862"/>
<circle class="l1" cx="344.544" cy="130.761" r="2.91862"/>
<circle class="l1" cx="417.51" cy="130.761" r="2.91862"/>
<circle class="l1" cx="490.475" cy="130.761" r="2.91862"/>
<circle class="l1" cx="614.516" cy="459.106" r="2.91862"/>
<circle class="l1" cx="439.399" cy="459.106" r="2.91862"/>
<circle class="l1" cx="526.958" cy="349.657" r="2.91862"/>
<circle class="l1" cx="526.958" cy="517.478" r="2.91862"/>
<circle class="l1" cx="381.027" cy="517.478" r="2.91862"/>
<circle class="l1" cx="381.027" cy="590.443" r="2.91862"/>
<circle class="l1" cx="585.33" cy="590.443" r="2.91862"/>
<circle class="l1" cx="468.585" cy="590.443" r="2.91862"/>
<circle class="l1" cx="563.44" cy="459.106" r="2.91862"/>
<circle class="l1" cx="490.475" cy="459.106" r="2.91862"/>
<circle class="l1" cx="417.51" cy="459.106" r="2.91862"/>
<circle class="l1" cx="344.544" cy="459.106" r="2.91862"/>
<circle class="l1" cx="344.544" cy="459.106" r="2.91862"/>
<circle class="l1" cx="563.44" cy="349.657" r="2.91862"/>
<circle class="l1" cx="417.51" cy="378.844" r="2.91862"/>
<circle class="l1" cx="344.544" cy="378.844" r="2.91862"/>
<circle class="l1" cx="709.371" cy="378.844" r="2.91862"/>
<circle class="l1" cx="344.544" cy="378.844" r="2.91862"/>
<circle class="l1" cx="614.516" cy="707.188" r="2.91862"/>
<circle class="l1" cx="439.399" cy="707.188" r="2.91862"/>
<circle class="l1" cx="417.51" cy="707.188" r="2.91862"/>
<circle class="l1" cx="344.544" cy="707.188" r="2.91862"/>
<circle class="l1" cx="344.544" cy="707.188" r="2.91862"/>
<circle class="l1" cx="585.33" cy="845.822" r="2.91862"/>
<circle class="l1" cx="468.585" cy="845.822" r="2.91862"/>
<circle class="l1" cx="381.027" cy="772.857" r="2.91862"/>
<circle class="l1" cx="526.958" cy="721.781" r="2.91862"/>
<circle class="l1" cx="526.958" cy="772.857" r="2.91862"/>
<circle class="l1" cx="563.44" cy="721.781" r="2.91862"/>
<circle class="l1" cx="672.889" cy="298.582" r="2.91862"/>
<circle class="l1" cx="818.82" cy="298.582" r="2.91862"/>
<circle class="l1" cx="745.854" cy="247.506" r="2.91862"/>
<circle class="l1" cx="745.854" cy="247.506" r="2.91862"/>
<circle class="l1" cx="745.854" cy="298.582" r="2.91862"/>
<circle class="l1" cx="818.82" cy="298.582" r="2.91862"/>
<circle class="l1" cx="818.82" cy="320.471" r="2.91862"/>
<circle class="l1" cx="745.854" cy="298.582" r="2.91862"/>
<circle class="l1" cx="745.854" cy="21.3129" r="2.91862"/>
<circle class="l1" cx="818.82" cy="94.2783" r="2.91862"/>
<circle class="l1" cx="658.296" cy="167.244" r="2.91862"/>
<circle class="l1" cx="745.854" cy="298.582" r="2.91862"/>
<circle class="l1" cx="818.82" cy="94.2783" r="2.91862"/>
<circle class="l1" cx="658.296" cy="167.244" r="2.91862"/>
<circle class="l1" cx="818.82" cy="94.2783" r="2.91862"/>
<circle class="l1" cx="782.337" cy="130.761" r="2.91862"/>
<circle class="l1" cx="745.854" cy="21.3129" r="2.91862"/>
<circle class="l1" cx="745.854" cy="94.2783" r="2.91862"/>
<circle class="l1" cx="636.406" cy="130.761" r="2.91862"/>
<circle class="l1" cx="709.371" cy="130.761" r="2.91862"/>
<circle class="l1" cx="782.337" cy="130.761" r="2.91862"/>
<circle class="l1" cx="672.889" cy="517.478" r="2.91862"/>
<circle class="l1" cx="672.889" cy="590.443" r="2.91862"/>
<circle class="l1" cx="745.854" cy="517.478" r="2.91862"/>
<circle class="l1" cx="709.371" cy="378.844" r="2.91862"/>
<circle class="l1" cx="709.371" cy="459.106" r="2.91862"/>
<circle class="l1" cx="636.406" cy="459.106" r="2.91862"/>
<circle class="l1" cx="855.302" cy="495.588" r="2.91862"/>
<circle class="l1" cx="636.406" cy="378.844" r="2.91862"/>
<circle class="l1" cx="709.371" cy="378.844" r="2.91862"/>
<circle class="l1" cx="818.82" cy="495.588" r="2.91862"/>
<circle class="l1" cx="818.82" cy="517.478" r="2.91862"/>
<circle class="l1" cx="855.302" cy="495.588" r="2.91862"/>
<circle class="l1" cx="855.302" cy="495.588" r="2.91862"/>
<circle class="l1" cx="636.406" cy="707.188" r="2.91862"/>
<circle class="l1" cx="672.889" cy="772.857" r="2.91862"/>
<circle class="l1" cx="745.854" cy="772.857" r="2.91862"/>
<circle class="l1" cx="745.854" cy="860.416" r="2.91862"/>
<circle class="l1" cx="818.82" cy="750.967" r="2.91862"/>
<circle class="l1" cx="818.82" cy="750.967" r="2.91862"/>
<circle class="l1" cx="818.82" cy="772.857" r="2.91862"/>
<circle class="l1" cx="818.82" cy="750.967" r="2.91862"/>
<circle class="l1" cx="920.971" cy="721.781" r="2.91862"/>
</svg>
