<svg xmlns="http://www.w3.org/2000/svg" width="1848" height="880" version="1.1">
<style type="text/css">
.l0{
 fill: #000000;
  stroke: #000000;
  stroke-linecap:round;
  stroke-linejoin:round;
  stroke-width: 0.787983;
}
.l1{
 fill: #00ccee;
  stroke: #00ccee;
  stroke-linecap:round;
  stroke-linejoin:round;
  stroke-width: 0.787983;
}
.l2{
  fill: none;
  stroke: #3f3f3f;
  stroke-linecap:round;
  stroke-linejoin:round;
  stroke-width: 0.787983;
}
.l3{
 fill: #cccccc; fill-opacity: 0.5;
  stroke: #cccccc;
  stroke-linecap:round;
  stroke-linejoin:round;
  stroke-width: 0.787983;
}
.l4{
 fill: #88dd00;
  stroke: #88dd00;
  stroke-linecap:round;
  stroke-linejoin:round;
  stroke-width: 0.787983;
}
.l5{
 fill: #bb2200;
  stroke: #bb2200;
  stroke-linecap:round;
  stroke-linejoin:round;
  stroke-width: 0.787983;
}
.l6{
 fill: #00ccee; fill-opacity: 0.5;
  stroke: #00ccee;
  stroke-linecap:round;
  stroke-linejoin:round;
  stroke-width: 0.787983;
}
.l7{
 fill: #ff0000; fill-opacity: 0.5;
  stroke: #ff0000;
  stroke-linecap:round;
  stroke-linejoin:round;
  stroke-width: 0.787983;
}
.l8{
 fill: #ffff00; fill-opacity: 0.5;
  stroke: #ffff00;
  stroke-linecap:round;
  stroke-linejoin:round;
  stroke-width: 0.787983;
}
.l9{
 fill: #ffffff; fill-opacity: 0.5;
  stroke: #ffffff;
  stroke-linecap:round;
  stroke-linejoin:round;
  stroke-width: 0.787983;
}
.l10{
 fill: #ff00ff;
  stroke: #ff00ff;
  stroke-linecap:round;
  stroke-linejoin:round;
  stroke-width: 0.787983;
}
.l11{
 fill: #00ff00; fill-opacity: 0.5;
  stroke: #00ff00;
  stroke-linecap:round;
  stroke-linejoin:round;
  stroke-width: 0.787983;
}
.l12{
 fill: #0044dd; fill-opacity: 0.5;
  stroke: #0044dd;
  stroke-linecap:round;
  stroke-linejoin:round;
  stroke-width: 0.787983;
}
.l13{
 fill: #aaaa00; fill-opacity: 0.5;
  stroke: #aaaa00;
  stroke-linecap:round;
  stroke-linejoin:round;
  stroke-width: 0.787983;
}
.l14{
  fill: none;
  stroke: #aaccaa;
  stroke-linecap:round;
  stroke-linejoin:round;
  stroke-width: 0.787983;
}
.l15{
 fill: #ff7777; fill-opacity: 0.5;
  stroke: #ff7777;
  stroke-linecap:round;
  stroke-linejoin:round;
  stroke-width: 0.787983;
}
.l16{
 fill: #bfff81; fill-opacity: 0.5;
  stroke: #bfff81;
  stroke-linecap:round;
  stroke-linejoin:round;
  stroke-width: 0.787983;
}
.l17{
  fill: none;
  stroke: #00ffcc;
  stroke-linecap:round;
  stroke-linejoin:round;
  stroke-width: 0.787983;
}
.l18{
 fill: #ce0097; fill-opacity: 0.5;
  stroke: #ce0097;
  stroke-linecap:round;
  stroke-linejoin:round;
  stroke-width: 0.787983;
}
.l19{
  fill: none;
  stroke: #d2d46b;
  stroke-linecap:round;
  stroke-linejoin:round;
  stroke-width: 0.787983;
}
.l20{
  fill: none;
  stroke: #ef6158;
  stroke-linecap:round;
  stroke-linejoin:round;
  stroke-width: 0.787983;
}
.l21{
  fill: none;
  stroke: #fdb200;
  stroke-linecap:round;
  stroke-linejoin:round;
  stroke-width: 0.787983;
}
text {font-family: Sans-Serif;}
</style>
<rect class="l0" x="0" y="0" width="1848" height="880"/>
<text fill="#00ccee"  xml:space="preserve" font-size="12.5202" transform="translate(35.6518, 24.7512)" >VP</text>
<text fill="#00ccee"  xml:space="preserve" font-size="12.5202" transform="translate(34.6518, 863.808)" >VN</text>
<text fill="#00ccee"  xml:space="preserve" font-size="12.5202" transform="translate(1227.22, 354.67)" >Vcp</text>
<text fill="#00ccee"  xml:space="preserve" font-size="12.5202" transform="translate(1227.22, 464.112)" >Vbn</text>
<text fill="#00ccee"  xml:space="preserve" font-size="12.5202" transform="translate(1227.22, 726.773)" >Vcn</text>
<text fill="#00ccee"  xml:space="preserve" font-size="12.5202" transform="translate(27.6518, 134.193)" >Vbp</text>
<text fill="#cccccc"  xml:space="preserve" font-size="7.58799" transform="translate(271.988, 90.6728) rotate(270)" >M1a</text>
<text fill="#cccccc"  xml:space="preserve" font-size="7.58799" transform="translate(282.932, 90.6728) rotate(270)" >pfet_01v8</text>
<text fill="#aaaa00"  xml:space="preserve" font-size="7.58799" transform="translate(293.876, 90.6728) rotate(270)" >1 x 6 / 0.5</text>
<text fill="#cccccc"  xml:space="preserve" font-size="7.58799" transform="translate(344.949, 90.6728) rotate(270)" >M2a</text>
<text fill="#cccccc"  xml:space="preserve" font-size="7.58799" transform="translate(355.894, 90.6728) rotate(270)" >pfet_01v8</text>
<text fill="#aaaa00"  xml:space="preserve" font-size="7.58799" transform="translate(366.838, 90.6728) rotate(270)" >1 x 6 / 0.5</text>
<text fill="#cccccc"  xml:space="preserve" font-size="7.58799" transform="translate(417.911, 90.6728) rotate(270)" >M3a</text>
<text fill="#cccccc"  xml:space="preserve" font-size="7.58799" transform="translate(428.855, 90.6728) rotate(270)" >pfet_01v8</text>
<text fill="#aaaa00"  xml:space="preserve" font-size="7.58799" transform="translate(439.799, 90.6728) rotate(270)" >1 x 6 / 0.5</text>
<text fill="#cccccc"  xml:space="preserve" font-size="7.58799" transform="translate(490.872, 90.6728) rotate(270)" >M4a</text>
<text fill="#cccccc"  xml:space="preserve" font-size="7.58799" transform="translate(501.816, 90.6728) rotate(270)" >pfet_01v8</text>
<text fill="#aaaa00"  xml:space="preserve" font-size="7.58799" transform="translate(512.761, 90.6728) rotate(270)" >1 x 6 / 0.5</text>
<text fill="#cccccc"  xml:space="preserve" font-size="7.58799" transform="translate(636.795, 90.6728) rotate(270)" >M4c</text>
<text fill="#cccccc"  xml:space="preserve" font-size="7.58799" transform="translate(647.739, 90.6728) rotate(270)" >pfet_01v8</text>
<text fill="#aaaa00"  xml:space="preserve" font-size="7.58799" transform="translate(658.684, 90.6728) rotate(270)" >1 x 6 / 0.5</text>
<text fill="#cccccc"  xml:space="preserve" font-size="7.58799" transform="translate(782.718, 90.6728) rotate(270)" >M3b</text>
<text fill="#cccccc"  xml:space="preserve" font-size="7.58799" transform="translate(793.662, 90.6728) rotate(270)" >pfet_01v8</text>
<text fill="#aaaa00"  xml:space="preserve" font-size="7.58799" transform="translate(804.606, 90.6728) rotate(270)" >1 x 6 / 0.5</text>
<text fill="#cccccc"  xml:space="preserve" font-size="7.58799" transform="translate(855.679, 90.6728) rotate(270)" >M2b</text>
<text fill="#cccccc"  xml:space="preserve" font-size="7.58799" transform="translate(866.624, 90.6728) rotate(270)" >pfet_01v8</text>
<text fill="#aaaa00"  xml:space="preserve" font-size="7.58799" transform="translate(877.568, 90.6728) rotate(270)" >1 x 6 / 0.5</text>
<text fill="#cccccc"  xml:space="preserve" font-size="7.58799" transform="translate(928.641, 90.6728) rotate(270)" >M1b</text>
<text fill="#cccccc"  xml:space="preserve" font-size="7.58799" transform="translate(939.585, 90.6728) rotate(270)" >pfet_01v8</text>
<text fill="#aaaa00"  xml:space="preserve" font-size="7.58799" transform="translate(950.529, 90.6728) rotate(270)" >1 x 6 / 0.5</text>
<text fill="#cccccc"  xml:space="preserve" font-size="7.58799" transform="translate(417.911, 294.965) rotate(270)" >M6a</text>
<text fill="#cccccc"  xml:space="preserve" font-size="7.58799" transform="translate(428.855, 294.965) rotate(270)" >pfet_01v8</text>
<text fill="#aaaa00"  xml:space="preserve" font-size="7.58799" transform="translate(439.799, 294.965) rotate(270)" >1 x 6 / 0.5</text>
<text fill="#cccccc"  xml:space="preserve" font-size="7.58799" transform="translate(490.872, 294.965) rotate(270)" >M6b</text>
<text fill="#cccccc"  xml:space="preserve" font-size="7.58799" transform="translate(501.816, 294.965) rotate(270)" >pfet_01v8</text>
<text fill="#aaaa00"  xml:space="preserve" font-size="7.58799" transform="translate(512.761, 294.965) rotate(270)" >1 x 6 / 0.5</text>
<text fill="#cccccc"  xml:space="preserve" font-size="7.58799" transform="translate(563.834, 294.965) rotate(270)" >M5a</text>
<text fill="#cccccc"  xml:space="preserve" font-size="7.58799" transform="translate(574.778, 294.965) rotate(270)" >pfet_01v8</text>
<text fill="#aaaa00"  xml:space="preserve" font-size="7.58799" transform="translate(585.722, 294.965) rotate(270)" >1 x 6 / 0.5</text>
<text fill="#cccccc"  xml:space="preserve" font-size="7.58799" transform="translate(636.795, 294.965) rotate(270)" >M5b</text>
<text fill="#cccccc"  xml:space="preserve" font-size="7.58799" transform="translate(647.739, 294.965) rotate(270)" >pfet_01v8</text>
<text fill="#aaaa00"  xml:space="preserve" font-size="7.58799" transform="translate(658.684, 294.965) rotate(270)" >1 x 6 / 0.5</text>
<text fill="#cccccc"  xml:space="preserve" font-size="7.58799" transform="translate(709.757, 294.965) rotate(270)" >M6c</text>
<text fill="#cccccc"  xml:space="preserve" font-size="7.58799" transform="translate(720.701, 294.965) rotate(270)" >pfet_01v8</text>
<text fill="#aaaa00"  xml:space="preserve" font-size="7.58799" transform="translate(731.645, 294.965) rotate(270)" >1 x 6 / 0.5</text>
<text fill="#cccccc"  xml:space="preserve" font-size="7.58799" transform="translate(782.718, 294.965) rotate(270)" >M6d</text>
<text fill="#cccccc"  xml:space="preserve" font-size="7.58799" transform="translate(793.662, 294.965) rotate(270)" >pfet_01v8</text>
<text fill="#aaaa00"  xml:space="preserve" font-size="7.58799" transform="translate(804.606, 294.965) rotate(270)" >1 x 6 / 0.5</text>
<text fill="#cccccc"  xml:space="preserve" font-size="7.58799" transform="translate(586.019, 538.145) rotate(270)" >M8a</text>
<text fill="#cccccc"  xml:space="preserve" font-size="7.58799" transform="translate(575.074, 561.145) rotate(270)" >nfet_01v8</text>
<text fill="#aaaa00"  xml:space="preserve" font-size="7.58799" transform="translate(564.13, 559.145) rotate(270)" >1 x 6 / 0.5</text>
<text fill="#cccccc"  xml:space="preserve" font-size="7.58799" transform="translate(658.98, 538.145) rotate(270)" >M8b</text>
<text fill="#cccccc"  xml:space="preserve" font-size="7.58799" transform="translate(648.036, 561.145) rotate(270)" >nfet_01v8</text>
<text fill="#aaaa00"  xml:space="preserve" font-size="7.58799" transform="translate(637.092, 559.145) rotate(270)" >1 x 6 / 0.5</text>
<text fill="#cccccc"  xml:space="preserve" font-size="7.58799" transform="translate(440.096, 543.145) rotate(270)" >M10b</text>
<text fill="#cccccc"  xml:space="preserve" font-size="7.58799" transform="translate(429.152, 561.145) rotate(270)" >nfet_01v8</text>
<text fill="#aaaa00"  xml:space="preserve" font-size="7.58799" transform="translate(418.207, 559.145) rotate(270)" >1 x 6 / 0.5</text>
<text fill="#cccccc"  xml:space="preserve" font-size="7.58799" transform="translate(513.057, 538.145) rotate(270)" >M9a</text>
<text fill="#cccccc"  xml:space="preserve" font-size="7.58799" transform="translate(502.113, 561.145) rotate(270)" >nfet_01v8</text>
<text fill="#aaaa00"  xml:space="preserve" font-size="7.58799" transform="translate(491.169, 559.145) rotate(270)" >1 x 6 / 0.5</text>
<text fill="#cccccc"  xml:space="preserve" font-size="7.58799" transform="translate(731.942, 538.145) rotate(270)" >M9b</text>
<text fill="#cccccc"  xml:space="preserve" font-size="7.58799" transform="translate(720.997, 561.145) rotate(270)" >nfet_01v8</text>
<text fill="#aaaa00"  xml:space="preserve" font-size="7.58799" transform="translate(710.053, 559.145) rotate(270)" >1 x 6 / 0.5</text>
<text fill="#cccccc"  xml:space="preserve" font-size="7.58799" transform="translate(804.903, 542.145) rotate(270)" >M10c</text>
<text fill="#cccccc"  xml:space="preserve" font-size="7.58799" transform="translate(793.959, 561.145) rotate(270)" >nfet_01v8</text>
<text fill="#aaaa00"  xml:space="preserve" font-size="7.58799" transform="translate(783.015, 559.145) rotate(270)" >1 x 6 / 0.5</text>
<text fill="#cccccc"  xml:space="preserve" font-size="7.58799" transform="translate(586.019, 798.51) rotate(270)" >M11a</text>
<text fill="#cccccc"  xml:space="preserve" font-size="7.58799" transform="translate(575.074, 816.51) rotate(270)" >nfet_01v8</text>
<text fill="#aaaa00"  xml:space="preserve" font-size="7.58799" transform="translate(564.13, 814.51) rotate(270)" >1 x 6 / 0.5</text>
<text fill="#cccccc"  xml:space="preserve" font-size="7.58799" transform="translate(658.98, 798.51) rotate(270)" >M11b</text>
<text fill="#cccccc"  xml:space="preserve" font-size="7.58799" transform="translate(648.036, 816.51) rotate(270)" >nfet_01v8</text>
<text fill="#aaaa00"  xml:space="preserve" font-size="7.58799" transform="translate(637.092, 814.51) rotate(270)" >1 x 6 / 0.5</text>
<text fill="#cccccc"  xml:space="preserve" font-size="7.58799" transform="translate(367.134, 798.51) rotate(270)" >M13a</text>
<text fill="#cccccc"  xml:space="preserve" font-size="7.58799" transform="translate(356.19, 816.51) rotate(270)" >nfet_01v8</text>
<text fill="#aaaa00"  xml:space="preserve" font-size="7.58799" transform="translate(345.246, 814.51) rotate(270)" >1 x 6 / 0.5</text>
<text fill="#cccccc"  xml:space="preserve" font-size="7.58799" transform="translate(440.096, 798.51) rotate(270)" >M12a</text>
<text fill="#cccccc"  xml:space="preserve" font-size="7.58799" transform="translate(429.152, 816.51) rotate(270)" >nfet_01v8</text>
<text fill="#aaaa00"  xml:space="preserve" font-size="7.58799" transform="translate(418.207, 814.51) rotate(270)" >1 x 6 / 0.5</text>
<text fill="#cccccc"  xml:space="preserve" font-size="7.58799" transform="translate(804.903, 798.51) rotate(270)" >M12d</text>
<text fill="#cccccc"  xml:space="preserve" font-size="7.58799" transform="translate(793.959, 816.51) rotate(270)" >nfet_01v8</text>
<text fill="#aaaa00"  xml:space="preserve" font-size="7.58799" transform="translate(783.015, 814.51) rotate(270)" >1 x 6 / 0.5</text>
<text fill="#cccccc"  xml:space="preserve" font-size="7.58799" transform="translate(877.864, 798.51) rotate(270)" >M13b</text>
<text fill="#cccccc"  xml:space="preserve" font-size="7.58799" transform="translate(866.92, 816.51) rotate(270)" >nfet_01v8</text>
<text fill="#aaaa00"  xml:space="preserve" font-size="7.58799" transform="translate(855.976, 814.51) rotate(270)" >1 x 6 / 0.5</text>
<text fill="#cccccc"  xml:space="preserve" font-size="7.58799" transform="translate(1034.73, 114.969) rotate(270)" >M15</text>
<text fill="#cccccc"  xml:space="preserve" font-size="7.58799" transform="translate(1023.79, 137.969) rotate(270)" >pfet_01v8</text>
<text fill="#aaaa00"  xml:space="preserve" font-size="7.58799" transform="translate(1012.84, 135.969) rotate(270)" >1 x 6 / 0.5</text>
<text fill="#cccccc"  xml:space="preserve" font-size="7.58799" transform="translate(294.173, 793.51) rotate(270)" >M25</text>
<text fill="#cccccc"  xml:space="preserve" font-size="7.58799" transform="translate(283.229, 816.51) rotate(270)" >nfet_01v8</text>
<text fill="#aaaa00"  xml:space="preserve" font-size="7.58799" transform="translate(272.285, 814.51) rotate(270)" >1 x 6 / 0.5</text>
<text fill="#cccccc"  xml:space="preserve" font-size="7.58799" transform="translate(221.212, 793.51) rotate(270)" >M24</text>
<text fill="#cccccc"  xml:space="preserve" font-size="7.58799" transform="translate(210.267, 816.51) rotate(270)" >nfet_01v8</text>
<text fill="#aaaa00"  xml:space="preserve" font-size="7.58799" transform="translate(199.323, 814.51) rotate(270)" >1 x 6 / 0.5</text>
<text fill="#cccccc"  xml:space="preserve" font-size="7.58799" transform="translate(950.826, 793.51) rotate(270)" >M26</text>
<text fill="#cccccc"  xml:space="preserve" font-size="7.58799" transform="translate(939.882, 816.51) rotate(270)" >nfet_01v8</text>
<text fill="#aaaa00"  xml:space="preserve" font-size="7.58799" transform="translate(928.937, 814.51) rotate(270)" >1 x 6 / 0.5</text>
<text fill="#cccccc"  xml:space="preserve" font-size="7.58799" transform="translate(1023.79, 793.51) rotate(270)" >M27</text>
<text fill="#cccccc"  xml:space="preserve" font-size="7.58799" transform="translate(1012.84, 816.51) rotate(270)" >nfet_01v8</text>
<text fill="#aaaa00"  xml:space="preserve" font-size="7.58799" transform="translate(1001.9, 814.51) rotate(270)" >1 x 6 / 0.5</text>
<text fill="#cccccc"  xml:space="preserve" font-size="7.58799" transform="translate(367.134, 543.145) rotate(270)" >M10a</text>
<text fill="#cccccc"  xml:space="preserve" font-size="7.58799" transform="translate(356.19, 561.145) rotate(270)" >nfet_01v8</text>
<text fill="#aaaa00"  xml:space="preserve" font-size="7.58799" transform="translate(345.246, 559.145) rotate(270)" >1 x 6 / 0.5</text>
<text fill="#cccccc"  xml:space="preserve" font-size="7.58799" transform="translate(294.173, 538.145) rotate(270)" >M20</text>
<text fill="#cccccc"  xml:space="preserve" font-size="7.58799" transform="translate(283.229, 561.145) rotate(270)" >nfet_01v8</text>
<text fill="#aaaa00"  xml:space="preserve" font-size="7.58799" transform="translate(272.285, 559.145) rotate(270)" >1 x 6 / 0.5</text>
<text fill="#cccccc"  xml:space="preserve" font-size="7.58799" transform="translate(950.826, 538.145) rotate(270)" >M23</text>
<text fill="#cccccc"  xml:space="preserve" font-size="7.58799" transform="translate(939.882, 561.145) rotate(270)" >nfet_01v8</text>
<text fill="#aaaa00"  xml:space="preserve" font-size="7.58799" transform="translate(928.937, 559.145) rotate(270)" >1 x 6 / 0.5</text>
<text fill="#cccccc"  xml:space="preserve" font-size="7.58799" transform="translate(877.864, 543.145) rotate(270)" >M10d</text>
<text fill="#cccccc"  xml:space="preserve" font-size="7.58799" transform="translate(866.92, 561.145) rotate(270)" >nfet_01v8</text>
<text fill="#aaaa00"  xml:space="preserve" font-size="7.58799" transform="translate(855.976, 559.145) rotate(270)" >1 x 6 / 0.5</text>
<text fill="#cccccc"  xml:space="preserve" font-size="7.58799" transform="translate(232.156, 114.969) rotate(270)" >M14</text>
<text fill="#cccccc"  xml:space="preserve" font-size="7.58799" transform="translate(221.212, 137.969) rotate(270)" >pfet_01v8</text>
<text fill="#aaaa00"  xml:space="preserve" font-size="7.58799" transform="translate(210.267, 135.969) rotate(270)" >1 x 6 / 0.5</text>
<text fill="#cccccc"  xml:space="preserve" font-size="7.58799" transform="translate(344.949, 294.965) rotate(270)" >M7a</text>
<text fill="#cccccc"  xml:space="preserve" font-size="7.58799" transform="translate(355.894, 294.965) rotate(270)" >pfet_01v8</text>
<text fill="#aaaa00"  xml:space="preserve" font-size="7.58799" transform="translate(366.838, 294.965) rotate(270)" >1 x 6 / 0.5</text>
<text fill="#cccccc"  xml:space="preserve" font-size="7.58799" transform="translate(271.988, 294.965) rotate(270)" >M16</text>
<text fill="#cccccc"  xml:space="preserve" font-size="7.58799" transform="translate(282.932, 294.965) rotate(270)" >pfet_01v8</text>
<text fill="#aaaa00"  xml:space="preserve" font-size="7.58799" transform="translate(293.876, 294.965) rotate(270)" >1 x 6 / 0.5</text>
<text fill="#cccccc"  xml:space="preserve" font-size="7.58799" transform="translate(855.679, 294.965) rotate(270)" >M7b</text>
<text fill="#cccccc"  xml:space="preserve" font-size="7.58799" transform="translate(866.624, 294.965) rotate(270)" >pfet_01v8</text>
<text fill="#aaaa00"  xml:space="preserve" font-size="7.58799" transform="translate(877.568, 294.965) rotate(270)" >1 x 6 / 0.5</text>
<text fill="#cccccc"  xml:space="preserve" font-size="7.58799" transform="translate(928.641, 294.965) rotate(270)" >M19</text>
<text fill="#cccccc"  xml:space="preserve" font-size="7.58799" transform="translate(939.585, 294.965) rotate(270)" >pfet_01v8</text>
<text fill="#aaaa00"  xml:space="preserve" font-size="7.58799" transform="translate(950.529, 294.965) rotate(270)" >1 x 6 / 0.5</text>
<text fill="#cccccc"  xml:space="preserve" font-size="7.58799" transform="translate(563.834, 90.6728) rotate(270)" >M4b</text>
<text fill="#cccccc"  xml:space="preserve" font-size="7.58799" transform="translate(574.778, 90.6728) rotate(270)" >pfet_01v8</text>
<text fill="#aaaa00"  xml:space="preserve" font-size="7.58799" transform="translate(585.722, 90.6728) rotate(270)" >1 x 6 / 0.5</text>
<text fill="#cccccc"  xml:space="preserve" font-size="7.58799" transform="translate(709.757, 90.6728) rotate(270)" >M4d</text>
<text fill="#cccccc"  xml:space="preserve" font-size="7.58799" transform="translate(720.701, 90.6728) rotate(270)" >pfet_01v8</text>
<text fill="#aaaa00"  xml:space="preserve" font-size="7.58799" transform="translate(731.645, 90.6728) rotate(270)" >1 x 6 / 0.5</text>
<text fill="#cccccc"  xml:space="preserve" font-size="7.58799" transform="translate(199.027, 294.965) rotate(270)" >M3</text>
<text fill="#cccccc"  xml:space="preserve" font-size="7.58799" transform="translate(209.971, 294.965) rotate(270)" >pfet_01v8</text>
<text fill="#aaaa00"  xml:space="preserve" font-size="7.58799" transform="translate(220.915, 294.965) rotate(270)" >1 x 6 / 0.5</text>
<text fill="#cccccc"  xml:space="preserve" font-size="7.58799" transform="translate(1001.6, 294.965) rotate(270)" >M4</text>
<text fill="#cccccc"  xml:space="preserve" font-size="7.58799" transform="translate(1012.55, 294.965) rotate(270)" >pfet_01v8</text>
<text fill="#aaaa00"  xml:space="preserve" font-size="7.58799" transform="translate(1023.49, 294.965) rotate(270)" >1 x 6 / 0.5</text>
<text fill="#cccccc"  xml:space="preserve" font-size="7.58799" transform="translate(221.212, 533.145) rotate(270)" >M5</text>
<text fill="#cccccc"  xml:space="preserve" font-size="7.58799" transform="translate(210.267, 561.145) rotate(270)" >nfet_01v8</text>
<text fill="#aaaa00"  xml:space="preserve" font-size="7.58799" transform="translate(199.323, 559.145) rotate(270)" >1 x 6 / 0.5</text>
<text fill="#cccccc"  xml:space="preserve" font-size="7.58799" transform="translate(1023.79, 533.145) rotate(270)" >M6</text>
<text fill="#cccccc"  xml:space="preserve" font-size="7.58799" transform="translate(1012.84, 561.145) rotate(270)" >nfet_01v8</text>
<text fill="#aaaa00"  xml:space="preserve" font-size="7.58799" transform="translate(1001.9, 559.145) rotate(270)" >1 x 6 / 0.5</text>
<text fill="#cccccc"  xml:space="preserve" font-size="7.58799" transform="translate(731.942, 797.51) rotate(270)" >M12c</text>
<text fill="#cccccc"  xml:space="preserve" font-size="7.58799" transform="translate(720.997, 816.51) rotate(270)" >nfet_01v8</text>
<text fill="#aaaa00"  xml:space="preserve" font-size="7.58799" transform="translate(710.053, 814.51) rotate(270)" >1 x 6 / 0.5</text>
<text fill="#cccccc"  xml:space="preserve" font-size="7.58799" transform="translate(513.057, 798.51) rotate(270)" >M12b</text>
<text fill="#cccccc"  xml:space="preserve" font-size="7.58799" transform="translate(502.113, 816.51) rotate(270)" >nfet_01v8</text>
<text fill="#aaaa00"  xml:space="preserve" font-size="7.58799" transform="translate(491.169, 814.51) rotate(270)" >1 x 6 / 0.5</text>
<path class="l4" d="M264.126 94.3209L275.07 94.3209"/>
<path class="l4" d="M275.07 94.3209L275.07 105.265"/>
<path class="l4" d="M270.966 105.265L301.063 105.265"/>
<path class="l4" d="M296.959 94.3209L296.959 105.265"/>
<path class="l4" d="M296.959 94.3209L307.903 94.3209"/>
<path class="l4" d="M275.07 108.001L296.959 108.001"/>
<path class="l4" d="M286.014 112.105L286.014 116.209"/>
<circle class="l4" cx="286.014" cy="110.053" r="2.05204" style="fill:none;"/>
<path class="l4" d="M337.087 94.3209L348.032 94.3209"/>
<path class="l4" d="M348.032 94.3209L348.032 105.265"/>
<path class="l4" d="M343.928 105.265L374.024 105.265"/>
<path class="l4" d="M369.92 94.3209L369.92 105.265"/>
<path class="l4" d="M369.92 94.3209L380.864 94.3209"/>
<path class="l4" d="M348.032 108.001L369.92 108.001"/>
<path class="l4" d="M358.976 112.105L358.976 116.209"/>
<circle class="l4" cx="358.976" cy="110.053" r="2.05204" style="fill:none;"/>
<path class="l4" d="M410.049 94.3209L420.993 94.3209"/>
<path class="l4" d="M420.993 94.3209L420.993 105.265"/>
<path class="l4" d="M416.889 105.265L446.986 105.265"/>
<path class="l4" d="M442.881 94.3209L442.881 105.265"/>
<path class="l4" d="M442.881 94.3209L453.826 94.3209"/>
<path class="l4" d="M420.993 108.001L442.881 108.001"/>
<path class="l4" d="M431.937 112.105L431.937 116.209"/>
<circle class="l4" cx="431.937" cy="110.053" r="2.05204" style="fill:none;"/>
<path class="l4" d="M483.01 94.3209L493.954 94.3209"/>
<path class="l4" d="M493.954 94.3209L493.954 105.265"/>
<path class="l4" d="M489.85 105.265L519.947 105.265"/>
<path class="l4" d="M515.843 94.3209L515.843 105.265"/>
<path class="l4" d="M515.843 94.3209L526.787 94.3209"/>
<path class="l4" d="M493.954 108.001L515.843 108.001"/>
<path class="l4" d="M504.899 112.105L504.899 116.209"/>
<circle class="l4" cx="504.899" cy="110.053" r="2.05204" style="fill:none;"/>
<path class="l4" d="M628.933 94.3209L639.877 94.3209"/>
<path class="l4" d="M639.877 94.3209L639.877 105.265"/>
<path class="l4" d="M635.773 105.265L665.87 105.265"/>
<path class="l4" d="M661.766 94.3209L661.766 105.265"/>
<path class="l4" d="M661.766 94.3209L672.71 94.3209"/>
<path class="l4" d="M639.877 108.001L661.766 108.001"/>
<path class="l4" d="M650.822 112.105L650.822 116.209"/>
<circle class="l4" cx="650.822" cy="110.053" r="2.05204" style="fill:none;"/>
<path class="l4" d="M774.856 94.3209L785.8 94.3209"/>
<path class="l4" d="M785.8 94.3209L785.8 105.265"/>
<path class="l4" d="M781.696 105.265L811.793 105.265"/>
<path class="l4" d="M807.689 94.3209L807.689 105.265"/>
<path class="l4" d="M807.689 94.3209L818.633 94.3209"/>
<path class="l4" d="M785.8 108.001L807.689 108.001"/>
<path class="l4" d="M796.744 112.105L796.744 116.209"/>
<circle class="l4" cx="796.744" cy="110.053" r="2.05204" style="fill:none;"/>
<path class="l4" d="M847.817 94.3209L858.762 94.3209"/>
<path class="l4" d="M858.762 94.3209L858.762 105.265"/>
<path class="l4" d="M854.658 105.265L884.754 105.265"/>
<path class="l4" d="M880.65 94.3209L880.65 105.265"/>
<path class="l4" d="M880.65 94.3209L891.594 94.3209"/>
<path class="l4" d="M858.762 108.001L880.65 108.001"/>
<path class="l4" d="M869.706 112.105L869.706 116.209"/>
<circle class="l4" cx="869.706" cy="110.053" r="2.05204" style="fill:none;"/>
<path class="l4" d="M920.779 94.3209L931.723 94.3209"/>
<path class="l4" d="M931.723 94.3209L931.723 105.265"/>
<path class="l4" d="M927.619 105.265L957.716 105.265"/>
<path class="l4" d="M953.611 94.3209L953.611 105.265"/>
<path class="l4" d="M953.611 94.3209L964.556 94.3209"/>
<path class="l4" d="M931.723 108.001L953.611 108.001"/>
<path class="l4" d="M942.667 112.105L942.667 116.209"/>
<circle class="l4" cx="942.667" cy="110.053" r="2.05204" style="fill:none;"/>
<path class="l4" d="M410.049 298.613L420.993 298.613"/>
<path class="l4" d="M420.993 298.613L420.993 309.557"/>
<path class="l4" d="M416.889 309.557L446.986 309.557"/>
<path class="l4" d="M442.881 298.613L442.881 309.557"/>
<path class="l4" d="M442.881 298.613L453.826 298.613"/>
<path class="l4" d="M420.993 312.293L442.881 312.293"/>
<path class="l4" d="M431.937 316.397L431.937 320.501"/>
<circle class="l4" cx="431.937" cy="314.345" r="2.05204" style="fill:none;"/>
<path class="l4" d="M483.01 298.613L493.954 298.613"/>
<path class="l4" d="M493.954 298.613L493.954 309.557"/>
<path class="l4" d="M489.85 309.557L519.947 309.557"/>
<path class="l4" d="M515.843 298.613L515.843 309.557"/>
<path class="l4" d="M515.843 298.613L526.787 298.613"/>
<path class="l4" d="M493.954 312.293L515.843 312.293"/>
<path class="l4" d="M504.899 316.397L504.899 320.501"/>
<circle class="l4" cx="504.899" cy="314.345" r="2.05204" style="fill:none;"/>
<path class="l4" d="M555.972 298.613L566.916 298.613"/>
<path class="l4" d="M566.916 298.613L566.916 309.557"/>
<path class="l4" d="M562.812 309.557L592.908 309.557"/>
<path class="l4" d="M588.804 298.613L588.804 309.557"/>
<path class="l4" d="M588.804 298.613L599.749 298.613"/>
<path class="l4" d="M566.916 312.293L588.804 312.293"/>
<path class="l4" d="M577.86 316.397L577.86 320.501"/>
<circle class="l4" cx="577.86" cy="314.345" r="2.05204" style="fill:none;"/>
<path class="l4" d="M628.933 298.613L639.877 298.613"/>
<path class="l4" d="M639.877 298.613L639.877 309.557"/>
<path class="l4" d="M635.773 309.557L665.87 309.557"/>
<path class="l4" d="M661.766 298.613L661.766 309.557"/>
<path class="l4" d="M661.766 298.613L672.71 298.613"/>
<path class="l4" d="M639.877 312.293L661.766 312.293"/>
<path class="l4" d="M650.822 316.397L650.822 320.501"/>
<circle class="l4" cx="650.822" cy="314.345" r="2.05204" style="fill:none;"/>
<path class="l4" d="M701.895 298.613L712.839 298.613"/>
<path class="l4" d="M712.839 298.613L712.839 309.557"/>
<path class="l4" d="M708.735 309.557L738.831 309.557"/>
<path class="l4" d="M734.727 298.613L734.727 309.557"/>
<path class="l4" d="M734.727 298.613L745.671 298.613"/>
<path class="l4" d="M712.839 312.293L734.727 312.293"/>
<path class="l4" d="M723.783 316.397L723.783 320.501"/>
<circle class="l4" cx="723.783" cy="314.345" r="2.05204" style="fill:none;"/>
<path class="l4" d="M774.856 298.613L785.8 298.613"/>
<path class="l4" d="M785.8 298.613L785.8 309.557"/>
<path class="l4" d="M781.696 309.557L811.793 309.557"/>
<path class="l4" d="M807.689 298.613L807.689 309.557"/>
<path class="l4" d="M807.689 298.613L818.633 298.613"/>
<path class="l4" d="M785.8 312.293L807.689 312.293"/>
<path class="l4" d="M796.744 316.397L796.744 320.501"/>
<circle class="l4" cx="796.744" cy="314.345" r="2.05204" style="fill:none;"/>
<path class="l4" d="M588.804 517.497L599.749 517.497"/>
<path class="l4" d="M588.804 506.553L588.804 517.497"/>
<path class="l4" d="M562.812 506.553L592.908 506.553"/>
<path class="l4" d="M566.916 506.553L566.916 517.497"/>
<path class="l4" d="M555.972 517.497L566.916 517.497"/>
<path class="l4" d="M566.916 503.817L588.804 503.817"/>
<path class="l4" d="M577.86 495.609L577.86 503.817"/>
<path class="l4" d="M661.766 517.497L672.71 517.497"/>
<path class="l4" d="M661.766 506.553L661.766 517.497"/>
<path class="l4" d="M635.773 506.553L665.87 506.553"/>
<path class="l4" d="M639.877 506.553L639.877 517.497"/>
<path class="l4" d="M628.933 517.497L639.877 517.497"/>
<path class="l4" d="M639.877 503.817L661.766 503.817"/>
<path class="l4" d="M650.822 495.609L650.822 503.817"/>
<path class="l4" d="M442.881 517.497L453.826 517.497"/>
<path class="l4" d="M442.881 506.553L442.881 517.497"/>
<path class="l4" d="M416.889 506.553L446.986 506.553"/>
<path class="l4" d="M420.993 506.553L420.993 517.497"/>
<path class="l4" d="M410.049 517.497L420.993 517.497"/>
<path class="l4" d="M420.993 503.817L442.881 503.817"/>
<path class="l4" d="M431.937 495.609L431.937 503.817"/>
<path class="l4" d="M515.843 517.497L526.787 517.497"/>
<path class="l4" d="M515.843 506.553L515.843 517.497"/>
<path class="l4" d="M489.85 506.553L519.947 506.553"/>
<path class="l4" d="M493.954 506.553L493.954 517.497"/>
<path class="l4" d="M483.01 517.497L493.954 517.497"/>
<path class="l4" d="M493.954 503.817L515.843 503.817"/>
<path class="l4" d="M504.899 495.609L504.899 503.817"/>
<path class="l4" d="M734.727 517.497L745.671 517.497"/>
<path class="l4" d="M734.727 506.553L734.727 517.497"/>
<path class="l4" d="M708.735 506.553L738.831 506.553"/>
<path class="l4" d="M712.839 506.553L712.839 517.497"/>
<path class="l4" d="M701.895 517.497L712.839 517.497"/>
<path class="l4" d="M712.839 503.817L734.727 503.817"/>
<path class="l4" d="M723.783 495.609L723.783 503.817"/>
<path class="l4" d="M807.689 517.497L818.633 517.497"/>
<path class="l4" d="M807.689 506.553L807.689 517.497"/>
<path class="l4" d="M781.696 506.553L811.793 506.553"/>
<path class="l4" d="M785.8 506.553L785.8 517.497"/>
<path class="l4" d="M774.856 517.497L785.8 517.497"/>
<path class="l4" d="M785.8 503.817L807.689 503.817"/>
<path class="l4" d="M796.744 495.609L796.744 503.817"/>
<path class="l4" d="M588.804 772.862L599.749 772.862"/>
<path class="l4" d="M588.804 761.918L588.804 772.862"/>
<path class="l4" d="M562.812 761.918L592.908 761.918"/>
<path class="l4" d="M566.916 761.918L566.916 772.862"/>
<path class="l4" d="M555.972 772.862L566.916 772.862"/>
<path class="l4" d="M566.916 759.182L588.804 759.182"/>
<path class="l4" d="M577.86 750.974L577.86 759.182"/>
<path class="l4" d="M661.766 772.862L672.71 772.862"/>
<path class="l4" d="M661.766 761.918L661.766 772.862"/>
<path class="l4" d="M635.773 761.918L665.87 761.918"/>
<path class="l4" d="M639.877 761.918L639.877 772.862"/>
<path class="l4" d="M628.933 772.862L639.877 772.862"/>
<path class="l4" d="M639.877 759.182L661.766 759.182"/>
<path class="l4" d="M650.822 750.974L650.822 759.182"/>
<path class="l4" d="M369.92 772.862L380.864 772.862"/>
<path class="l4" d="M369.92 761.918L369.92 772.862"/>
<path class="l4" d="M343.928 761.918L374.024 761.918"/>
<path class="l4" d="M348.032 761.918L348.032 772.862"/>
<path class="l4" d="M337.087 772.862L348.032 772.862"/>
<path class="l4" d="M348.032 759.182L369.92 759.182"/>
<path class="l4" d="M358.976 750.974L358.976 759.182"/>
<path class="l4" d="M442.881 772.862L453.826 772.862"/>
<path class="l4" d="M442.881 761.918L442.881 772.862"/>
<path class="l4" d="M416.889 761.918L446.986 761.918"/>
<path class="l4" d="M420.993 761.918L420.993 772.862"/>
<path class="l4" d="M410.049 772.862L420.993 772.862"/>
<path class="l4" d="M420.993 759.182L442.881 759.182"/>
<path class="l4" d="M431.937 750.974L431.937 759.182"/>
<path class="l4" d="M807.689 772.862L818.633 772.862"/>
<path class="l4" d="M807.689 761.918L807.689 772.862"/>
<path class="l4" d="M781.696 761.918L811.793 761.918"/>
<path class="l4" d="M785.8 761.918L785.8 772.862"/>
<path class="l4" d="M774.856 772.862L785.8 772.862"/>
<path class="l4" d="M785.8 759.182L807.689 759.182"/>
<path class="l4" d="M796.744 750.974L796.744 759.182"/>
<path class="l4" d="M880.65 772.862L891.594 772.862"/>
<path class="l4" d="M880.65 761.918L880.65 772.862"/>
<path class="l4" d="M854.658 761.918L884.754 761.918"/>
<path class="l4" d="M858.762 761.918L858.762 772.862"/>
<path class="l4" d="M847.817 772.862L858.762 772.862"/>
<path class="l4" d="M858.762 759.182L880.65 759.182"/>
<path class="l4" d="M869.706 750.974L869.706 759.182"/>
<path class="l4" d="M1026.57 94.3209L1037.52 94.3209"/>
<path class="l4" d="M1026.57 83.3766L1026.57 94.3209"/>
<path class="l4" d="M1000.58 83.3766L1030.68 83.3766"/>
<path class="l4" d="M1004.68 83.3766L1004.68 94.3209"/>
<path class="l4" d="M993.74 94.3209L1004.68 94.3209"/>
<path class="l4" d="M1004.68 80.6406L1026.57 80.6406"/>
<path class="l4" d="M1015.63 72.4324L1015.63 76.5365"/>
<circle class="l4" cx="1015.63" cy="78.5885" r="2.05204" style="fill:none;"/>
<path class="l4" d="M296.959 772.862L307.903 772.862"/>
<path class="l4" d="M296.959 761.918L296.959 772.862"/>
<path class="l4" d="M270.966 761.918L301.063 761.918"/>
<path class="l4" d="M275.07 761.918L275.07 772.862"/>
<path class="l4" d="M264.126 772.862L275.07 772.862"/>
<path class="l4" d="M275.07 759.182L296.959 759.182"/>
<path class="l4" d="M286.014 750.974L286.014 759.182"/>
<path class="l4" d="M223.997 772.862L234.941 772.862"/>
<path class="l4" d="M223.997 761.918L223.997 772.862"/>
<path class="l4" d="M198.005 761.918L228.101 761.918"/>
<path class="l4" d="M202.109 761.918L202.109 772.862"/>
<path class="l4" d="M191.165 772.862L202.109 772.862"/>
<path class="l4" d="M202.109 759.182L223.997 759.182"/>
<path class="l4" d="M213.053 750.974L213.053 759.182"/>
<path class="l4" d="M953.611 772.862L964.556 772.862"/>
<path class="l4" d="M953.611 761.918L953.611 772.862"/>
<path class="l4" d="M927.619 761.918L957.716 761.918"/>
<path class="l4" d="M931.723 761.918L931.723 772.862"/>
<path class="l4" d="M920.779 772.862L931.723 772.862"/>
<path class="l4" d="M931.723 759.182L953.611 759.182"/>
<path class="l4" d="M942.667 750.974L942.667 759.182"/>
<path class="l4" d="M1026.57 772.862L1037.52 772.862"/>
<path class="l4" d="M1026.57 761.918L1026.57 772.862"/>
<path class="l4" d="M1000.58 761.918L1030.68 761.918"/>
<path class="l4" d="M1004.68 761.918L1004.68 772.862"/>
<path class="l4" d="M993.74 772.862L1004.68 772.862"/>
<path class="l4" d="M1004.68 759.182L1026.57 759.182"/>
<path class="l4" d="M1015.63 750.974L1015.63 759.182"/>
<path class="l4" d="M369.92 517.497L380.864 517.497"/>
<path class="l4" d="M369.92 506.553L369.92 517.497"/>
<path class="l4" d="M343.928 506.553L374.024 506.553"/>
<path class="l4" d="M348.032 506.553L348.032 517.497"/>
<path class="l4" d="M337.087 517.497L348.032 517.497"/>
<path class="l4" d="M348.032 503.817L369.92 503.817"/>
<path class="l4" d="M358.976 495.609L358.976 503.817"/>
<path class="l4" d="M296.959 517.497L307.903 517.497"/>
<path class="l4" d="M296.959 506.553L296.959 517.497"/>
<path class="l4" d="M270.966 506.553L301.063 506.553"/>
<path class="l4" d="M275.07 506.553L275.07 517.497"/>
<path class="l4" d="M264.126 517.497L275.07 517.497"/>
<path class="l4" d="M275.07 503.817L296.959 503.817"/>
<path class="l4" d="M286.014 495.609L286.014 503.817"/>
<path class="l4" d="M953.611 517.497L964.556 517.497"/>
<path class="l4" d="M953.611 506.553L953.611 517.497"/>
<path class="l4" d="M927.619 506.553L957.716 506.553"/>
<path class="l4" d="M931.723 506.553L931.723 517.497"/>
<path class="l4" d="M920.779 517.497L931.723 517.497"/>
<path class="l4" d="M931.723 503.817L953.611 503.817"/>
<path class="l4" d="M942.667 495.609L942.667 503.817"/>
<path class="l4" d="M880.65 517.497L891.594 517.497"/>
<path class="l4" d="M880.65 506.553L880.65 517.497"/>
<path class="l4" d="M854.658 506.553L884.754 506.553"/>
<path class="l4" d="M858.762 506.553L858.762 517.497"/>
<path class="l4" d="M847.817 517.497L858.762 517.497"/>
<path class="l4" d="M858.762 503.817L880.65 503.817"/>
<path class="l4" d="M869.706 495.609L869.706 503.817"/>
<path class="l4" d="M223.997 94.3209L234.941 94.3209"/>
<path class="l4" d="M223.997 83.3766L223.997 94.3209"/>
<path class="l4" d="M198.005 83.3766L228.101 83.3766"/>
<path class="l4" d="M202.109 83.3766L202.109 94.3209"/>
<path class="l4" d="M191.165 94.3209L202.109 94.3209"/>
<path class="l4" d="M202.109 80.6406L223.997 80.6406"/>
<path class="l4" d="M213.053 72.4324L213.053 76.5365"/>
<circle class="l4" cx="213.053" cy="78.5885" r="2.05204" style="fill:none;"/>
<path class="l4" d="M337.087 298.613L348.032 298.613"/>
<path class="l4" d="M348.032 298.613L348.032 309.557"/>
<path class="l4" d="M343.928 309.557L374.024 309.557"/>
<path class="l4" d="M369.92 298.613L369.92 309.557"/>
<path class="l4" d="M369.92 298.613L380.864 298.613"/>
<path class="l4" d="M348.032 312.293L369.92 312.293"/>
<path class="l4" d="M358.976 316.397L358.976 320.501"/>
<circle class="l4" cx="358.976" cy="314.345" r="2.05204" style="fill:none;"/>
<path class="l4" d="M264.126 298.613L275.07 298.613"/>
<path class="l4" d="M275.07 298.613L275.07 309.557"/>
<path class="l4" d="M270.966 309.557L301.063 309.557"/>
<path class="l4" d="M296.959 298.613L296.959 309.557"/>
<path class="l4" d="M296.959 298.613L307.903 298.613"/>
<path class="l4" d="M275.07 312.293L296.959 312.293"/>
<path class="l4" d="M286.014 316.397L286.014 320.501"/>
<circle class="l4" cx="286.014" cy="314.345" r="2.05204" style="fill:none;"/>
<path class="l4" d="M847.817 298.613L858.762 298.613"/>
<path class="l4" d="M858.762 298.613L858.762 309.557"/>
<path class="l4" d="M854.658 309.557L884.754 309.557"/>
<path class="l4" d="M880.65 298.613L880.65 309.557"/>
<path class="l4" d="M880.65 298.613L891.594 298.613"/>
<path class="l4" d="M858.762 312.293L880.65 312.293"/>
<path class="l4" d="M869.706 316.397L869.706 320.501"/>
<circle class="l4" cx="869.706" cy="314.345" r="2.05204" style="fill:none;"/>
<path class="l4" d="M920.779 298.613L931.723 298.613"/>
<path class="l4" d="M931.723 298.613L931.723 309.557"/>
<path class="l4" d="M927.619 309.557L957.716 309.557"/>
<path class="l4" d="M953.611 298.613L953.611 309.557"/>
<path class="l4" d="M953.611 298.613L964.556 298.613"/>
<path class="l4" d="M931.723 312.293L953.611 312.293"/>
<path class="l4" d="M942.667 316.397L942.667 320.501"/>
<circle class="l4" cx="942.667" cy="314.345" r="2.05204" style="fill:none;"/>
<path class="l4" d="M555.972 94.3209L566.916 94.3209"/>
<path class="l4" d="M566.916 94.3209L566.916 105.265"/>
<path class="l4" d="M562.812 105.265L592.908 105.265"/>
<path class="l4" d="M588.804 94.3209L588.804 105.265"/>
<path class="l4" d="M588.804 94.3209L599.749 94.3209"/>
<path class="l4" d="M566.916 108.001L588.804 108.001"/>
<path class="l4" d="M577.86 112.105L577.86 116.209"/>
<circle class="l4" cx="577.86" cy="110.053" r="2.05204" style="fill:none;"/>
<path class="l4" d="M701.895 94.3209L712.839 94.3209"/>
<path class="l4" d="M712.839 94.3209L712.839 105.265"/>
<path class="l4" d="M708.735 105.265L738.831 105.265"/>
<path class="l4" d="M734.727 94.3209L734.727 105.265"/>
<path class="l4" d="M734.727 94.3209L745.671 94.3209"/>
<path class="l4" d="M712.839 108.001L734.727 108.001"/>
<path class="l4" d="M723.783 112.105L723.783 116.209"/>
<circle class="l4" cx="723.783" cy="110.053" r="2.05204" style="fill:none;"/>
<path class="l4" d="M191.165 298.613L202.109 298.613"/>
<path class="l4" d="M202.109 298.613L202.109 309.557"/>
<path class="l4" d="M198.005 309.557L228.101 309.557"/>
<path class="l4" d="M223.997 298.613L223.997 309.557"/>
<path class="l4" d="M223.997 298.613L234.941 298.613"/>
<path class="l4" d="M202.109 312.293L223.997 312.293"/>
<path class="l4" d="M213.053 316.397L213.053 320.501"/>
<circle class="l4" cx="213.053" cy="314.345" r="2.05204" style="fill:none;"/>
<path class="l4" d="M993.74 298.613L1004.68 298.613"/>
<path class="l4" d="M1004.68 298.613L1004.68 309.557"/>
<path class="l4" d="M1000.58 309.557L1030.68 309.557"/>
<path class="l4" d="M1026.57 298.613L1026.57 309.557"/>
<path class="l4" d="M1026.57 298.613L1037.52 298.613"/>
<path class="l4" d="M1004.68 312.293L1026.57 312.293"/>
<path class="l4" d="M1015.63 316.397L1015.63 320.501"/>
<circle class="l4" cx="1015.63" cy="314.345" r="2.05204" style="fill:none;"/>
<path class="l4" d="M223.997 517.497L234.941 517.497"/>
<path class="l4" d="M223.997 506.553L223.997 517.497"/>
<path class="l4" d="M198.005 506.553L228.101 506.553"/>
<path class="l4" d="M202.109 506.553L202.109 517.497"/>
<path class="l4" d="M191.165 517.497L202.109 517.497"/>
<path class="l4" d="M202.109 503.817L223.997 503.817"/>
<path class="l4" d="M213.053 495.609L213.053 503.817"/>
<path class="l4" d="M1026.57 517.497L1037.52 517.497"/>
<path class="l4" d="M1026.57 506.553L1026.57 517.497"/>
<path class="l4" d="M1000.58 506.553L1030.68 506.553"/>
<path class="l4" d="M1004.68 506.553L1004.68 517.497"/>
<path class="l4" d="M993.74 517.497L1004.68 517.497"/>
<path class="l4" d="M1004.68 503.817L1026.57 503.817"/>
<path class="l4" d="M1015.63 495.609L1015.63 503.817"/>
<path class="l4" d="M734.727 772.862L745.671 772.862"/>
<path class="l4" d="M734.727 761.918L734.727 772.862"/>
<path class="l4" d="M708.735 761.918L738.831 761.918"/>
<path class="l4" d="M712.839 761.918L712.839 772.862"/>
<path class="l4" d="M701.895 772.862L712.839 772.862"/>
<path class="l4" d="M712.839 759.182L734.727 759.182"/>
<path class="l4" d="M723.783 750.974L723.783 759.182"/>
<path class="l4" d="M515.843 772.862L526.787 772.862"/>
<path class="l4" d="M515.843 761.918L515.843 772.862"/>
<path class="l4" d="M489.85 761.918L519.947 761.918"/>
<path class="l4" d="M493.954 761.918L493.954 772.862"/>
<path class="l4" d="M483.01 772.862L493.954 772.862"/>
<path class="l4" d="M493.954 759.182L515.843 759.182"/>
<path class="l4" d="M504.899 750.974L504.899 759.182"/>
<path class="l5" d="M307.538 93.956L308.268 93.956L308.268 94.6857L307.538 94.6857L307.538 93.956z"/>
<path class="l5" d="M285.65 115.844L286.379 115.844L286.379 116.574L285.65 116.574L285.65 115.844z"/>
<path class="l5" d="M263.761 93.956L264.491 93.956L264.491 94.6857L263.761 94.6857L263.761 93.956z"/>
<path class="l5" d="M380.499 93.956L381.229 93.956L381.229 94.6857L380.499 94.6857L380.499 93.956z"/>
<path class="l5" d="M358.611 115.844L359.341 115.844L359.341 116.574L358.611 116.574L358.611 115.844z"/>
<path class="l5" d="M336.723 93.956L337.452 93.956L337.452 94.6857L336.723 94.6857L336.723 93.956z"/>
<path class="l5" d="M453.461 93.956L454.191 93.956L454.191 94.6857L453.461 94.6857L453.461 93.956z"/>
<path class="l5" d="M431.572 115.844L432.302 115.844L432.302 116.574L431.572 116.574L431.572 115.844z"/>
<path class="l5" d="M409.684 93.956L410.414 93.956L410.414 94.6857L409.684 94.6857L409.684 93.956z"/>
<path class="l5" d="M526.422 93.956L527.152 93.956L527.152 94.6857L526.422 94.6857L526.422 93.956z"/>
<path class="l5" d="M504.534 115.844L505.264 115.844L505.264 116.574L504.534 116.574L504.534 115.844z"/>
<path class="l5" d="M482.645 93.956L483.375 93.956L483.375 94.6857L482.645 94.6857L482.645 93.956z"/>
<path class="l5" d="M672.345 93.956L673.075 93.956L673.075 94.6857L672.345 94.6857L672.345 93.956z"/>
<path class="l5" d="M650.457 115.844L651.186 115.844L651.186 116.574L650.457 116.574L650.457 115.844z"/>
<path class="l5" d="M628.568 93.956L629.298 93.956L629.298 94.6857L628.568 94.6857L628.568 93.956z"/>
<path class="l5" d="M818.268 93.956L818.998 93.956L818.998 94.6857L818.268 94.6857L818.268 93.956z"/>
<path class="l5" d="M796.38 115.844L797.109 115.844L797.109 116.574L796.38 116.574L796.38 115.844z"/>
<path class="l5" d="M774.491 93.956L775.221 93.956L775.221 94.6857L774.491 94.6857L774.491 93.956z"/>
<path class="l5" d="M891.229 93.956L891.959 93.956L891.959 94.6857L891.229 94.6857L891.229 93.956z"/>
<path class="l5" d="M869.341 115.844L870.071 115.844L870.071 116.574L869.341 116.574L869.341 115.844z"/>
<path class="l5" d="M847.453 93.956L848.182 93.956L848.182 94.6857L847.453 94.6857L847.453 93.956z"/>
<path class="l5" d="M964.191 93.956L964.921 93.956L964.921 94.6857L964.191 94.6857L964.191 93.956z"/>
<path class="l5" d="M942.302 115.844L943.032 115.844L943.032 116.574L942.302 116.574L942.302 115.844z"/>
<path class="l5" d="M920.414 93.956L921.144 93.956L921.144 94.6857L920.414 94.6857L920.414 93.956z"/>
<path class="l5" d="M453.461 298.248L454.191 298.248L454.191 298.978L453.461 298.978L453.461 298.248z"/>
<path class="l5" d="M431.572 320.136L432.302 320.136L432.302 320.866L431.572 320.866L431.572 320.136z"/>
<path class="l5" d="M409.684 298.248L410.414 298.248L410.414 298.978L409.684 298.978L409.684 298.248z"/>
<path class="l5" d="M526.422 298.248L527.152 298.248L527.152 298.978L526.422 298.978L526.422 298.248z"/>
<path class="l5" d="M504.534 320.136L505.264 320.136L505.264 320.866L504.534 320.866L504.534 320.136z"/>
<path class="l5" d="M482.645 298.248L483.375 298.248L483.375 298.978L482.645 298.978L482.645 298.248z"/>
<path class="l5" d="M599.384 298.248L600.113 298.248L600.113 298.978L599.384 298.978L599.384 298.248z"/>
<path class="l5" d="M577.495 320.136L578.225 320.136L578.225 320.866L577.495 320.866L577.495 320.136z"/>
<path class="l5" d="M555.607 298.248L556.337 298.248L556.337 298.978L555.607 298.978L555.607 298.248z"/>
<path class="l5" d="M672.345 298.248L673.075 298.248L673.075 298.978L672.345 298.978L672.345 298.248z"/>
<path class="l5" d="M650.457 320.136L651.186 320.136L651.186 320.866L650.457 320.866L650.457 320.136z"/>
<path class="l5" d="M628.568 298.248L629.298 298.248L629.298 298.978L628.568 298.978L628.568 298.248z"/>
<path class="l5" d="M745.307 298.248L746.036 298.248L746.036 298.978L745.307 298.978L745.307 298.248z"/>
<path class="l5" d="M723.418 320.136L724.148 320.136L724.148 320.866L723.418 320.866L723.418 320.136z"/>
<path class="l5" d="M701.53 298.248L702.259 298.248L702.259 298.978L701.53 298.978L701.53 298.248z"/>
<path class="l5" d="M818.268 298.248L818.998 298.248L818.998 298.978L818.268 298.978L818.268 298.248z"/>
<path class="l5" d="M796.38 320.136L797.109 320.136L797.109 320.866L796.38 320.866L796.38 320.136z"/>
<path class="l5" d="M774.491 298.248L775.221 298.248L775.221 298.978L774.491 298.978L774.491 298.248z"/>
<path class="l5" d="M599.384 517.132L600.113 517.132L600.113 517.862L599.384 517.862L599.384 517.132z"/>
<path class="l5" d="M577.495 495.244L578.225 495.244L578.225 495.974L577.495 495.974L577.495 495.244z"/>
<path class="l5" d="M555.607 517.132L556.337 517.132L556.337 517.862L555.607 517.862L555.607 517.132z"/>
<path class="l5" d="M672.345 517.132L673.075 517.132L673.075 517.862L672.345 517.862L672.345 517.132z"/>
<path class="l5" d="M650.457 495.244L651.186 495.244L651.186 495.974L650.457 495.974L650.457 495.244z"/>
<path class="l5" d="M628.568 517.132L629.298 517.132L629.298 517.862L628.568 517.862L628.568 517.132z"/>
<path class="l5" d="M453.461 517.132L454.191 517.132L454.191 517.862L453.461 517.862L453.461 517.132z"/>
<path class="l5" d="M431.572 495.244L432.302 495.244L432.302 495.974L431.572 495.974L431.572 495.244z"/>
<path class="l5" d="M409.684 517.132L410.414 517.132L410.414 517.862L409.684 517.862L409.684 517.132z"/>
<path class="l5" d="M526.422 517.132L527.152 517.132L527.152 517.862L526.422 517.862L526.422 517.132z"/>
<path class="l5" d="M504.534 495.244L505.264 495.244L505.264 495.974L504.534 495.974L504.534 495.244z"/>
<path class="l5" d="M482.645 517.132L483.375 517.132L483.375 517.862L482.645 517.862L482.645 517.132z"/>
<path class="l5" d="M745.307 517.132L746.036 517.132L746.036 517.862L745.307 517.862L745.307 517.132z"/>
<path class="l5" d="M723.418 495.244L724.148 495.244L724.148 495.974L723.418 495.974L723.418 495.244z"/>
<path class="l5" d="M701.53 517.132L702.259 517.132L702.259 517.862L701.53 517.862L701.53 517.132z"/>
<path class="l5" d="M818.268 517.132L818.998 517.132L818.998 517.862L818.268 517.862L818.268 517.132z"/>
<path class="l5" d="M796.38 495.244L797.109 495.244L797.109 495.974L796.38 495.974L796.38 495.244z"/>
<path class="l5" d="M774.491 517.132L775.221 517.132L775.221 517.862L774.491 517.862L774.491 517.132z"/>
<path class="l5" d="M599.384 772.497L600.113 772.497L600.113 773.227L599.384 773.227L599.384 772.497z"/>
<path class="l5" d="M577.495 750.609L578.225 750.609L578.225 751.339L577.495 751.339L577.495 750.609z"/>
<path class="l5" d="M555.607 772.497L556.337 772.497L556.337 773.227L555.607 773.227L555.607 772.497z"/>
<path class="l5" d="M672.345 772.497L673.075 772.497L673.075 773.227L672.345 773.227L672.345 772.497z"/>
<path class="l5" d="M650.457 750.609L651.186 750.609L651.186 751.339L650.457 751.339L650.457 750.609z"/>
<path class="l5" d="M628.568 772.497L629.298 772.497L629.298 773.227L628.568 773.227L628.568 772.497z"/>
<path class="l5" d="M380.499 772.497L381.229 772.497L381.229 773.227L380.499 773.227L380.499 772.497z"/>
<path class="l5" d="M358.611 750.609L359.341 750.609L359.341 751.339L358.611 751.339L358.611 750.609z"/>
<path class="l5" d="M336.723 772.497L337.452 772.497L337.452 773.227L336.723 773.227L336.723 772.497z"/>
<path class="l5" d="M453.461 772.497L454.191 772.497L454.191 773.227L453.461 773.227L453.461 772.497z"/>
<path class="l5" d="M431.572 750.609L432.302 750.609L432.302 751.339L431.572 751.339L431.572 750.609z"/>
<path class="l5" d="M409.684 772.497L410.414 772.497L410.414 773.227L409.684 773.227L409.684 772.497z"/>
<path class="l5" d="M818.268 772.497L818.998 772.497L818.998 773.227L818.268 773.227L818.268 772.497z"/>
<path class="l5" d="M796.38 750.609L797.109 750.609L797.109 751.339L796.38 751.339L796.38 750.609z"/>
<path class="l5" d="M774.491 772.497L775.221 772.497L775.221 773.227L774.491 773.227L774.491 772.497z"/>
<path class="l5" d="M891.229 772.497L891.959 772.497L891.959 773.227L891.229 773.227L891.229 772.497z"/>
<path class="l5" d="M869.341 750.609L870.071 750.609L870.071 751.339L869.341 751.339L869.341 750.609z"/>
<path class="l5" d="M847.453 772.497L848.182 772.497L848.182 773.227L847.453 773.227L847.453 772.497z"/>
<path class="l5" d="M67.1301 21.3594L63.026 24.8935L59.264 24.8935L55.1599 21.3594L59.264 17.8254L63.026 17.8254L67.1301 21.3594"/>
<path class="l5" d="M67.123 21.3523L67.1373 21.3523L67.1373 21.3665L67.123 21.3665L67.123 21.3523z"/>
<path class="l5" d="M67.1301 860.416L63.026 863.95L59.264 863.95L55.1599 860.416L59.264 856.882L63.026 856.882L67.1301 860.416"/>
<path class="l5" d="M67.123 860.409L67.1373 860.409L67.1373 860.423L67.123 860.423L67.123 860.409z"/>
<path class="l5" d="M1212.62 346.038L1212.62 353.334L1218.55 353.334L1223.11 349.686L1218.55 346.038L1212.62 346.038"/>
<path class="l5" d="M1212.62 349.679L1212.63 349.679L1212.63 349.693L1212.62 349.693L1212.62 349.679z"/>
<path class="l5" d="M1212.62 455.48L1212.62 462.776L1218.55 462.776L1223.11 459.128L1218.55 455.48L1212.62 455.48"/>
<path class="l5" d="M1212.62 459.121L1212.63 459.121L1212.63 459.135L1212.62 459.135L1212.62 459.121z"/>
<path class="l5" d="M1212.62 718.141L1212.62 725.437L1218.55 725.437L1223.11 721.789L1218.55 718.141L1212.62 718.141"/>
<path class="l5" d="M1212.62 721.782L1212.63 721.782L1212.63 721.796L1212.62 721.796L1212.62 721.782z"/>
<path class="l5" d="M993.375 93.956L994.105 93.956L994.105 94.6857L993.375 94.6857L993.375 93.956z"/>
<path class="l5" d="M1015.26 72.0676L1015.99 72.0676L1015.99 72.7972L1015.26 72.7972L1015.26 72.0676z"/>
<path class="l5" d="M1037.15 93.956L1037.88 93.956L1037.88 94.6857L1037.15 94.6857L1037.15 93.956z"/>
<path class="l5" d="M307.538 772.497L308.268 772.497L308.268 773.227L307.538 773.227L307.538 772.497z"/>
<path class="l5" d="M285.65 750.609L286.379 750.609L286.379 751.339L285.65 751.339L285.65 750.609z"/>
<path class="l5" d="M263.761 772.497L264.491 772.497L264.491 773.227L263.761 773.227L263.761 772.497z"/>
<path class="l5" d="M234.577 772.497L235.306 772.497L235.306 773.227L234.577 773.227L234.577 772.497z"/>
<path class="l5" d="M212.688 750.609L213.418 750.609L213.418 751.339L212.688 751.339L212.688 750.609z"/>
<path class="l5" d="M190.8 772.497L191.529 772.497L191.529 773.227L190.8 773.227L190.8 772.497z"/>
<path class="l5" d="M964.191 772.497L964.921 772.497L964.921 773.227L964.191 773.227L964.191 772.497z"/>
<path class="l5" d="M942.302 750.609L943.032 750.609L943.032 751.339L942.302 751.339L942.302 750.609z"/>
<path class="l5" d="M920.414 772.497L921.144 772.497L921.144 773.227L920.414 773.227L920.414 772.497z"/>
<path class="l5" d="M1037.15 772.497L1037.88 772.497L1037.88 773.227L1037.15 773.227L1037.15 772.497z"/>
<path class="l5" d="M1015.26 750.609L1015.99 750.609L1015.99 751.339L1015.26 751.339L1015.26 750.609z"/>
<path class="l5" d="M993.375 772.497L994.105 772.497L994.105 773.227L993.375 773.227L993.375 772.497z"/>
<path class="l5" d="M380.499 517.132L381.229 517.132L381.229 517.862L380.499 517.862L380.499 517.132z"/>
<path class="l5" d="M358.611 495.244L359.341 495.244L359.341 495.974L358.611 495.974L358.611 495.244z"/>
<path class="l5" d="M336.723 517.132L337.452 517.132L337.452 517.862L336.723 517.862L336.723 517.132z"/>
<path class="l5" d="M307.538 517.132L308.268 517.132L308.268 517.862L307.538 517.862L307.538 517.132z"/>
<path class="l5" d="M285.65 495.244L286.379 495.244L286.379 495.974L285.65 495.974L285.65 495.244z"/>
<path class="l5" d="M263.761 517.132L264.491 517.132L264.491 517.862L263.761 517.862L263.761 517.132z"/>
<path class="l5" d="M964.191 517.132L964.921 517.132L964.921 517.862L964.191 517.862L964.191 517.132z"/>
<path class="l5" d="M942.302 495.244L943.032 495.244L943.032 495.974L942.302 495.974L942.302 495.244z"/>
<path class="l5" d="M920.414 517.132L921.144 517.132L921.144 517.862L920.414 517.862L920.414 517.132z"/>
<path class="l5" d="M891.229 517.132L891.959 517.132L891.959 517.862L891.229 517.862L891.229 517.132z"/>
<path class="l5" d="M869.341 495.244L870.071 495.244L870.071 495.974L869.341 495.974L869.341 495.244z"/>
<path class="l5" d="M847.453 517.132L848.182 517.132L848.182 517.862L847.453 517.862L847.453 517.132z"/>
<path class="l5" d="M190.8 93.956L191.529 93.956L191.529 94.6857L190.8 94.6857L190.8 93.956z"/>
<path class="l5" d="M212.688 72.0676L213.418 72.0676L213.418 72.7972L212.688 72.7972L212.688 72.0676z"/>
<path class="l5" d="M234.577 93.956L235.306 93.956L235.306 94.6857L234.577 94.6857L234.577 93.956z"/>
<path class="l5" d="M380.499 298.248L381.229 298.248L381.229 298.978L380.499 298.978L380.499 298.248z"/>
<path class="l5" d="M358.611 320.136L359.341 320.136L359.341 320.866L358.611 320.866L358.611 320.136z"/>
<path class="l5" d="M336.723 298.248L337.452 298.248L337.452 298.978L336.723 298.978L336.723 298.248z"/>
<path class="l5" d="M307.538 298.248L308.268 298.248L308.268 298.978L307.538 298.978L307.538 298.248z"/>
<path class="l5" d="M285.65 320.136L286.379 320.136L286.379 320.866L285.65 320.866L285.65 320.136z"/>
<path class="l5" d="M263.761 298.248L264.491 298.248L264.491 298.978L263.761 298.978L263.761 298.248z"/>
<path class="l5" d="M891.229 298.248L891.959 298.248L891.959 298.978L891.229 298.978L891.229 298.248z"/>
<path class="l5" d="M869.341 320.136L870.071 320.136L870.071 320.866L869.341 320.866L869.341 320.136z"/>
<path class="l5" d="M847.453 298.248L848.182 298.248L848.182 298.978L847.453 298.978L847.453 298.248z"/>
<path class="l5" d="M964.191 298.248L964.921 298.248L964.921 298.978L964.191 298.978L964.191 298.248z"/>
<path class="l5" d="M942.302 320.136L943.032 320.136L943.032 320.866L942.302 320.866L942.302 320.136z"/>
<path class="l5" d="M920.414 298.248L921.144 298.248L921.144 298.978L920.414 298.978L920.414 298.248z"/>
<path class="l5" d="M67.1301 130.802L63.026 134.336L59.264 134.336L55.1599 130.802L59.264 127.267L63.026 127.267L67.1301 130.802"/>
<path class="l5" d="M67.123 130.794L67.1373 130.794L67.1373 130.809L67.123 130.809L67.123 130.794z"/>
<path class="l5" d="M599.384 93.956L600.113 93.956L600.113 94.6857L599.384 94.6857L599.384 93.956z"/>
<path class="l5" d="M577.495 115.844L578.225 115.844L578.225 116.574L577.495 116.574L577.495 115.844z"/>
<path class="l5" d="M555.607 93.956L556.337 93.956L556.337 94.6857L555.607 94.6857L555.607 93.956z"/>
<path class="l5" d="M745.307 93.956L746.036 93.956L746.036 94.6857L745.307 94.6857L745.307 93.956z"/>
<path class="l5" d="M723.418 115.844L724.148 115.844L724.148 116.574L723.418 116.574L723.418 115.844z"/>
<path class="l5" d="M701.53 93.956L702.259 93.956L702.259 94.6857L701.53 94.6857L701.53 93.956z"/>
<path class="l5" d="M234.577 298.248L235.306 298.248L235.306 298.978L234.577 298.978L234.577 298.248z"/>
<path class="l5" d="M212.688 320.136L213.418 320.136L213.418 320.866L212.688 320.866L212.688 320.136z"/>
<path class="l5" d="M190.8 298.248L191.529 298.248L191.529 298.978L190.8 298.978L190.8 298.248z"/>
<path class="l5" d="M1037.15 298.248L1037.88 298.248L1037.88 298.978L1037.15 298.978L1037.15 298.248z"/>
<path class="l5" d="M1015.26 320.136L1015.99 320.136L1015.99 320.866L1015.26 320.866L1015.26 320.136z"/>
<path class="l5" d="M993.375 298.248L994.105 298.248L994.105 298.978L993.375 298.978L993.375 298.248z"/>
<path class="l5" d="M234.577 517.132L235.306 517.132L235.306 517.862L234.577 517.862L234.577 517.132z"/>
<path class="l5" d="M212.688 495.244L213.418 495.244L213.418 495.974L212.688 495.974L212.688 495.244z"/>
<path class="l5" d="M190.8 517.132L191.529 517.132L191.529 517.862L190.8 517.862L190.8 517.132z"/>
<path class="l5" d="M1037.15 517.132L1037.88 517.132L1037.88 517.862L1037.15 517.862L1037.15 517.132z"/>
<path class="l5" d="M1015.26 495.244L1015.99 495.244L1015.99 495.974L1015.26 495.974L1015.26 495.244z"/>
<path class="l5" d="M993.375 517.132L994.105 517.132L994.105 517.862L993.375 517.862L993.375 517.132z"/>
<path class="l5" d="M745.307 772.497L746.036 772.497L746.036 773.227L745.307 773.227L745.307 772.497z"/>
<path class="l5" d="M723.418 750.609L724.148 750.609L724.148 751.339L723.418 751.339L723.418 750.609z"/>
<path class="l5" d="M701.53 772.497L702.259 772.497L702.259 773.227L701.53 773.227L701.53 772.497z"/>
<path class="l5" d="M526.422 772.497L527.152 772.497L527.152 773.227L526.422 773.227L526.422 772.497z"/>
<path class="l5" d="M504.534 750.609L505.264 750.609L505.264 751.339L504.534 751.339L504.534 750.609z"/>
<path class="l5" d="M482.645 772.497L483.375 772.497L483.375 773.227L482.645 773.227L482.645 772.497z"/>
<path class="l1" d="M286.014 116.209L286.014 130.802"/>
<path class="l1" d="M358.976 116.209L358.976 130.802"/>
<path class="l1" d="M431.937 116.209L431.937 130.802"/>
<path class="l1" d="M504.899 116.209L504.899 130.802"/>
<path class="l1" d="M577.86 116.209L577.86 130.802"/>
<path class="l1" d="M650.822 116.209L650.822 130.802"/>
<path class="l1" d="M723.783 116.209L723.783 130.802"/>
<path class="l1" d="M796.744 116.209L796.744 130.802"/>
<path class="l1" d="M869.706 116.209L869.706 130.802"/>
<path class="l1" d="M942.667 116.209L942.667 130.802"/>
<path class="l1" d="M964.556 94.3209L993.74 94.3209"/>
<path class="l1" d="M234.941 94.3209L264.126 94.3209"/>
<path class="l1" d="M191.165 72.4324L213.053 72.4324"/>
<path class="l1" d="M191.165 72.4324L191.165 94.3209"/>
<path class="l1" d="M1015.63 21.3594L1015.63 72.4324"/>
<path class="l1" d="M1015.63 72.4324L1037.52 72.4324"/>
<path class="l1" d="M1037.52 72.4324L1037.52 94.3209"/>
<path class="l1" d="M213.053 21.3594L213.053 72.4324"/>
<path class="l1" d="M249.534 94.3209L249.534 130.802"/>
<path class="l1" d="M307.903 94.3209L337.087 94.3209"/>
<path class="l1" d="M322.495 21.3594L322.495 94.3209"/>
<path class="l1" d="M891.594 94.3209L920.779 94.3209"/>
<path class="l1" d="M906.187 21.3594L906.187 94.3209"/>
<path class="l1" d="M453.826 94.3209L483.01 94.3209"/>
<path class="l1" d="M468.418 21.3594L468.418 94.3209"/>
<path class="l1" d="M745.671 94.3209L774.856 94.3209"/>
<path class="l1" d="M760.264 21.3594L760.264 94.3209"/>
<path class="l1" d="M526.787 94.3209L555.972 94.3209"/>
<path class="l1" d="M672.71 94.3209L701.895 94.3209"/>
<path class="l1" d="M599.749 94.3209L628.933 94.3209"/>
<path class="l1" d="M234.941 298.613L264.126 298.613"/>
<path class="l1" d="M213.053 320.501L286.014 320.501"/>
<path class="l1" d="M191.165 298.613L191.165 320.501"/>
<path class="l1" d="M191.165 320.501L213.053 320.501"/>
<path class="l1" d="M249.534 298.613L249.534 320.501"/>
<path class="l1" d="M307.903 298.613L337.087 298.613"/>
<path class="l1" d="M380.864 298.613L410.049 298.613"/>
<path class="l1" d="M504.899 320.501L526.787 320.501"/>
<path class="l1" d="M526.787 298.613L526.787 320.501"/>
<path class="l1" d="M453.826 298.613L483.01 298.613"/>
<path class="l1" d="M431.937 320.501L504.899 320.501"/>
<path class="l1" d="M942.667 320.501L1015.63 320.501"/>
<path class="l1" d="M1015.63 320.501L1037.52 320.501"/>
<path class="l1" d="M1037.52 298.613L1037.52 320.501"/>
<path class="l1" d="M964.556 298.613L993.74 298.613"/>
<path class="l1" d="M979.148 298.613L979.148 320.501"/>
<path class="l1" d="M891.594 298.613L920.779 298.613"/>
<path class="l1" d="M745.671 298.613L774.856 298.613"/>
<path class="l1" d="M818.633 298.613L847.817 298.613"/>
<path class="l1" d="M599.749 298.613L628.933 298.613"/>
<path class="l1" d="M1037.52 247.54L1037.52 298.613"/>
<path class="l1" d="M191.165 247.54L191.165 298.613"/>
<path class="l1" d="M701.895 298.613L701.895 320.501"/>
<path class="l1" d="M701.895 320.501L796.744 320.501"/>
<path class="l1" d="M577.86 349.686L1212.62 349.686"/>
<path class="l1" d="M577.86 320.501L577.86 349.686"/>
<path class="l1" d="M650.822 320.501L650.822 349.686"/>
<path class="l1" d="M614.341 298.613L614.341 349.686"/>
<path class="l1" d="M358.976 378.87L869.706 378.87"/>
<path class="l1" d="M869.706 320.501L869.706 378.87"/>
<path class="l1" d="M358.976 320.501L358.976 378.87"/>
<path class="l1" d="M468.418 320.501L468.418 378.87"/>
<path class="l1" d="M760.264 320.501L760.264 378.87"/>
<path class="l1" d="M395.457 232.948L395.457 298.613"/>
<path class="l1" d="M395.457 232.948L833.225 232.948"/>
<path class="l1" d="M833.225 232.948L833.225 298.613"/>
<path class="l1" d="M555.972 232.948L555.972 298.613"/>
<path class="l1" d="M672.71 232.948L672.71 298.613"/>
<path class="l1" d="M191.165 495.609L191.165 517.497"/>
<path class="l1" d="M191.165 495.609L286.014 495.609"/>
<path class="l1" d="M234.941 517.497L264.126 517.497"/>
<path class="l1" d="M249.534 495.609L249.534 517.497"/>
<path class="l1" d="M213.053 750.974L286.014 750.974"/>
<path class="l1" d="M234.941 772.862L264.126 772.862"/>
<path class="l1" d="M249.534 750.974L249.534 772.862"/>
<path class="l1" d="M191.165 750.974L191.165 772.862"/>
<path class="l1" d="M191.165 750.974L213.053 750.974"/>
<path class="l1" d="M964.556 517.497L993.74 517.497"/>
<path class="l1" d="M1037.52 495.609L1037.52 517.497"/>
<path class="l1" d="M942.667 495.609L1037.52 495.609"/>
<path class="l1" d="M979.148 495.609L979.148 517.497"/>
<path class="l1" d="M964.556 772.862L993.74 772.862"/>
<path class="l1" d="M1037.52 750.974L1037.52 772.862"/>
<path class="l1" d="M942.667 750.974L1037.52 750.974"/>
<path class="l1" d="M979.148 750.974L979.148 772.862"/>
<path class="l1" d="M1037.52 772.862L1037.52 860.416"/>
<path class="l1" d="M191.165 772.862L191.165 860.416"/>
<path class="l1" d="M307.903 772.862L337.087 772.862"/>
<path class="l1" d="M322.495 772.862L322.495 860.416"/>
<path class="l1" d="M891.594 772.862L920.779 772.862"/>
<path class="l1" d="M906.187 772.862L906.187 860.416"/>
<path class="l1" d="M468.418 298.613L468.418 320.501"/>
<path class="l1" d="M760.264 298.613L760.264 320.501"/>
<path class="l1" d="M307.903 517.497L337.087 517.497"/>
<path class="l1" d="M380.864 517.497L410.049 517.497"/>
<path class="l1" d="M453.826 517.497L483.01 517.497"/>
<path class="l1" d="M891.594 517.497L920.779 517.497"/>
<path class="l1" d="M818.633 517.497L847.817 517.497"/>
<path class="l1" d="M745.671 517.497L774.856 517.497"/>
<path class="l1" d="M599.749 517.497L628.933 517.497"/>
<path class="l1" d="M614.341 349.686L614.341 517.497"/>
<path class="l1" d="M169.276 459.128L1212.62 459.128"/>
<path class="l1" d="M577.86 459.128L577.86 495.609"/>
<path class="l1" d="M650.822 459.128L650.822 495.609"/>
<path class="l1" d="M906.187 378.87L906.187 517.497"/>
<path class="l1" d="M869.706 378.87L906.187 378.87"/>
<path class="l1" d="M322.495 378.87L322.495 517.497"/>
<path class="l1" d="M322.495 378.87L358.976 378.87"/>
<path class="l1" d="M504.899 459.128L504.899 495.609"/>
<path class="l1" d="M526.787 459.128L526.787 517.497"/>
<path class="l1" d="M701.895 459.128L701.895 517.497"/>
<path class="l1" d="M723.783 459.128L723.783 495.609"/>
<path class="l1" d="M358.976 459.128L358.976 495.609"/>
<path class="l1" d="M431.937 459.128L431.937 495.609"/>
<path class="l1" d="M796.744 459.128L796.744 495.609"/>
<path class="l1" d="M869.706 459.128L869.706 495.609"/>
<path class="l1" d="M468.418 517.497L468.418 583.162"/>
<path class="l1" d="M191.165 517.497L191.165 750.974"/>
<path class="l1" d="M1037.52 517.497L1037.52 750.974"/>
<path class="l1" d="M760.264 517.497L760.264 583.162"/>
<path class="l1" d="M191.165 583.162L1037.52 583.162"/>
<path class="l1" d="M555.972 517.497L555.972 583.162"/>
<path class="l1" d="M672.71 517.497L672.71 583.162"/>
<path class="l1" d="M322.495 247.54L322.495 298.613"/>
<path class="l1" d="M906.187 247.54L906.187 298.613"/>
<path class="l1" d="M380.864 772.862L410.049 772.862"/>
<path class="l1" d="M453.826 772.862L483.01 772.862"/>
<path class="l1" d="M818.633 772.862L847.817 772.862"/>
<path class="l1" d="M745.671 772.862L774.856 772.862"/>
<path class="l1" d="M577.86 721.789L1212.62 721.789"/>
<path class="l1" d="M577.86 721.789L577.86 750.974"/>
<path class="l1" d="M650.822 721.789L650.822 750.974"/>
<path class="l1" d="M599.749 772.862L628.933 772.862"/>
<path class="l1" d="M614.341 721.789L614.341 772.862"/>
<path class="l1" d="M869.706 685.308L869.706 750.974"/>
<path class="l1" d="M796.744 685.308L796.744 750.974"/>
<path class="l1" d="M723.783 685.308L723.783 750.974"/>
<path class="l1" d="M504.899 685.308L504.899 750.974"/>
<path class="l1" d="M431.937 685.308L431.937 750.974"/>
<path class="l1" d="M358.976 685.308L358.976 750.974"/>
<path class="l1" d="M526.787 685.308L526.787 772.862"/>
<path class="l1" d="M701.895 685.308L701.895 772.862"/>
<path class="l1" d="M468.418 685.308L468.418 772.862"/>
<path class="l1" d="M760.264 685.308L760.264 772.862"/>
<path class="l1" d="M395.457 772.862L395.457 831.231"/>
<path class="l1" d="M395.457 831.231L833.225 831.231"/>
<path class="l1" d="M833.225 772.862L833.225 831.231"/>
<path class="l1" d="M555.972 772.862L555.972 831.231"/>
<path class="l1" d="M672.71 772.862L672.71 831.231"/>
<path class="l1" d="M380.864 203.763L847.817 203.763"/>
<path class="l1" d="M410.049 181.875L818.633 181.875"/>
<path class="l1" d="M614.341 94.3209L614.341 159.986"/>
<path class="l1" d="M847.817 94.3209L847.817 203.763"/>
<path class="l1" d="M818.633 94.3209L818.633 181.875"/>
<path class="l1" d="M410.049 94.3209L410.049 181.875"/>
<path class="l1" d="M380.864 94.3209L380.864 203.763"/>
<path class="l1" d="M67.1301 21.3594L1015.63 21.3594"/>
<path class="l1" d="M67.1301 130.802L1198.03 130.802"/>
<path class="l1" d="M89.0185 247.54L1037.52 247.54"/>
<path class="l1" d="M89.0185 21.3594L89.0185 247.54"/>
<path class="l1" d="M103.611 685.308L869.706 685.308"/>
<path class="l1" d="M67.1301 860.416L1037.52 860.416"/>
<path class="l1" d="M818.633 181.875L1183.44 181.875"/>
<path class="l1" d="M1183.44 181.875L1183.44 721.789"/>
<path class="l1" d="M169.276 203.763L169.276 459.128"/>
<path class="l1" d="M169.276 203.763L380.864 203.763"/>
<path class="l1" d="M103.611 159.986L103.611 685.308"/>
<path class="l1" d="M103.611 159.986L614.341 159.986"/>
<path class="l1" d="M395.457 517.497L395.457 568.57"/>
<path class="l1" d="M395.457 568.57L833.225 568.57"/>
<path class="l1" d="M833.225 517.497L833.225 568.57"/>
<path class="l1" d="M979.148 94.3209L979.148 130.802"/>
<circle class="l1" cx="89.0185" cy="21.3594" r="2.91846"/>
<circle class="l1" cx="380.864" cy="203.763" r="2.91846"/>
<circle class="l1" cx="380.864" cy="203.763" r="2.91846"/>
<circle class="l1" cx="818.633" cy="181.875" r="2.91846"/>
<circle class="l1" cx="380.864" cy="203.763" r="2.91846"/>
<circle class="l1" cx="322.495" cy="247.54" r="2.91846"/>
<circle class="l1" cx="322.495" cy="298.613" r="2.91846"/>
<circle class="l1" cx="395.457" cy="298.613" r="2.91846"/>
<circle class="l1" cx="191.165" cy="247.54" r="2.91846"/>
<circle class="l1" cx="249.534" cy="298.613" r="2.91846"/>
<circle class="l1" cx="249.534" cy="320.501" r="2.91846"/>
<circle class="l1" cx="322.495" cy="21.3594" r="2.91846"/>
<circle class="l1" cx="322.495" cy="94.3209" r="2.91846"/>
<circle class="l1" cx="249.534" cy="94.3209" r="2.91846"/>
<circle class="l1" cx="249.534" cy="130.802" r="2.91846"/>
<circle class="l1" cx="213.053" cy="21.3594" r="2.91846"/>
<circle class="l1" cx="358.976" cy="130.802" r="2.91846"/>
<circle class="l1" cx="286.014" cy="130.802" r="2.91846"/>
<circle class="l1" cx="395.457" cy="517.497" r="2.91846"/>
<circle class="l1" cx="191.165" cy="583.162" r="2.91846"/>
<circle class="l1" cx="1037.52" cy="583.162" r="2.91846"/>
<circle class="l1" cx="191.165" cy="750.974" r="2.91846"/>
<circle class="l1" cx="358.976" cy="459.128" r="2.91846"/>
<circle class="l1" cx="358.976" cy="378.87" r="2.91846"/>
<circle class="l1" cx="322.495" cy="517.497" r="2.91846"/>
<circle class="l1" cx="249.534" cy="495.609" r="2.91846"/>
<circle class="l1" cx="249.534" cy="517.497" r="2.91846"/>
<circle class="l1" cx="358.976" cy="378.87" r="2.91846"/>
<circle class="l1" cx="358.976" cy="378.87" r="2.91846"/>
<circle class="l1" cx="869.706" cy="378.87" r="2.91846"/>
<circle class="l1" cx="395.457" cy="772.862" r="2.91846"/>
<circle class="l1" cx="358.976" cy="685.308" r="2.91846"/>
<circle class="l1" cx="322.495" cy="772.862" r="2.91846"/>
<circle class="l1" cx="322.495" cy="860.416" r="2.91846"/>
<circle class="l1" cx="191.165" cy="860.416" r="2.91846"/>
<circle class="l1" cx="191.165" cy="750.974" r="2.91846"/>
<circle class="l1" cx="191.165" cy="750.974" r="2.91846"/>
<circle class="l1" cx="249.534" cy="750.974" r="2.91846"/>
<circle class="l1" cx="249.534" cy="772.862" r="2.91846"/>
<circle class="l1" cx="614.341" cy="94.3209" r="2.91846"/>
<circle class="l1" cx="468.418" cy="298.613" r="2.91846"/>
<circle class="l1" cx="468.418" cy="320.501" r="2.91846"/>
<circle class="l1" cx="672.71" cy="232.948" r="2.91846"/>
<circle class="l1" cx="555.972" cy="232.948" r="2.91846"/>
<circle class="l1" cx="614.341" cy="298.613" r="2.91846"/>
<circle class="l1" cx="614.341" cy="349.686" r="2.91846"/>
<circle class="l1" cx="468.418" cy="21.3594" r="2.91846"/>
<circle class="l1" cx="468.418" cy="94.3209" r="2.91846"/>
<circle class="l1" cx="650.822" cy="130.802" r="2.91846"/>
<circle class="l1" cx="577.86" cy="130.802" r="2.91846"/>
<circle class="l1" cx="504.899" cy="130.802" r="2.91846"/>
<circle class="l1" cx="431.937" cy="130.802" r="2.91846"/>
<circle class="l1" cx="672.71" cy="583.162" r="2.91846"/>
<circle class="l1" cx="555.972" cy="583.162" r="2.91846"/>
<circle class="l1" cx="468.418" cy="517.497" r="2.91846"/>
<circle class="l1" cx="468.418" cy="583.162" r="2.91846"/>
<circle class="l1" cx="431.937" cy="459.128" r="2.91846"/>
<circle class="l1" cx="701.895" cy="459.128" r="2.91846"/>
<circle class="l1" cx="526.787" cy="459.128" r="2.91846"/>
<circle class="l1" cx="504.899" cy="459.128" r="2.91846"/>
<circle class="l1" cx="650.822" cy="459.128" r="2.91846"/>
<circle class="l1" cx="577.86" cy="459.128" r="2.91846"/>
<circle class="l1" cx="614.341" cy="349.686" r="2.91846"/>
<circle class="l1" cx="614.341" cy="517.497" r="2.91846"/>
<circle class="l1" cx="468.418" cy="320.501" r="2.91846"/>
<circle class="l1" cx="468.418" cy="378.87" r="2.91846"/>
<circle class="l1" cx="650.822" cy="349.686" r="2.91846"/>
<circle class="l1" cx="672.71" cy="831.231" r="2.91846"/>
<circle class="l1" cx="555.972" cy="831.231" r="2.91846"/>
<circle class="l1" cx="468.418" cy="685.308" r="2.91846"/>
<circle class="l1" cx="468.418" cy="772.862" r="2.91846"/>
<circle class="l1" cx="701.895" cy="685.308" r="2.91846"/>
<circle class="l1" cx="526.787" cy="685.308" r="2.91846"/>
<circle class="l1" cx="431.937" cy="685.308" r="2.91846"/>
<circle class="l1" cx="504.899" cy="685.308" r="2.91846"/>
<circle class="l1" cx="614.341" cy="721.789" r="2.91846"/>
<circle class="l1" cx="614.341" cy="772.862" r="2.91846"/>
<circle class="l1" cx="650.822" cy="721.789" r="2.91846"/>
<circle class="l1" cx="979.148" cy="94.3209" r="2.91846"/>
<circle class="l1" cx="979.148" cy="130.802" r="2.91846"/>
<circle class="l1" cx="818.633" cy="181.875" r="2.91846"/>
<circle class="l1" cx="818.633" cy="181.875" r="2.91846"/>
<circle class="l1" cx="906.187" cy="247.54" r="2.91846"/>
<circle class="l1" cx="906.187" cy="298.613" r="2.91846"/>
<circle class="l1" cx="760.264" cy="298.613" r="2.91846"/>
<circle class="l1" cx="760.264" cy="320.501" r="2.91846"/>
<circle class="l1" cx="833.225" cy="298.613" r="2.91846"/>
<circle class="l1" cx="979.148" cy="298.613" r="2.91846"/>
<circle class="l1" cx="979.148" cy="320.501" r="2.91846"/>
<circle class="l1" cx="760.264" cy="21.3594" r="2.91846"/>
<circle class="l1" cx="760.264" cy="94.3209" r="2.91846"/>
<circle class="l1" cx="906.187" cy="21.3594" r="2.91846"/>
<circle class="l1" cx="906.187" cy="94.3209" r="2.91846"/>
<circle class="l1" cx="942.667" cy="130.802" r="2.91846"/>
<circle class="l1" cx="869.706" cy="130.802" r="2.91846"/>
<circle class="l1" cx="796.744" cy="130.802" r="2.91846"/>
<circle class="l1" cx="723.783" cy="130.802" r="2.91846"/>
<circle class="l1" cx="833.225" cy="517.497" r="2.91846"/>
<circle class="l1" cx="760.264" cy="517.497" r="2.91846"/>
<circle class="l1" cx="760.264" cy="583.162" r="2.91846"/>
<circle class="l1" cx="869.706" cy="459.128" r="2.91846"/>
<circle class="l1" cx="796.744" cy="459.128" r="2.91846"/>
<circle class="l1" cx="723.783" cy="459.128" r="2.91846"/>
<circle class="l1" cx="869.706" cy="378.87" r="2.91846"/>
<circle class="l1" cx="906.187" cy="517.497" r="2.91846"/>
<circle class="l1" cx="979.148" cy="495.609" r="2.91846"/>
<circle class="l1" cx="979.148" cy="517.497" r="2.91846"/>
<circle class="l1" cx="760.264" cy="320.501" r="2.91846"/>
<circle class="l1" cx="760.264" cy="378.87" r="2.91846"/>
<circle class="l1" cx="869.706" cy="378.87" r="2.91846"/>
<circle class="l1" cx="833.225" cy="772.862" r="2.91846"/>
<circle class="l1" cx="760.264" cy="685.308" r="2.91846"/>
<circle class="l1" cx="760.264" cy="772.862" r="2.91846"/>
<circle class="l1" cx="723.783" cy="685.308" r="2.91846"/>
<circle class="l1" cx="796.744" cy="685.308" r="2.91846"/>
<circle class="l1" cx="906.187" cy="772.862" r="2.91846"/>
<circle class="l1" cx="906.187" cy="860.416" r="2.91846"/>
<circle class="l1" cx="979.148" cy="750.974" r="2.91846"/>
<circle class="l1" cx="979.148" cy="772.862" r="2.91846"/>
<circle class="l1" cx="1037.52" cy="750.974" r="2.91846"/>
<circle class="l1" cx="1183.44" cy="721.789" r="2.91846"/>
<circle class="l1" cx="1037.52" cy="750.974" r="2.91846"/>
<circle class="l1" cx="1037.52" cy="750.974" r="2.91846"/>
</svg>
