<svg xmlns="http://www.w3.org/2000/svg" width="1848" height="880" version="1.1">
<style type="text/css">
.l0{
 fill: #000000;
  stroke: #000000;
  stroke-linecap:round;
  stroke-linejoin:round;
  stroke-width: 0.788112;
}
.l1{
 fill: #00ccee;
  stroke: #00ccee;
  stroke-linecap:round;
  stroke-linejoin:round;
  stroke-width: 0.788112;
}
.l2{
  fill: none;
  stroke: #3f3f3f;
  stroke-linecap:round;
  stroke-linejoin:round;
  stroke-width: 0.788112;
}
.l3{
 fill: #cccccc; fill-opacity: 0.5;
  stroke: #cccccc;
  stroke-linecap:round;
  stroke-linejoin:round;
  stroke-width: 0.788112;
}
.l4{
 fill: #88dd00;
  stroke: #88dd00;
  stroke-linecap:round;
  stroke-linejoin:round;
  stroke-width: 0.788112;
}
.l5{
 fill: #bb2200;
  stroke: #bb2200;
  stroke-linecap:round;
  stroke-linejoin:round;
  stroke-width: 0.788112;
}
.l6{
 fill: #00ccee; fill-opacity: 0.5;
  stroke: #00ccee;
  stroke-linecap:round;
  stroke-linejoin:round;
  stroke-width: 0.788112;
}
.l7{
 fill: #ff0000; fill-opacity: 0.5;
  stroke: #ff0000;
  stroke-linecap:round;
  stroke-linejoin:round;
  stroke-width: 0.788112;
}
.l8{
 fill: #ffff00; fill-opacity: 0.5;
  stroke: #ffff00;
  stroke-linecap:round;
  stroke-linejoin:round;
  stroke-width: 0.788112;
}
.l9{
 fill: #ffffff; fill-opacity: 0.5;
  stroke: #ffffff;
  stroke-linecap:round;
  stroke-linejoin:round;
  stroke-width: 0.788112;
}
.l10{
 fill: #ff00ff;
  stroke: #ff00ff;
  stroke-linecap:round;
  stroke-linejoin:round;
  stroke-width: 0.788112;
}
.l11{
 fill: #00ff00; fill-opacity: 0.5;
  stroke: #00ff00;
  stroke-linecap:round;
  stroke-linejoin:round;
  stroke-width: 0.788112;
}
.l12{
 fill: #0044dd; fill-opacity: 0.5;
  stroke: #0044dd;
  stroke-linecap:round;
  stroke-linejoin:round;
  stroke-width: 0.788112;
}
.l13{
 fill: #aaaa00; fill-opacity: 0.5;
  stroke: #aaaa00;
  stroke-linecap:round;
  stroke-linejoin:round;
  stroke-width: 0.788112;
}
.l14{
  fill: none;
  stroke: #aaccaa;
  stroke-linecap:round;
  stroke-linejoin:round;
  stroke-width: 0.788112;
}
.l15{
 fill: #ff7777; fill-opacity: 0.5;
  stroke: #ff7777;
  stroke-linecap:round;
  stroke-linejoin:round;
  stroke-width: 0.788112;
}
.l16{
 fill: #bfff81; fill-opacity: 0.5;
  stroke: #bfff81;
  stroke-linecap:round;
  stroke-linejoin:round;
  stroke-width: 0.788112;
}
.l17{
  fill: none;
  stroke: #00ffcc;
  stroke-linecap:round;
  stroke-linejoin:round;
  stroke-width: 0.788112;
}
.l18{
 fill: #ce0097; fill-opacity: 0.5;
  stroke: #ce0097;
  stroke-linecap:round;
  stroke-linejoin:round;
  stroke-width: 0.788112;
}
.l19{
  fill: none;
  stroke: #d2d46b;
  stroke-linecap:round;
  stroke-linejoin:round;
  stroke-width: 0.788112;
}
.l20{
  fill: none;
  stroke: #ef6158;
  stroke-linecap:round;
  stroke-linejoin:round;
  stroke-width: 0.788112;
}
.l21{
  fill: none;
  stroke: #fdb200;
  stroke-linecap:round;
  stroke-linejoin:round;
  stroke-width: 0.788112;
}
text {font-family: Sans-Serif;}
</style>
<rect class="l0" x="0" y="0" width="1848" height="880"/>
<text fill="#00ccee"  xml:space="preserve" font-size="12.5222" transform="translate(34.731, 24.6138)" >VP</text>
<text fill="#00ccee"  xml:space="preserve" font-size="12.5222" transform="translate(33.731, 863.807)" >VN</text>
<text fill="#00ccee"  xml:space="preserve" font-size="12.5222" transform="translate(1226.49, 354.586)" >Vcp</text>
<text fill="#00ccee"  xml:space="preserve" font-size="12.5222" transform="translate(1226.49, 464.046)" >Vbn</text>
<text fill="#00ccee"  xml:space="preserve" font-size="12.5222" transform="translate(1226.49, 726.751)" >Vcn</text>
<text fill="#00ccee"  xml:space="preserve" font-size="12.5222" transform="translate(26.731, 134.074)" >Vbp</text>
<text fill="#cccccc"  xml:space="preserve" font-size="7.58923" transform="translate(271.104, 90.5461) rotate(270)" >M1a</text>
<text fill="#cccccc"  xml:space="preserve" font-size="7.58923" transform="translate(282.05, 90.5461) rotate(270)" >pfet_01v8</text>
<text fill="#aaaa00"  xml:space="preserve" font-size="7.58923" transform="translate(292.996, 90.5461) rotate(270)" >1 x 6 / 0.5</text>
<text fill="#cccccc"  xml:space="preserve" font-size="7.58923" transform="translate(344.077, 90.5461) rotate(270)" >M2a</text>
<text fill="#cccccc"  xml:space="preserve" font-size="7.58923" transform="translate(355.023, 90.5461) rotate(270)" >pfet_01v8</text>
<text fill="#aaaa00"  xml:space="preserve" font-size="7.58923" transform="translate(365.969, 90.5461) rotate(270)" >1 x 6 / 0.5</text>
<text fill="#cccccc"  xml:space="preserve" font-size="7.58923" transform="translate(417.05, 90.5461) rotate(270)" >M3a</text>
<text fill="#cccccc"  xml:space="preserve" font-size="7.58923" transform="translate(427.996, 90.5461) rotate(270)" >pfet_01v8</text>
<text fill="#aaaa00"  xml:space="preserve" font-size="7.58923" transform="translate(438.942, 90.5461) rotate(270)" >1 x 6 / 0.5</text>
<text fill="#cccccc"  xml:space="preserve" font-size="7.58923" transform="translate(490.024, 90.5461) rotate(270)" >M4a</text>
<text fill="#cccccc"  xml:space="preserve" font-size="7.58923" transform="translate(500.97, 90.5461) rotate(270)" >pfet_01v8</text>
<text fill="#aaaa00"  xml:space="preserve" font-size="7.58923" transform="translate(511.916, 90.5461) rotate(270)" >1 x 6 / 0.5</text>
<text fill="#cccccc"  xml:space="preserve" font-size="7.58923" transform="translate(635.97, 90.5461) rotate(270)" >M4c</text>
<text fill="#cccccc"  xml:space="preserve" font-size="7.58923" transform="translate(646.916, 90.5461) rotate(270)" >pfet_01v8</text>
<text fill="#aaaa00"  xml:space="preserve" font-size="7.58923" transform="translate(657.862, 90.5461) rotate(270)" >1 x 6 / 0.5</text>
<text fill="#cccccc"  xml:space="preserve" font-size="7.58923" transform="translate(781.917, 90.5461) rotate(270)" >M3b</text>
<text fill="#cccccc"  xml:space="preserve" font-size="7.58923" transform="translate(792.863, 90.5461) rotate(270)" >pfet_01v8</text>
<text fill="#aaaa00"  xml:space="preserve" font-size="7.58923" transform="translate(803.809, 90.5461) rotate(270)" >1 x 6 / 0.5</text>
<text fill="#cccccc"  xml:space="preserve" font-size="7.58923" transform="translate(854.89, 90.5461) rotate(270)" >M2b</text>
<text fill="#cccccc"  xml:space="preserve" font-size="7.58923" transform="translate(865.836, 90.5461) rotate(270)" >pfet_01v8</text>
<text fill="#aaaa00"  xml:space="preserve" font-size="7.58923" transform="translate(876.782, 90.5461) rotate(270)" >1 x 6 / 0.5</text>
<text fill="#cccccc"  xml:space="preserve" font-size="7.58923" transform="translate(927.864, 90.5461) rotate(270)" >M1b</text>
<text fill="#cccccc"  xml:space="preserve" font-size="7.58923" transform="translate(938.81, 90.5461) rotate(270)" >pfet_01v8</text>
<text fill="#aaaa00"  xml:space="preserve" font-size="7.58923" transform="translate(949.756, 90.5461) rotate(270)" >1 x 6 / 0.5</text>
<text fill="#cccccc"  xml:space="preserve" font-size="7.58923" transform="translate(417.05, 294.871) rotate(270)" >M6a</text>
<text fill="#cccccc"  xml:space="preserve" font-size="7.58923" transform="translate(427.996, 294.871) rotate(270)" >pfet_01v8</text>
<text fill="#aaaa00"  xml:space="preserve" font-size="7.58923" transform="translate(438.942, 294.871) rotate(270)" >1 x 6 / 0.5</text>
<text fill="#cccccc"  xml:space="preserve" font-size="7.58923" transform="translate(490.024, 294.871) rotate(270)" >M6b</text>
<text fill="#cccccc"  xml:space="preserve" font-size="7.58923" transform="translate(500.97, 294.871) rotate(270)" >pfet_01v8</text>
<text fill="#aaaa00"  xml:space="preserve" font-size="7.58923" transform="translate(511.916, 294.871) rotate(270)" >1 x 6 / 0.5</text>
<text fill="#cccccc"  xml:space="preserve" font-size="7.58923" transform="translate(562.997, 294.871) rotate(270)" >M5a</text>
<text fill="#cccccc"  xml:space="preserve" font-size="7.58923" transform="translate(573.943, 294.871) rotate(270)" >pfet_01v8</text>
<text fill="#aaaa00"  xml:space="preserve" font-size="7.58923" transform="translate(584.889, 294.871) rotate(270)" >1 x 6 / 0.5</text>
<text fill="#cccccc"  xml:space="preserve" font-size="7.58923" transform="translate(635.97, 294.871) rotate(270)" >M5b</text>
<text fill="#cccccc"  xml:space="preserve" font-size="7.58923" transform="translate(646.916, 294.871) rotate(270)" >pfet_01v8</text>
<text fill="#aaaa00"  xml:space="preserve" font-size="7.58923" transform="translate(657.862, 294.871) rotate(270)" >1 x 6 / 0.5</text>
<text fill="#cccccc"  xml:space="preserve" font-size="7.58923" transform="translate(708.944, 294.871) rotate(270)" >M6c</text>
<text fill="#cccccc"  xml:space="preserve" font-size="7.58923" transform="translate(719.89, 294.871) rotate(270)" >pfet_01v8</text>
<text fill="#aaaa00"  xml:space="preserve" font-size="7.58923" transform="translate(730.836, 294.871) rotate(270)" >1 x 6 / 0.5</text>
<text fill="#cccccc"  xml:space="preserve" font-size="7.58923" transform="translate(781.917, 294.871) rotate(270)" >M6d</text>
<text fill="#cccccc"  xml:space="preserve" font-size="7.58923" transform="translate(792.863, 294.871) rotate(270)" >pfet_01v8</text>
<text fill="#aaaa00"  xml:space="preserve" font-size="7.58923" transform="translate(803.809, 294.871) rotate(270)" >1 x 6 / 0.5</text>
<text fill="#cccccc"  xml:space="preserve" font-size="7.58923" transform="translate(585.184, 538.089) rotate(270)" >M8a</text>
<text fill="#cccccc"  xml:space="preserve" font-size="7.58923" transform="translate(574.238, 561.089) rotate(270)" >nfet_01v8</text>
<text fill="#aaaa00"  xml:space="preserve" font-size="7.58923" transform="translate(563.292, 559.089) rotate(270)" >1 x 6 / 0.5</text>
<text fill="#cccccc"  xml:space="preserve" font-size="7.58923" transform="translate(658.158, 538.089) rotate(270)" >M8b</text>
<text fill="#cccccc"  xml:space="preserve" font-size="7.58923" transform="translate(647.212, 561.089) rotate(270)" >nfet_01v8</text>
<text fill="#aaaa00"  xml:space="preserve" font-size="7.58923" transform="translate(636.266, 559.089) rotate(270)" >1 x 6 / 0.5</text>
<text fill="#cccccc"  xml:space="preserve" font-size="7.58923" transform="translate(439.238, 543.089) rotate(270)" >M10b</text>
<text fill="#cccccc"  xml:space="preserve" font-size="7.58923" transform="translate(428.292, 561.089) rotate(270)" >nfet_01v8</text>
<text fill="#aaaa00"  xml:space="preserve" font-size="7.58923" transform="translate(417.346, 559.089) rotate(270)" >1 x 6 / 0.5</text>
<text fill="#cccccc"  xml:space="preserve" font-size="7.58923" transform="translate(512.211, 538.089) rotate(270)" >M9a</text>
<text fill="#cccccc"  xml:space="preserve" font-size="7.58923" transform="translate(501.265, 561.089) rotate(270)" >nfet_01v8</text>
<text fill="#aaaa00"  xml:space="preserve" font-size="7.58923" transform="translate(490.319, 559.089) rotate(270)" >1 x 6 / 0.5</text>
<text fill="#cccccc"  xml:space="preserve" font-size="7.58923" transform="translate(731.131, 538.089) rotate(270)" >M9b</text>
<text fill="#cccccc"  xml:space="preserve" font-size="7.58923" transform="translate(720.185, 561.089) rotate(270)" >nfet_01v8</text>
<text fill="#aaaa00"  xml:space="preserve" font-size="7.58923" transform="translate(709.239, 559.089) rotate(270)" >1 x 6 / 0.5</text>
<text fill="#cccccc"  xml:space="preserve" font-size="7.58923" transform="translate(804.104, 542.089) rotate(270)" >M10c</text>
<text fill="#cccccc"  xml:space="preserve" font-size="7.58923" transform="translate(793.158, 561.089) rotate(270)" >nfet_01v8</text>
<text fill="#aaaa00"  xml:space="preserve" font-size="7.58923" transform="translate(782.212, 559.089) rotate(270)" >1 x 6 / 0.5</text>
<text fill="#cccccc"  xml:space="preserve" font-size="7.58923" transform="translate(585.184, 798.495) rotate(270)" >M11a</text>
<text fill="#cccccc"  xml:space="preserve" font-size="7.58923" transform="translate(574.238, 816.495) rotate(270)" >nfet_01v8</text>
<text fill="#aaaa00"  xml:space="preserve" font-size="7.58923" transform="translate(563.292, 814.495) rotate(270)" >1 x 6 / 0.5</text>
<text fill="#cccccc"  xml:space="preserve" font-size="7.58923" transform="translate(658.158, 798.495) rotate(270)" >M11b</text>
<text fill="#cccccc"  xml:space="preserve" font-size="7.58923" transform="translate(647.212, 816.495) rotate(270)" >nfet_01v8</text>
<text fill="#aaaa00"  xml:space="preserve" font-size="7.58923" transform="translate(636.266, 814.495) rotate(270)" >1 x 6 / 0.5</text>
<text fill="#cccccc"  xml:space="preserve" font-size="7.58923" transform="translate(366.264, 798.495) rotate(270)" >M13a</text>
<text fill="#cccccc"  xml:space="preserve" font-size="7.58923" transform="translate(355.318, 816.495) rotate(270)" >nfet_01v8</text>
<text fill="#aaaa00"  xml:space="preserve" font-size="7.58923" transform="translate(344.372, 814.495) rotate(270)" >1 x 6 / 0.5</text>
<text fill="#cccccc"  xml:space="preserve" font-size="7.58923" transform="translate(439.238, 798.495) rotate(270)" >M12a</text>
<text fill="#cccccc"  xml:space="preserve" font-size="7.58923" transform="translate(428.292, 816.495) rotate(270)" >nfet_01v8</text>
<text fill="#aaaa00"  xml:space="preserve" font-size="7.58923" transform="translate(417.346, 814.495) rotate(270)" >1 x 6 / 0.5</text>
<text fill="#cccccc"  xml:space="preserve" font-size="7.58923" transform="translate(804.104, 798.495) rotate(270)" >M12d</text>
<text fill="#cccccc"  xml:space="preserve" font-size="7.58923" transform="translate(793.158, 816.495) rotate(270)" >nfet_01v8</text>
<text fill="#aaaa00"  xml:space="preserve" font-size="7.58923" transform="translate(782.212, 814.495) rotate(270)" >1 x 6 / 0.5</text>
<text fill="#cccccc"  xml:space="preserve" font-size="7.58923" transform="translate(877.078, 798.495) rotate(270)" >M13b</text>
<text fill="#cccccc"  xml:space="preserve" font-size="7.58923" transform="translate(866.132, 816.495) rotate(270)" >nfet_01v8</text>
<text fill="#aaaa00"  xml:space="preserve" font-size="7.58923" transform="translate(855.186, 814.495) rotate(270)" >1 x 6 / 0.5</text>
<text fill="#cccccc"  xml:space="preserve" font-size="7.58923" transform="translate(1033.97, 114.843) rotate(270)" >M15</text>
<text fill="#cccccc"  xml:space="preserve" font-size="7.58923" transform="translate(1023.02, 137.843) rotate(270)" >pfet_01v8</text>
<text fill="#aaaa00"  xml:space="preserve" font-size="7.58923" transform="translate(1012.08, 135.843) rotate(270)" >1 x 6 / 0.5</text>
<text fill="#cccccc"  xml:space="preserve" font-size="7.58923" transform="translate(293.291, 793.495) rotate(270)" >M25</text>
<text fill="#cccccc"  xml:space="preserve" font-size="7.58923" transform="translate(282.345, 816.495) rotate(270)" >nfet_01v8</text>
<text fill="#aaaa00"  xml:space="preserve" font-size="7.58923" transform="translate(271.399, 814.495) rotate(270)" >1 x 6 / 0.5</text>
<text fill="#cccccc"  xml:space="preserve" font-size="7.58923" transform="translate(220.318, 793.495) rotate(270)" >M24</text>
<text fill="#cccccc"  xml:space="preserve" font-size="7.58923" transform="translate(209.372, 816.495) rotate(270)" >nfet_01v8</text>
<text fill="#aaaa00"  xml:space="preserve" font-size="7.58923" transform="translate(198.426, 814.495) rotate(270)" >1 x 6 / 0.5</text>
<text fill="#cccccc"  xml:space="preserve" font-size="7.58923" transform="translate(950.051, 793.495) rotate(270)" >M26</text>
<text fill="#cccccc"  xml:space="preserve" font-size="7.58923" transform="translate(939.105, 816.495) rotate(270)" >nfet_01v8</text>
<text fill="#aaaa00"  xml:space="preserve" font-size="7.58923" transform="translate(928.159, 814.495) rotate(270)" >1 x 6 / 0.5</text>
<text fill="#cccccc"  xml:space="preserve" font-size="7.58923" transform="translate(1023.02, 793.495) rotate(270)" >M27</text>
<text fill="#cccccc"  xml:space="preserve" font-size="7.58923" transform="translate(1012.08, 816.495) rotate(270)" >nfet_01v8</text>
<text fill="#aaaa00"  xml:space="preserve" font-size="7.58923" transform="translate(1001.13, 814.495) rotate(270)" >1 x 6 / 0.5</text>
<text fill="#cccccc"  xml:space="preserve" font-size="7.58923" transform="translate(366.264, 543.089) rotate(270)" >M10a</text>
<text fill="#cccccc"  xml:space="preserve" font-size="7.58923" transform="translate(355.318, 561.089) rotate(270)" >nfet_01v8</text>
<text fill="#aaaa00"  xml:space="preserve" font-size="7.58923" transform="translate(344.372, 559.089) rotate(270)" >1 x 6 / 0.5</text>
<text fill="#cccccc"  xml:space="preserve" font-size="7.58923" transform="translate(293.291, 538.089) rotate(270)" >M20</text>
<text fill="#cccccc"  xml:space="preserve" font-size="7.58923" transform="translate(282.345, 561.089) rotate(270)" >nfet_01v8</text>
<text fill="#aaaa00"  xml:space="preserve" font-size="7.58923" transform="translate(271.399, 559.089) rotate(270)" >1 x 6 / 0.5</text>
<text fill="#cccccc"  xml:space="preserve" font-size="7.58923" transform="translate(950.051, 538.089) rotate(270)" >M23</text>
<text fill="#cccccc"  xml:space="preserve" font-size="7.58923" transform="translate(939.105, 561.089) rotate(270)" >nfet_01v8</text>
<text fill="#aaaa00"  xml:space="preserve" font-size="7.58923" transform="translate(928.159, 559.089) rotate(270)" >1 x 6 / 0.5</text>
<text fill="#cccccc"  xml:space="preserve" font-size="7.58923" transform="translate(877.078, 543.089) rotate(270)" >M10d</text>
<text fill="#cccccc"  xml:space="preserve" font-size="7.58923" transform="translate(866.132, 561.089) rotate(270)" >nfet_01v8</text>
<text fill="#aaaa00"  xml:space="preserve" font-size="7.58923" transform="translate(855.186, 559.089) rotate(270)" >1 x 6 / 0.5</text>
<text fill="#cccccc"  xml:space="preserve" font-size="7.58923" transform="translate(231.264, 114.843) rotate(270)" >M14</text>
<text fill="#cccccc"  xml:space="preserve" font-size="7.58923" transform="translate(220.318, 137.843) rotate(270)" >pfet_01v8</text>
<text fill="#aaaa00"  xml:space="preserve" font-size="7.58923" transform="translate(209.372, 135.843) rotate(270)" >1 x 6 / 0.5</text>
<text fill="#cccccc"  xml:space="preserve" font-size="7.58923" transform="translate(344.077, 294.871) rotate(270)" >M7a</text>
<text fill="#cccccc"  xml:space="preserve" font-size="7.58923" transform="translate(355.023, 294.871) rotate(270)" >pfet_01v8</text>
<text fill="#aaaa00"  xml:space="preserve" font-size="7.58923" transform="translate(365.969, 294.871) rotate(270)" >1 x 6 / 0.5</text>
<text fill="#cccccc"  xml:space="preserve" font-size="7.58923" transform="translate(271.104, 294.871) rotate(270)" >M16</text>
<text fill="#cccccc"  xml:space="preserve" font-size="7.58923" transform="translate(282.05, 294.871) rotate(270)" >pfet_01v8</text>
<text fill="#aaaa00"  xml:space="preserve" font-size="7.58923" transform="translate(292.996, 294.871) rotate(270)" >1 x 6 / 0.5</text>
<text fill="#cccccc"  xml:space="preserve" font-size="7.58923" transform="translate(854.89, 294.871) rotate(270)" >M7b</text>
<text fill="#cccccc"  xml:space="preserve" font-size="7.58923" transform="translate(865.836, 294.871) rotate(270)" >pfet_01v8</text>
<text fill="#aaaa00"  xml:space="preserve" font-size="7.58923" transform="translate(876.782, 294.871) rotate(270)" >1 x 6 / 0.5</text>
<text fill="#cccccc"  xml:space="preserve" font-size="7.58923" transform="translate(927.864, 294.871) rotate(270)" >M19</text>
<text fill="#cccccc"  xml:space="preserve" font-size="7.58923" transform="translate(938.81, 294.871) rotate(270)" >pfet_01v8</text>
<text fill="#aaaa00"  xml:space="preserve" font-size="7.58923" transform="translate(949.756, 294.871) rotate(270)" >1 x 6 / 0.5</text>
<text fill="#cccccc"  xml:space="preserve" font-size="7.58923" transform="translate(562.997, 90.5461) rotate(270)" >M4b</text>
<text fill="#cccccc"  xml:space="preserve" font-size="7.58923" transform="translate(573.943, 90.5461) rotate(270)" >pfet_01v8</text>
<text fill="#aaaa00"  xml:space="preserve" font-size="7.58923" transform="translate(584.889, 90.5461) rotate(270)" >1 x 6 / 0.5</text>
<text fill="#cccccc"  xml:space="preserve" font-size="7.58923" transform="translate(708.944, 90.5461) rotate(270)" >M4d</text>
<text fill="#cccccc"  xml:space="preserve" font-size="7.58923" transform="translate(719.89, 90.5461) rotate(270)" >pfet_01v8</text>
<text fill="#aaaa00"  xml:space="preserve" font-size="7.58923" transform="translate(730.836, 90.5461) rotate(270)" >1 x 6 / 0.5</text>
<text fill="#cccccc"  xml:space="preserve" font-size="7.58923" transform="translate(198.13, 294.871) rotate(270)" >M3</text>
<text fill="#cccccc"  xml:space="preserve" font-size="7.58923" transform="translate(209.076, 294.871) rotate(270)" >pfet_01v8</text>
<text fill="#aaaa00"  xml:space="preserve" font-size="7.58923" transform="translate(220.022, 294.871) rotate(270)" >1 x 6 / 0.5</text>
<text fill="#cccccc"  xml:space="preserve" font-size="7.58923" transform="translate(1000.84, 294.871) rotate(270)" >M4</text>
<text fill="#cccccc"  xml:space="preserve" font-size="7.58923" transform="translate(1011.78, 294.871) rotate(270)" >pfet_01v8</text>
<text fill="#aaaa00"  xml:space="preserve" font-size="7.58923" transform="translate(1022.73, 294.871) rotate(270)" >1 x 6 / 0.5</text>
<text fill="#cccccc"  xml:space="preserve" font-size="7.58923" transform="translate(220.318, 533.089) rotate(270)" >M5</text>
<text fill="#cccccc"  xml:space="preserve" font-size="7.58923" transform="translate(209.372, 561.089) rotate(270)" >nfet_01v8</text>
<text fill="#aaaa00"  xml:space="preserve" font-size="7.58923" transform="translate(198.426, 559.089) rotate(270)" >1 x 6 / 0.5</text>
<text fill="#cccccc"  xml:space="preserve" font-size="7.58923" transform="translate(1023.02, 533.089) rotate(270)" >M6</text>
<text fill="#cccccc"  xml:space="preserve" font-size="7.58923" transform="translate(1012.08, 561.089) rotate(270)" >nfet_01v8</text>
<text fill="#aaaa00"  xml:space="preserve" font-size="7.58923" transform="translate(1001.13, 559.089) rotate(270)" >1 x 6 / 0.5</text>
<text fill="#cccccc"  xml:space="preserve" font-size="7.58923" transform="translate(731.131, 797.495) rotate(270)" >M12c</text>
<text fill="#cccccc"  xml:space="preserve" font-size="7.58923" transform="translate(720.185, 816.495) rotate(270)" >nfet_01v8</text>
<text fill="#aaaa00"  xml:space="preserve" font-size="7.58923" transform="translate(709.239, 814.495) rotate(270)" >1 x 6 / 0.5</text>
<text fill="#cccccc"  xml:space="preserve" font-size="7.58923" transform="translate(512.211, 798.495) rotate(270)" >M12b</text>
<text fill="#cccccc"  xml:space="preserve" font-size="7.58923" transform="translate(501.265, 816.495) rotate(270)" >nfet_01v8</text>
<text fill="#aaaa00"  xml:space="preserve" font-size="7.58923" transform="translate(490.319, 814.495) rotate(270)" >1 x 6 / 0.5</text>
<path class="l4" d="M263.24 94.1948L274.186 94.1948"/>
<path class="l4" d="M274.186 94.1948L274.186 105.141"/>
<path class="l4" d="M270.081 105.141L300.182 105.141"/>
<path class="l4" d="M296.078 94.1948L296.078 105.141"/>
<path class="l4" d="M296.078 94.1948L307.024 94.1948"/>
<path class="l4" d="M274.186 107.877L296.078 107.877"/>
<path class="l4" d="M285.132 111.982L285.132 116.087"/>
<circle class="l4" cx="285.132" cy="109.93" r="2.05238" style="fill:none;"/>
<path class="l4" d="M336.213 94.1948L347.159 94.1948"/>
<path class="l4" d="M347.159 94.1948L347.159 105.141"/>
<path class="l4" d="M343.054 105.141L373.156 105.141"/>
<path class="l4" d="M369.051 94.1948L369.051 105.141"/>
<path class="l4" d="M369.051 94.1948L379.997 94.1948"/>
<path class="l4" d="M347.159 107.877L369.051 107.877"/>
<path class="l4" d="M358.105 111.982L358.105 116.087"/>
<circle class="l4" cx="358.105" cy="109.93" r="2.05238" style="fill:none;"/>
<path class="l4" d="M409.186 94.1948L420.132 94.1948"/>
<path class="l4" d="M420.132 94.1948L420.132 105.141"/>
<path class="l4" d="M416.028 105.141L446.129 105.141"/>
<path class="l4" d="M442.024 94.1948L442.024 105.141"/>
<path class="l4" d="M442.024 94.1948L452.97 94.1948"/>
<path class="l4" d="M420.132 107.877L442.024 107.877"/>
<path class="l4" d="M431.078 111.982L431.078 116.087"/>
<circle class="l4" cx="431.078" cy="109.93" r="2.05238" style="fill:none;"/>
<path class="l4" d="M482.16 94.1948L493.106 94.1948"/>
<path class="l4" d="M493.106 94.1948L493.106 105.141"/>
<path class="l4" d="M489.001 105.141L519.102 105.141"/>
<path class="l4" d="M514.998 94.1948L514.998 105.141"/>
<path class="l4" d="M514.998 94.1948L525.944 94.1948"/>
<path class="l4" d="M493.106 107.877L514.998 107.877"/>
<path class="l4" d="M504.052 111.982L504.052 116.087"/>
<circle class="l4" cx="504.052" cy="109.93" r="2.05238" style="fill:none;"/>
<path class="l4" d="M628.106 94.1948L639.052 94.1948"/>
<path class="l4" d="M639.052 94.1948L639.052 105.141"/>
<path class="l4" d="M634.948 105.141L665.049 105.141"/>
<path class="l4" d="M660.944 94.1948L660.944 105.141"/>
<path class="l4" d="M660.944 94.1948L671.89 94.1948"/>
<path class="l4" d="M639.052 107.877L660.944 107.877"/>
<path class="l4" d="M649.998 111.982L649.998 116.087"/>
<circle class="l4" cx="649.998" cy="109.93" r="2.05238" style="fill:none;"/>
<path class="l4" d="M774.053 94.1948L784.999 94.1948"/>
<path class="l4" d="M784.999 94.1948L784.999 105.141"/>
<path class="l4" d="M780.894 105.141L810.996 105.141"/>
<path class="l4" d="M806.891 94.1948L806.891 105.141"/>
<path class="l4" d="M806.891 94.1948L817.837 94.1948"/>
<path class="l4" d="M784.999 107.877L806.891 107.877"/>
<path class="l4" d="M795.945 111.982L795.945 116.087"/>
<circle class="l4" cx="795.945" cy="109.93" r="2.05238" style="fill:none;"/>
<path class="l4" d="M847.026 94.1948L857.972 94.1948"/>
<path class="l4" d="M857.972 94.1948L857.972 105.141"/>
<path class="l4" d="M853.868 105.141L883.969 105.141"/>
<path class="l4" d="M879.864 94.1948L879.864 105.141"/>
<path class="l4" d="M879.864 94.1948L890.81 94.1948"/>
<path class="l4" d="M857.972 107.877L879.864 107.877"/>
<path class="l4" d="M868.918 111.982L868.918 116.087"/>
<circle class="l4" cx="868.918" cy="109.93" r="2.05238" style="fill:none;"/>
<path class="l4" d="M920 94.1948L930.946 94.1948"/>
<path class="l4" d="M930.946 94.1948L930.946 105.141"/>
<path class="l4" d="M926.841 105.141L956.943 105.141"/>
<path class="l4" d="M952.838 94.1948L952.838 105.141"/>
<path class="l4" d="M952.838 94.1948L963.784 94.1948"/>
<path class="l4" d="M930.946 107.877L952.838 107.877"/>
<path class="l4" d="M941.892 111.982L941.892 116.087"/>
<circle class="l4" cx="941.892" cy="109.93" r="2.05238" style="fill:none;"/>
<path class="l4" d="M409.186 298.52L420.132 298.52"/>
<path class="l4" d="M420.132 298.52L420.132 309.466"/>
<path class="l4" d="M416.028 309.466L446.129 309.466"/>
<path class="l4" d="M442.024 298.52L442.024 309.466"/>
<path class="l4" d="M442.024 298.52L452.97 298.52"/>
<path class="l4" d="M420.132 312.203L442.024 312.203"/>
<path class="l4" d="M431.078 316.307L431.078 320.412"/>
<circle class="l4" cx="431.078" cy="314.255" r="2.05238" style="fill:none;"/>
<path class="l4" d="M482.16 298.52L493.106 298.52"/>
<path class="l4" d="M493.106 298.52L493.106 309.466"/>
<path class="l4" d="M489.001 309.466L519.102 309.466"/>
<path class="l4" d="M514.998 298.52L514.998 309.466"/>
<path class="l4" d="M514.998 298.52L525.944 298.52"/>
<path class="l4" d="M493.106 312.203L514.998 312.203"/>
<path class="l4" d="M504.052 316.307L504.052 320.412"/>
<circle class="l4" cx="504.052" cy="314.255" r="2.05238" style="fill:none;"/>
<path class="l4" d="M555.133 298.52L566.079 298.52"/>
<path class="l4" d="M566.079 298.52L566.079 309.466"/>
<path class="l4" d="M561.974 309.466L592.076 309.466"/>
<path class="l4" d="M587.971 298.52L587.971 309.466"/>
<path class="l4" d="M587.971 298.52L598.917 298.52"/>
<path class="l4" d="M566.079 312.203L587.971 312.203"/>
<path class="l4" d="M577.025 316.307L577.025 320.412"/>
<circle class="l4" cx="577.025" cy="314.255" r="2.05238" style="fill:none;"/>
<path class="l4" d="M628.106 298.52L639.052 298.52"/>
<path class="l4" d="M639.052 298.52L639.052 309.466"/>
<path class="l4" d="M634.948 309.466L665.049 309.466"/>
<path class="l4" d="M660.944 298.52L660.944 309.466"/>
<path class="l4" d="M660.944 298.52L671.89 298.52"/>
<path class="l4" d="M639.052 312.203L660.944 312.203"/>
<path class="l4" d="M649.998 316.307L649.998 320.412"/>
<circle class="l4" cx="649.998" cy="314.255" r="2.05238" style="fill:none;"/>
<path class="l4" d="M701.08 298.52L712.026 298.52"/>
<path class="l4" d="M712.026 298.52L712.026 309.466"/>
<path class="l4" d="M707.921 309.466L738.023 309.466"/>
<path class="l4" d="M733.918 298.52L733.918 309.466"/>
<path class="l4" d="M733.918 298.52L744.864 298.52"/>
<path class="l4" d="M712.026 312.203L733.918 312.203"/>
<path class="l4" d="M722.972 316.307L722.972 320.412"/>
<circle class="l4" cx="722.972" cy="314.255" r="2.05238" style="fill:none;"/>
<path class="l4" d="M774.053 298.52L784.999 298.52"/>
<path class="l4" d="M784.999 298.52L784.999 309.466"/>
<path class="l4" d="M780.894 309.466L810.996 309.466"/>
<path class="l4" d="M806.891 298.52L806.891 309.466"/>
<path class="l4" d="M806.891 298.52L817.837 298.52"/>
<path class="l4" d="M784.999 312.203L806.891 312.203"/>
<path class="l4" d="M795.945 316.307L795.945 320.412"/>
<circle class="l4" cx="795.945" cy="314.255" r="2.05238" style="fill:none;"/>
<path class="l4" d="M587.971 517.44L598.917 517.44"/>
<path class="l4" d="M587.971 506.494L587.971 517.44"/>
<path class="l4" d="M561.974 506.494L592.076 506.494"/>
<path class="l4" d="M566.079 506.494L566.079 517.44"/>
<path class="l4" d="M555.133 517.44L566.079 517.44"/>
<path class="l4" d="M566.079 503.758L587.971 503.758"/>
<path class="l4" d="M577.025 495.548L577.025 503.758"/>
<path class="l4" d="M660.944 517.44L671.89 517.44"/>
<path class="l4" d="M660.944 506.494L660.944 517.44"/>
<path class="l4" d="M634.948 506.494L665.049 506.494"/>
<path class="l4" d="M639.052 506.494L639.052 517.44"/>
<path class="l4" d="M628.106 517.44L639.052 517.44"/>
<path class="l4" d="M639.052 503.758L660.944 503.758"/>
<path class="l4" d="M649.998 495.548L649.998 503.758"/>
<path class="l4" d="M442.024 517.44L452.97 517.44"/>
<path class="l4" d="M442.024 506.494L442.024 517.44"/>
<path class="l4" d="M416.028 506.494L446.129 506.494"/>
<path class="l4" d="M420.132 506.494L420.132 517.44"/>
<path class="l4" d="M409.186 517.44L420.132 517.44"/>
<path class="l4" d="M420.132 503.758L442.024 503.758"/>
<path class="l4" d="M431.078 495.548L431.078 503.758"/>
<path class="l4" d="M514.998 517.44L525.944 517.44"/>
<path class="l4" d="M514.998 506.494L514.998 517.44"/>
<path class="l4" d="M489.001 506.494L519.102 506.494"/>
<path class="l4" d="M493.106 506.494L493.106 517.44"/>
<path class="l4" d="M482.16 517.44L493.106 517.44"/>
<path class="l4" d="M493.106 503.758L514.998 503.758"/>
<path class="l4" d="M504.052 495.548L504.052 503.758"/>
<path class="l4" d="M733.918 517.44L744.864 517.44"/>
<path class="l4" d="M733.918 506.494L733.918 517.44"/>
<path class="l4" d="M707.921 506.494L738.023 506.494"/>
<path class="l4" d="M712.026 506.494L712.026 517.44"/>
<path class="l4" d="M701.08 517.44L712.026 517.44"/>
<path class="l4" d="M712.026 503.758L733.918 503.758"/>
<path class="l4" d="M722.972 495.548L722.972 503.758"/>
<path class="l4" d="M806.891 517.44L817.837 517.44"/>
<path class="l4" d="M806.891 506.494L806.891 517.44"/>
<path class="l4" d="M780.894 506.494L810.996 506.494"/>
<path class="l4" d="M784.999 506.494L784.999 517.44"/>
<path class="l4" d="M774.053 517.44L784.999 517.44"/>
<path class="l4" d="M784.999 503.758L806.891 503.758"/>
<path class="l4" d="M795.945 495.548L795.945 503.758"/>
<path class="l4" d="M587.971 772.847L598.917 772.847"/>
<path class="l4" d="M587.971 761.901L587.971 772.847"/>
<path class="l4" d="M561.974 761.901L592.076 761.901"/>
<path class="l4" d="M566.079 761.901L566.079 772.847"/>
<path class="l4" d="M555.133 772.847L566.079 772.847"/>
<path class="l4" d="M566.079 759.164L587.971 759.164"/>
<path class="l4" d="M577.025 750.955L577.025 759.164"/>
<path class="l4" d="M660.944 772.847L671.89 772.847"/>
<path class="l4" d="M660.944 761.901L660.944 772.847"/>
<path class="l4" d="M634.948 761.901L665.049 761.901"/>
<path class="l4" d="M639.052 761.901L639.052 772.847"/>
<path class="l4" d="M628.106 772.847L639.052 772.847"/>
<path class="l4" d="M639.052 759.164L660.944 759.164"/>
<path class="l4" d="M649.998 750.955L649.998 759.164"/>
<path class="l4" d="M369.051 772.847L379.997 772.847"/>
<path class="l4" d="M369.051 761.901L369.051 772.847"/>
<path class="l4" d="M343.054 761.901L373.156 761.901"/>
<path class="l4" d="M347.159 761.901L347.159 772.847"/>
<path class="l4" d="M336.213 772.847L347.159 772.847"/>
<path class="l4" d="M347.159 759.164L369.051 759.164"/>
<path class="l4" d="M358.105 750.955L358.105 759.164"/>
<path class="l4" d="M442.024 772.847L452.97 772.847"/>
<path class="l4" d="M442.024 761.901L442.024 772.847"/>
<path class="l4" d="M416.028 761.901L446.129 761.901"/>
<path class="l4" d="M420.132 761.901L420.132 772.847"/>
<path class="l4" d="M409.186 772.847L420.132 772.847"/>
<path class="l4" d="M420.132 759.164L442.024 759.164"/>
<path class="l4" d="M431.078 750.955L431.078 759.164"/>
<path class="l4" d="M806.891 772.847L817.837 772.847"/>
<path class="l4" d="M806.891 761.901L806.891 772.847"/>
<path class="l4" d="M780.894 761.901L810.996 761.901"/>
<path class="l4" d="M784.999 761.901L784.999 772.847"/>
<path class="l4" d="M774.053 772.847L784.999 772.847"/>
<path class="l4" d="M784.999 759.164L806.891 759.164"/>
<path class="l4" d="M795.945 750.955L795.945 759.164"/>
<path class="l4" d="M879.864 772.847L890.81 772.847"/>
<path class="l4" d="M879.864 761.901L879.864 772.847"/>
<path class="l4" d="M853.868 761.901L883.969 761.901"/>
<path class="l4" d="M857.972 761.901L857.972 772.847"/>
<path class="l4" d="M847.026 772.847L857.972 772.847"/>
<path class="l4" d="M857.972 759.164L879.864 759.164"/>
<path class="l4" d="M868.918 750.955L868.918 759.164"/>
<path class="l4" d="M1025.81 94.1948L1036.76 94.1948"/>
<path class="l4" d="M1025.81 83.2488L1025.81 94.1948"/>
<path class="l4" d="M999.814 83.2488L1029.92 83.2488"/>
<path class="l4" d="M1003.92 83.2488L1003.92 94.1948"/>
<path class="l4" d="M992.973 94.1948L1003.92 94.1948"/>
<path class="l4" d="M1003.92 80.5123L1025.81 80.5123"/>
<path class="l4" d="M1014.87 72.3028L1014.87 76.4075"/>
<circle class="l4" cx="1014.87" cy="78.4599" r="2.05238" style="fill:none;"/>
<path class="l4" d="M296.078 772.847L307.024 772.847"/>
<path class="l4" d="M296.078 761.901L296.078 772.847"/>
<path class="l4" d="M270.081 761.901L300.182 761.901"/>
<path class="l4" d="M274.186 761.901L274.186 772.847"/>
<path class="l4" d="M263.24 772.847L274.186 772.847"/>
<path class="l4" d="M274.186 759.164L296.078 759.164"/>
<path class="l4" d="M285.132 750.955L285.132 759.164"/>
<path class="l4" d="M223.104 772.847L234.05 772.847"/>
<path class="l4" d="M223.104 761.901L223.104 772.847"/>
<path class="l4" d="M197.108 761.901L227.209 761.901"/>
<path class="l4" d="M201.212 761.901L201.212 772.847"/>
<path class="l4" d="M190.266 772.847L201.212 772.847"/>
<path class="l4" d="M201.212 759.164L223.104 759.164"/>
<path class="l4" d="M212.158 750.955L212.158 759.164"/>
<path class="l4" d="M952.838 772.847L963.784 772.847"/>
<path class="l4" d="M952.838 761.901L952.838 772.847"/>
<path class="l4" d="M926.841 761.901L956.943 761.901"/>
<path class="l4" d="M930.946 761.901L930.946 772.847"/>
<path class="l4" d="M920 772.847L930.946 772.847"/>
<path class="l4" d="M930.946 759.164L952.838 759.164"/>
<path class="l4" d="M941.892 750.955L941.892 759.164"/>
<path class="l4" d="M1025.81 772.847L1036.76 772.847"/>
<path class="l4" d="M1025.81 761.901L1025.81 772.847"/>
<path class="l4" d="M999.814 761.901L1029.92 761.901"/>
<path class="l4" d="M1003.92 761.901L1003.92 772.847"/>
<path class="l4" d="M992.973 772.847L1003.92 772.847"/>
<path class="l4" d="M1003.92 759.164L1025.81 759.164"/>
<path class="l4" d="M1014.87 750.955L1014.87 759.164"/>
<path class="l4" d="M369.051 517.44L379.997 517.44"/>
<path class="l4" d="M369.051 506.494L369.051 517.44"/>
<path class="l4" d="M343.054 506.494L373.156 506.494"/>
<path class="l4" d="M347.159 506.494L347.159 517.44"/>
<path class="l4" d="M336.213 517.44L347.159 517.44"/>
<path class="l4" d="M347.159 503.758L369.051 503.758"/>
<path class="l4" d="M358.105 495.548L358.105 503.758"/>
<path class="l4" d="M296.078 517.44L307.024 517.44"/>
<path class="l4" d="M296.078 506.494L296.078 517.44"/>
<path class="l4" d="M270.081 506.494L300.182 506.494"/>
<path class="l4" d="M274.186 506.494L274.186 517.44"/>
<path class="l4" d="M263.24 517.44L274.186 517.44"/>
<path class="l4" d="M274.186 503.758L296.078 503.758"/>
<path class="l4" d="M285.132 495.548L285.132 503.758"/>
<path class="l4" d="M952.838 517.44L963.784 517.44"/>
<path class="l4" d="M952.838 506.494L952.838 517.44"/>
<path class="l4" d="M926.841 506.494L956.943 506.494"/>
<path class="l4" d="M930.946 506.494L930.946 517.44"/>
<path class="l4" d="M920 517.44L930.946 517.44"/>
<path class="l4" d="M930.946 503.758L952.838 503.758"/>
<path class="l4" d="M941.892 495.548L941.892 503.758"/>
<path class="l4" d="M879.864 517.44L890.81 517.44"/>
<path class="l4" d="M879.864 506.494L879.864 517.44"/>
<path class="l4" d="M853.868 506.494L883.969 506.494"/>
<path class="l4" d="M857.972 506.494L857.972 517.44"/>
<path class="l4" d="M847.026 517.44L857.972 517.44"/>
<path class="l4" d="M857.972 503.758L879.864 503.758"/>
<path class="l4" d="M868.918 495.548L868.918 503.758"/>
<path class="l4" d="M223.104 94.1948L234.05 94.1948"/>
<path class="l4" d="M223.104 83.2488L223.104 94.1948"/>
<path class="l4" d="M197.108 83.2488L227.209 83.2488"/>
<path class="l4" d="M201.212 83.2488L201.212 94.1948"/>
<path class="l4" d="M190.266 94.1948L201.212 94.1948"/>
<path class="l4" d="M201.212 80.5123L223.104 80.5123"/>
<path class="l4" d="M212.158 72.3028L212.158 76.4075"/>
<circle class="l4" cx="212.158" cy="78.4599" r="2.05238" style="fill:none;"/>
<path class="l4" d="M336.213 298.52L347.159 298.52"/>
<path class="l4" d="M347.159 298.52L347.159 309.466"/>
<path class="l4" d="M343.054 309.466L373.156 309.466"/>
<path class="l4" d="M369.051 298.52L369.051 309.466"/>
<path class="l4" d="M369.051 298.52L379.997 298.52"/>
<path class="l4" d="M347.159 312.203L369.051 312.203"/>
<path class="l4" d="M358.105 316.307L358.105 320.412"/>
<circle class="l4" cx="358.105" cy="314.255" r="2.05238" style="fill:none;"/>
<path class="l4" d="M263.24 298.52L274.186 298.52"/>
<path class="l4" d="M274.186 298.52L274.186 309.466"/>
<path class="l4" d="M270.081 309.466L300.182 309.466"/>
<path class="l4" d="M296.078 298.52L296.078 309.466"/>
<path class="l4" d="M296.078 298.52L307.024 298.52"/>
<path class="l4" d="M274.186 312.203L296.078 312.203"/>
<path class="l4" d="M285.132 316.307L285.132 320.412"/>
<circle class="l4" cx="285.132" cy="314.255" r="2.05238" style="fill:none;"/>
<path class="l4" d="M847.026 298.52L857.972 298.52"/>
<path class="l4" d="M857.972 298.52L857.972 309.466"/>
<path class="l4" d="M853.868 309.466L883.969 309.466"/>
<path class="l4" d="M879.864 298.52L879.864 309.466"/>
<path class="l4" d="M879.864 298.52L890.81 298.52"/>
<path class="l4" d="M857.972 312.203L879.864 312.203"/>
<path class="l4" d="M868.918 316.307L868.918 320.412"/>
<circle class="l4" cx="868.918" cy="314.255" r="2.05238" style="fill:none;"/>
<path class="l4" d="M920 298.52L930.946 298.52"/>
<path class="l4" d="M930.946 298.52L930.946 309.466"/>
<path class="l4" d="M926.841 309.466L956.943 309.466"/>
<path class="l4" d="M952.838 298.52L952.838 309.466"/>
<path class="l4" d="M952.838 298.52L963.784 298.52"/>
<path class="l4" d="M930.946 312.203L952.838 312.203"/>
<path class="l4" d="M941.892 316.307L941.892 320.412"/>
<circle class="l4" cx="941.892" cy="314.255" r="2.05238" style="fill:none;"/>
<path class="l4" d="M555.133 94.1948L566.079 94.1948"/>
<path class="l4" d="M566.079 94.1948L566.079 105.141"/>
<path class="l4" d="M561.974 105.141L592.076 105.141"/>
<path class="l4" d="M587.971 94.1948L587.971 105.141"/>
<path class="l4" d="M587.971 94.1948L598.917 94.1948"/>
<path class="l4" d="M566.079 107.877L587.971 107.877"/>
<path class="l4" d="M577.025 111.982L577.025 116.087"/>
<circle class="l4" cx="577.025" cy="109.93" r="2.05238" style="fill:none;"/>
<path class="l4" d="M701.08 94.1948L712.026 94.1948"/>
<path class="l4" d="M712.026 94.1948L712.026 105.141"/>
<path class="l4" d="M707.921 105.141L738.023 105.141"/>
<path class="l4" d="M733.918 94.1948L733.918 105.141"/>
<path class="l4" d="M733.918 94.1948L744.864 94.1948"/>
<path class="l4" d="M712.026 107.877L733.918 107.877"/>
<path class="l4" d="M722.972 111.982L722.972 116.087"/>
<circle class="l4" cx="722.972" cy="109.93" r="2.05238" style="fill:none;"/>
<path class="l4" d="M190.266 298.52L201.212 298.52"/>
<path class="l4" d="M201.212 298.52L201.212 309.466"/>
<path class="l4" d="M197.108 309.466L227.209 309.466"/>
<path class="l4" d="M223.104 298.52L223.104 309.466"/>
<path class="l4" d="M223.104 298.52L234.05 298.52"/>
<path class="l4" d="M201.212 312.203L223.104 312.203"/>
<path class="l4" d="M212.158 316.307L212.158 320.412"/>
<circle class="l4" cx="212.158" cy="314.255" r="2.05238" style="fill:none;"/>
<path class="l4" d="M992.973 298.52L1003.92 298.52"/>
<path class="l4" d="M1003.92 298.52L1003.92 309.466"/>
<path class="l4" d="M999.814 309.466L1029.92 309.466"/>
<path class="l4" d="M1025.81 298.52L1025.81 309.466"/>
<path class="l4" d="M1025.81 298.52L1036.76 298.52"/>
<path class="l4" d="M1003.92 312.203L1025.81 312.203"/>
<path class="l4" d="M1014.87 316.307L1014.87 320.412"/>
<circle class="l4" cx="1014.87" cy="314.255" r="2.05238" style="fill:none;"/>
<path class="l4" d="M223.104 517.44L234.05 517.44"/>
<path class="l4" d="M223.104 506.494L223.104 517.44"/>
<path class="l4" d="M197.108 506.494L227.209 506.494"/>
<path class="l4" d="M201.212 506.494L201.212 517.44"/>
<path class="l4" d="M190.266 517.44L201.212 517.44"/>
<path class="l4" d="M201.212 503.758L223.104 503.758"/>
<path class="l4" d="M212.158 495.548L212.158 503.758"/>
<path class="l4" d="M1025.81 517.44L1036.76 517.44"/>
<path class="l4" d="M1025.81 506.494L1025.81 517.44"/>
<path class="l4" d="M999.814 506.494L1029.92 506.494"/>
<path class="l4" d="M1003.92 506.494L1003.92 517.44"/>
<path class="l4" d="M992.973 517.44L1003.92 517.44"/>
<path class="l4" d="M1003.92 503.758L1025.81 503.758"/>
<path class="l4" d="M1014.87 495.548L1014.87 503.758"/>
<path class="l4" d="M733.918 772.847L744.864 772.847"/>
<path class="l4" d="M733.918 761.901L733.918 772.847"/>
<path class="l4" d="M707.921 761.901L738.023 761.901"/>
<path class="l4" d="M712.026 761.901L712.026 772.847"/>
<path class="l4" d="M701.08 772.847L712.026 772.847"/>
<path class="l4" d="M712.026 759.164L733.918 759.164"/>
<path class="l4" d="M722.972 750.955L722.972 759.164"/>
<path class="l4" d="M514.998 772.847L525.944 772.847"/>
<path class="l4" d="M514.998 761.901L514.998 772.847"/>
<path class="l4" d="M489.001 761.901L519.102 761.901"/>
<path class="l4" d="M493.106 761.901L493.106 772.847"/>
<path class="l4" d="M482.16 772.847L493.106 772.847"/>
<path class="l4" d="M493.106 759.164L514.998 759.164"/>
<path class="l4" d="M504.052 750.955L504.052 759.164"/>
<path class="l5" d="M306.659 93.8299L307.389 93.8299L307.389 94.5597L306.659 94.5597L306.659 93.8299z"/>
<path class="l5" d="M284.767 115.722L285.497 115.722L285.497 116.452L284.767 116.452L284.767 115.722z"/>
<path class="l5" d="M262.875 93.8299L263.605 93.8299L263.605 94.5597L262.875 94.5597L262.875 93.8299z"/>
<path class="l5" d="M379.632 93.8299L380.362 93.8299L380.362 94.5597L379.632 94.5597L379.632 93.8299z"/>
<path class="l5" d="M357.74 115.722L358.47 115.722L358.47 116.452L357.74 116.452L357.74 115.722z"/>
<path class="l5" d="M335.848 93.8299L336.578 93.8299L336.578 94.5597L335.848 94.5597L335.848 93.8299z"/>
<path class="l5" d="M452.606 93.8299L453.335 93.8299L453.335 94.5597L452.606 94.5597L452.606 93.8299z"/>
<path class="l5" d="M430.714 115.722L431.443 115.722L431.443 116.452L430.714 116.452L430.714 115.722z"/>
<path class="l5" d="M408.822 93.8299L409.551 93.8299L409.551 94.5597L408.822 94.5597L408.822 93.8299z"/>
<path class="l5" d="M525.579 93.8299L526.309 93.8299L526.309 94.5597L525.579 94.5597L525.579 93.8299z"/>
<path class="l5" d="M503.687 115.722L504.417 115.722L504.417 116.452L503.687 116.452L503.687 115.722z"/>
<path class="l5" d="M481.795 93.8299L482.525 93.8299L482.525 94.5597L481.795 94.5597L481.795 93.8299z"/>
<path class="l5" d="M671.526 93.8299L672.255 93.8299L672.255 94.5597L671.526 94.5597L671.526 93.8299z"/>
<path class="l5" d="M649.634 115.722L650.363 115.722L650.363 116.452L649.634 116.452L649.634 115.722z"/>
<path class="l5" d="M627.742 93.8299L628.471 93.8299L628.471 94.5597L627.742 94.5597L627.742 93.8299z"/>
<path class="l5" d="M817.472 93.8299L818.202 93.8299L818.202 94.5597L817.472 94.5597L817.472 93.8299z"/>
<path class="l5" d="M795.58 115.722L796.31 115.722L796.31 116.452L795.58 116.452L795.58 115.722z"/>
<path class="l5" d="M773.688 93.8299L774.418 93.8299L774.418 94.5597L773.688 94.5597L773.688 93.8299z"/>
<path class="l5" d="M890.446 93.8299L891.175 93.8299L891.175 94.5597L890.446 94.5597L890.446 93.8299z"/>
<path class="l5" d="M868.554 115.722L869.283 115.722L869.283 116.452L868.554 116.452L868.554 115.722z"/>
<path class="l5" d="M846.662 93.8299L847.391 93.8299L847.391 94.5597L846.662 94.5597L846.662 93.8299z"/>
<path class="l5" d="M963.419 93.8299L964.149 93.8299L964.149 94.5597L963.419 94.5597L963.419 93.8299z"/>
<path class="l5" d="M941.527 115.722L942.257 115.722L942.257 116.452L941.527 116.452L941.527 115.722z"/>
<path class="l5" d="M919.635 93.8299L920.365 93.8299L920.365 94.5597L919.635 94.5597L919.635 93.8299z"/>
<path class="l5" d="M452.606 298.155L453.335 298.155L453.335 298.885L452.606 298.885L452.606 298.155z"/>
<path class="l5" d="M430.714 320.047L431.443 320.047L431.443 320.777L430.714 320.777L430.714 320.047z"/>
<path class="l5" d="M408.822 298.155L409.551 298.155L409.551 298.885L408.822 298.885L408.822 298.155z"/>
<path class="l5" d="M525.579 298.155L526.309 298.155L526.309 298.885L525.579 298.885L525.579 298.155z"/>
<path class="l5" d="M503.687 320.047L504.417 320.047L504.417 320.777L503.687 320.777L503.687 320.047z"/>
<path class="l5" d="M481.795 298.155L482.525 298.155L482.525 298.885L481.795 298.885L481.795 298.155z"/>
<path class="l5" d="M598.552 298.155L599.282 298.155L599.282 298.885L598.552 298.885L598.552 298.155z"/>
<path class="l5" d="M576.66 320.047L577.39 320.047L577.39 320.777L576.66 320.777L576.66 320.047z"/>
<path class="l5" d="M554.768 298.155L555.498 298.155L555.498 298.885L554.768 298.885L554.768 298.155z"/>
<path class="l5" d="M671.526 298.155L672.255 298.155L672.255 298.885L671.526 298.885L671.526 298.155z"/>
<path class="l5" d="M649.634 320.047L650.363 320.047L650.363 320.777L649.634 320.777L649.634 320.047z"/>
<path class="l5" d="M627.742 298.155L628.471 298.155L628.471 298.885L627.742 298.885L627.742 298.155z"/>
<path class="l5" d="M744.499 298.155L745.229 298.155L745.229 298.885L744.499 298.885L744.499 298.155z"/>
<path class="l5" d="M722.607 320.047L723.337 320.047L723.337 320.777L722.607 320.777L722.607 320.047z"/>
<path class="l5" d="M700.715 298.155L701.445 298.155L701.445 298.885L700.715 298.885L700.715 298.155z"/>
<path class="l5" d="M817.472 298.155L818.202 298.155L818.202 298.885L817.472 298.885L817.472 298.155z"/>
<path class="l5" d="M795.58 320.047L796.31 320.047L796.31 320.777L795.58 320.777L795.58 320.047z"/>
<path class="l5" d="M773.688 298.155L774.418 298.155L774.418 298.885L773.688 298.885L773.688 298.155z"/>
<path class="l5" d="M598.552 517.075L599.282 517.075L599.282 517.805L598.552 517.805L598.552 517.075z"/>
<path class="l5" d="M576.66 495.183L577.39 495.183L577.39 495.913L576.66 495.913L576.66 495.183z"/>
<path class="l5" d="M554.768 517.075L555.498 517.075L555.498 517.805L554.768 517.805L554.768 517.075z"/>
<path class="l5" d="M671.526 517.075L672.255 517.075L672.255 517.805L671.526 517.805L671.526 517.075z"/>
<path class="l5" d="M649.634 495.183L650.363 495.183L650.363 495.913L649.634 495.913L649.634 495.183z"/>
<path class="l5" d="M627.742 517.075L628.471 517.075L628.471 517.805L627.742 517.805L627.742 517.075z"/>
<path class="l5" d="M452.606 517.075L453.335 517.075L453.335 517.805L452.606 517.805L452.606 517.075z"/>
<path class="l5" d="M430.714 495.183L431.443 495.183L431.443 495.913L430.714 495.913L430.714 495.183z"/>
<path class="l5" d="M408.822 517.075L409.551 517.075L409.551 517.805L408.822 517.805L408.822 517.075z"/>
<path class="l5" d="M525.579 517.075L526.309 517.075L526.309 517.805L525.579 517.805L525.579 517.075z"/>
<path class="l5" d="M503.687 495.183L504.417 495.183L504.417 495.913L503.687 495.913L503.687 495.183z"/>
<path class="l5" d="M481.795 517.075L482.525 517.075L482.525 517.805L481.795 517.805L481.795 517.075z"/>
<path class="l5" d="M744.499 517.075L745.229 517.075L745.229 517.805L744.499 517.805L744.499 517.075z"/>
<path class="l5" d="M722.607 495.183L723.337 495.183L723.337 495.913L722.607 495.913L722.607 495.183z"/>
<path class="l5" d="M700.715 517.075L701.445 517.075L701.445 517.805L700.715 517.805L700.715 517.075z"/>
<path class="l5" d="M817.472 517.075L818.202 517.075L818.202 517.805L817.472 517.805L817.472 517.075z"/>
<path class="l5" d="M795.58 495.183L796.31 495.183L796.31 495.913L795.58 495.913L795.58 495.183z"/>
<path class="l5" d="M773.688 517.075L774.418 517.075L774.418 517.805L773.688 517.805L773.688 517.075z"/>
<path class="l5" d="M598.552 772.482L599.282 772.482L599.282 773.212L598.552 773.212L598.552 772.482z"/>
<path class="l5" d="M576.66 750.59L577.39 750.59L577.39 751.32L576.66 751.32L576.66 750.59z"/>
<path class="l5" d="M554.768 772.482L555.498 772.482L555.498 773.212L554.768 773.212L554.768 772.482z"/>
<path class="l5" d="M671.526 772.482L672.255 772.482L672.255 773.212L671.526 773.212L671.526 772.482z"/>
<path class="l5" d="M649.634 750.59L650.363 750.59L650.363 751.32L649.634 751.32L649.634 750.59z"/>
<path class="l5" d="M627.742 772.482L628.471 772.482L628.471 773.212L627.742 773.212L627.742 772.482z"/>
<path class="l5" d="M379.632 772.482L380.362 772.482L380.362 773.212L379.632 773.212L379.632 772.482z"/>
<path class="l5" d="M357.74 750.59L358.47 750.59L358.47 751.32L357.74 751.32L357.74 750.59z"/>
<path class="l5" d="M335.848 772.482L336.578 772.482L336.578 773.212L335.848 773.212L335.848 772.482z"/>
<path class="l5" d="M452.606 772.482L453.335 772.482L453.335 773.212L452.606 773.212L452.606 772.482z"/>
<path class="l5" d="M430.714 750.59L431.443 750.59L431.443 751.32L430.714 751.32L430.714 750.59z"/>
<path class="l5" d="M408.822 772.482L409.551 772.482L409.551 773.212L408.822 773.212L408.822 772.482z"/>
<path class="l5" d="M817.472 772.482L818.202 772.482L818.202 773.212L817.472 773.212L817.472 772.482z"/>
<path class="l5" d="M795.58 750.59L796.31 750.59L796.31 751.32L795.58 751.32L795.58 750.59z"/>
<path class="l5" d="M773.688 772.482L774.418 772.482L774.418 773.212L773.688 773.212L773.688 772.482z"/>
<path class="l5" d="M890.446 772.482L891.175 772.482L891.175 773.212L890.446 773.212L890.446 772.482z"/>
<path class="l5" d="M868.554 750.59L869.283 750.59L869.283 751.32L868.554 751.32L868.554 750.59z"/>
<path class="l5" d="M846.662 772.482L847.391 772.482L847.391 773.212L846.662 773.212L846.662 772.482z"/>
<path class="l5" d="M66.2117 21.2215L62.107 24.7561L58.3443 24.7561L54.2396 21.2215L58.3443 17.6868L62.107 17.6868L66.2117 21.2215"/>
<path class="l5" d="M66.2046 21.2143L66.2189 21.2143L66.2189 21.2286L66.2046 21.2286L66.2046 21.2143z"/>
<path class="l5" d="M66.2117 860.415L62.107 863.949L58.3443 863.949L54.2396 860.415L58.3443 856.88L62.107 856.88L66.2117 860.415"/>
<path class="l5" d="M66.2046 860.408L66.2189 860.408L66.2189 860.422L66.2046 860.422L66.2046 860.408z"/>
<path class="l5" d="M1211.89 345.953L1211.89 353.25L1217.82 353.25L1222.38 349.601L1217.82 345.953L1211.89 345.953"/>
<path class="l5" d="M1211.89 349.594L1211.9 349.594L1211.9 349.609L1211.89 349.609L1211.89 349.594z"/>
<path class="l5" d="M1211.89 455.413L1211.89 462.71L1217.82 462.71L1222.38 459.061L1217.82 455.413L1211.89 455.413"/>
<path class="l5" d="M1211.89 459.054L1211.9 459.054L1211.9 459.069L1211.89 459.069L1211.89 459.054z"/>
<path class="l5" d="M1211.89 718.117L1211.89 725.414L1217.82 725.414L1222.38 721.765L1217.82 718.117L1211.89 718.117"/>
<path class="l5" d="M1211.89 721.758L1211.9 721.758L1211.9 721.773L1211.89 721.773L1211.89 721.758z"/>
<path class="l5" d="M992.608 93.8299L993.338 93.8299L993.338 94.5597L992.608 94.5597L992.608 93.8299z"/>
<path class="l5" d="M1014.5 71.9379L1015.23 71.9379L1015.23 72.6677L1014.5 72.6677L1014.5 71.9379z"/>
<path class="l5" d="M1036.39 93.8299L1037.12 93.8299L1037.12 94.5597L1036.39 94.5597L1036.39 93.8299z"/>
<path class="l5" d="M306.659 772.482L307.389 772.482L307.389 773.212L306.659 773.212L306.659 772.482z"/>
<path class="l5" d="M284.767 750.59L285.497 750.59L285.497 751.32L284.767 751.32L284.767 750.59z"/>
<path class="l5" d="M262.875 772.482L263.605 772.482L263.605 773.212L262.875 773.212L262.875 772.482z"/>
<path class="l5" d="M233.686 772.482L234.415 772.482L234.415 773.212L233.686 773.212L233.686 772.482z"/>
<path class="l5" d="M211.794 750.59L212.523 750.59L212.523 751.32L211.794 751.32L211.794 750.59z"/>
<path class="l5" d="M189.902 772.482L190.631 772.482L190.631 773.212L189.902 773.212L189.902 772.482z"/>
<path class="l5" d="M963.419 772.482L964.149 772.482L964.149 773.212L963.419 773.212L963.419 772.482z"/>
<path class="l5" d="M941.527 750.59L942.257 750.59L942.257 751.32L941.527 751.32L941.527 750.59z"/>
<path class="l5" d="M919.635 772.482L920.365 772.482L920.365 773.212L919.635 773.212L919.635 772.482z"/>
<path class="l5" d="M1036.39 772.482L1037.12 772.482L1037.12 773.212L1036.39 773.212L1036.39 772.482z"/>
<path class="l5" d="M1014.5 750.59L1015.23 750.59L1015.23 751.32L1014.5 751.32L1014.5 750.59z"/>
<path class="l5" d="M992.608 772.482L993.338 772.482L993.338 773.212L992.608 773.212L992.608 772.482z"/>
<path class="l5" d="M379.632 517.075L380.362 517.075L380.362 517.805L379.632 517.805L379.632 517.075z"/>
<path class="l5" d="M357.74 495.183L358.47 495.183L358.47 495.913L357.74 495.913L357.74 495.183z"/>
<path class="l5" d="M335.848 517.075L336.578 517.075L336.578 517.805L335.848 517.805L335.848 517.075z"/>
<path class="l5" d="M306.659 517.075L307.389 517.075L307.389 517.805L306.659 517.805L306.659 517.075z"/>
<path class="l5" d="M284.767 495.183L285.497 495.183L285.497 495.913L284.767 495.913L284.767 495.183z"/>
<path class="l5" d="M262.875 517.075L263.605 517.075L263.605 517.805L262.875 517.805L262.875 517.075z"/>
<path class="l5" d="M963.419 517.075L964.149 517.075L964.149 517.805L963.419 517.805L963.419 517.075z"/>
<path class="l5" d="M941.527 495.183L942.257 495.183L942.257 495.913L941.527 495.913L941.527 495.183z"/>
<path class="l5" d="M919.635 517.075L920.365 517.075L920.365 517.805L919.635 517.805L919.635 517.075z"/>
<path class="l5" d="M890.446 517.075L891.175 517.075L891.175 517.805L890.446 517.805L890.446 517.075z"/>
<path class="l5" d="M868.554 495.183L869.283 495.183L869.283 495.913L868.554 495.913L868.554 495.183z"/>
<path class="l5" d="M846.662 517.075L847.391 517.075L847.391 517.805L846.662 517.805L846.662 517.075z"/>
<path class="l5" d="M189.902 93.8299L190.631 93.8299L190.631 94.5597L189.902 94.5597L189.902 93.8299z"/>
<path class="l5" d="M211.794 71.9379L212.523 71.9379L212.523 72.6677L211.794 72.6677L211.794 71.9379z"/>
<path class="l5" d="M233.686 93.8299L234.415 93.8299L234.415 94.5597L233.686 94.5597L233.686 93.8299z"/>
<path class="l5" d="M379.632 298.155L380.362 298.155L380.362 298.885L379.632 298.885L379.632 298.155z"/>
<path class="l5" d="M357.74 320.047L358.47 320.047L358.47 320.777L357.74 320.777L357.74 320.047z"/>
<path class="l5" d="M335.848 298.155L336.578 298.155L336.578 298.885L335.848 298.885L335.848 298.155z"/>
<path class="l5" d="M306.659 298.155L307.389 298.155L307.389 298.885L306.659 298.885L306.659 298.155z"/>
<path class="l5" d="M284.767 320.047L285.497 320.047L285.497 320.777L284.767 320.777L284.767 320.047z"/>
<path class="l5" d="M262.875 298.155L263.605 298.155L263.605 298.885L262.875 298.885L262.875 298.155z"/>
<path class="l5" d="M890.446 298.155L891.175 298.155L891.175 298.885L890.446 298.885L890.446 298.155z"/>
<path class="l5" d="M868.554 320.047L869.283 320.047L869.283 320.777L868.554 320.777L868.554 320.047z"/>
<path class="l5" d="M846.662 298.155L847.391 298.155L847.391 298.885L846.662 298.885L846.662 298.155z"/>
<path class="l5" d="M963.419 298.155L964.149 298.155L964.149 298.885L963.419 298.885L963.419 298.155z"/>
<path class="l5" d="M941.527 320.047L942.257 320.047L942.257 320.777L941.527 320.777L941.527 320.047z"/>
<path class="l5" d="M919.635 298.155L920.365 298.155L920.365 298.885L919.635 298.885L919.635 298.155z"/>
<path class="l5" d="M66.2117 130.681L62.107 134.216L58.3443 134.216L54.2396 130.681L58.3443 127.147L62.107 127.147L66.2117 130.681"/>
<path class="l5" d="M66.2046 130.674L66.2189 130.674L66.2189 130.689L66.2046 130.689L66.2046 130.674z"/>
<path class="l5" d="M598.552 93.8299L599.282 93.8299L599.282 94.5597L598.552 94.5597L598.552 93.8299z"/>
<path class="l5" d="M576.66 115.722L577.39 115.722L577.39 116.452L576.66 116.452L576.66 115.722z"/>
<path class="l5" d="M554.768 93.8299L555.498 93.8299L555.498 94.5597L554.768 94.5597L554.768 93.8299z"/>
<path class="l5" d="M744.499 93.8299L745.229 93.8299L745.229 94.5597L744.499 94.5597L744.499 93.8299z"/>
<path class="l5" d="M722.607 115.722L723.337 115.722L723.337 116.452L722.607 116.452L722.607 115.722z"/>
<path class="l5" d="M700.715 93.8299L701.445 93.8299L701.445 94.5597L700.715 94.5597L700.715 93.8299z"/>
<path class="l5" d="M233.686 298.155L234.415 298.155L234.415 298.885L233.686 298.885L233.686 298.155z"/>
<path class="l5" d="M211.794 320.047L212.523 320.047L212.523 320.777L211.794 320.777L211.794 320.047z"/>
<path class="l5" d="M189.902 298.155L190.631 298.155L190.631 298.885L189.902 298.885L189.902 298.155z"/>
<path class="l5" d="M1036.39 298.155L1037.12 298.155L1037.12 298.885L1036.39 298.885L1036.39 298.155z"/>
<path class="l5" d="M1014.5 320.047L1015.23 320.047L1015.23 320.777L1014.5 320.777L1014.5 320.047z"/>
<path class="l5" d="M992.608 298.155L993.338 298.155L993.338 298.885L992.608 298.885L992.608 298.155z"/>
<path class="l5" d="M233.686 517.075L234.415 517.075L234.415 517.805L233.686 517.805L233.686 517.075z"/>
<path class="l5" d="M211.794 495.183L212.523 495.183L212.523 495.913L211.794 495.913L211.794 495.183z"/>
<path class="l5" d="M189.902 517.075L190.631 517.075L190.631 517.805L189.902 517.805L189.902 517.075z"/>
<path class="l5" d="M1036.39 517.075L1037.12 517.075L1037.12 517.805L1036.39 517.805L1036.39 517.075z"/>
<path class="l5" d="M1014.5 495.183L1015.23 495.183L1015.23 495.913L1014.5 495.913L1014.5 495.183z"/>
<path class="l5" d="M992.608 517.075L993.338 517.075L993.338 517.805L992.608 517.805L992.608 517.075z"/>
<path class="l5" d="M744.499 772.482L745.229 772.482L745.229 773.212L744.499 773.212L744.499 772.482z"/>
<path class="l5" d="M722.607 750.59L723.337 750.59L723.337 751.32L722.607 751.32L722.607 750.59z"/>
<path class="l5" d="M700.715 772.482L701.445 772.482L701.445 773.212L700.715 773.212L700.715 772.482z"/>
<path class="l5" d="M525.579 772.482L526.309 772.482L526.309 773.212L525.579 773.212L525.579 772.482z"/>
<path class="l5" d="M503.687 750.59L504.417 750.59L504.417 751.32L503.687 751.32L503.687 750.59z"/>
<path class="l5" d="M481.795 772.482L482.525 772.482L482.525 773.212L481.795 773.212L481.795 772.482z"/>
<path class="l1" d="M285.132 116.087L285.132 130.681"/>
<path class="l1" d="M358.105 116.087L358.105 130.681"/>
<path class="l1" d="M431.078 116.087L431.078 130.681"/>
<path class="l1" d="M504.052 116.087L504.052 130.681"/>
<path class="l1" d="M577.025 116.087L577.025 130.681"/>
<path class="l1" d="M649.998 116.087L649.998 130.681"/>
<path class="l1" d="M722.972 116.087L722.972 130.681"/>
<path class="l1" d="M795.945 116.087L795.945 130.681"/>
<path class="l1" d="M868.918 116.087L868.918 130.681"/>
<path class="l1" d="M941.892 116.087L941.892 130.681"/>
<path class="l1" d="M963.784 94.1948L992.973 94.1948"/>
<path class="l1" d="M234.05 94.1948L263.24 94.1948"/>
<path class="l1" d="M190.266 72.3028L212.158 72.3028"/>
<path class="l1" d="M190.266 72.3028L190.266 94.1948"/>
<path class="l1" d="M1014.87 21.2215L1014.87 72.3028"/>
<path class="l1" d="M1014.87 72.3028L1036.76 72.3028"/>
<path class="l1" d="M1036.76 72.3028L1036.76 94.1948"/>
<path class="l1" d="M212.158 21.2215L212.158 72.3028"/>
<path class="l1" d="M248.645 94.1948L248.645 130.681"/>
<path class="l1" d="M307.024 94.1948L336.213 94.1948"/>
<path class="l1" d="M321.618 21.2215L321.618 94.1948"/>
<path class="l1" d="M890.81 94.1948L920 94.1948"/>
<path class="l1" d="M905.405 21.2215L905.405 94.1948"/>
<path class="l1" d="M452.97 94.1948L482.16 94.1948"/>
<path class="l1" d="M467.565 21.2215L467.565 94.1948"/>
<path class="l1" d="M744.864 94.1948L774.053 94.1948"/>
<path class="l1" d="M759.458 21.2215L759.458 94.1948"/>
<path class="l1" d="M525.944 94.1948L555.133 94.1948"/>
<path class="l1" d="M671.89 94.1948L701.08 94.1948"/>
<path class="l1" d="M598.917 94.1948L628.106 94.1948"/>
<path class="l1" d="M234.05 298.52L263.24 298.52"/>
<path class="l1" d="M212.158 320.412L285.132 320.412"/>
<path class="l1" d="M190.266 298.52L190.266 320.412"/>
<path class="l1" d="M190.266 320.412L212.158 320.412"/>
<path class="l1" d="M248.645 298.52L248.645 320.412"/>
<path class="l1" d="M307.024 298.52L336.213 298.52"/>
<path class="l1" d="M379.997 298.52L409.186 298.52"/>
<path class="l1" d="M504.052 320.412L525.944 320.412"/>
<path class="l1" d="M525.944 298.52L525.944 320.412"/>
<path class="l1" d="M452.97 298.52L482.16 298.52"/>
<path class="l1" d="M431.078 320.412L504.052 320.412"/>
<path class="l1" d="M941.892 320.412L1014.87 320.412"/>
<path class="l1" d="M1014.87 320.412L1036.76 320.412"/>
<path class="l1" d="M1036.76 298.52L1036.76 320.412"/>
<path class="l1" d="M963.784 298.52L992.973 298.52"/>
<path class="l1" d="M978.378 298.52L978.378 320.412"/>
<path class="l1" d="M890.81 298.52L920 298.52"/>
<path class="l1" d="M744.864 298.52L774.053 298.52"/>
<path class="l1" d="M817.837 298.52L847.026 298.52"/>
<path class="l1" d="M598.917 298.52L628.106 298.52"/>
<path class="l1" d="M1036.76 247.439L1036.76 298.52"/>
<path class="l1" d="M190.266 247.439L190.266 298.52"/>
<path class="l1" d="M701.08 298.52L701.08 320.412"/>
<path class="l1" d="M701.08 320.412L795.945 320.412"/>
<path class="l1" d="M577.025 349.601L1211.89 349.601"/>
<path class="l1" d="M577.025 320.412L577.025 349.601"/>
<path class="l1" d="M649.998 320.412L649.998 349.601"/>
<path class="l1" d="M613.512 298.52L613.512 349.601"/>
<path class="l1" d="M358.105 378.791L868.918 378.791"/>
<path class="l1" d="M868.918 320.412L868.918 378.791"/>
<path class="l1" d="M358.105 320.412L358.105 378.791"/>
<path class="l1" d="M467.565 320.412L467.565 378.791"/>
<path class="l1" d="M759.458 320.412L759.458 378.791"/>
<path class="l1" d="M394.592 232.844L394.592 298.52"/>
<path class="l1" d="M394.592 232.844L832.432 232.844"/>
<path class="l1" d="M832.432 232.844L832.432 298.52"/>
<path class="l1" d="M555.133 232.844L555.133 298.52"/>
<path class="l1" d="M671.89 232.844L671.89 298.52"/>
<path class="l1" d="M190.266 495.548L190.266 517.44"/>
<path class="l1" d="M190.266 495.548L285.132 495.548"/>
<path class="l1" d="M234.05 517.44L263.24 517.44"/>
<path class="l1" d="M248.645 495.548L248.645 517.44"/>
<path class="l1" d="M212.158 750.955L285.132 750.955"/>
<path class="l1" d="M234.05 772.847L263.24 772.847"/>
<path class="l1" d="M248.645 750.955L248.645 772.847"/>
<path class="l1" d="M190.266 750.955L190.266 772.847"/>
<path class="l1" d="M190.266 750.955L212.158 750.955"/>
<path class="l1" d="M963.784 517.44L992.973 517.44"/>
<path class="l1" d="M1036.76 495.548L1036.76 517.44"/>
<path class="l1" d="M941.892 495.548L1036.76 495.548"/>
<path class="l1" d="M978.378 495.548L978.378 517.44"/>
<path class="l1" d="M963.784 772.847L992.973 772.847"/>
<path class="l1" d="M1036.76 750.955L1036.76 772.847"/>
<path class="l1" d="M941.892 750.955L1036.76 750.955"/>
<path class="l1" d="M978.378 750.955L978.378 772.847"/>
<path class="l1" d="M1036.76 772.847L1036.76 860.415"/>
<path class="l1" d="M190.266 772.847L190.266 860.415"/>
<path class="l1" d="M307.024 772.847L336.213 772.847"/>
<path class="l1" d="M321.618 772.847L321.618 860.415"/>
<path class="l1" d="M890.81 772.847L920 772.847"/>
<path class="l1" d="M905.405 772.847L905.405 860.415"/>
<path class="l1" d="M467.565 298.52L467.565 320.412"/>
<path class="l1" d="M759.458 298.52L759.458 320.412"/>
<path class="l1" d="M307.024 517.44L336.213 517.44"/>
<path class="l1" d="M379.997 517.44L409.186 517.44"/>
<path class="l1" d="M452.97 517.44L482.16 517.44"/>
<path class="l1" d="M890.81 517.44L920 517.44"/>
<path class="l1" d="M817.837 517.44L847.026 517.44"/>
<path class="l1" d="M744.864 517.44L774.053 517.44"/>
<path class="l1" d="M598.917 517.44L628.106 517.44"/>
<path class="l1" d="M613.512 349.601L613.512 517.44"/>
<path class="l1" d="M168.374 459.061L1211.89 459.061"/>
<path class="l1" d="M577.025 459.061L577.025 495.548"/>
<path class="l1" d="M649.998 459.061L649.998 495.548"/>
<path class="l1" d="M905.405 378.791L905.405 517.44"/>
<path class="l1" d="M868.918 378.791L905.405 378.791"/>
<path class="l1" d="M321.618 378.791L321.618 517.44"/>
<path class="l1" d="M321.618 378.791L358.105 378.791"/>
<path class="l1" d="M504.052 459.061L504.052 495.548"/>
<path class="l1" d="M525.944 459.061L525.944 517.44"/>
<path class="l1" d="M701.08 459.061L701.08 517.44"/>
<path class="l1" d="M722.972 459.061L722.972 495.548"/>
<path class="l1" d="M358.105 459.061L358.105 495.548"/>
<path class="l1" d="M431.078 459.061L431.078 495.548"/>
<path class="l1" d="M795.945 459.061L795.945 495.548"/>
<path class="l1" d="M868.918 459.061L868.918 495.548"/>
<path class="l1" d="M467.565 517.44L467.565 583.116"/>
<path class="l1" d="M190.266 517.44L190.266 750.955"/>
<path class="l1" d="M1036.76 517.44L1036.76 750.955"/>
<path class="l1" d="M759.458 517.44L759.458 583.116"/>
<path class="l1" d="M190.266 583.116L1036.76 583.116"/>
<path class="l1" d="M555.133 517.44L555.133 583.116"/>
<path class="l1" d="M671.89 517.44L671.89 583.116"/>
<path class="l1" d="M321.618 247.439L321.618 298.52"/>
<path class="l1" d="M905.405 247.439L905.405 298.52"/>
<path class="l1" d="M379.997 772.847L409.186 772.847"/>
<path class="l1" d="M452.97 772.847L482.16 772.847"/>
<path class="l1" d="M817.837 772.847L847.026 772.847"/>
<path class="l1" d="M744.864 772.847L774.053 772.847"/>
<path class="l1" d="M577.025 721.765L1211.89 721.765"/>
<path class="l1" d="M577.025 721.765L577.025 750.955"/>
<path class="l1" d="M649.998 721.765L649.998 750.955"/>
<path class="l1" d="M598.917 772.847L628.106 772.847"/>
<path class="l1" d="M613.512 721.765L613.512 772.847"/>
<path class="l1" d="M868.918 685.279L868.918 750.955"/>
<path class="l1" d="M795.945 685.279L795.945 750.955"/>
<path class="l1" d="M722.972 685.279L722.972 750.955"/>
<path class="l1" d="M504.052 685.279L504.052 750.955"/>
<path class="l1" d="M431.078 685.279L431.078 750.955"/>
<path class="l1" d="M358.105 685.279L358.105 750.955"/>
<path class="l1" d="M525.944 685.279L525.944 772.847"/>
<path class="l1" d="M701.08 685.279L701.08 772.847"/>
<path class="l1" d="M467.565 685.279L467.565 772.847"/>
<path class="l1" d="M759.458 685.279L759.458 772.847"/>
<path class="l1" d="M394.592 772.847L394.592 831.225"/>
<path class="l1" d="M394.592 831.225L832.432 831.225"/>
<path class="l1" d="M832.432 772.847L832.432 831.225"/>
<path class="l1" d="M555.133 772.847L555.133 831.225"/>
<path class="l1" d="M671.89 772.847L671.89 831.225"/>
<path class="l1" d="M379.997 203.655L847.026 203.655"/>
<path class="l1" d="M409.186 181.763L817.837 181.763"/>
<path class="l1" d="M613.512 94.1948L613.512 159.871"/>
<path class="l1" d="M847.026 94.1948L847.026 203.655"/>
<path class="l1" d="M817.837 94.1948L817.837 181.763"/>
<path class="l1" d="M409.186 94.1948L409.186 181.763"/>
<path class="l1" d="M379.997 94.1948L379.997 203.655"/>
<path class="l1" d="M66.2117 21.2215L1014.87 21.2215"/>
<path class="l1" d="M66.2117 130.681L1197.3 130.681"/>
<path class="l1" d="M88.1037 247.439L1036.76 247.439"/>
<path class="l1" d="M88.1037 21.2215L88.1037 247.439"/>
<path class="l1" d="M102.698 685.279L868.918 685.279"/>
<path class="l1" d="M66.2117 860.415L1036.76 860.415"/>
<path class="l1" d="M817.837 181.763L1182.7 181.763"/>
<path class="l1" d="M1182.7 181.763L1182.7 721.765"/>
<path class="l1" d="M168.374 203.655L168.374 459.061"/>
<path class="l1" d="M168.374 203.655L379.997 203.655"/>
<path class="l1" d="M102.698 159.871L102.698 685.279"/>
<path class="l1" d="M102.698 159.871L613.512 159.871"/>
<path class="l1" d="M978.378 94.1948L978.378 130.681"/>
<circle class="l1" cx="88.1037" cy="21.2215" r="2.91893"/>
<circle class="l1" cx="379.997" cy="203.655" r="2.91893"/>
<circle class="l1" cx="379.997" cy="203.655" r="2.91893"/>
<circle class="l1" cx="817.837" cy="181.763" r="2.91893"/>
<circle class="l1" cx="379.997" cy="203.655" r="2.91893"/>
<circle class="l1" cx="321.618" cy="247.439" r="2.91893"/>
<circle class="l1" cx="321.618" cy="298.52" r="2.91893"/>
<circle class="l1" cx="394.592" cy="298.52" r="2.91893"/>
<circle class="l1" cx="190.266" cy="247.439" r="2.91893"/>
<circle class="l1" cx="248.645" cy="298.52" r="2.91893"/>
<circle class="l1" cx="248.645" cy="320.412" r="2.91893"/>
<circle class="l1" cx="321.618" cy="21.2215" r="2.91893"/>
<circle class="l1" cx="321.618" cy="94.1948" r="2.91893"/>
<circle class="l1" cx="248.645" cy="94.1948" r="2.91893"/>
<circle class="l1" cx="248.645" cy="130.681" r="2.91893"/>
<circle class="l1" cx="212.158" cy="21.2215" r="2.91893"/>
<circle class="l1" cx="358.105" cy="130.681" r="2.91893"/>
<circle class="l1" cx="285.132" cy="130.681" r="2.91893"/>
<circle class="l1" cx="190.266" cy="583.116" r="2.91893"/>
<circle class="l1" cx="1036.76" cy="583.116" r="2.91893"/>
<circle class="l1" cx="190.266" cy="750.955" r="2.91893"/>
<circle class="l1" cx="358.105" cy="459.061" r="2.91893"/>
<circle class="l1" cx="358.105" cy="378.791" r="2.91893"/>
<circle class="l1" cx="321.618" cy="517.44" r="2.91893"/>
<circle class="l1" cx="248.645" cy="495.548" r="2.91893"/>
<circle class="l1" cx="248.645" cy="517.44" r="2.91893"/>
<circle class="l1" cx="358.105" cy="378.791" r="2.91893"/>
<circle class="l1" cx="358.105" cy="378.791" r="2.91893"/>
<circle class="l1" cx="868.918" cy="378.791" r="2.91893"/>
<circle class="l1" cx="394.592" cy="772.847" r="2.91893"/>
<circle class="l1" cx="358.105" cy="685.279" r="2.91893"/>
<circle class="l1" cx="321.618" cy="772.847" r="2.91893"/>
<circle class="l1" cx="321.618" cy="860.415" r="2.91893"/>
<circle class="l1" cx="190.266" cy="860.415" r="2.91893"/>
<circle class="l1" cx="190.266" cy="750.955" r="2.91893"/>
<circle class="l1" cx="190.266" cy="750.955" r="2.91893"/>
<circle class="l1" cx="248.645" cy="750.955" r="2.91893"/>
<circle class="l1" cx="248.645" cy="772.847" r="2.91893"/>
<circle class="l1" cx="613.512" cy="94.1948" r="2.91893"/>
<circle class="l1" cx="467.565" cy="298.52" r="2.91893"/>
<circle class="l1" cx="467.565" cy="320.412" r="2.91893"/>
<circle class="l1" cx="671.89" cy="232.844" r="2.91893"/>
<circle class="l1" cx="555.133" cy="232.844" r="2.91893"/>
<circle class="l1" cx="613.512" cy="298.52" r="2.91893"/>
<circle class="l1" cx="613.512" cy="349.601" r="2.91893"/>
<circle class="l1" cx="467.565" cy="21.2215" r="2.91893"/>
<circle class="l1" cx="467.565" cy="94.1948" r="2.91893"/>
<circle class="l1" cx="649.998" cy="130.681" r="2.91893"/>
<circle class="l1" cx="577.025" cy="130.681" r="2.91893"/>
<circle class="l1" cx="504.052" cy="130.681" r="2.91893"/>
<circle class="l1" cx="431.078" cy="130.681" r="2.91893"/>
<circle class="l1" cx="671.89" cy="583.116" r="2.91893"/>
<circle class="l1" cx="555.133" cy="583.116" r="2.91893"/>
<circle class="l1" cx="467.565" cy="517.44" r="2.91893"/>
<circle class="l1" cx="467.565" cy="583.116" r="2.91893"/>
<circle class="l1" cx="431.078" cy="459.061" r="2.91893"/>
<circle class="l1" cx="701.08" cy="459.061" r="2.91893"/>
<circle class="l1" cx="525.944" cy="459.061" r="2.91893"/>
<circle class="l1" cx="504.052" cy="459.061" r="2.91893"/>
<circle class="l1" cx="649.998" cy="459.061" r="2.91893"/>
<circle class="l1" cx="577.025" cy="459.061" r="2.91893"/>
<circle class="l1" cx="613.512" cy="349.601" r="2.91893"/>
<circle class="l1" cx="613.512" cy="517.44" r="2.91893"/>
<circle class="l1" cx="467.565" cy="320.412" r="2.91893"/>
<circle class="l1" cx="467.565" cy="378.791" r="2.91893"/>
<circle class="l1" cx="649.998" cy="349.601" r="2.91893"/>
<circle class="l1" cx="671.89" cy="831.225" r="2.91893"/>
<circle class="l1" cx="555.133" cy="831.225" r="2.91893"/>
<circle class="l1" cx="467.565" cy="685.279" r="2.91893"/>
<circle class="l1" cx="467.565" cy="772.847" r="2.91893"/>
<circle class="l1" cx="701.08" cy="685.279" r="2.91893"/>
<circle class="l1" cx="525.944" cy="685.279" r="2.91893"/>
<circle class="l1" cx="431.078" cy="685.279" r="2.91893"/>
<circle class="l1" cx="504.052" cy="685.279" r="2.91893"/>
<circle class="l1" cx="613.512" cy="721.765" r="2.91893"/>
<circle class="l1" cx="613.512" cy="772.847" r="2.91893"/>
<circle class="l1" cx="649.998" cy="721.765" r="2.91893"/>
<circle class="l1" cx="978.378" cy="94.1948" r="2.91893"/>
<circle class="l1" cx="978.378" cy="130.681" r="2.91893"/>
<circle class="l1" cx="817.837" cy="181.763" r="2.91893"/>
<circle class="l1" cx="817.837" cy="181.763" r="2.91893"/>
<circle class="l1" cx="905.405" cy="247.439" r="2.91893"/>
<circle class="l1" cx="905.405" cy="298.52" r="2.91893"/>
<circle class="l1" cx="759.458" cy="298.52" r="2.91893"/>
<circle class="l1" cx="759.458" cy="320.412" r="2.91893"/>
<circle class="l1" cx="832.432" cy="298.52" r="2.91893"/>
<circle class="l1" cx="978.378" cy="298.52" r="2.91893"/>
<circle class="l1" cx="978.378" cy="320.412" r="2.91893"/>
<circle class="l1" cx="759.458" cy="21.2215" r="2.91893"/>
<circle class="l1" cx="759.458" cy="94.1948" r="2.91893"/>
<circle class="l1" cx="905.405" cy="21.2215" r="2.91893"/>
<circle class="l1" cx="905.405" cy="94.1948" r="2.91893"/>
<circle class="l1" cx="941.892" cy="130.681" r="2.91893"/>
<circle class="l1" cx="868.918" cy="130.681" r="2.91893"/>
<circle class="l1" cx="795.945" cy="130.681" r="2.91893"/>
<circle class="l1" cx="722.972" cy="130.681" r="2.91893"/>
<circle class="l1" cx="759.458" cy="517.44" r="2.91893"/>
<circle class="l1" cx="759.458" cy="583.116" r="2.91893"/>
<circle class="l1" cx="868.918" cy="459.061" r="2.91893"/>
<circle class="l1" cx="795.945" cy="459.061" r="2.91893"/>
<circle class="l1" cx="722.972" cy="459.061" r="2.91893"/>
<circle class="l1" cx="868.918" cy="378.791" r="2.91893"/>
<circle class="l1" cx="905.405" cy="517.44" r="2.91893"/>
<circle class="l1" cx="978.378" cy="495.548" r="2.91893"/>
<circle class="l1" cx="978.378" cy="517.44" r="2.91893"/>
<circle class="l1" cx="759.458" cy="320.412" r="2.91893"/>
<circle class="l1" cx="759.458" cy="378.791" r="2.91893"/>
<circle class="l1" cx="868.918" cy="378.791" r="2.91893"/>
<circle class="l1" cx="832.432" cy="772.847" r="2.91893"/>
<circle class="l1" cx="759.458" cy="685.279" r="2.91893"/>
<circle class="l1" cx="759.458" cy="772.847" r="2.91893"/>
<circle class="l1" cx="722.972" cy="685.279" r="2.91893"/>
<circle class="l1" cx="795.945" cy="685.279" r="2.91893"/>
<circle class="l1" cx="905.405" cy="772.847" r="2.91893"/>
<circle class="l1" cx="905.405" cy="860.415" r="2.91893"/>
<circle class="l1" cx="978.378" cy="750.955" r="2.91893"/>
<circle class="l1" cx="978.378" cy="772.847" r="2.91893"/>
<circle class="l1" cx="1036.76" cy="750.955" r="2.91893"/>
<circle class="l1" cx="1182.7" cy="721.765" r="2.91893"/>
<circle class="l1" cx="1036.76" cy="750.955" r="2.91893"/>
<circle class="l1" cx="1036.76" cy="750.955" r="2.91893"/>
</svg>
