<svg xmlns="http://www.w3.org/2000/svg" width="1848" height="880" version="1.1">
<style type="text/css">
.l0{
 fill: #000000;
  stroke: #000000;
  stroke-linecap:round;
  stroke-linejoin:round;
  stroke-width: 0.653563;
}
.l1{
 fill: #00ccee;
  stroke: #00ccee;
  stroke-linecap:round;
  stroke-linejoin:round;
  stroke-width: 0.653563;
}
.l2{
  fill: none;
  stroke: #3f3f3f;
  stroke-linecap:round;
  stroke-linejoin:round;
  stroke-width: 0.653563;
}
.l3{
 fill: #cccccc; fill-opacity: 0.5;
  stroke: #cccccc;
  stroke-linecap:round;
  stroke-linejoin:round;
  stroke-width: 0.653563;
}
.l4{
 fill: #88dd00;
  stroke: #88dd00;
  stroke-linecap:round;
  stroke-linejoin:round;
  stroke-width: 0.653563;
}
.l5{
 fill: #bb2200;
  stroke: #bb2200;
  stroke-linecap:round;
  stroke-linejoin:round;
  stroke-width: 0.653563;
}
.l6{
 fill: #00ccee; fill-opacity: 0.5;
  stroke: #00ccee;
  stroke-linecap:round;
  stroke-linejoin:round;
  stroke-width: 0.653563;
}
.l7{
 fill: #ff0000; fill-opacity: 0.5;
  stroke: #ff0000;
  stroke-linecap:round;
  stroke-linejoin:round;
  stroke-width: 0.653563;
}
.l8{
 fill: #ffff00; fill-opacity: 0.5;
  stroke: #ffff00;
  stroke-linecap:round;
  stroke-linejoin:round;
  stroke-width: 0.653563;
}
.l9{
 fill: #ffffff; fill-opacity: 0.5;
  stroke: #ffffff;
  stroke-linecap:round;
  stroke-linejoin:round;
  stroke-width: 0.653563;
}
.l10{
 fill: #ff00ff;
  stroke: #ff00ff;
  stroke-linecap:round;
  stroke-linejoin:round;
  stroke-width: 0.653563;
}
.l11{
 fill: #00ff00; fill-opacity: 0.5;
  stroke: #00ff00;
  stroke-linecap:round;
  stroke-linejoin:round;
  stroke-width: 0.653563;
}
.l12{
 fill: #0044dd; fill-opacity: 0.5;
  stroke: #0044dd;
  stroke-linecap:round;
  stroke-linejoin:round;
  stroke-width: 0.653563;
}
.l13{
 fill: #aaaa00; fill-opacity: 0.5;
  stroke: #aaaa00;
  stroke-linecap:round;
  stroke-linejoin:round;
  stroke-width: 0.653563;
}
.l14{
  fill: none;
  stroke: #aaccaa;
  stroke-linecap:round;
  stroke-linejoin:round;
  stroke-width: 0.653563;
}
.l15{
 fill: #ff7777; fill-opacity: 0.5;
  stroke: #ff7777;
  stroke-linecap:round;
  stroke-linejoin:round;
  stroke-width: 0.653563;
}
.l16{
 fill: #bfff81; fill-opacity: 0.5;
  stroke: #bfff81;
  stroke-linecap:round;
  stroke-linejoin:round;
  stroke-width: 0.653563;
}
.l17{
  fill: none;
  stroke: #00ffcc;
  stroke-linecap:round;
  stroke-linejoin:round;
  stroke-width: 0.653563;
}
.l18{
 fill: #ce0097; fill-opacity: 0.5;
  stroke: #ce0097;
  stroke-linecap:round;
  stroke-linejoin:round;
  stroke-width: 0.653563;
}
.l19{
  fill: none;
  stroke: #d2d46b;
  stroke-linecap:round;
  stroke-linejoin:round;
  stroke-width: 0.653563;
}
.l20{
  fill: none;
  stroke: #ef6158;
  stroke-linecap:round;
  stroke-linejoin:round;
  stroke-width: 0.653563;
}
.l21{
  fill: none;
  stroke: #fdb200;
  stroke-linecap:round;
  stroke-linejoin:round;
  stroke-width: 0.653563;
}
text {font-family: Sans-Serif;}
</style>
<rect class="l0" x="0" y="0" width="1848" height="880"/>
<text fill="#00ccee"  xml:space="preserve" font-size="10.3844" transform="translate(27.4542, 708.3)" >Vbn</text>
<text fill="#00ccee"  xml:space="preserve" font-size="10.3844" transform="translate(28.4542, 671.991)" >Vcn</text>
<text fill="#00ccee"  xml:space="preserve" font-size="10.3844" transform="translate(28.4542, 484.394)" >Vcp</text>
<text fill="#00ccee"  xml:space="preserve" font-size="10.3844" transform="translate(34.4542, 333.106)" >V2</text>
<text fill="#00ccee"  xml:space="preserve" font-size="10.3844" transform="translate(34.4542, 224.179)" >V1</text>
<text fill="#00ccee"  xml:space="preserve" font-size="10.3844" transform="translate(27.4542, 54.7369)" >Vbp</text>
<text fill="#00ccee"  xml:space="preserve" font-size="10.3844" transform="translate(34.7922, 23.1586)" >VP</text>
<text fill="#00ccee"  xml:space="preserve" font-size="10.3844" transform="translate(32.7922, 864.318)" >VN</text>
<text fill="#00ccee"  xml:space="preserve" font-size="10.3844" transform="translate(852.548, 623.579)" >Vout</text>
<text fill="#cccccc"  xml:space="preserve" font-size="6.29357" transform="translate(259.983, 756.501) rotate(270)" >M5a</text>
<text fill="#cccccc"  xml:space="preserve" font-size="6.29357" transform="translate(250.906, 774.501) rotate(270)" >nfet_01v8</text>
<text fill="#aaaa00"  xml:space="preserve" font-size="6.29357" transform="translate(241.829, 775.501) rotate(270)" >1 x 6 / 0.5</text>
<text fill="#cccccc"  xml:space="preserve" font-size="6.29357" transform="translate(269.061, 296.586) rotate(270)" >M1a</text>
<text fill="#cccccc"  xml:space="preserve" font-size="6.29357" transform="translate(259.983, 314.586) rotate(270)" >pfet_01v8</text>
<text fill="#aaaa00"  xml:space="preserve" font-size="6.29357" transform="translate(250.906, 315.586) rotate(270)" >1 x 3 / 0.5</text>
<text fill="#cccccc"  xml:space="preserve" font-size="6.29357" transform="translate(302.563, 277.534) rotate(270)" >M2a</text>
<text fill="#cccccc"  xml:space="preserve" font-size="6.29357" transform="translate(311.64, 277.534) rotate(270)" >pfet_01v8</text>
<text fill="#aaaa00"  xml:space="preserve" font-size="6.29357" transform="translate(320.717, 277.534) rotate(270)" >1 x 3 / 0.5</text>
<text fill="#cccccc"  xml:space="preserve" font-size="6.29357" transform="translate(363.078, 277.534) rotate(270)" >M2b</text>
<text fill="#cccccc"  xml:space="preserve" font-size="6.29357" transform="translate(372.155, 277.534) rotate(270)" >pfet_01v8</text>
<text fill="#aaaa00"  xml:space="preserve" font-size="6.29357" transform="translate(381.232, 277.534) rotate(270)" >1 x 3 / 0.5</text>
<text fill="#cccccc"  xml:space="preserve" font-size="6.29357" transform="translate(450.606, 296.586) rotate(270)" >M1b</text>
<text fill="#cccccc"  xml:space="preserve" font-size="6.29357" transform="translate(441.529, 314.586) rotate(270)" >pfet_01v8</text>
<text fill="#aaaa00"  xml:space="preserve" font-size="6.29357" transform="translate(432.451, 315.586) rotate(270)" >1 x 3 / 0.5</text>
<text fill="#cccccc"  xml:space="preserve" font-size="6.29357" transform="translate(511.121, 296.586) rotate(270)" >M1c</text>
<text fill="#cccccc"  xml:space="preserve" font-size="6.29357" transform="translate(502.044, 314.586) rotate(270)" >pfet_01v8</text>
<text fill="#aaaa00"  xml:space="preserve" font-size="6.29357" transform="translate(492.966, 315.586) rotate(270)" >1 x 3 / 0.5</text>
<text fill="#cccccc"  xml:space="preserve" font-size="6.29357" transform="translate(544.623, 277.534) rotate(270)" >M2c</text>
<text fill="#cccccc"  xml:space="preserve" font-size="6.29357" transform="translate(553.7, 277.534) rotate(270)" >pfet_01v8</text>
<text fill="#aaaa00"  xml:space="preserve" font-size="6.29357" transform="translate(562.778, 277.534) rotate(270)" >1 x 3 / 0.5</text>
<text fill="#cccccc"  xml:space="preserve" font-size="6.29357" transform="translate(605.138, 277.534) rotate(270)" >M2d</text>
<text fill="#cccccc"  xml:space="preserve" font-size="6.29357" transform="translate(614.215, 277.534) rotate(270)" >pfet_01v8</text>
<text fill="#aaaa00"  xml:space="preserve" font-size="6.29357" transform="translate(623.293, 277.534) rotate(270)" >1 x 3 / 0.5</text>
<text fill="#cccccc"  xml:space="preserve" font-size="6.29357" transform="translate(692.666, 296.586) rotate(270)" >M1d</text>
<text fill="#cccccc"  xml:space="preserve" font-size="6.29357" transform="translate(683.589, 314.586) rotate(270)" >pfet_01v8</text>
<text fill="#aaaa00"  xml:space="preserve" font-size="6.29357" transform="translate(674.512, 315.586) rotate(270)" >1 x 3 / 0.5</text>
<text fill="#cccccc"  xml:space="preserve" font-size="6.29357" transform="translate(269.061, 106.938) rotate(270)" >M11a</text>
<text fill="#cccccc"  xml:space="preserve" font-size="6.29357" transform="translate(259.983, 120.938) rotate(270)" >pfet_01v8</text>
<text fill="#aaaa00"  xml:space="preserve" font-size="6.29357" transform="translate(250.906, 127.938) rotate(270)" >1 x 1.5 / 0.5</text>
<text fill="#cccccc"  xml:space="preserve" font-size="6.29357" transform="translate(329.576, 106.938) rotate(270)" >M11b</text>
<text fill="#cccccc"  xml:space="preserve" font-size="6.29357" transform="translate(320.499, 120.938) rotate(270)" >pfet_01v8</text>
<text fill="#aaaa00"  xml:space="preserve" font-size="6.29357" transform="translate(311.421, 127.938) rotate(270)" >1 x 1.5 / 0.5</text>
<text fill="#cccccc"  xml:space="preserve" font-size="6.29357" transform="translate(390.091, 106.938) rotate(270)" >M11c</text>
<text fill="#cccccc"  xml:space="preserve" font-size="6.29357" transform="translate(381.014, 120.938) rotate(270)" >pfet_01v8</text>
<text fill="#aaaa00"  xml:space="preserve" font-size="6.29357" transform="translate(371.936, 127.938) rotate(270)" >1 x 1.5 / 0.5</text>
<text fill="#cccccc"  xml:space="preserve" font-size="6.29357" transform="translate(450.606, 106.938) rotate(270)" >M11d</text>
<text fill="#cccccc"  xml:space="preserve" font-size="6.29357" transform="translate(441.529, 120.938) rotate(270)" >pfet_01v8</text>
<text fill="#aaaa00"  xml:space="preserve" font-size="6.29357" transform="translate(432.451, 127.938) rotate(270)" >1 x 1.5 / 0.5</text>
<text fill="#cccccc"  xml:space="preserve" font-size="6.29357" transform="translate(511.121, 106.938) rotate(270)" >M11e</text>
<text fill="#cccccc"  xml:space="preserve" font-size="6.29357" transform="translate(502.044, 120.938) rotate(270)" >pfet_01v8</text>
<text fill="#aaaa00"  xml:space="preserve" font-size="6.29357" transform="translate(492.966, 127.938) rotate(270)" >1 x 1.5 / 0.5</text>
<text fill="#cccccc"  xml:space="preserve" font-size="6.29357" transform="translate(571.636, 105.938) rotate(270)" >M11f</text>
<text fill="#cccccc"  xml:space="preserve" font-size="6.29357" transform="translate(562.559, 120.938) rotate(270)" >pfet_01v8</text>
<text fill="#aaaa00"  xml:space="preserve" font-size="6.29357" transform="translate(553.482, 127.938) rotate(270)" >1 x 1.5 / 0.5</text>
<text fill="#cccccc"  xml:space="preserve" font-size="6.29357" transform="translate(632.151, 106.938) rotate(270)" >M11g</text>
<text fill="#cccccc"  xml:space="preserve" font-size="6.29357" transform="translate(623.074, 120.938) rotate(270)" >pfet_01v8</text>
<text fill="#aaaa00"  xml:space="preserve" font-size="6.29357" transform="translate(613.997, 127.938) rotate(270)" >1 x 1.5 / 0.5</text>
<text fill="#cccccc"  xml:space="preserve" font-size="6.29357" transform="translate(692.666, 106.938) rotate(270)" >M11h</text>
<text fill="#cccccc"  xml:space="preserve" font-size="6.29357" transform="translate(683.589, 120.938) rotate(270)" >pfet_01v8</text>
<text fill="#aaaa00"  xml:space="preserve" font-size="6.29357" transform="translate(674.512, 127.938) rotate(270)" >1 x 1.5 / 0.5</text>
<text fill="#cccccc"  xml:space="preserve" font-size="6.29357" transform="translate(320.499, 756.501) rotate(270)" >M3a</text>
<text fill="#cccccc"  xml:space="preserve" font-size="6.29357" transform="translate(311.421, 774.501) rotate(270)" >nfet_01v8</text>
<text fill="#aaaa00"  xml:space="preserve" font-size="6.29357" transform="translate(302.344, 775.501) rotate(270)" >1 x 6 / 0.5</text>
<text fill="#cccccc"  xml:space="preserve" font-size="6.29357" transform="translate(381.014, 756.501) rotate(270)" >M4a</text>
<text fill="#cccccc"  xml:space="preserve" font-size="6.29357" transform="translate(371.936, 774.501) rotate(270)" >nfet_01v8</text>
<text fill="#aaaa00"  xml:space="preserve" font-size="6.29357" transform="translate(362.859, 775.501) rotate(270)" >1 x 6 / 0.5</text>
<text fill="#cccccc"  xml:space="preserve" font-size="6.29357" transform="translate(441.529, 756.501) rotate(270)" >M6a</text>
<text fill="#cccccc"  xml:space="preserve" font-size="6.29357" transform="translate(432.451, 774.501) rotate(270)" >nfet_01v8</text>
<text fill="#aaaa00"  xml:space="preserve" font-size="6.29357" transform="translate(423.374, 775.501) rotate(270)" >1 x 6 / 0.5</text>
<text fill="#cccccc"  xml:space="preserve" font-size="6.29357" transform="translate(502.044, 756.501) rotate(270)" >M6b</text>
<text fill="#cccccc"  xml:space="preserve" font-size="6.29357" transform="translate(492.966, 774.501) rotate(270)" >nfet_01v8</text>
<text fill="#aaaa00"  xml:space="preserve" font-size="6.29357" transform="translate(483.889, 775.501) rotate(270)" >1 x 6 / 0.5</text>
<text fill="#cccccc"  xml:space="preserve" font-size="6.29357" transform="translate(562.559, 756.501) rotate(270)" >M4b</text>
<text fill="#cccccc"  xml:space="preserve" font-size="6.29357" transform="translate(553.482, 774.501) rotate(270)" >nfet_01v8</text>
<text fill="#aaaa00"  xml:space="preserve" font-size="6.29357" transform="translate(544.404, 775.501) rotate(270)" >1 x 6 / 0.5</text>
<text fill="#cccccc"  xml:space="preserve" font-size="6.29357" transform="translate(623.074, 756.501) rotate(270)" >M3b</text>
<text fill="#cccccc"  xml:space="preserve" font-size="6.29357" transform="translate(613.997, 774.501) rotate(270)" >nfet_01v8</text>
<text fill="#aaaa00"  xml:space="preserve" font-size="6.29357" transform="translate(604.919, 775.501) rotate(270)" >1 x 6 / 0.5</text>
<text fill="#cccccc"  xml:space="preserve" font-size="6.29357" transform="translate(683.589, 756.501) rotate(270)" >M5b</text>
<text fill="#cccccc"  xml:space="preserve" font-size="6.29357" transform="translate(674.512, 774.501) rotate(270)" >nfet_01v8</text>
<text fill="#aaaa00"  xml:space="preserve" font-size="6.29357" transform="translate(665.434, 775.501) rotate(270)" >1 x 6 / 0.5</text>
<text fill="#cccccc"  xml:space="preserve" font-size="6.29357" transform="translate(269.061, 554.749) rotate(270)" >M10a</text>
<text fill="#cccccc"  xml:space="preserve" font-size="6.29357" transform="translate(259.983, 568.749) rotate(270)" >pfet_01v8</text>
<text fill="#aaaa00"  xml:space="preserve" font-size="6.29357" transform="translate(250.906, 569.749) rotate(270)" >1 x 6 / 0.5</text>
<text fill="#cccccc"  xml:space="preserve" font-size="6.29357" transform="translate(329.576, 550.749) rotate(270)" >M8a</text>
<text fill="#cccccc"  xml:space="preserve" font-size="6.29357" transform="translate(320.499, 568.749) rotate(270)" >pfet_01v8</text>
<text fill="#aaaa00"  xml:space="preserve" font-size="6.29357" transform="translate(311.421, 569.749) rotate(270)" >1 x 6 / 0.5</text>
<text fill="#cccccc"  xml:space="preserve" font-size="6.29357" transform="translate(390.091, 550.749) rotate(270)" >M7a</text>
<text fill="#cccccc"  xml:space="preserve" font-size="6.29357" transform="translate(381.014, 568.749) rotate(270)" >pfet_01v8</text>
<text fill="#aaaa00"  xml:space="preserve" font-size="6.29357" transform="translate(371.936, 569.749) rotate(270)" >1 x 6 / 0.5</text>
<text fill="#cccccc"  xml:space="preserve" font-size="6.29357" transform="translate(450.606, 550.749) rotate(270)" >M9a</text>
<text fill="#cccccc"  xml:space="preserve" font-size="6.29357" transform="translate(441.529, 568.749) rotate(270)" >pfet_01v8</text>
<text fill="#aaaa00"  xml:space="preserve" font-size="6.29357" transform="translate(432.451, 569.749) rotate(270)" >1 x 6 / 0.5</text>
<text fill="#cccccc"  xml:space="preserve" font-size="6.29357" transform="translate(511.121, 550.749) rotate(270)" >M9b</text>
<text fill="#cccccc"  xml:space="preserve" font-size="6.29357" transform="translate(502.044, 568.749) rotate(270)" >pfet_01v8</text>
<text fill="#aaaa00"  xml:space="preserve" font-size="6.29357" transform="translate(492.966, 569.749) rotate(270)" >1 x 6 / 0.5</text>
<text fill="#cccccc"  xml:space="preserve" font-size="6.29357" transform="translate(571.636, 550.749) rotate(270)" >M7b</text>
<text fill="#cccccc"  xml:space="preserve" font-size="6.29357" transform="translate(562.559, 568.749) rotate(270)" >pfet_01v8</text>
<text fill="#aaaa00"  xml:space="preserve" font-size="6.29357" transform="translate(553.482, 569.749) rotate(270)" >1 x 6 / 0.5</text>
<text fill="#cccccc"  xml:space="preserve" font-size="6.29357" transform="translate(632.151, 550.749) rotate(270)" >M8b</text>
<text fill="#cccccc"  xml:space="preserve" font-size="6.29357" transform="translate(623.074, 568.749) rotate(270)" >pfet_01v8</text>
<text fill="#aaaa00"  xml:space="preserve" font-size="6.29357" transform="translate(613.997, 569.749) rotate(270)" >1 x 6 / 0.5</text>
<text fill="#cccccc"  xml:space="preserve" font-size="6.29357" transform="translate(692.666, 554.749) rotate(270)" >M10b</text>
<text fill="#cccccc"  xml:space="preserve" font-size="6.29357" transform="translate(683.589, 568.749) rotate(270)" >pfet_01v8</text>
<text fill="#aaaa00"  xml:space="preserve" font-size="6.29357" transform="translate(674.512, 569.749) rotate(270)" >1 x 6 / 0.5</text>
<text fill="#cccccc"  xml:space="preserve" font-size="6.29357" transform="translate(753.181, 296.586) rotate(270)" >M15</text>
<text fill="#cccccc"  xml:space="preserve" font-size="6.29357" transform="translate(744.104, 314.586) rotate(270)" >pfet_01v8</text>
<text fill="#aaaa00"  xml:space="preserve" font-size="6.29357" transform="translate(735.027, 315.586) rotate(270)" >1 x 3 / 0.5</text>
<text fill="#cccccc"  xml:space="preserve" font-size="6.29357" transform="translate(208.546, 296.586) rotate(270)" >M14</text>
<text fill="#cccccc"  xml:space="preserve" font-size="6.29357" transform="translate(199.468, 314.586) rotate(270)" >pfet_01v8</text>
<text fill="#aaaa00"  xml:space="preserve" font-size="6.29357" transform="translate(190.391, 315.586) rotate(270)" >1 x 3 / 0.5</text>
<text fill="#cccccc"  xml:space="preserve" font-size="6.29357" transform="translate(753.181, 102.938) rotate(270)" >M13</text>
<text fill="#cccccc"  xml:space="preserve" font-size="6.29357" transform="translate(744.104, 120.938) rotate(270)" >pfet_01v8</text>
<text fill="#aaaa00"  xml:space="preserve" font-size="6.29357" transform="translate(735.027, 127.938) rotate(270)" >1 x 1.5 / 0.5</text>
<text fill="#cccccc"  xml:space="preserve" font-size="6.29357" transform="translate(208.546, 102.938) rotate(270)" >M12</text>
<text fill="#cccccc"  xml:space="preserve" font-size="6.29357" transform="translate(199.468, 120.938) rotate(270)" >pfet_01v8</text>
<text fill="#aaaa00"  xml:space="preserve" font-size="6.29357" transform="translate(190.391, 127.938) rotate(270)" >1 x 1.5 / 0.5</text>
<text fill="#cccccc"  xml:space="preserve" font-size="6.29357" transform="translate(208.546, 550.749) rotate(270)" >M16</text>
<text fill="#cccccc"  xml:space="preserve" font-size="6.29357" transform="translate(199.468, 568.749) rotate(270)" >pfet_01v8</text>
<text fill="#aaaa00"  xml:space="preserve" font-size="6.29357" transform="translate(190.391, 569.749) rotate(270)" >1 x 6 / 0.5</text>
<text fill="#cccccc"  xml:space="preserve" font-size="6.29357" transform="translate(753.181, 550.749) rotate(270)" >M17</text>
<text fill="#cccccc"  xml:space="preserve" font-size="6.29357" transform="translate(744.104, 568.749) rotate(270)" >pfet_01v8</text>
<text fill="#aaaa00"  xml:space="preserve" font-size="6.29357" transform="translate(735.027, 569.749) rotate(270)" >1 x 6 / 0.5</text>
<text fill="#cccccc"  xml:space="preserve" font-size="6.29357" transform="translate(744.104, 756.501) rotate(270)" >M19</text>
<text fill="#cccccc"  xml:space="preserve" font-size="6.29357" transform="translate(735.027, 774.501) rotate(270)" >nfet_01v8</text>
<text fill="#aaaa00"  xml:space="preserve" font-size="6.29357" transform="translate(725.949, 775.501) rotate(270)" >1 x 6 / 0.5</text>
<text fill="#cccccc"  xml:space="preserve" font-size="6.29357" transform="translate(199.468, 756.501) rotate(270)" >M18</text>
<text fill="#cccccc"  xml:space="preserve" font-size="6.29357" transform="translate(190.391, 774.501) rotate(270)" >nfet_01v8</text>
<text fill="#aaaa00"  xml:space="preserve" font-size="6.29357" transform="translate(181.314, 775.501) rotate(270)" >1 x 6 / 0.5</text>
<path class="l4" d="M262.526 740.475L271.603 740.475"/>
<path class="l4" d="M262.526 731.398L262.526 740.475"/>
<path class="l4" d="M240.968 731.398L265.93 731.398"/>
<path class="l4" d="M244.372 731.398L244.372 740.475"/>
<path class="l4" d="M235.294 740.475L244.372 740.475"/>
<path class="l4" d="M244.372 729.128L262.526 729.128"/>
<path class="l4" d="M253.449 722.32L253.449 729.128"/>
<path class="l4" d="M262.526 280.56L271.603 280.56"/>
<path class="l4" d="M262.526 271.483L262.526 280.56"/>
<path class="l4" d="M240.968 271.483L265.93 271.483"/>
<path class="l4" d="M244.372 271.483L244.372 280.56"/>
<path class="l4" d="M235.294 280.56L244.372 280.56"/>
<path class="l4" d="M244.372 269.214L262.526 269.214"/>
<path class="l4" d="M253.449 262.406L253.449 265.81"/>
<circle class="l4" cx="253.449" cy="267.512" r="1.70199" style="fill:none;"/>
<path class="l4" d="M295.81 280.56L304.887 280.56"/>
<path class="l4" d="M304.887 280.56L304.887 289.637"/>
<path class="l4" d="M301.483 289.637L326.445 289.637"/>
<path class="l4" d="M323.041 280.56L323.041 289.637"/>
<path class="l4" d="M323.041 280.56L332.119 280.56"/>
<path class="l4" d="M304.887 291.907L323.041 291.907"/>
<path class="l4" d="M313.964 295.311L313.964 298.715"/>
<circle class="l4" cx="313.964" cy="293.609" r="1.70199" style="fill:none;"/>
<path class="l4" d="M356.325 280.56L365.402 280.56"/>
<path class="l4" d="M365.402 280.56L365.402 289.637"/>
<path class="l4" d="M361.998 289.637L386.96 289.637"/>
<path class="l4" d="M383.556 280.56L383.556 289.637"/>
<path class="l4" d="M383.556 280.56L392.634 280.56"/>
<path class="l4" d="M365.402 291.907L383.556 291.907"/>
<path class="l4" d="M374.479 295.311L374.479 298.715"/>
<circle class="l4" cx="374.479" cy="293.609" r="1.70199" style="fill:none;"/>
<path class="l4" d="M444.071 280.56L453.149 280.56"/>
<path class="l4" d="M444.071 271.483L444.071 280.56"/>
<path class="l4" d="M422.513 271.483L447.475 271.483"/>
<path class="l4" d="M425.917 271.483L425.917 280.56"/>
<path class="l4" d="M416.84 280.56L425.917 280.56"/>
<path class="l4" d="M425.917 269.214L444.071 269.214"/>
<path class="l4" d="M434.994 262.406L434.994 265.81"/>
<circle class="l4" cx="434.994" cy="267.512" r="1.70199" style="fill:none;"/>
<path class="l4" d="M504.587 280.56L513.664 280.56"/>
<path class="l4" d="M504.587 271.483L504.587 280.56"/>
<path class="l4" d="M483.028 271.483L507.99 271.483"/>
<path class="l4" d="M486.432 271.483L486.432 280.56"/>
<path class="l4" d="M477.355 280.56L486.432 280.56"/>
<path class="l4" d="M486.432 269.214L504.587 269.214"/>
<path class="l4" d="M495.509 262.406L495.509 265.81"/>
<circle class="l4" cx="495.509" cy="267.512" r="1.70199" style="fill:none;"/>
<path class="l4" d="M537.87 280.56L546.947 280.56"/>
<path class="l4" d="M546.947 280.56L546.947 289.637"/>
<path class="l4" d="M543.543 289.637L568.506 289.637"/>
<path class="l4" d="M565.102 280.56L565.102 289.637"/>
<path class="l4" d="M565.102 280.56L574.179 280.56"/>
<path class="l4" d="M546.947 291.907L565.102 291.907"/>
<path class="l4" d="M556.024 295.311L556.024 298.715"/>
<circle class="l4" cx="556.024" cy="293.609" r="1.70199" style="fill:none;"/>
<path class="l4" d="M598.385 280.56L607.462 280.56"/>
<path class="l4" d="M607.462 280.56L607.462 289.637"/>
<path class="l4" d="M604.058 289.637L629.021 289.637"/>
<path class="l4" d="M625.617 280.56L625.617 289.637"/>
<path class="l4" d="M625.617 280.56L634.694 280.56"/>
<path class="l4" d="M607.462 291.907L625.617 291.907"/>
<path class="l4" d="M616.539 295.311L616.539 298.715"/>
<circle class="l4" cx="616.539" cy="293.609" r="1.70199" style="fill:none;"/>
<path class="l4" d="M686.132 280.56L695.209 280.56"/>
<path class="l4" d="M686.132 271.483L686.132 280.56"/>
<path class="l4" d="M664.573 271.483L689.536 271.483"/>
<path class="l4" d="M667.977 271.483L667.977 280.56"/>
<path class="l4" d="M658.9 280.56L667.977 280.56"/>
<path class="l4" d="M667.977 269.214L686.132 269.214"/>
<path class="l4" d="M677.054 262.406L677.054 265.81"/>
<circle class="l4" cx="677.054" cy="267.512" r="1.70199" style="fill:none;"/>
<path class="l4" d="M262.526 86.912L271.603 86.912"/>
<path class="l4" d="M262.526 77.8347L262.526 86.912"/>
<path class="l4" d="M240.968 77.8347L265.93 77.8347"/>
<path class="l4" d="M244.372 77.8347L244.372 86.912"/>
<path class="l4" d="M235.294 86.912L244.372 86.912"/>
<path class="l4" d="M244.372 75.5654L262.526 75.5654"/>
<path class="l4" d="M253.449 68.7575L253.449 72.1615"/>
<circle class="l4" cx="253.449" cy="73.8634" r="1.70199" style="fill:none;"/>
<path class="l4" d="M323.041 86.912L332.119 86.912"/>
<path class="l4" d="M323.041 77.8347L323.041 86.912"/>
<path class="l4" d="M301.483 77.8347L326.445 77.8347"/>
<path class="l4" d="M304.887 77.8347L304.887 86.912"/>
<path class="l4" d="M295.81 86.912L304.887 86.912"/>
<path class="l4" d="M304.887 75.5654L323.041 75.5654"/>
<path class="l4" d="M313.964 68.7575L313.964 72.1615"/>
<circle class="l4" cx="313.964" cy="73.8634" r="1.70199" style="fill:none;"/>
<path class="l4" d="M383.556 86.912L392.634 86.912"/>
<path class="l4" d="M383.556 77.8347L383.556 86.912"/>
<path class="l4" d="M361.998 77.8347L386.96 77.8347"/>
<path class="l4" d="M365.402 77.8347L365.402 86.912"/>
<path class="l4" d="M356.325 86.912L365.402 86.912"/>
<path class="l4" d="M365.402 75.5654L383.556 75.5654"/>
<path class="l4" d="M374.479 68.7575L374.479 72.1615"/>
<circle class="l4" cx="374.479" cy="73.8634" r="1.70199" style="fill:none;"/>
<path class="l4" d="M444.071 86.912L453.149 86.912"/>
<path class="l4" d="M444.071 77.8347L444.071 86.912"/>
<path class="l4" d="M422.513 77.8347L447.475 77.8347"/>
<path class="l4" d="M425.917 77.8347L425.917 86.912"/>
<path class="l4" d="M416.84 86.912L425.917 86.912"/>
<path class="l4" d="M425.917 75.5654L444.071 75.5654"/>
<path class="l4" d="M434.994 68.7575L434.994 72.1615"/>
<circle class="l4" cx="434.994" cy="73.8634" r="1.70199" style="fill:none;"/>
<path class="l4" d="M504.587 86.912L513.664 86.912"/>
<path class="l4" d="M504.587 77.8347L504.587 86.912"/>
<path class="l4" d="M483.028 77.8347L507.99 77.8347"/>
<path class="l4" d="M486.432 77.8347L486.432 86.912"/>
<path class="l4" d="M477.355 86.912L486.432 86.912"/>
<path class="l4" d="M486.432 75.5654L504.587 75.5654"/>
<path class="l4" d="M495.509 68.7575L495.509 72.1615"/>
<circle class="l4" cx="495.509" cy="73.8634" r="1.70199" style="fill:none;"/>
<path class="l4" d="M565.102 86.912L574.179 86.912"/>
<path class="l4" d="M565.102 77.8347L565.102 86.912"/>
<path class="l4" d="M543.543 77.8347L568.506 77.8347"/>
<path class="l4" d="M546.947 77.8347L546.947 86.912"/>
<path class="l4" d="M537.87 86.912L546.947 86.912"/>
<path class="l4" d="M546.947 75.5654L565.102 75.5654"/>
<path class="l4" d="M556.024 68.7575L556.024 72.1615"/>
<circle class="l4" cx="556.024" cy="73.8634" r="1.70199" style="fill:none;"/>
<path class="l4" d="M625.617 86.912L634.694 86.912"/>
<path class="l4" d="M625.617 77.8347L625.617 86.912"/>
<path class="l4" d="M604.058 77.8347L629.021 77.8347"/>
<path class="l4" d="M607.462 77.8347L607.462 86.912"/>
<path class="l4" d="M598.385 86.912L607.462 86.912"/>
<path class="l4" d="M607.462 75.5654L625.617 75.5654"/>
<path class="l4" d="M616.539 68.7575L616.539 72.1615"/>
<circle class="l4" cx="616.539" cy="73.8634" r="1.70199" style="fill:none;"/>
<path class="l4" d="M686.132 86.912L695.209 86.912"/>
<path class="l4" d="M686.132 77.8347L686.132 86.912"/>
<path class="l4" d="M664.573 77.8347L689.536 77.8347"/>
<path class="l4" d="M667.977 77.8347L667.977 86.912"/>
<path class="l4" d="M658.9 86.912L667.977 86.912"/>
<path class="l4" d="M667.977 75.5654L686.132 75.5654"/>
<path class="l4" d="M677.054 68.7575L677.054 72.1615"/>
<circle class="l4" cx="677.054" cy="73.8634" r="1.70199" style="fill:none;"/>
<path class="l4" d="M323.041 740.475L332.119 740.475"/>
<path class="l4" d="M323.041 731.398L323.041 740.475"/>
<path class="l4" d="M301.483 731.398L326.445 731.398"/>
<path class="l4" d="M304.887 731.398L304.887 740.475"/>
<path class="l4" d="M295.81 740.475L304.887 740.475"/>
<path class="l4" d="M304.887 729.128L323.041 729.128"/>
<path class="l4" d="M313.964 722.32L313.964 729.128"/>
<path class="l4" d="M383.556 740.475L392.634 740.475"/>
<path class="l4" d="M383.556 731.398L383.556 740.475"/>
<path class="l4" d="M361.998 731.398L386.96 731.398"/>
<path class="l4" d="M365.402 731.398L365.402 740.475"/>
<path class="l4" d="M356.325 740.475L365.402 740.475"/>
<path class="l4" d="M365.402 729.128L383.556 729.128"/>
<path class="l4" d="M374.479 722.32L374.479 729.128"/>
<path class="l4" d="M444.071 740.475L453.149 740.475"/>
<path class="l4" d="M444.071 731.398L444.071 740.475"/>
<path class="l4" d="M422.513 731.398L447.475 731.398"/>
<path class="l4" d="M425.917 731.398L425.917 740.475"/>
<path class="l4" d="M416.84 740.475L425.917 740.475"/>
<path class="l4" d="M425.917 729.128L444.071 729.128"/>
<path class="l4" d="M434.994 722.32L434.994 729.128"/>
<path class="l4" d="M504.587 740.475L513.664 740.475"/>
<path class="l4" d="M504.587 731.398L504.587 740.475"/>
<path class="l4" d="M483.028 731.398L507.99 731.398"/>
<path class="l4" d="M486.432 731.398L486.432 740.475"/>
<path class="l4" d="M477.355 740.475L486.432 740.475"/>
<path class="l4" d="M486.432 729.128L504.587 729.128"/>
<path class="l4" d="M495.509 722.32L495.509 729.128"/>
<path class="l4" d="M565.102 740.475L574.179 740.475"/>
<path class="l4" d="M565.102 731.398L565.102 740.475"/>
<path class="l4" d="M543.543 731.398L568.506 731.398"/>
<path class="l4" d="M546.947 731.398L546.947 740.475"/>
<path class="l4" d="M537.87 740.475L546.947 740.475"/>
<path class="l4" d="M546.947 729.128L565.102 729.128"/>
<path class="l4" d="M556.024 722.32L556.024 729.128"/>
<path class="l4" d="M625.617 740.475L634.694 740.475"/>
<path class="l4" d="M625.617 731.398L625.617 740.475"/>
<path class="l4" d="M604.058 731.398L629.021 731.398"/>
<path class="l4" d="M607.462 731.398L607.462 740.475"/>
<path class="l4" d="M598.385 740.475L607.462 740.475"/>
<path class="l4" d="M607.462 729.128L625.617 729.128"/>
<path class="l4" d="M616.539 722.32L616.539 729.128"/>
<path class="l4" d="M686.132 740.475L695.209 740.475"/>
<path class="l4" d="M686.132 731.398L686.132 740.475"/>
<path class="l4" d="M664.573 731.398L689.536 731.398"/>
<path class="l4" d="M667.977 731.398L667.977 740.475"/>
<path class="l4" d="M658.9 740.475L667.977 740.475"/>
<path class="l4" d="M667.977 729.128L686.132 729.128"/>
<path class="l4" d="M677.054 722.32L677.054 729.128"/>
<path class="l4" d="M262.526 534.724L271.603 534.724"/>
<path class="l4" d="M262.526 525.646L262.526 534.724"/>
<path class="l4" d="M240.968 525.646L265.93 525.646"/>
<path class="l4" d="M244.372 525.646L244.372 534.724"/>
<path class="l4" d="M235.294 534.724L244.372 534.724"/>
<path class="l4" d="M244.372 523.377L262.526 523.377"/>
<path class="l4" d="M253.449 516.569L253.449 519.973"/>
<circle class="l4" cx="253.449" cy="521.675" r="1.70199" style="fill:none;"/>
<path class="l4" d="M323.041 534.724L332.119 534.724"/>
<path class="l4" d="M323.041 525.646L323.041 534.724"/>
<path class="l4" d="M301.483 525.646L326.445 525.646"/>
<path class="l4" d="M304.887 525.646L304.887 534.724"/>
<path class="l4" d="M295.81 534.724L304.887 534.724"/>
<path class="l4" d="M304.887 523.377L323.041 523.377"/>
<path class="l4" d="M313.964 516.569L313.964 519.973"/>
<circle class="l4" cx="313.964" cy="521.675" r="1.70199" style="fill:none;"/>
<path class="l4" d="M383.556 534.724L392.634 534.724"/>
<path class="l4" d="M383.556 525.646L383.556 534.724"/>
<path class="l4" d="M361.998 525.646L386.96 525.646"/>
<path class="l4" d="M365.402 525.646L365.402 534.724"/>
<path class="l4" d="M356.325 534.724L365.402 534.724"/>
<path class="l4" d="M365.402 523.377L383.556 523.377"/>
<path class="l4" d="M374.479 516.569L374.479 519.973"/>
<circle class="l4" cx="374.479" cy="521.675" r="1.70199" style="fill:none;"/>
<path class="l4" d="M444.071 534.724L453.149 534.724"/>
<path class="l4" d="M444.071 525.646L444.071 534.724"/>
<path class="l4" d="M422.513 525.646L447.475 525.646"/>
<path class="l4" d="M425.917 525.646L425.917 534.724"/>
<path class="l4" d="M416.84 534.724L425.917 534.724"/>
<path class="l4" d="M425.917 523.377L444.071 523.377"/>
<path class="l4" d="M434.994 516.569L434.994 519.973"/>
<circle class="l4" cx="434.994" cy="521.675" r="1.70199" style="fill:none;"/>
<path class="l4" d="M504.587 534.724L513.664 534.724"/>
<path class="l4" d="M504.587 525.646L504.587 534.724"/>
<path class="l4" d="M483.028 525.646L507.99 525.646"/>
<path class="l4" d="M486.432 525.646L486.432 534.724"/>
<path class="l4" d="M477.355 534.724L486.432 534.724"/>
<path class="l4" d="M486.432 523.377L504.587 523.377"/>
<path class="l4" d="M495.509 516.569L495.509 519.973"/>
<circle class="l4" cx="495.509" cy="521.675" r="1.70199" style="fill:none;"/>
<path class="l4" d="M565.102 534.724L574.179 534.724"/>
<path class="l4" d="M565.102 525.646L565.102 534.724"/>
<path class="l4" d="M543.543 525.646L568.506 525.646"/>
<path class="l4" d="M546.947 525.646L546.947 534.724"/>
<path class="l4" d="M537.87 534.724L546.947 534.724"/>
<path class="l4" d="M546.947 523.377L565.102 523.377"/>
<path class="l4" d="M556.024 516.569L556.024 519.973"/>
<circle class="l4" cx="556.024" cy="521.675" r="1.70199" style="fill:none;"/>
<path class="l4" d="M625.617 534.724L634.694 534.724"/>
<path class="l4" d="M625.617 525.646L625.617 534.724"/>
<path class="l4" d="M604.058 525.646L629.021 525.646"/>
<path class="l4" d="M607.462 525.646L607.462 534.724"/>
<path class="l4" d="M598.385 534.724L607.462 534.724"/>
<path class="l4" d="M607.462 523.377L625.617 523.377"/>
<path class="l4" d="M616.539 516.569L616.539 519.973"/>
<circle class="l4" cx="616.539" cy="521.675" r="1.70199" style="fill:none;"/>
<path class="l4" d="M686.132 534.724L695.209 534.724"/>
<path class="l4" d="M686.132 525.646L686.132 534.724"/>
<path class="l4" d="M664.573 525.646L689.536 525.646"/>
<path class="l4" d="M667.977 525.646L667.977 534.724"/>
<path class="l4" d="M658.9 534.724L667.977 534.724"/>
<path class="l4" d="M667.977 523.377L686.132 523.377"/>
<path class="l4" d="M677.054 516.569L677.054 519.973"/>
<circle class="l4" cx="677.054" cy="521.675" r="1.70199" style="fill:none;"/>
<path class="l4" d="M746.647 280.56L755.724 280.56"/>
<path class="l4" d="M746.647 271.483L746.647 280.56"/>
<path class="l4" d="M725.088 271.483L750.051 271.483"/>
<path class="l4" d="M728.492 271.483L728.492 280.56"/>
<path class="l4" d="M719.415 280.56L728.492 280.56"/>
<path class="l4" d="M728.492 269.214L746.647 269.214"/>
<path class="l4" d="M737.57 262.406L737.57 265.81"/>
<circle class="l4" cx="737.57" cy="267.512" r="1.70199" style="fill:none;"/>
<path class="l4" d="M202.011 280.56L211.088 280.56"/>
<path class="l4" d="M202.011 271.483L202.011 280.56"/>
<path class="l4" d="M180.453 271.483L205.415 271.483"/>
<path class="l4" d="M183.857 271.483L183.857 280.56"/>
<path class="l4" d="M174.779 280.56L183.857 280.56"/>
<path class="l4" d="M183.857 269.214L202.011 269.214"/>
<path class="l4" d="M192.934 262.406L192.934 265.81"/>
<circle class="l4" cx="192.934" cy="267.512" r="1.70199" style="fill:none;"/>
<path class="l4" d="M746.647 86.912L755.724 86.912"/>
<path class="l4" d="M746.647 77.8347L746.647 86.912"/>
<path class="l4" d="M725.088 77.8347L750.051 77.8347"/>
<path class="l4" d="M728.492 77.8347L728.492 86.912"/>
<path class="l4" d="M719.415 86.912L728.492 86.912"/>
<path class="l4" d="M728.492 75.5654L746.647 75.5654"/>
<path class="l4" d="M737.57 68.7575L737.57 72.1615"/>
<circle class="l4" cx="737.57" cy="73.8634" r="1.70199" style="fill:none;"/>
<path class="l4" d="M202.011 86.912L211.088 86.912"/>
<path class="l4" d="M202.011 77.8347L202.011 86.912"/>
<path class="l4" d="M180.453 77.8347L205.415 77.8347"/>
<path class="l4" d="M183.857 77.8347L183.857 86.912"/>
<path class="l4" d="M174.779 86.912L183.857 86.912"/>
<path class="l4" d="M183.857 75.5654L202.011 75.5654"/>
<path class="l4" d="M192.934 68.7575L192.934 72.1615"/>
<circle class="l4" cx="192.934" cy="73.8634" r="1.70199" style="fill:none;"/>
<path class="l4" d="M202.011 534.724L211.088 534.724"/>
<path class="l4" d="M202.011 525.646L202.011 534.724"/>
<path class="l4" d="M180.453 525.646L205.415 525.646"/>
<path class="l4" d="M183.857 525.646L183.857 534.724"/>
<path class="l4" d="M174.779 534.724L183.857 534.724"/>
<path class="l4" d="M183.857 523.377L202.011 523.377"/>
<path class="l4" d="M192.934 516.569L192.934 519.973"/>
<circle class="l4" cx="192.934" cy="521.675" r="1.70199" style="fill:none;"/>
<path class="l4" d="M746.647 534.724L755.724 534.724"/>
<path class="l4" d="M746.647 525.646L746.647 534.724"/>
<path class="l4" d="M725.088 525.646L750.051 525.646"/>
<path class="l4" d="M728.492 525.646L728.492 534.724"/>
<path class="l4" d="M719.415 534.724L728.492 534.724"/>
<path class="l4" d="M728.492 523.377L746.647 523.377"/>
<path class="l4" d="M737.57 516.569L737.57 519.973"/>
<circle class="l4" cx="737.57" cy="521.675" r="1.70199" style="fill:none;"/>
<path class="l4" d="M746.647 740.475L755.724 740.475"/>
<path class="l4" d="M746.647 731.398L746.647 740.475"/>
<path class="l4" d="M725.088 731.398L750.051 731.398"/>
<path class="l4" d="M728.492 731.398L728.492 740.475"/>
<path class="l4" d="M719.415 740.475L728.492 740.475"/>
<path class="l4" d="M728.492 729.128L746.647 729.128"/>
<path class="l4" d="M737.57 722.32L737.57 729.128"/>
<path class="l4" d="M202.011 740.475L211.088 740.475"/>
<path class="l4" d="M202.011 731.398L202.011 740.475"/>
<path class="l4" d="M180.453 731.398L205.415 731.398"/>
<path class="l4" d="M183.857 731.398L183.857 740.475"/>
<path class="l4" d="M174.779 740.475L183.857 740.475"/>
<path class="l4" d="M183.857 729.128L202.011 729.128"/>
<path class="l4" d="M192.934 722.32L192.934 729.128"/>
<path class="l5" d="M271.301 740.172L271.906 740.172L271.906 740.777L271.301 740.777L271.301 740.172z"/>
<path class="l5" d="M253.146 722.018L253.752 722.018L253.752 722.623L253.146 722.623L253.146 722.018z"/>
<path class="l5" d="M234.992 740.172L235.597 740.172L235.597 740.777L234.992 740.777L234.992 740.172z"/>
<path class="l5" d="M234.992 280.258L235.597 280.258L235.597 280.863L234.992 280.863L234.992 280.258z"/>
<path class="l5" d="M253.146 262.103L253.752 262.103L253.752 262.708L253.146 262.708L253.146 262.103z"/>
<path class="l5" d="M271.301 280.258L271.906 280.258L271.906 280.863L271.301 280.863L271.301 280.258z"/>
<path class="l5" d="M331.816 280.258L332.421 280.258L332.421 280.863L331.816 280.863L331.816 280.258z"/>
<path class="l5" d="M313.661 298.412L314.267 298.412L314.267 299.017L313.661 299.017L313.661 298.412z"/>
<path class="l5" d="M295.507 280.258L296.112 280.258L296.112 280.863L295.507 280.863L295.507 280.258z"/>
<path class="l5" d="M392.331 280.258L392.936 280.258L392.936 280.863L392.331 280.863L392.331 280.258z"/>
<path class="l5" d="M374.177 298.412L374.782 298.412L374.782 299.017L374.177 299.017L374.177 298.412z"/>
<path class="l5" d="M356.022 280.258L356.627 280.258L356.627 280.863L356.022 280.863L356.022 280.258z"/>
<path class="l5" d="M416.537 280.258L417.142 280.258L417.142 280.863L416.537 280.863L416.537 280.258z"/>
<path class="l5" d="M434.692 262.103L435.297 262.103L435.297 262.708L434.692 262.708L434.692 262.103z"/>
<path class="l5" d="M452.846 280.258L453.451 280.258L453.451 280.863L452.846 280.863L452.846 280.258z"/>
<path class="l5" d="M477.052 280.258L477.657 280.258L477.657 280.863L477.052 280.863L477.052 280.258z"/>
<path class="l5" d="M495.207 262.103L495.812 262.103L495.812 262.708L495.207 262.708L495.207 262.103z"/>
<path class="l5" d="M513.361 280.258L513.966 280.258L513.966 280.863L513.361 280.863L513.361 280.258z"/>
<path class="l5" d="M573.876 280.258L574.481 280.258L574.481 280.863L573.876 280.863L573.876 280.258z"/>
<path class="l5" d="M555.722 298.412L556.327 298.412L556.327 299.017L555.722 299.017L555.722 298.412z"/>
<path class="l5" d="M537.567 280.258L538.172 280.258L538.172 280.863L537.567 280.863L537.567 280.258z"/>
<path class="l5" d="M634.391 280.258L634.996 280.258L634.996 280.863L634.391 280.863L634.391 280.258z"/>
<path class="l5" d="M616.237 298.412L616.842 298.412L616.842 299.017L616.237 299.017L616.237 298.412z"/>
<path class="l5" d="M598.082 280.258L598.687 280.258L598.687 280.863L598.082 280.863L598.082 280.258z"/>
<path class="l5" d="M658.597 280.258L659.203 280.258L659.203 280.863L658.597 280.863L658.597 280.258z"/>
<path class="l5" d="M676.752 262.103L677.357 262.103L677.357 262.708L676.752 262.708L676.752 262.103z"/>
<path class="l5" d="M694.906 280.258L695.512 280.258L695.512 280.863L694.906 280.863L694.906 280.258z"/>
<path class="l5" d="M234.992 86.6094L235.597 86.6094L235.597 87.2146L234.992 87.2146L234.992 86.6094z"/>
<path class="l5" d="M253.146 68.4549L253.752 68.4549L253.752 69.0601L253.146 69.0601L253.146 68.4549z"/>
<path class="l5" d="M271.301 86.6094L271.906 86.6094L271.906 87.2146L271.301 87.2146L271.301 86.6094z"/>
<path class="l5" d="M295.507 86.6094L296.112 86.6094L296.112 87.2146L295.507 87.2146L295.507 86.6094z"/>
<path class="l5" d="M313.661 68.4549L314.267 68.4549L314.267 69.0601L313.661 69.0601L313.661 68.4549z"/>
<path class="l5" d="M331.816 86.6094L332.421 86.6094L332.421 87.2146L331.816 87.2146L331.816 86.6094z"/>
<path class="l5" d="M356.022 86.6094L356.627 86.6094L356.627 87.2146L356.022 87.2146L356.022 86.6094z"/>
<path class="l5" d="M374.177 68.4549L374.782 68.4549L374.782 69.0601L374.177 69.0601L374.177 68.4549z"/>
<path class="l5" d="M392.331 86.6094L392.936 86.6094L392.936 87.2146L392.331 87.2146L392.331 86.6094z"/>
<path class="l5" d="M416.537 86.6094L417.142 86.6094L417.142 87.2146L416.537 87.2146L416.537 86.6094z"/>
<path class="l5" d="M434.692 68.4549L435.297 68.4549L435.297 69.0601L434.692 69.0601L434.692 68.4549z"/>
<path class="l5" d="M452.846 86.6094L453.451 86.6094L453.451 87.2146L452.846 87.2146L452.846 86.6094z"/>
<path class="l5" d="M477.052 86.6094L477.657 86.6094L477.657 87.2146L477.052 87.2146L477.052 86.6094z"/>
<path class="l5" d="M495.207 68.4549L495.812 68.4549L495.812 69.0601L495.207 69.0601L495.207 68.4549z"/>
<path class="l5" d="M513.361 86.6094L513.966 86.6094L513.966 87.2146L513.361 87.2146L513.361 86.6094z"/>
<path class="l5" d="M537.567 86.6094L538.172 86.6094L538.172 87.2146L537.567 87.2146L537.567 86.6094z"/>
<path class="l5" d="M555.722 68.4549L556.327 68.4549L556.327 69.0601L555.722 69.0601L555.722 68.4549z"/>
<path class="l5" d="M573.876 86.6094L574.481 86.6094L574.481 87.2146L573.876 87.2146L573.876 86.6094z"/>
<path class="l5" d="M598.082 86.6094L598.687 86.6094L598.687 87.2146L598.082 87.2146L598.082 86.6094z"/>
<path class="l5" d="M616.237 68.4549L616.842 68.4549L616.842 69.0601L616.237 69.0601L616.237 68.4549z"/>
<path class="l5" d="M634.391 86.6094L634.996 86.6094L634.996 87.2146L634.391 87.2146L634.391 86.6094z"/>
<path class="l5" d="M658.597 86.6094L659.203 86.6094L659.203 87.2146L658.597 87.2146L658.597 86.6094z"/>
<path class="l5" d="M676.752 68.4549L677.357 68.4549L677.357 69.0601L676.752 69.0601L676.752 68.4549z"/>
<path class="l5" d="M694.906 86.6094L695.512 86.6094L695.512 87.2146L694.906 87.2146L694.906 86.6094z"/>
<path class="l5" d="M331.816 740.172L332.421 740.172L332.421 740.777L331.816 740.777L331.816 740.172z"/>
<path class="l5" d="M313.661 722.018L314.267 722.018L314.267 722.623L313.661 722.623L313.661 722.018z"/>
<path class="l5" d="M295.507 740.172L296.112 740.172L296.112 740.777L295.507 740.777L295.507 740.172z"/>
<path class="l5" d="M392.331 740.172L392.936 740.172L392.936 740.777L392.331 740.777L392.331 740.172z"/>
<path class="l5" d="M374.177 722.018L374.782 722.018L374.782 722.623L374.177 722.623L374.177 722.018z"/>
<path class="l5" d="M356.022 740.172L356.627 740.172L356.627 740.777L356.022 740.777L356.022 740.172z"/>
<path class="l5" d="M452.846 740.172L453.451 740.172L453.451 740.777L452.846 740.777L452.846 740.172z"/>
<path class="l5" d="M434.692 722.018L435.297 722.018L435.297 722.623L434.692 722.623L434.692 722.018z"/>
<path class="l5" d="M416.537 740.172L417.142 740.172L417.142 740.777L416.537 740.777L416.537 740.172z"/>
<path class="l5" d="M513.361 740.172L513.966 740.172L513.966 740.777L513.361 740.777L513.361 740.172z"/>
<path class="l5" d="M495.207 722.018L495.812 722.018L495.812 722.623L495.207 722.623L495.207 722.018z"/>
<path class="l5" d="M477.052 740.172L477.657 740.172L477.657 740.777L477.052 740.777L477.052 740.172z"/>
<path class="l5" d="M573.876 740.172L574.481 740.172L574.481 740.777L573.876 740.777L573.876 740.172z"/>
<path class="l5" d="M555.722 722.018L556.327 722.018L556.327 722.623L555.722 722.623L555.722 722.018z"/>
<path class="l5" d="M537.567 740.172L538.172 740.172L538.172 740.777L537.567 740.777L537.567 740.172z"/>
<path class="l5" d="M634.391 740.172L634.996 740.172L634.996 740.777L634.391 740.777L634.391 740.172z"/>
<path class="l5" d="M616.237 722.018L616.842 722.018L616.842 722.623L616.237 722.623L616.237 722.018z"/>
<path class="l5" d="M598.082 740.172L598.687 740.172L598.687 740.777L598.082 740.777L598.082 740.172z"/>
<path class="l5" d="M694.906 740.172L695.512 740.172L695.512 740.777L694.906 740.777L694.906 740.172z"/>
<path class="l5" d="M676.752 722.018L677.357 722.018L677.357 722.623L676.752 722.623L676.752 722.018z"/>
<path class="l5" d="M658.597 740.172L659.203 740.172L659.203 740.777L658.597 740.777L658.597 740.172z"/>
<path class="l5" d="M234.992 534.421L235.597 534.421L235.597 535.026L234.992 535.026L234.992 534.421z"/>
<path class="l5" d="M253.146 516.266L253.752 516.266L253.752 516.872L253.146 516.872L253.146 516.266z"/>
<path class="l5" d="M271.301 534.421L271.906 534.421L271.906 535.026L271.301 535.026L271.301 534.421z"/>
<path class="l5" d="M295.507 534.421L296.112 534.421L296.112 535.026L295.507 535.026L295.507 534.421z"/>
<path class="l5" d="M313.661 516.266L314.267 516.266L314.267 516.872L313.661 516.872L313.661 516.266z"/>
<path class="l5" d="M331.816 534.421L332.421 534.421L332.421 535.026L331.816 535.026L331.816 534.421z"/>
<path class="l5" d="M356.022 534.421L356.627 534.421L356.627 535.026L356.022 535.026L356.022 534.421z"/>
<path class="l5" d="M374.177 516.266L374.782 516.266L374.782 516.872L374.177 516.872L374.177 516.266z"/>
<path class="l5" d="M392.331 534.421L392.936 534.421L392.936 535.026L392.331 535.026L392.331 534.421z"/>
<path class="l5" d="M416.537 534.421L417.142 534.421L417.142 535.026L416.537 535.026L416.537 534.421z"/>
<path class="l5" d="M434.692 516.266L435.297 516.266L435.297 516.872L434.692 516.872L434.692 516.266z"/>
<path class="l5" d="M452.846 534.421L453.451 534.421L453.451 535.026L452.846 535.026L452.846 534.421z"/>
<path class="l5" d="M477.052 534.421L477.657 534.421L477.657 535.026L477.052 535.026L477.052 534.421z"/>
<path class="l5" d="M495.207 516.266L495.812 516.266L495.812 516.872L495.207 516.872L495.207 516.266z"/>
<path class="l5" d="M513.361 534.421L513.966 534.421L513.966 535.026L513.361 535.026L513.361 534.421z"/>
<path class="l5" d="M537.567 534.421L538.172 534.421L538.172 535.026L537.567 535.026L537.567 534.421z"/>
<path class="l5" d="M555.722 516.266L556.327 516.266L556.327 516.872L555.722 516.872L555.722 516.266z"/>
<path class="l5" d="M573.876 534.421L574.481 534.421L574.481 535.026L573.876 535.026L573.876 534.421z"/>
<path class="l5" d="M598.082 534.421L598.687 534.421L598.687 535.026L598.082 535.026L598.082 534.421z"/>
<path class="l5" d="M616.237 516.266L616.842 516.266L616.842 516.872L616.237 516.872L616.237 516.266z"/>
<path class="l5" d="M634.391 534.421L634.996 534.421L634.996 535.026L634.391 535.026L634.391 534.421z"/>
<path class="l5" d="M658.597 534.421L659.203 534.421L659.203 535.026L658.597 535.026L658.597 534.421z"/>
<path class="l5" d="M676.752 516.266L677.357 516.266L677.357 516.872L676.752 516.872L676.752 516.266z"/>
<path class="l5" d="M694.906 534.421L695.512 534.421L695.512 535.026L694.906 535.026L694.906 534.421z"/>
<path class="l5" d="M59.8007 704.166L56.0185 701.14L51.1017 701.14L51.1017 707.191L56.0185 707.191L59.8007 704.166"/>
<path class="l5" d="M59.7948 704.16L59.8066 704.16L59.8066 704.172L59.7948 704.172L59.7948 704.16z"/>
<path class="l5" d="M59.8007 667.857L56.0185 664.831L51.1017 664.831L51.1017 670.882L56.0185 670.882L59.8007 667.857"/>
<path class="l5" d="M59.7948 667.851L59.8066 667.851L59.8066 667.863L59.7948 667.863L59.7948 667.851z"/>
<path class="l5" d="M59.8007 480.26L56.0185 477.234L51.1017 477.234L51.1017 483.286L56.0185 483.286L59.8007 480.26"/>
<path class="l5" d="M59.7948 480.254L59.8066 480.254L59.8066 480.266L59.7948 480.266L59.7948 480.254z"/>
<path class="l5" d="M59.8007 328.972L56.0185 325.947L51.1017 325.947L51.1017 331.998L56.0185 331.998L59.8007 328.972"/>
<path class="l5" d="M59.7948 328.966L59.8066 328.966L59.8066 328.978L59.7948 328.978L59.7948 328.966z"/>
<path class="l5" d="M59.8007 220.045L56.0185 217.019L51.1017 217.019L51.1017 223.071L56.0185 223.071L59.8007 220.045"/>
<path class="l5" d="M59.7948 220.039L59.8066 220.039L59.8066 220.051L59.7948 220.051L59.7948 220.039z"/>
<path class="l5" d="M59.8007 50.603L56.0185 47.5772L51.1017 47.5772L51.1017 53.6287L56.0185 53.6287L59.8007 50.603"/>
<path class="l5" d="M59.7948 50.5971L59.8066 50.5971L59.8066 50.6089L59.7948 50.6089L59.7948 50.5971z"/>
<path class="l5" d="M59.8007 20.3454L56.3968 23.2766L53.2765 23.2766L49.8725 20.3454L53.2765 17.4142L56.3968 17.4142L59.8007 20.3454"/>
<path class="l5" d="M59.7948 20.3395L59.8067 20.3395L59.8067 20.3513L59.7948 20.3513L59.7948 20.3395z"/>
<path class="l5" d="M59.8007 861.505L56.3968 864.436L53.2765 864.436L49.8725 861.505L53.2765 858.574L56.3968 858.574L59.8007 861.505"/>
<path class="l5" d="M59.7948 861.499L59.8067 861.499L59.8067 861.511L59.7948 861.511L59.7948 861.499z"/>
<path class="l5" d="M840.445 616.419L840.445 622.47L845.362 622.47L849.144 619.445L845.362 616.419L840.445 616.419"/>
<path class="l5" d="M840.439 619.439L840.451 619.439L840.451 619.451L840.439 619.451L840.439 619.439z"/>
<path class="l5" d="M719.112 280.258L719.718 280.258L719.718 280.863L719.112 280.863L719.112 280.258z"/>
<path class="l5" d="M737.267 262.103L737.872 262.103L737.872 262.708L737.267 262.708L737.267 262.103z"/>
<path class="l5" d="M755.421 280.258L756.027 280.258L756.027 280.863L755.421 280.863L755.421 280.258z"/>
<path class="l5" d="M174.477 280.258L175.082 280.258L175.082 280.863L174.477 280.863L174.477 280.258z"/>
<path class="l5" d="M192.631 262.103L193.236 262.103L193.236 262.708L192.631 262.708L192.631 262.103z"/>
<path class="l5" d="M210.786 280.258L211.391 280.258L211.391 280.863L210.786 280.863L210.786 280.258z"/>
<path class="l5" d="M719.112 86.6094L719.718 86.6094L719.718 87.2146L719.112 87.2146L719.112 86.6094z"/>
<path class="l5" d="M737.267 68.4549L737.872 68.4549L737.872 69.0601L737.267 69.0601L737.267 68.4549z"/>
<path class="l5" d="M755.421 86.6094L756.027 86.6094L756.027 87.2146L755.421 87.2146L755.421 86.6094z"/>
<path class="l5" d="M174.477 86.6094L175.082 86.6094L175.082 87.2146L174.477 87.2146L174.477 86.6094z"/>
<path class="l5" d="M192.631 68.4549L193.236 68.4549L193.236 69.0601L192.631 69.0601L192.631 68.4549z"/>
<path class="l5" d="M210.786 86.6094L211.391 86.6094L211.391 87.2146L210.786 87.2146L210.786 86.6094z"/>
<path class="l5" d="M174.477 534.421L175.082 534.421L175.082 535.026L174.477 535.026L174.477 534.421z"/>
<path class="l5" d="M192.631 516.266L193.236 516.266L193.236 516.872L192.631 516.872L192.631 516.266z"/>
<path class="l5" d="M210.786 534.421L211.391 534.421L211.391 535.026L210.786 535.026L210.786 534.421z"/>
<path class="l5" d="M719.112 534.421L719.718 534.421L719.718 535.026L719.112 535.026L719.112 534.421z"/>
<path class="l5" d="M737.267 516.266L737.872 516.266L737.872 516.872L737.267 516.872L737.267 516.266z"/>
<path class="l5" d="M755.421 534.421L756.027 534.421L756.027 535.026L755.421 535.026L755.421 534.421z"/>
<path class="l5" d="M755.421 740.172L756.027 740.172L756.027 740.777L755.421 740.777L755.421 740.172z"/>
<path class="l5" d="M737.267 722.018L737.872 722.018L737.872 722.623L737.267 722.623L737.267 722.018z"/>
<path class="l5" d="M719.112 740.172L719.718 740.172L719.718 740.777L719.112 740.777L719.112 740.172z"/>
<path class="l5" d="M210.786 740.172L211.391 740.172L211.391 740.777L210.786 740.777L210.786 740.172z"/>
<path class="l5" d="M192.631 722.018L193.236 722.018L193.236 722.623L192.631 722.623L192.631 722.018z"/>
<path class="l5" d="M174.477 740.172L175.082 740.172L175.082 740.777L174.477 740.777L174.477 740.172z"/>
<path class="l1" d="M271.603 280.56L295.81 280.56"/>
<path class="l1" d="M332.119 280.56L356.325 280.56"/>
<path class="l1" d="M392.634 280.56L416.84 280.56"/>
<path class="l1" d="M453.149 280.56L477.355 280.56"/>
<path class="l1" d="M513.664 280.56L537.87 280.56"/>
<path class="l1" d="M574.179 280.56L598.385 280.56"/>
<path class="l1" d="M634.694 280.56L658.9 280.56"/>
<path class="l1" d="M186.882 328.972L616.539 328.972"/>
<path class="l1" d="M616.539 298.715L616.539 328.972"/>
<path class="l1" d="M556.024 298.715L556.024 328.972"/>
<path class="l1" d="M374.479 298.715L374.479 328.972"/>
<path class="l1" d="M313.964 298.715L313.964 328.972"/>
<path class="l1" d="M186.882 220.045L677.054 220.045"/>
<path class="l1" d="M677.054 220.045L677.054 262.406"/>
<path class="l1" d="M495.509 220.045L495.509 262.406"/>
<path class="l1" d="M434.994 220.045L434.994 262.406"/>
<path class="l1" d="M253.449 220.045L253.449 262.406"/>
<path class="l1" d="M223.191 280.56L235.294 280.56"/>
<path class="l1" d="M695.209 280.56L719.415 280.56"/>
<path class="l1" d="M707.312 280.56L707.312 365.281"/>
<path class="l1" d="M223.191 280.56L223.191 365.281"/>
<path class="l1" d="M465.252 280.56L465.252 365.281"/>
<path class="l1" d="M283.706 183.736L283.706 280.56"/>
<path class="l1" d="M404.737 183.736L404.737 280.56"/>
<path class="l1" d="M525.767 183.736L525.767 280.56"/>
<path class="l1" d="M646.797 183.736L646.797 280.56"/>
<path class="l1" d="M586.282 280.56L586.282 401.59"/>
<path class="l1" d="M344.222 280.56L344.222 401.59"/>
<path class="l1" d="M344.222 401.59L586.282 401.59"/>
<path class="l1" d="M283.706 183.736L646.797 183.736"/>
<path class="l1" d="M253.449 50.603L253.449 68.7575"/>
<path class="l1" d="M313.964 50.603L313.964 68.7575"/>
<path class="l1" d="M374.479 50.603L374.479 68.7575"/>
<path class="l1" d="M434.994 50.603L434.994 68.7575"/>
<path class="l1" d="M495.509 50.603L495.509 68.7575"/>
<path class="l1" d="M556.024 50.603L556.024 68.7575"/>
<path class="l1" d="M616.539 50.603L616.539 68.7575"/>
<path class="l1" d="M677.054 50.603L677.054 68.7575"/>
<path class="l1" d="M186.882 50.603L677.054 50.603"/>
<path class="l1" d="M271.603 86.912L295.81 86.912"/>
<path class="l1" d="M332.119 86.912L356.325 86.912"/>
<path class="l1" d="M392.634 86.912L416.84 86.912"/>
<path class="l1" d="M453.149 86.912L477.355 86.912"/>
<path class="l1" d="M513.664 86.912L537.87 86.912"/>
<path class="l1" d="M574.179 86.912L598.385 86.912"/>
<path class="l1" d="M634.694 86.912L658.9 86.912"/>
<path class="l1" d="M186.882 20.3454L235.294 20.3454"/>
<path class="l1" d="M235.294 20.3454L695.209 20.3454"/>
<path class="l1" d="M253.449 667.857L253.449 722.32"/>
<path class="l1" d="M186.882 667.857L253.449 667.857"/>
<path class="l1" d="M271.603 740.475L295.81 740.475"/>
<path class="l1" d="M332.119 740.475L356.325 740.475"/>
<path class="l1" d="M344.222 740.475L344.222 794.938"/>
<path class="l1" d="M313.964 704.166L313.964 722.32"/>
<path class="l1" d="M374.479 704.166L374.479 722.32"/>
<path class="l1" d="M313.964 704.166L374.479 704.166"/>
<path class="l1" d="M453.149 740.475L477.355 740.475"/>
<path class="l1" d="M253.449 667.857L434.994 667.857"/>
<path class="l1" d="M434.994 667.857L434.994 722.32"/>
<path class="l1" d="M392.634 740.475L416.84 740.475"/>
<path class="l1" d="M434.994 667.857L495.509 667.857"/>
<path class="l1" d="M495.509 667.857L495.509 722.32"/>
<path class="l1" d="M495.509 667.857L677.054 667.857"/>
<path class="l1" d="M677.054 667.857L677.054 722.32"/>
<path class="l1" d="M513.664 740.475L537.87 740.475"/>
<path class="l1" d="M574.179 740.475L598.385 740.475"/>
<path class="l1" d="M634.694 740.475L658.9 740.475"/>
<path class="l1" d="M586.282 740.475L586.282 794.938"/>
<path class="l1" d="M374.479 704.166L616.539 704.166"/>
<path class="l1" d="M616.539 704.166L616.539 722.32"/>
<path class="l1" d="M556.024 704.166L556.024 722.32"/>
<path class="l1" d="M332.119 534.724L356.325 534.724"/>
<path class="l1" d="M574.179 534.724L598.385 534.724"/>
<path class="l1" d="M271.603 534.724L295.81 534.724"/>
<path class="l1" d="M392.634 534.724L416.84 534.724"/>
<path class="l1" d="M344.222 450.002L344.222 534.724"/>
<path class="l1" d="M586.282 450.002L586.282 534.724"/>
<path class="l1" d="M313.964 498.414L374.479 498.414"/>
<path class="l1" d="M556.024 498.414L616.539 498.414"/>
<path class="l1" d="M253.449 480.26L253.449 516.569"/>
<path class="l1" d="M434.994 480.26L434.994 516.569"/>
<path class="l1" d="M495.509 480.26L495.509 516.569"/>
<path class="l1" d="M677.054 480.26L677.054 516.569"/>
<path class="l1" d="M634.694 534.724L658.9 534.724"/>
<path class="l1" d="M513.664 534.724L537.87 534.724"/>
<path class="l1" d="M453.149 534.724L477.355 534.724"/>
<path class="l1" d="M374.479 498.414L556.024 498.414"/>
<path class="l1" d="M186.882 450.002L586.282 450.002"/>
<path class="l1" d="M186.882 480.26L677.054 480.26"/>
<path class="l1" d="M198.985 498.414L313.964 498.414"/>
<path class="l1" d="M120.316 861.505L586.282 861.505"/>
<path class="l1" d="M120.316 704.166L313.964 704.166"/>
<path class="l1" d="M120.316 450.002L186.882 450.002"/>
<path class="l1" d="M120.316 20.3454L186.882 20.3454"/>
<path class="l1" d="M114.264 365.281L114.264 649.702"/>
<path class="l1" d="M138.47 365.281L223.191 365.281"/>
<path class="l1" d="M162.676 401.59L344.222 401.59"/>
<path class="l1" d="M138.47 401.59L138.47 631.548"/>
<path class="l1" d="M586.282 794.938L586.282 861.505"/>
<path class="l1" d="M344.222 794.938L344.222 861.505"/>
<path class="l1" d="M114.264 649.702L114.264 837.299"/>
<path class="l1" d="M138.47 837.299L283.706 837.299"/>
<path class="l1" d="M283.706 740.475L283.706 837.299"/>
<path class="l1" d="M138.47 631.548L138.47 807.041"/>
<path class="l1" d="M162.676 807.041L404.737 807.041"/>
<path class="l1" d="M404.737 740.475L404.737 807.041"/>
<path class="l1" d="M525.767 740.475L525.767 807.041"/>
<path class="l1" d="M404.737 807.041L525.767 807.041"/>
<path class="l1" d="M283.706 837.299L646.797 837.299"/>
<path class="l1" d="M646.797 740.475L646.797 837.299"/>
<path class="l1" d="M344.222 20.3454L344.222 86.912"/>
<path class="l1" d="M465.252 20.3454L465.252 86.912"/>
<path class="l1" d="M586.282 20.3454L586.282 86.912"/>
<path class="l1" d="M283.706 86.912L283.706 141.376"/>
<path class="l1" d="M283.706 141.376L646.797 141.376"/>
<path class="l1" d="M646.797 86.912L646.797 141.376"/>
<path class="l1" d="M525.767 86.912L525.767 141.376"/>
<path class="l1" d="M404.737 86.912L404.737 141.376"/>
<path class="l1" d="M465.252 141.376L465.252 183.736"/>
<path class="l1" d="M404.737 534.724L404.737 577.084"/>
<path class="l1" d="M404.737 577.084L525.767 577.084"/>
<path class="l1" d="M525.767 534.724L525.767 577.084"/>
<path class="l1" d="M283.706 534.724L283.706 595.239"/>
<path class="l1" d="M283.706 595.239L646.797 595.239"/>
<path class="l1" d="M646.797 534.724L646.797 595.239"/>
<path class="l1" d="M465.252 619.445L465.252 740.475"/>
<path class="l1" d="M223.191 534.724L223.191 619.445"/>
<path class="l1" d="M707.312 534.724L707.312 619.445"/>
<path class="l1" d="M84.0068 50.603L186.882 50.603"/>
<path class="l1" d="M84.0068 220.045L186.882 220.045"/>
<path class="l1" d="M84.0068 328.972L186.882 328.972"/>
<path class="l1" d="M84.0068 480.26L186.882 480.26"/>
<path class="l1" d="M84.0068 667.857L186.882 667.857"/>
<path class="l1" d="M59.8007 704.166L96.1098 704.166"/>
<path class="l1" d="M59.8007 861.505L96.1098 861.505"/>
<path class="l1" d="M59.8007 20.3454L96.1098 20.3454"/>
<path class="l1" d="M96.1098 20.3454L96.1098 450.002"/>
<path class="l1" d="M223.191 365.281L707.312 365.281"/>
<path class="l1" d="M174.779 262.406L174.779 280.56"/>
<path class="l1" d="M174.779 262.406L192.934 262.406"/>
<path class="l1" d="M737.57 262.406L755.724 262.406"/>
<path class="l1" d="M755.724 262.406L755.724 280.56"/>
<path class="l1" d="M707.312 20.3454L707.312 86.912"/>
<path class="l1" d="M695.209 20.3454L707.312 20.3454"/>
<path class="l1" d="M695.209 86.912L719.415 86.912"/>
<path class="l1" d="M737.57 68.7575L755.724 68.7575"/>
<path class="l1" d="M755.724 68.7575L755.724 86.912"/>
<path class="l1" d="M737.57 20.3454L737.57 68.7575"/>
<path class="l1" d="M707.312 20.3454L737.57 20.3454"/>
<path class="l1" d="M737.57 68.7575L737.57 262.406"/>
<path class="l1" d="M223.191 20.3454L223.191 86.912"/>
<path class="l1" d="M211.088 86.912L235.294 86.912"/>
<path class="l1" d="M174.779 68.7575L192.934 68.7575"/>
<path class="l1" d="M174.779 68.7575L174.779 86.912"/>
<path class="l1" d="M192.934 20.3454L192.934 68.7575"/>
<path class="l1" d="M192.934 68.7575L192.934 262.406"/>
<path class="l1" d="M211.088 280.56L223.191 280.56"/>
<path class="l1" d="M695.209 534.724L707.312 534.724"/>
<path class="l1" d="M223.191 534.724L235.294 534.724"/>
<path class="l1" d="M223.191 619.445L707.312 619.445"/>
<path class="l1" d="M180.831 498.414L198.985 498.414"/>
<path class="l1" d="M168.728 498.414L180.831 498.414"/>
<path class="l1" d="M616.539 498.414L616.539 516.569"/>
<path class="l1" d="M556.024 498.414L556.024 516.569"/>
<path class="l1" d="M465.252 498.414L465.252 534.724"/>
<path class="l1" d="M313.964 498.414L313.964 516.569"/>
<path class="l1" d="M374.479 498.414L374.479 516.569"/>
<path class="l1" d="M707.312 534.724L719.415 534.724"/>
<path class="l1" d="M737.57 516.569L755.724 516.569"/>
<path class="l1" d="M755.724 516.569L755.724 534.724"/>
<path class="l1" d="M616.539 498.414L804.136 498.414"/>
<path class="l1" d="M707.312 619.445L840.445 619.445"/>
<path class="l1" d="M737.57 262.406L737.57 516.569"/>
<path class="l1" d="M695.209 740.475L707.312 740.475"/>
<path class="l1" d="M707.312 667.857L707.312 740.475"/>
<path class="l1" d="M707.312 667.857L804.136 667.857"/>
<path class="l1" d="M804.136 498.414L804.136 667.857"/>
<path class="l1" d="M707.312 740.475L719.415 740.475"/>
<path class="l1" d="M737.57 722.32L755.724 722.32"/>
<path class="l1" d="M755.724 722.32L755.724 740.475"/>
<path class="l1" d="M586.282 861.505L755.724 861.505"/>
<path class="l1" d="M755.724 740.475L755.724 861.505"/>
<path class="l1" d="M59.8007 50.603L84.0068 50.603"/>
<path class="l1" d="M96.1098 20.3454L120.316 20.3454"/>
<path class="l1" d="M59.8007 220.045L84.0068 220.045"/>
<path class="l1" d="M59.8007 328.972L84.0068 328.972"/>
<path class="l1" d="M59.8007 480.26L84.0068 480.26"/>
<path class="l1" d="M114.264 365.281L138.47 365.281"/>
<path class="l1" d="M138.47 401.59L162.676 401.59"/>
<path class="l1" d="M96.1098 450.002L120.316 450.002"/>
<path class="l1" d="M211.088 534.724L223.191 534.724"/>
<path class="l1" d="M174.779 516.569L192.934 516.569"/>
<path class="l1" d="M174.779 516.569L174.779 534.724"/>
<path class="l1" d="M192.934 262.406L192.934 516.569"/>
<path class="l1" d="M156.625 498.414L168.728 498.414"/>
<path class="l1" d="M96.1098 704.166L120.316 704.166"/>
<path class="l1" d="M59.8007 667.857L84.0068 667.857"/>
<path class="l1" d="M138.47 807.041L162.676 807.041"/>
<path class="l1" d="M114.264 837.299L138.47 837.299"/>
<path class="l1" d="M96.1098 861.505L120.316 861.505"/>
<path class="l1" d="M223.191 643.651L223.191 740.475"/>
<path class="l1" d="M156.625 643.651L223.191 643.651"/>
<path class="l1" d="M156.625 498.414L156.625 643.651"/>
<path class="l1" d="M211.088 740.475L235.294 740.475"/>
<path class="l1" d="M174.779 722.32L192.934 722.32"/>
<path class="l1" d="M174.779 722.32L174.779 740.475"/>
<path class="l1" d="M174.779 740.475L174.779 861.505"/>
<circle class="l1" cx="96.1098" cy="20.3454" r="2.4206"/>
<circle class="l1" cx="96.1098" cy="20.3454" r="2.4206"/>
<circle class="l1" cx="96.1098" cy="20.3454" r="2.4206"/>
<circle class="l1" cx="192.934" cy="68.7575" r="2.4206"/>
<circle class="l1" cx="192.934" cy="262.406" r="2.4206"/>
<circle class="l1" cx="192.934" cy="20.3454" r="2.4206"/>
<circle class="l1" cx="192.934" cy="68.7575" r="2.4206"/>
<circle class="l1" cx="192.934" cy="68.7575" r="2.4206"/>
<circle class="l1" cx="223.191" cy="20.3454" r="2.4206"/>
<circle class="l1" cx="223.191" cy="86.912" r="2.4206"/>
<circle class="l1" cx="283.706" cy="86.912" r="2.4206"/>
<circle class="l1" cx="344.222" cy="20.3454" r="2.4206"/>
<circle class="l1" cx="344.222" cy="86.912" r="2.4206"/>
<circle class="l1" cx="313.964" cy="50.603" r="2.4206"/>
<circle class="l1" cx="253.449" cy="50.603" r="2.4206"/>
<circle class="l1" cx="192.934" cy="262.406" r="2.4206"/>
<circle class="l1" cx="223.191" cy="280.56" r="2.4206"/>
<circle class="l1" cx="192.934" cy="262.406" r="2.4206"/>
<circle class="l1" cx="223.191" cy="365.281" r="2.4206"/>
<circle class="l1" cx="223.191" cy="365.281" r="2.4206"/>
<circle class="l1" cx="344.222" cy="280.56" r="2.4206"/>
<circle class="l1" cx="344.222" cy="401.59" r="2.4206"/>
<circle class="l1" cx="283.706" cy="280.56" r="2.4206"/>
<circle class="l1" cx="223.191" cy="280.56" r="2.4206"/>
<circle class="l1" cx="223.191" cy="365.281" r="2.4206"/>
<circle class="l1" cx="223.191" cy="280.56" r="2.4206"/>
<circle class="l1" cx="253.449" cy="220.045" r="2.4206"/>
<circle class="l1" cx="313.964" cy="328.972" r="2.4206"/>
<circle class="l1" cx="223.191" cy="534.724" r="2.4206"/>
<circle class="l1" cx="313.964" cy="498.414" r="2.4206"/>
<circle class="l1" cx="223.191" cy="534.724" r="2.4206"/>
<circle class="l1" cx="223.191" cy="534.724" r="2.4206"/>
<circle class="l1" cx="283.706" cy="534.724" r="2.4206"/>
<circle class="l1" cx="344.222" cy="401.59" r="2.4206"/>
<circle class="l1" cx="313.964" cy="498.414" r="2.4206"/>
<circle class="l1" cx="253.449" cy="480.26" r="2.4206"/>
<circle class="l1" cx="313.964" cy="498.414" r="2.4206"/>
<circle class="l1" cx="374.479" cy="498.414" r="2.4206"/>
<circle class="l1" cx="344.222" cy="450.002" r="2.4206"/>
<circle class="l1" cx="344.222" cy="534.724" r="2.4206"/>
<circle class="l1" cx="344.222" cy="401.59" r="2.4206"/>
<circle class="l1" cx="174.779" cy="861.505" r="2.4206"/>
<circle class="l1" cx="223.191" cy="740.475" r="2.4206"/>
<circle class="l1" cx="707.312" cy="619.445" r="2.4206"/>
<circle class="l1" cx="283.706" cy="837.299" r="2.4206"/>
<circle class="l1" cx="404.737" cy="807.041" r="2.4206"/>
<circle class="l1" cx="283.706" cy="740.475" r="2.4206"/>
<circle class="l1" cx="283.706" cy="837.299" r="2.4206"/>
<circle class="l1" cx="283.706" cy="837.299" r="2.4206"/>
<circle class="l1" cx="344.222" cy="861.505" r="2.4206"/>
<circle class="l1" cx="313.964" cy="704.166" r="2.4206"/>
<circle class="l1" cx="253.449" cy="667.857" r="2.4206"/>
<circle class="l1" cx="434.994" cy="667.857" r="2.4206"/>
<circle class="l1" cx="313.964" cy="704.166" r="2.4206"/>
<circle class="l1" cx="374.479" cy="704.166" r="2.4206"/>
<circle class="l1" cx="313.964" cy="704.166" r="2.4206"/>
<circle class="l1" cx="344.222" cy="740.475" r="2.4206"/>
<circle class="l1" cx="253.449" cy="667.857" r="2.4206"/>
<circle class="l1" cx="253.449" cy="667.857" r="2.4206"/>
<circle class="l1" cx="586.282" cy="861.505" r="2.4206"/>
<circle class="l1" cx="404.737" cy="86.912" r="2.4206"/>
<circle class="l1" cx="404.737" cy="141.376" r="2.4206"/>
<circle class="l1" cx="525.767" cy="86.912" r="2.4206"/>
<circle class="l1" cx="525.767" cy="141.376" r="2.4206"/>
<circle class="l1" cx="586.282" cy="20.3454" r="2.4206"/>
<circle class="l1" cx="586.282" cy="86.912" r="2.4206"/>
<circle class="l1" cx="465.252" cy="20.3454" r="2.4206"/>
<circle class="l1" cx="465.252" cy="86.912" r="2.4206"/>
<circle class="l1" cx="556.024" cy="50.603" r="2.4206"/>
<circle class="l1" cx="495.509" cy="50.603" r="2.4206"/>
<circle class="l1" cx="434.994" cy="50.603" r="2.4206"/>
<circle class="l1" cx="374.479" cy="50.603" r="2.4206"/>
<circle class="l1" cx="465.252" cy="141.376" r="2.4206"/>
<circle class="l1" cx="465.252" cy="183.736" r="2.4206"/>
<circle class="l1" cx="586.282" cy="280.56" r="2.4206"/>
<circle class="l1" cx="525.767" cy="183.736" r="2.4206"/>
<circle class="l1" cx="525.767" cy="280.56" r="2.4206"/>
<circle class="l1" cx="404.737" cy="183.736" r="2.4206"/>
<circle class="l1" cx="404.737" cy="280.56" r="2.4206"/>
<circle class="l1" cx="465.252" cy="280.56" r="2.4206"/>
<circle class="l1" cx="465.252" cy="365.281" r="2.4206"/>
<circle class="l1" cx="434.994" cy="220.045" r="2.4206"/>
<circle class="l1" cx="495.509" cy="220.045" r="2.4206"/>
<circle class="l1" cx="374.479" cy="328.972" r="2.4206"/>
<circle class="l1" cx="556.024" cy="328.972" r="2.4206"/>
<circle class="l1" cx="374.479" cy="498.414" r="2.4206"/>
<circle class="l1" cx="465.252" cy="498.414" r="2.4206"/>
<circle class="l1" cx="465.252" cy="534.724" r="2.4206"/>
<circle class="l1" cx="556.024" cy="498.414" r="2.4206"/>
<circle class="l1" cx="525.767" cy="534.724" r="2.4206"/>
<circle class="l1" cx="404.737" cy="534.724" r="2.4206"/>
<circle class="l1" cx="374.479" cy="498.414" r="2.4206"/>
<circle class="l1" cx="556.024" cy="498.414" r="2.4206"/>
<circle class="l1" cx="495.509" cy="480.26" r="2.4206"/>
<circle class="l1" cx="434.994" cy="480.26" r="2.4206"/>
<circle class="l1" cx="556.024" cy="498.414" r="2.4206"/>
<circle class="l1" cx="616.539" cy="498.414" r="2.4206"/>
<circle class="l1" cx="586.282" cy="534.724" r="2.4206"/>
<circle class="l1" cx="465.252" cy="619.445" r="2.4206"/>
<circle class="l1" cx="465.252" cy="740.475" r="2.4206"/>
<circle class="l1" cx="404.737" cy="807.041" r="2.4206"/>
<circle class="l1" cx="525.767" cy="740.475" r="2.4206"/>
<circle class="l1" cx="404.737" cy="740.475" r="2.4206"/>
<circle class="l1" cx="404.737" cy="807.041" r="2.4206"/>
<circle class="l1" cx="586.282" cy="861.505" r="2.4206"/>
<circle class="l1" cx="556.024" cy="704.166" r="2.4206"/>
<circle class="l1" cx="374.479" cy="704.166" r="2.4206"/>
<circle class="l1" cx="586.282" cy="740.475" r="2.4206"/>
<circle class="l1" cx="495.509" cy="667.857" r="2.4206"/>
<circle class="l1" cx="495.509" cy="667.857" r="2.4206"/>
<circle class="l1" cx="434.994" cy="667.857" r="2.4206"/>
<circle class="l1" cx="495.509" cy="667.857" r="2.4206"/>
<circle class="l1" cx="434.994" cy="667.857" r="2.4206"/>
<circle class="l1" cx="374.479" cy="704.166" r="2.4206"/>
<circle class="l1" cx="586.282" cy="861.505" r="2.4206"/>
<circle class="l1" cx="737.57" cy="68.7575" r="2.4206"/>
<circle class="l1" cx="737.57" cy="262.406" r="2.4206"/>
<circle class="l1" cx="707.312" cy="20.3454" r="2.4206"/>
<circle class="l1" cx="737.57" cy="68.7575" r="2.4206"/>
<circle class="l1" cx="737.57" cy="68.7575" r="2.4206"/>
<circle class="l1" cx="707.312" cy="20.3454" r="2.4206"/>
<circle class="l1" cx="707.312" cy="20.3454" r="2.4206"/>
<circle class="l1" cx="707.312" cy="86.912" r="2.4206"/>
<circle class="l1" cx="646.797" cy="86.912" r="2.4206"/>
<circle class="l1" cx="616.539" cy="50.603" r="2.4206"/>
<circle class="l1" cx="737.57" cy="262.406" r="2.4206"/>
<circle class="l1" cx="737.57" cy="262.406" r="2.4206"/>
<circle class="l1" cx="646.797" cy="280.56" r="2.4206"/>
<circle class="l1" cx="707.312" cy="280.56" r="2.4206"/>
<circle class="l1" cx="616.539" cy="498.414" r="2.4206"/>
<circle class="l1" cx="707.312" cy="534.724" r="2.4206"/>
<circle class="l1" cx="616.539" cy="498.414" r="2.4206"/>
<circle class="l1" cx="707.312" cy="534.724" r="2.4206"/>
<circle class="l1" cx="707.312" cy="534.724" r="2.4206"/>
<circle class="l1" cx="707.312" cy="619.445" r="2.4206"/>
<circle class="l1" cx="646.797" cy="534.724" r="2.4206"/>
<circle class="l1" cx="707.312" cy="740.475" r="2.4206"/>
<circle class="l1" cx="707.312" cy="740.475" r="2.4206"/>
<circle class="l1" cx="707.312" cy="740.475" r="2.4206"/>
<circle class="l1" cx="707.312" cy="619.445" r="2.4206"/>
<circle class="l1" cx="646.797" cy="740.475" r="2.4206"/>
</svg>
