<svg xmlns="http://www.w3.org/2000/svg" width="1848" height="880" version="1.1">
<style type="text/css">
.l0{
 fill: #000000;
  stroke: #000000;
  stroke-linecap:round;
  stroke-linejoin:round;
  stroke-width: 2.6491;
}
.l1{
 fill: #00ccee;
  stroke: #00ccee;
  stroke-linecap:round;
  stroke-linejoin:round;
  stroke-width: 2.6491;
}
.l2{
  fill: none;
  stroke: #3f3f3f;
  stroke-linecap:round;
  stroke-linejoin:round;
  stroke-width: 2.6491;
}
.l3{
 fill: #cccccc; fill-opacity: 0.5;
  stroke: #cccccc;
  stroke-linecap:round;
  stroke-linejoin:round;
  stroke-width: 2.6491;
}
.l4{
 fill: #88dd00;
  stroke: #88dd00;
  stroke-linecap:round;
  stroke-linejoin:round;
  stroke-width: 2.6491;
}
.l5{
 fill: #bb2200;
  stroke: #bb2200;
  stroke-linecap:round;
  stroke-linejoin:round;
  stroke-width: 2.6491;
}
.l6{
 fill: #00ccee; fill-opacity: 0.5;
  stroke: #00ccee;
  stroke-linecap:round;
  stroke-linejoin:round;
  stroke-width: 2.6491;
}
.l7{
 fill: #ff0000; fill-opacity: 0.5;
  stroke: #ff0000;
  stroke-linecap:round;
  stroke-linejoin:round;
  stroke-width: 2.6491;
}
.l8{
 fill: #ffff00; fill-opacity: 0.5;
  stroke: #ffff00;
  stroke-linecap:round;
  stroke-linejoin:round;
  stroke-width: 2.6491;
}
.l9{
 fill: #ffffff; fill-opacity: 0.5;
  stroke: #ffffff;
  stroke-linecap:round;
  stroke-linejoin:round;
  stroke-width: 2.6491;
}
.l10{
 fill: #ff00ff;
  stroke: #ff00ff;
  stroke-linecap:round;
  stroke-linejoin:round;
  stroke-width: 2.6491;
}
.l11{
 fill: #00ff00; fill-opacity: 0.5;
  stroke: #00ff00;
  stroke-linecap:round;
  stroke-linejoin:round;
  stroke-width: 2.6491;
}
.l12{
 fill: #0044dd; fill-opacity: 0.5;
  stroke: #0044dd;
  stroke-linecap:round;
  stroke-linejoin:round;
  stroke-width: 2.6491;
}
.l13{
 fill: #aaaa00; fill-opacity: 0.5;
  stroke: #aaaa00;
  stroke-linecap:round;
  stroke-linejoin:round;
  stroke-width: 2.6491;
}
.l14{
  fill: none;
  stroke: #aaccaa;
  stroke-linecap:round;
  stroke-linejoin:round;
  stroke-width: 2.6491;
}
.l15{
 fill: #ff7777; fill-opacity: 0.5;
  stroke: #ff7777;
  stroke-linecap:round;
  stroke-linejoin:round;
  stroke-width: 2.6491;
}
.l16{
 fill: #bfff81; fill-opacity: 0.5;
  stroke: #bfff81;
  stroke-linecap:round;
  stroke-linejoin:round;
  stroke-width: 2.6491;
}
.l17{
  fill: none;
  stroke: #00ffcc;
  stroke-linecap:round;
  stroke-linejoin:round;
  stroke-width: 2.6491;
}
.l18{
 fill: #ce0097; fill-opacity: 0.5;
  stroke: #ce0097;
  stroke-linecap:round;
  stroke-linejoin:round;
  stroke-width: 2.6491;
}
.l19{
  fill: none;
  stroke: #d2d46b;
  stroke-linecap:round;
  stroke-linejoin:round;
  stroke-width: 2.6491;
}
.l20{
  fill: none;
  stroke: #ef6158;
  stroke-linecap:round;
  stroke-linejoin:round;
  stroke-width: 2.6491;
}
.l21{
  fill: none;
  stroke: #fdb200;
  stroke-linecap:round;
  stroke-linejoin:round;
  stroke-width: 2.6491;
}
text {font-family: Sans-Serif;}
</style>
<rect class="l0" x="0" y="0" width="1848" height="880"/>
<text fill="#00ccee"  xml:space="preserve" font-size="25.5099" transform="translate(370.466, 765.173)" >GND</text>
<text fill="#00ccee"  xml:space="preserve" font-size="25.5099" transform="translate(1081.8, 789.702)" >GND</text>
<text fill="#00ccee"  xml:space="preserve" font-size="25.5099" transform="translate(371.466, 193.347)" >VDD</text>
<text fill="#00ccee"  xml:space="preserve" font-size="25.5099" transform="translate(1082.8, 168.818)" >VDD</text>
<text fill="#00ccee"  xml:space="preserve" font-size="42.0913" transform="translate(1374.98, 474.399)" >Vout</text>
<text fill="#00ccee"  xml:space="preserve" font-size="42.0913" transform="translate(840.673, 409.232)" >V1</text>
<text fill="#00ccee"  xml:space="preserve" font-size="42.0913" transform="translate(840.673, 556.404)" >V2</text>
<text fill="#00ccee"  xml:space="preserve" font-size="42.0913" transform="translate(28.7532, 482.818)" >Vbp</text>
<text fill="#cccccc"  xml:space="preserve" font-size="25.5099" transform="translate(1221.68, 524.485)" >X1</text>
<text fill="#cccccc"  xml:space="preserve" font-size="25.5099" transform="translate(289.587, 647.128)" >X2</text>
<text fill="#cccccc"  xml:space="preserve" font-size="25.5099" transform="translate(436.759, 573.542)" >Vbn</text>
<text fill="#cccccc"  xml:space="preserve" font-size="25.5099" transform="translate(436.759, 475.427)" >Vcn</text>
<text fill="#cccccc"  xml:space="preserve" font-size="25.5099" transform="translate(436.759, 377.312)" >Vcp</text>
<text fill="#cccccc"  xml:space="preserve" font-size="25.5099" transform="translate(314.115, 475.427)" >Vbp</text>
<path class="l4" d="M988.656 317.356L988.656 611.701"/>
<path class="l4" d="M988.656 317.356L1283 464.529"/>
<path class="l4" d="M988.656 611.701L1283 464.529"/>
<path class="l4" d="M1025.45 378.678L1025.45 403.207"/>
<path class="l4" d="M1013.18 390.943L1037.71 390.943"/>
<path class="l4" d="M1013.18 538.115L1037.71 538.115"/>
<path class="l4" d="M915.069 390.943L988.656 390.943"/>
<path class="l4" d="M915.069 538.115L988.656 538.115"/>
<path class="l4" d="M1283 464.529L1356.59 464.529"/>
<path class="l4" d="M1037.71 587.172L1037.71 660.759"/>
<path class="l4" d="M1037.71 268.299L1037.71 341.885"/>
<path class="l4" d="M1184.89 268.299L1184.89 415.471"/>
<path class="l4" d="M1184.89 513.586L1184.89 660.759"/>
<path class="l4" d="M1111.3 219.241L1111.3 378.678"/>
<path class="l4" d="M1111.3 550.379L1111.3 709.816"/>
<path class="l4" d="M301.851 317.356L301.851 611.701"/>
<path class="l4" d="M301.851 317.356L498.081 317.356"/>
<path class="l4" d="M498.081 317.356L498.081 611.701"/>
<path class="l4" d="M301.851 611.701L498.081 611.701"/>
<path class="l4" d="M498.081 366.414L571.667 366.414"/>
<path class="l4" d="M498.081 464.529L571.667 464.529"/>
<path class="l4" d="M498.081 562.644L571.667 562.644"/>
<path class="l4" d="M228.265 464.529L301.851 464.529"/>
<path class="l4" d="M399.966 243.77L399.966 317.356"/>
<path class="l4" d="M399.966 611.701L399.966 685.287"/>
<path class="l4" d="M399.966 685.287L399.966 697.552"/>
<path class="l4" d="M376.97 697.552L422.962 697.552"/>
<path class="l4" d="M399.966 729.746L422.962 697.552"/>
<path class="l4" d="M376.97 697.552L399.966 729.746"/>
<path class="l4" d="M1111.3 709.816L1111.3 722.08"/>
<path class="l4" d="M1088.3 722.08L1134.29 722.08"/>
<path class="l4" d="M1111.3 754.274L1134.29 722.08"/>
<path class="l4" d="M1088.3 722.08L1111.3 754.274"/>
<path class="l4" d="M399.966 219.241L399.966 243.77"/>
<path class="l4" d="M376.97 219.241L422.962 219.241"/>
<circle class="l4" cx="399.966" cy="219.241" r="8.58506" />
<path class="l4" d="M1111.3 194.713L1111.3 219.241"/>
<path class="l4" d="M1088.3 194.713L1134.29 194.713"/>
<circle class="l4" cx="1111.3" cy="194.713" r="8.58506" />
<path class="l5" d="M1105.17 213.109L1117.43 213.109L1117.43 225.374L1105.17 225.374L1105.17 213.109z"/>
<path class="l5" d="M1178.75 262.167L1191.02 262.167L1191.02 274.431L1178.75 274.431L1178.75 262.167z"/>
<path class="l5" d="M1031.58 262.167L1043.85 262.167L1043.85 274.431L1031.58 274.431L1031.58 262.167z"/>
<path class="l5" d="M1350.45 458.397L1362.72 458.397L1362.72 470.661L1350.45 470.661L1350.45 458.397z"/>
<path class="l5" d="M1178.75 654.626L1191.02 654.626L1191.02 666.891L1178.75 666.891L1178.75 654.626z"/>
<path class="l5" d="M1031.58 654.626L1043.85 654.626L1043.85 666.891L1031.58 666.891L1031.58 654.626z"/>
<path class="l5" d="M908.937 384.81L921.201 384.81L921.201 397.075L908.937 397.075L908.937 384.81z"/>
<path class="l5" d="M908.937 531.983L921.201 531.983L921.201 544.247L908.937 544.247L908.937 531.983z"/>
<path class="l5" d="M1105.17 703.684L1117.43 703.684L1117.43 715.948L1105.17 715.948L1105.17 703.684z"/>
<path class="l5" d="M393.834 237.638L406.098 237.638L406.098 249.902L393.834 249.902L393.834 237.638z"/>
<path class="l5" d="M565.535 360.282L577.799 360.282L577.799 372.546L565.535 372.546L565.535 360.282z"/>
<path class="l5" d="M222.133 458.397L234.397 458.397L234.397 470.661L222.133 470.661L222.133 458.397z"/>
<path class="l5" d="M565.535 458.397L577.799 458.397L577.799 470.661L565.535 470.661L565.535 458.397z"/>
<path class="l5" d="M565.535 556.511L577.799 556.511L577.799 568.776L565.535 568.776L565.535 556.511z"/>
<path class="l5" d="M393.834 679.155L406.098 679.155L406.098 691.42L393.834 691.42L393.834 679.155z"/>
<path class="l5" d="M398.739 684.061L401.192 684.061L401.192 686.514L398.739 686.514L398.739 684.061z"/>
<path class="l5" d="M1110.07 708.59L1112.53 708.59L1112.53 711.043L1110.07 711.043L1110.07 708.59z"/>
<path class="l5" d="M398.739 242.544L401.192 242.544L401.192 244.997L398.739 244.997L398.739 242.544z"/>
<path class="l5" d="M1110.07 218.015L1112.53 218.015L1112.53 220.468L1110.07 220.468L1110.07 218.015z"/>
<path class="l5" d="M1353.52 461.463L1359.65 461.463L1359.65 467.595L1353.52 467.595L1353.52 461.463z"/>
<path class="l5" d="M912.003 387.876L918.135 387.876L918.135 394.009L912.003 394.009L912.003 387.876z"/>
<path class="l5" d="M912.003 535.049L918.135 535.049L918.135 541.181L912.003 541.181L912.003 535.049z"/>
<path class="l5" d="M127.084 461.463L133.216 461.463L133.216 467.595L127.084 467.595L127.084 461.463z"/>
<path class="l1" d="M1037.71 219.241L1037.71 268.299"/>
<path class="l1" d="M571.667 464.529L694.311 464.529"/>
<path class="l1" d="M694.311 464.529L694.311 709.816"/>
<path class="l1" d="M694.311 709.816L1037.71 709.816"/>
<path class="l1" d="M1037.71 660.759L1037.71 709.816"/>
<path class="l1" d="M571.667 366.414L694.311 366.414"/>
<path class="l1" d="M694.311 219.241L694.311 366.414"/>
<path class="l1" d="M694.311 219.241L1037.71 219.241"/>
<path class="l1" d="M571.667 562.644L571.667 856.989"/>
<path class="l1" d="M571.667 856.989L1184.89 856.989"/>
<path class="l1" d="M1184.89 660.759L1184.89 856.989"/>
<path class="l1" d="M179.207 464.529L228.265 464.529"/>
<path class="l1" d="M179.207 23.0115L179.207 464.529"/>
<path class="l1" d="M179.207 23.0115L1184.89 23.0115"/>
<path class="l1" d="M1184.89 23.0115L1184.89 268.299"/>
<path class="l1" d="M130.15 464.529L179.207 464.529"/>
<circle class="l1" cx="179.207" cy="464.529" r="9.81149"/>
<circle class="l1" cx="179.207" cy="464.529" r="9.81149"/>
<circle class="l1" cx="179.207" cy="464.529" r="9.81149"/>
</svg>
